  0
SECTION
  2
BLOCKS
  0
ENDSEC
  0
SECTION
  2
ENTITIES
  0
LINE
  8
0
 10
-6.6
 20
-6.6
 11
83.6
 21
-6.6
  0
LINE
  8
0
 10
83.6
 20
-6.6
 11
83.6
 21
171.6
  0
LINE
  8
0
 10
83.6
 20
171.6
 11
-6.6
 21
171.6
  0
LINE
  8
0
 10
-6.6
 20
171.6
 11
-6.6
 21
-6.6
  0
LINE
  8
0
 10
-5
 20
-5
 11
-5
 21
170
  0
LINE
  8
0
 10
-5
 20
170
 11
82
 21
170
  0
LINE
  8
0
 10
82
 20
170
 11
82
 21
-5
  0
LINE
  8
0
 10
82
 20
-5
 11
-5
 21
-5
  0
LINE
  8
0
 10
-1.5
 20
135.5
 11
78.5
 21
135.5
  0
LINE
  8
0
 10
78.5
 20
135.5
 11
78.5
 21
166.5
  0
LINE
  8
0
 10
78.5
 20
166.5
 11
-1.5
 21
166.5
  0
LINE
  8
0
 10
-1.5
 20
166.5
 11
-1.5
 21
135.5
  0
LINE
  8
0
 10
0.5
 20
1.25
 11
0.511395
 21
1.11976
  0
LINE
  8
0
 10
0.511395
 20
1.11976
 11
0.545231
 21
0.993485
  0
LINE
  8
0
 10
0.545231
 20
0.993485
 11
0.600481
 21
0.875
  0
LINE
  8
0
 10
0.600481
 20
0.875
 11
0.675467
 21
0.76791
  0
LINE
  8
0
 10
0.675467
 20
0.76791
 11
0.76791
 21
0.675467
  0
LINE
  8
0
 10
0.76791
 20
0.675467
 11
0.875
 21
0.600481
  0
LINE
  8
0
 10
0.875
 20
0.600481
 11
0.993485
 21
0.545231
  0
LINE
  8
0
 10
0.993485
 20
0.545231
 11
1.11976
 21
0.511395
  0
LINE
  8
0
 10
1.11976
 20
0.511395
 11
1.25
 21
0.5
  0
LINE
  8
0
 10
1.25
 20
0.5
 11
17.75
 21
0.5
  0
LINE
  8
0
 10
17.75
 20
0.5
 11
17.8802
 21
0.511395
  0
LINE
  8
0
 10
17.8802
 20
0.511395
 11
18.0065
 21
0.545231
  0
LINE
  8
0
 10
18.0065
 20
0.545231
 11
18.125
 21
0.600481
  0
LINE
  8
0
 10
18.125
 20
0.600481
 11
18.2321
 21
0.675467
  0
LINE
  8
0
 10
18.2321
 20
0.675467
 11
18.3245
 21
0.76791
  0
LINE
  8
0
 10
18.3245
 20
0.76791
 11
18.3995
 21
0.875
  0
LINE
  8
0
 10
18.3995
 20
0.875
 11
18.4548
 21
0.993485
  0
LINE
  8
0
 10
18.4548
 20
0.993485
 11
18.4886
 21
1.11976
  0
LINE
  8
0
 10
18.4886
 20
1.11976
 11
18.5
 21
1.25
  0
LINE
  8
0
 10
18.5
 20
1.25
 11
18.5
 21
17.75
  0
LINE
  8
0
 10
18.5
 20
17.75
 11
18.4886
 21
17.8802
  0
LINE
  8
0
 10
18.4886
 20
17.8802
 11
18.4548
 21
18.0065
  0
LINE
  8
0
 10
18.4548
 20
18.0065
 11
18.3995
 21
18.125
  0
LINE
  8
0
 10
18.3995
 20
18.125
 11
18.3245
 21
18.2321
  0
LINE
  8
0
 10
18.3245
 20
18.2321
 11
18.2321
 21
18.3245
  0
LINE
  8
0
 10
18.2321
 20
18.3245
 11
18.125
 21
18.3995
  0
LINE
  8
0
 10
18.125
 20
18.3995
 11
18.0065
 21
18.4548
  0
LINE
  8
0
 10
18.0065
 20
18.4548
 11
17.8802
 21
18.4886
  0
LINE
  8
0
 10
17.8802
 20
18.4886
 11
17.75
 21
18.5
  0
LINE
  8
0
 10
17.75
 20
18.5
 11
1.25
 21
18.5
  0
LINE
  8
0
 10
1.25
 20
18.5
 11
1.11976
 21
18.4886
  0
LINE
  8
0
 10
1.11976
 20
18.4886
 11
0.993485
 21
18.4548
  0
LINE
  8
0
 10
0.993485
 20
18.4548
 11
0.875
 21
18.3995
  0
LINE
  8
0
 10
0.875
 20
18.3995
 11
0.76791
 21
18.3245
  0
LINE
  8
0
 10
0.76791
 20
18.3245
 11
0.675467
 21
18.2321
  0
LINE
  8
0
 10
0.675467
 20
18.2321
 11
0.600481
 21
18.125
  0
LINE
  8
0
 10
0.600481
 20
18.125
 11
0.545231
 21
18.0065
  0
LINE
  8
0
 10
0.545231
 20
18.0065
 11
0.511395
 21
17.8802
  0
LINE
  8
0
 10
0.511395
 20
17.8802
 11
0.5
 21
17.75
  0
LINE
  8
0
 10
0.5
 20
17.75
 11
0.5
 21
1.25
  0
LINE
  8
0
 10
1.5
 20
2.25
 11
1.5
 21
16.75
  0
LINE
  8
0
 10
1.5
 20
16.75
 11
1.51139
 21
16.8802
  0
LINE
  8
0
 10
1.51139
 20
16.8802
 11
1.54523
 21
17.0065
  0
LINE
  8
0
 10
1.54523
 20
17.0065
 11
1.60048
 21
17.125
  0
LINE
  8
0
 10
1.60048
 20
17.125
 11
1.67547
 21
17.2321
  0
LINE
  8
0
 10
1.67547
 20
17.2321
 11
1.76791
 21
17.3245
  0
LINE
  8
0
 10
1.76791
 20
17.3245
 11
1.875
 21
17.3995
  0
LINE
  8
0
 10
1.875
 20
17.3995
 11
1.99349
 21
17.4548
  0
LINE
  8
0
 10
1.99349
 20
17.4548
 11
2.11976
 21
17.4886
  0
LINE
  8
0
 10
2.11976
 20
17.4886
 11
2.25
 21
17.5
  0
LINE
  8
0
 10
2.25
 20
17.5
 11
16.75
 21
17.5
  0
LINE
  8
0
 10
16.75
 20
17.5
 11
16.8802
 21
17.4886
  0
LINE
  8
0
 10
16.8802
 20
17.4886
 11
17.0065
 21
17.4548
  0
LINE
  8
0
 10
17.0065
 20
17.4548
 11
17.125
 21
17.3995
  0
LINE
  8
0
 10
17.125
 20
17.3995
 11
17.2321
 21
17.3245
  0
LINE
  8
0
 10
17.2321
 20
17.3245
 11
17.3245
 21
17.2321
  0
LINE
  8
0
 10
17.3245
 20
17.2321
 11
17.3995
 21
17.125
  0
LINE
  8
0
 10
17.3995
 20
17.125
 11
17.4548
 21
17.0065
  0
LINE
  8
0
 10
17.4548
 20
17.0065
 11
17.4886
 21
16.8802
  0
LINE
  8
0
 10
17.4886
 20
16.8802
 11
17.5
 21
16.75
  0
LINE
  8
0
 10
17.5
 20
16.75
 11
17.5
 21
2.25
  0
LINE
  8
0
 10
17.5
 20
2.25
 11
17.4886
 21
2.11976
  0
LINE
  8
0
 10
17.4886
 20
2.11976
 11
17.4548
 21
1.99349
  0
LINE
  8
0
 10
17.4548
 20
1.99349
 11
17.3995
 21
1.875
  0
LINE
  8
0
 10
17.3995
 20
1.875
 11
17.3245
 21
1.76791
  0
LINE
  8
0
 10
17.3245
 20
1.76791
 11
17.2321
 21
1.67547
  0
LINE
  8
0
 10
17.2321
 20
1.67547
 11
17.125
 21
1.60048
  0
LINE
  8
0
 10
17.125
 20
1.60048
 11
17.0065
 21
1.54523
  0
LINE
  8
0
 10
17.0065
 20
1.54523
 11
16.8802
 21
1.51139
  0
LINE
  8
0
 10
16.8802
 20
1.51139
 11
16.75
 21
1.5
  0
LINE
  8
0
 10
16.75
 20
1.5
 11
2.25
 21
1.5
  0
LINE
  8
0
 10
2.25
 20
1.5
 11
2.11976
 21
1.51139
  0
LINE
  8
0
 10
2.11976
 20
1.51139
 11
1.99349
 21
1.54523
  0
LINE
  8
0
 10
1.99349
 20
1.54523
 11
1.875
 21
1.60048
  0
LINE
  8
0
 10
1.875
 20
1.60048
 11
1.76791
 21
1.67547
  0
LINE
  8
0
 10
1.76791
 20
1.67547
 11
1.67547
 21
1.76791
  0
LINE
  8
0
 10
1.67547
 20
1.76791
 11
1.60048
 21
1.875
  0
LINE
  8
0
 10
1.60048
 20
1.875
 11
1.54523
 21
1.99349
  0
LINE
  8
0
 10
1.54523
 20
1.99349
 11
1.51139
 21
2.11976
  0
LINE
  8
0
 10
1.51139
 20
2.11976
 11
1.5
 21
2.25
  0
LINE
  8
0
 10
0.5
 20
20.25
 11
0.511395
 21
20.1198
  0
LINE
  8
0
 10
0.511395
 20
20.1198
 11
0.545231
 21
19.9935
  0
LINE
  8
0
 10
0.545231
 20
19.9935
 11
0.600481
 21
19.875
  0
LINE
  8
0
 10
0.600481
 20
19.875
 11
0.675467
 21
19.7679
  0
LINE
  8
0
 10
0.675467
 20
19.7679
 11
0.76791
 21
19.6755
  0
LINE
  8
0
 10
0.76791
 20
19.6755
 11
0.875
 21
19.6005
  0
LINE
  8
0
 10
0.875
 20
19.6005
 11
0.993485
 21
19.5452
  0
LINE
  8
0
 10
0.993485
 20
19.5452
 11
1.11976
 21
19.5114
  0
LINE
  8
0
 10
1.11976
 20
19.5114
 11
1.25
 21
19.5
  0
LINE
  8
0
 10
1.25
 20
19.5
 11
17.75
 21
19.5
  0
LINE
  8
0
 10
17.75
 20
19.5
 11
17.8802
 21
19.5114
  0
LINE
  8
0
 10
17.8802
 20
19.5114
 11
18.0065
 21
19.5452
  0
LINE
  8
0
 10
18.0065
 20
19.5452
 11
18.125
 21
19.6005
  0
LINE
  8
0
 10
18.125
 20
19.6005
 11
18.2321
 21
19.6755
  0
LINE
  8
0
 10
18.2321
 20
19.6755
 11
18.3245
 21
19.7679
  0
LINE
  8
0
 10
18.3245
 20
19.7679
 11
18.3995
 21
19.875
  0
LINE
  8
0
 10
18.3995
 20
19.875
 11
18.4548
 21
19.9935
  0
LINE
  8
0
 10
18.4548
 20
19.9935
 11
18.4886
 21
20.1198
  0
LINE
  8
0
 10
18.4886
 20
20.1198
 11
18.5
 21
20.25
  0
LINE
  8
0
 10
18.5
 20
20.25
 11
18.5
 21
36.75
  0
LINE
  8
0
 10
18.5
 20
36.75
 11
18.4886
 21
36.8802
  0
LINE
  8
0
 10
18.4886
 20
36.8802
 11
18.4548
 21
37.0065
  0
LINE
  8
0
 10
18.4548
 20
37.0065
 11
18.3995
 21
37.125
  0
LINE
  8
0
 10
18.3995
 20
37.125
 11
18.3245
 21
37.2321
  0
LINE
  8
0
 10
18.3245
 20
37.2321
 11
18.2321
 21
37.3245
  0
LINE
  8
0
 10
18.2321
 20
37.3245
 11
18.125
 21
37.3995
  0
LINE
  8
0
 10
18.125
 20
37.3995
 11
18.0065
 21
37.4548
  0
LINE
  8
0
 10
18.0065
 20
37.4548
 11
17.8802
 21
37.4886
  0
LINE
  8
0
 10
17.8802
 20
37.4886
 11
17.75
 21
37.5
  0
LINE
  8
0
 10
17.75
 20
37.5
 11
1.25
 21
37.5
  0
LINE
  8
0
 10
1.25
 20
37.5
 11
1.11976
 21
37.4886
  0
LINE
  8
0
 10
1.11976
 20
37.4886
 11
0.993485
 21
37.4548
  0
LINE
  8
0
 10
0.993485
 20
37.4548
 11
0.875
 21
37.3995
  0
LINE
  8
0
 10
0.875
 20
37.3995
 11
0.76791
 21
37.3245
  0
LINE
  8
0
 10
0.76791
 20
37.3245
 11
0.675467
 21
37.2321
  0
LINE
  8
0
 10
0.675467
 20
37.2321
 11
0.600481
 21
37.125
  0
LINE
  8
0
 10
0.600481
 20
37.125
 11
0.545231
 21
37.0065
  0
LINE
  8
0
 10
0.545231
 20
37.0065
 11
0.511395
 21
36.8802
  0
LINE
  8
0
 10
0.511395
 20
36.8802
 11
0.5
 21
36.75
  0
LINE
  8
0
 10
0.5
 20
36.75
 11
0.5
 21
20.25
  0
LINE
  8
0
 10
1.5
 20
21.25
 11
1.5
 21
35.75
  0
LINE
  8
0
 10
1.5
 20
35.75
 11
1.51139
 21
35.8802
  0
LINE
  8
0
 10
1.51139
 20
35.8802
 11
1.54523
 21
36.0065
  0
LINE
  8
0
 10
1.54523
 20
36.0065
 11
1.60048
 21
36.125
  0
LINE
  8
0
 10
1.60048
 20
36.125
 11
1.67547
 21
36.2321
  0
LINE
  8
0
 10
1.67547
 20
36.2321
 11
1.76791
 21
36.3245
  0
LINE
  8
0
 10
1.76791
 20
36.3245
 11
1.875
 21
36.3995
  0
LINE
  8
0
 10
1.875
 20
36.3995
 11
1.99349
 21
36.4548
  0
LINE
  8
0
 10
1.99349
 20
36.4548
 11
2.11976
 21
36.4886
  0
LINE
  8
0
 10
2.11976
 20
36.4886
 11
2.25
 21
36.5
  0
LINE
  8
0
 10
2.25
 20
36.5
 11
16.75
 21
36.5
  0
LINE
  8
0
 10
16.75
 20
36.5
 11
16.8802
 21
36.4886
  0
LINE
  8
0
 10
16.8802
 20
36.4886
 11
17.0065
 21
36.4548
  0
LINE
  8
0
 10
17.0065
 20
36.4548
 11
17.125
 21
36.3995
  0
LINE
  8
0
 10
17.125
 20
36.3995
 11
17.2321
 21
36.3245
  0
LINE
  8
0
 10
17.2321
 20
36.3245
 11
17.3245
 21
36.2321
  0
LINE
  8
0
 10
17.3245
 20
36.2321
 11
17.3995
 21
36.125
  0
LINE
  8
0
 10
17.3995
 20
36.125
 11
17.4548
 21
36.0065
  0
LINE
  8
0
 10
17.4548
 20
36.0065
 11
17.4886
 21
35.8802
  0
LINE
  8
0
 10
17.4886
 20
35.8802
 11
17.5
 21
35.75
  0
LINE
  8
0
 10
17.5
 20
35.75
 11
17.5
 21
21.25
  0
LINE
  8
0
 10
17.5
 20
21.25
 11
17.4886
 21
21.1198
  0
LINE
  8
0
 10
17.4886
 20
21.1198
 11
17.4548
 21
20.9935
  0
LINE
  8
0
 10
17.4548
 20
20.9935
 11
17.3995
 21
20.875
  0
LINE
  8
0
 10
17.3995
 20
20.875
 11
17.3245
 21
20.7679
  0
LINE
  8
0
 10
17.3245
 20
20.7679
 11
17.2321
 21
20.6755
  0
LINE
  8
0
 10
17.2321
 20
20.6755
 11
17.125
 21
20.6005
  0
LINE
  8
0
 10
17.125
 20
20.6005
 11
17.0065
 21
20.5452
  0
LINE
  8
0
 10
17.0065
 20
20.5452
 11
16.8802
 21
20.5114
  0
LINE
  8
0
 10
16.8802
 20
20.5114
 11
16.75
 21
20.5
  0
LINE
  8
0
 10
16.75
 20
20.5
 11
2.25
 21
20.5
  0
LINE
  8
0
 10
2.25
 20
20.5
 11
2.11976
 21
20.5114
  0
LINE
  8
0
 10
2.11976
 20
20.5114
 11
1.99349
 21
20.5452
  0
LINE
  8
0
 10
1.99349
 20
20.5452
 11
1.875
 21
20.6005
  0
LINE
  8
0
 10
1.875
 20
20.6005
 11
1.76791
 21
20.6755
  0
LINE
  8
0
 10
1.76791
 20
20.6755
 11
1.67547
 21
20.7679
  0
LINE
  8
0
 10
1.67547
 20
20.7679
 11
1.60048
 21
20.875
  0
LINE
  8
0
 10
1.60048
 20
20.875
 11
1.54523
 21
20.9935
  0
LINE
  8
0
 10
1.54523
 20
20.9935
 11
1.51139
 21
21.1198
  0
LINE
  8
0
 10
1.51139
 20
21.1198
 11
1.5
 21
21.25
  0
LINE
  8
0
 10
0.5
 20
39.25
 11
0.511395
 21
39.1198
  0
LINE
  8
0
 10
0.511395
 20
39.1198
 11
0.545231
 21
38.9935
  0
LINE
  8
0
 10
0.545231
 20
38.9935
 11
0.600481
 21
38.875
  0
LINE
  8
0
 10
0.600481
 20
38.875
 11
0.675467
 21
38.7679
  0
LINE
  8
0
 10
0.675467
 20
38.7679
 11
0.76791
 21
38.6755
  0
LINE
  8
0
 10
0.76791
 20
38.6755
 11
0.875
 21
38.6005
  0
LINE
  8
0
 10
0.875
 20
38.6005
 11
0.993485
 21
38.5452
  0
LINE
  8
0
 10
0.993485
 20
38.5452
 11
1.11976
 21
38.5114
  0
LINE
  8
0
 10
1.11976
 20
38.5114
 11
1.25
 21
38.5
  0
LINE
  8
0
 10
1.25
 20
38.5
 11
17.75
 21
38.5
  0
LINE
  8
0
 10
17.75
 20
38.5
 11
17.8802
 21
38.5114
  0
LINE
  8
0
 10
17.8802
 20
38.5114
 11
18.0065
 21
38.5452
  0
LINE
  8
0
 10
18.0065
 20
38.5452
 11
18.125
 21
38.6005
  0
LINE
  8
0
 10
18.125
 20
38.6005
 11
18.2321
 21
38.6755
  0
LINE
  8
0
 10
18.2321
 20
38.6755
 11
18.3245
 21
38.7679
  0
LINE
  8
0
 10
18.3245
 20
38.7679
 11
18.3995
 21
38.875
  0
LINE
  8
0
 10
18.3995
 20
38.875
 11
18.4548
 21
38.9935
  0
LINE
  8
0
 10
18.4548
 20
38.9935
 11
18.4886
 21
39.1198
  0
LINE
  8
0
 10
18.4886
 20
39.1198
 11
18.5
 21
39.25
  0
LINE
  8
0
 10
18.5
 20
39.25
 11
18.5
 21
55.75
  0
LINE
  8
0
 10
18.5
 20
55.75
 11
18.4886
 21
55.8802
  0
LINE
  8
0
 10
18.4886
 20
55.8802
 11
18.4548
 21
56.0065
  0
LINE
  8
0
 10
18.4548
 20
56.0065
 11
18.3995
 21
56.125
  0
LINE
  8
0
 10
18.3995
 20
56.125
 11
18.3245
 21
56.2321
  0
LINE
  8
0
 10
18.3245
 20
56.2321
 11
18.2321
 21
56.3245
  0
LINE
  8
0
 10
18.2321
 20
56.3245
 11
18.125
 21
56.3995
  0
LINE
  8
0
 10
18.125
 20
56.3995
 11
18.0065
 21
56.4548
  0
LINE
  8
0
 10
18.0065
 20
56.4548
 11
17.8802
 21
56.4886
  0
LINE
  8
0
 10
17.8802
 20
56.4886
 11
17.75
 21
56.5
  0
LINE
  8
0
 10
17.75
 20
56.5
 11
1.25
 21
56.5
  0
LINE
  8
0
 10
1.25
 20
56.5
 11
1.11976
 21
56.4886
  0
LINE
  8
0
 10
1.11976
 20
56.4886
 11
0.993485
 21
56.4548
  0
LINE
  8
0
 10
0.993485
 20
56.4548
 11
0.875
 21
56.3995
  0
LINE
  8
0
 10
0.875
 20
56.3995
 11
0.76791
 21
56.3245
  0
LINE
  8
0
 10
0.76791
 20
56.3245
 11
0.675467
 21
56.2321
  0
LINE
  8
0
 10
0.675467
 20
56.2321
 11
0.600481
 21
56.125
  0
LINE
  8
0
 10
0.600481
 20
56.125
 11
0.545231
 21
56.0065
  0
LINE
  8
0
 10
0.545231
 20
56.0065
 11
0.511395
 21
55.8802
  0
LINE
  8
0
 10
0.511395
 20
55.8802
 11
0.5
 21
55.75
  0
LINE
  8
0
 10
0.5
 20
55.75
 11
0.5
 21
39.25
  0
LINE
  8
0
 10
1.5
 20
40.25
 11
1.5
 21
54.75
  0
LINE
  8
0
 10
1.5
 20
54.75
 11
1.51139
 21
54.8802
  0
LINE
  8
0
 10
1.51139
 20
54.8802
 11
1.54523
 21
55.0065
  0
LINE
  8
0
 10
1.54523
 20
55.0065
 11
1.60048
 21
55.125
  0
LINE
  8
0
 10
1.60048
 20
55.125
 11
1.67547
 21
55.2321
  0
LINE
  8
0
 10
1.67547
 20
55.2321
 11
1.76791
 21
55.3245
  0
LINE
  8
0
 10
1.76791
 20
55.3245
 11
1.875
 21
55.3995
  0
LINE
  8
0
 10
1.875
 20
55.3995
 11
1.99349
 21
55.4548
  0
LINE
  8
0
 10
1.99349
 20
55.4548
 11
2.11976
 21
55.4886
  0
LINE
  8
0
 10
2.11976
 20
55.4886
 11
2.25
 21
55.5
  0
LINE
  8
0
 10
2.25
 20
55.5
 11
16.75
 21
55.5
  0
LINE
  8
0
 10
16.75
 20
55.5
 11
16.8802
 21
55.4886
  0
LINE
  8
0
 10
16.8802
 20
55.4886
 11
17.0065
 21
55.4548
  0
LINE
  8
0
 10
17.0065
 20
55.4548
 11
17.125
 21
55.3995
  0
LINE
  8
0
 10
17.125
 20
55.3995
 11
17.2321
 21
55.3245
  0
LINE
  8
0
 10
17.2321
 20
55.3245
 11
17.3245
 21
55.2321
  0
LINE
  8
0
 10
17.3245
 20
55.2321
 11
17.3995
 21
55.125
  0
LINE
  8
0
 10
17.3995
 20
55.125
 11
17.4548
 21
55.0065
  0
LINE
  8
0
 10
17.4548
 20
55.0065
 11
17.4886
 21
54.8802
  0
LINE
  8
0
 10
17.4886
 20
54.8802
 11
17.5
 21
54.75
  0
LINE
  8
0
 10
17.5
 20
54.75
 11
17.5
 21
40.25
  0
LINE
  8
0
 10
17.5
 20
40.25
 11
17.4886
 21
40.1198
  0
LINE
  8
0
 10
17.4886
 20
40.1198
 11
17.4548
 21
39.9935
  0
LINE
  8
0
 10
17.4548
 20
39.9935
 11
17.3995
 21
39.875
  0
LINE
  8
0
 10
17.3995
 20
39.875
 11
17.3245
 21
39.7679
  0
LINE
  8
0
 10
17.3245
 20
39.7679
 11
17.2321
 21
39.6755
  0
LINE
  8
0
 10
17.2321
 20
39.6755
 11
17.125
 21
39.6005
  0
LINE
  8
0
 10
17.125
 20
39.6005
 11
17.0065
 21
39.5452
  0
LINE
  8
0
 10
17.0065
 20
39.5452
 11
16.8802
 21
39.5114
  0
LINE
  8
0
 10
16.8802
 20
39.5114
 11
16.75
 21
39.5
  0
LINE
  8
0
 10
16.75
 20
39.5
 11
2.25
 21
39.5
  0
LINE
  8
0
 10
2.25
 20
39.5
 11
2.11976
 21
39.5114
  0
LINE
  8
0
 10
2.11976
 20
39.5114
 11
1.99349
 21
39.5452
  0
LINE
  8
0
 10
1.99349
 20
39.5452
 11
1.875
 21
39.6005
  0
LINE
  8
0
 10
1.875
 20
39.6005
 11
1.76791
 21
39.6755
  0
LINE
  8
0
 10
1.76791
 20
39.6755
 11
1.67547
 21
39.7679
  0
LINE
  8
0
 10
1.67547
 20
39.7679
 11
1.60048
 21
39.875
  0
LINE
  8
0
 10
1.60048
 20
39.875
 11
1.54523
 21
39.9935
  0
LINE
  8
0
 10
1.54523
 20
39.9935
 11
1.51139
 21
40.1198
  0
LINE
  8
0
 10
1.51139
 20
40.1198
 11
1.5
 21
40.25
  0
LINE
  8
0
 10
0.5
 20
58.25
 11
0.511395
 21
58.1198
  0
LINE
  8
0
 10
0.511395
 20
58.1198
 11
0.545231
 21
57.9935
  0
LINE
  8
0
 10
0.545231
 20
57.9935
 11
0.600481
 21
57.875
  0
LINE
  8
0
 10
0.600481
 20
57.875
 11
0.675467
 21
57.7679
  0
LINE
  8
0
 10
0.675467
 20
57.7679
 11
0.76791
 21
57.6755
  0
LINE
  8
0
 10
0.76791
 20
57.6755
 11
0.875
 21
57.6005
  0
LINE
  8
0
 10
0.875
 20
57.6005
 11
0.993485
 21
57.5452
  0
LINE
  8
0
 10
0.993485
 20
57.5452
 11
1.11976
 21
57.5114
  0
LINE
  8
0
 10
1.11976
 20
57.5114
 11
1.25
 21
57.5
  0
LINE
  8
0
 10
1.25
 20
57.5
 11
17.75
 21
57.5
  0
LINE
  8
0
 10
17.75
 20
57.5
 11
17.8802
 21
57.5114
  0
LINE
  8
0
 10
17.8802
 20
57.5114
 11
18.0065
 21
57.5452
  0
LINE
  8
0
 10
18.0065
 20
57.5452
 11
18.125
 21
57.6005
  0
LINE
  8
0
 10
18.125
 20
57.6005
 11
18.2321
 21
57.6755
  0
LINE
  8
0
 10
18.2321
 20
57.6755
 11
18.3245
 21
57.7679
  0
LINE
  8
0
 10
18.3245
 20
57.7679
 11
18.3995
 21
57.875
  0
LINE
  8
0
 10
18.3995
 20
57.875
 11
18.4548
 21
57.9935
  0
LINE
  8
0
 10
18.4548
 20
57.9935
 11
18.4886
 21
58.1198
  0
LINE
  8
0
 10
18.4886
 20
58.1198
 11
18.5
 21
58.25
  0
LINE
  8
0
 10
18.5
 20
58.25
 11
18.5
 21
74.75
  0
LINE
  8
0
 10
18.5
 20
74.75
 11
18.4886
 21
74.8802
  0
LINE
  8
0
 10
18.4886
 20
74.8802
 11
18.4548
 21
75.0065
  0
LINE
  8
0
 10
18.4548
 20
75.0065
 11
18.3995
 21
75.125
  0
LINE
  8
0
 10
18.3995
 20
75.125
 11
18.3245
 21
75.2321
  0
LINE
  8
0
 10
18.3245
 20
75.2321
 11
18.2321
 21
75.3245
  0
LINE
  8
0
 10
18.2321
 20
75.3245
 11
18.125
 21
75.3995
  0
LINE
  8
0
 10
18.125
 20
75.3995
 11
18.0065
 21
75.4548
  0
LINE
  8
0
 10
18.0065
 20
75.4548
 11
17.8802
 21
75.4886
  0
LINE
  8
0
 10
17.8802
 20
75.4886
 11
17.75
 21
75.5
  0
LINE
  8
0
 10
17.75
 20
75.5
 11
1.25
 21
75.5
  0
LINE
  8
0
 10
1.25
 20
75.5
 11
1.11976
 21
75.4886
  0
LINE
  8
0
 10
1.11976
 20
75.4886
 11
0.993485
 21
75.4548
  0
LINE
  8
0
 10
0.993485
 20
75.4548
 11
0.875
 21
75.3995
  0
LINE
  8
0
 10
0.875
 20
75.3995
 11
0.76791
 21
75.3245
  0
LINE
  8
0
 10
0.76791
 20
75.3245
 11
0.675467
 21
75.2321
  0
LINE
  8
0
 10
0.675467
 20
75.2321
 11
0.600481
 21
75.125
  0
LINE
  8
0
 10
0.600481
 20
75.125
 11
0.545231
 21
75.0065
  0
LINE
  8
0
 10
0.545231
 20
75.0065
 11
0.511395
 21
74.8802
  0
LINE
  8
0
 10
0.511395
 20
74.8802
 11
0.5
 21
74.75
  0
LINE
  8
0
 10
0.5
 20
74.75
 11
0.5
 21
58.25
  0
LINE
  8
0
 10
1.5
 20
59.25
 11
1.5
 21
73.75
  0
LINE
  8
0
 10
1.5
 20
73.75
 11
1.51139
 21
73.8802
  0
LINE
  8
0
 10
1.51139
 20
73.8802
 11
1.54523
 21
74.0065
  0
LINE
  8
0
 10
1.54523
 20
74.0065
 11
1.60048
 21
74.125
  0
LINE
  8
0
 10
1.60048
 20
74.125
 11
1.67547
 21
74.2321
  0
LINE
  8
0
 10
1.67547
 20
74.2321
 11
1.76791
 21
74.3245
  0
LINE
  8
0
 10
1.76791
 20
74.3245
 11
1.875
 21
74.3995
  0
LINE
  8
0
 10
1.875
 20
74.3995
 11
1.99349
 21
74.4548
  0
LINE
  8
0
 10
1.99349
 20
74.4548
 11
2.11976
 21
74.4886
  0
LINE
  8
0
 10
2.11976
 20
74.4886
 11
2.25
 21
74.5
  0
LINE
  8
0
 10
2.25
 20
74.5
 11
16.75
 21
74.5
  0
LINE
  8
0
 10
16.75
 20
74.5
 11
16.8802
 21
74.4886
  0
LINE
  8
0
 10
16.8802
 20
74.4886
 11
17.0065
 21
74.4548
  0
LINE
  8
0
 10
17.0065
 20
74.4548
 11
17.125
 21
74.3995
  0
LINE
  8
0
 10
17.125
 20
74.3995
 11
17.2321
 21
74.3245
  0
LINE
  8
0
 10
17.2321
 20
74.3245
 11
17.3245
 21
74.2321
  0
LINE
  8
0
 10
17.3245
 20
74.2321
 11
17.3995
 21
74.125
  0
LINE
  8
0
 10
17.3995
 20
74.125
 11
17.4548
 21
74.0065
  0
LINE
  8
0
 10
17.4548
 20
74.0065
 11
17.4886
 21
73.8802
  0
LINE
  8
0
 10
17.4886
 20
73.8802
 11
17.5
 21
73.75
  0
LINE
  8
0
 10
17.5
 20
73.75
 11
17.5
 21
59.25
  0
LINE
  8
0
 10
17.5
 20
59.25
 11
17.4886
 21
59.1198
  0
LINE
  8
0
 10
17.4886
 20
59.1198
 11
17.4548
 21
58.9935
  0
LINE
  8
0
 10
17.4548
 20
58.9935
 11
17.3995
 21
58.875
  0
LINE
  8
0
 10
17.3995
 20
58.875
 11
17.3245
 21
58.7679
  0
LINE
  8
0
 10
17.3245
 20
58.7679
 11
17.2321
 21
58.6755
  0
LINE
  8
0
 10
17.2321
 20
58.6755
 11
17.125
 21
58.6005
  0
LINE
  8
0
 10
17.125
 20
58.6005
 11
17.0065
 21
58.5452
  0
LINE
  8
0
 10
17.0065
 20
58.5452
 11
16.8802
 21
58.5114
  0
LINE
  8
0
 10
16.8802
 20
58.5114
 11
16.75
 21
58.5
  0
LINE
  8
0
 10
16.75
 20
58.5
 11
2.25
 21
58.5
  0
LINE
  8
0
 10
2.25
 20
58.5
 11
2.11976
 21
58.5114
  0
LINE
  8
0
 10
2.11976
 20
58.5114
 11
1.99349
 21
58.5452
  0
LINE
  8
0
 10
1.99349
 20
58.5452
 11
1.875
 21
58.6005
  0
LINE
  8
0
 10
1.875
 20
58.6005
 11
1.76791
 21
58.6755
  0
LINE
  8
0
 10
1.76791
 20
58.6755
 11
1.67547
 21
58.7679
  0
LINE
  8
0
 10
1.67547
 20
58.7679
 11
1.60048
 21
58.875
  0
LINE
  8
0
 10
1.60048
 20
58.875
 11
1.54523
 21
58.9935
  0
LINE
  8
0
 10
1.54523
 20
58.9935
 11
1.51139
 21
59.1198
  0
LINE
  8
0
 10
1.51139
 20
59.1198
 11
1.5
 21
59.25
  0
LINE
  8
0
 10
0.5
 20
77.25
 11
0.511395
 21
77.1198
  0
LINE
  8
0
 10
0.511395
 20
77.1198
 11
0.545231
 21
76.9935
  0
LINE
  8
0
 10
0.545231
 20
76.9935
 11
0.600481
 21
76.875
  0
LINE
  8
0
 10
0.600481
 20
76.875
 11
0.675467
 21
76.7679
  0
LINE
  8
0
 10
0.675467
 20
76.7679
 11
0.76791
 21
76.6755
  0
LINE
  8
0
 10
0.76791
 20
76.6755
 11
0.875
 21
76.6005
  0
LINE
  8
0
 10
0.875
 20
76.6005
 11
0.993485
 21
76.5452
  0
LINE
  8
0
 10
0.993485
 20
76.5452
 11
1.11976
 21
76.5114
  0
LINE
  8
0
 10
1.11976
 20
76.5114
 11
1.25
 21
76.5
  0
LINE
  8
0
 10
1.25
 20
76.5
 11
17.75
 21
76.5
  0
LINE
  8
0
 10
17.75
 20
76.5
 11
17.8802
 21
76.5114
  0
LINE
  8
0
 10
17.8802
 20
76.5114
 11
18.0065
 21
76.5452
  0
LINE
  8
0
 10
18.0065
 20
76.5452
 11
18.125
 21
76.6005
  0
LINE
  8
0
 10
18.125
 20
76.6005
 11
18.2321
 21
76.6755
  0
LINE
  8
0
 10
18.2321
 20
76.6755
 11
18.3245
 21
76.7679
  0
LINE
  8
0
 10
18.3245
 20
76.7679
 11
18.3995
 21
76.875
  0
LINE
  8
0
 10
18.3995
 20
76.875
 11
18.4548
 21
76.9935
  0
LINE
  8
0
 10
18.4548
 20
76.9935
 11
18.4886
 21
77.1198
  0
LINE
  8
0
 10
18.4886
 20
77.1198
 11
18.5
 21
77.25
  0
LINE
  8
0
 10
18.5
 20
77.25
 11
18.5
 21
93.75
  0
LINE
  8
0
 10
18.5
 20
93.75
 11
18.4886
 21
93.8802
  0
LINE
  8
0
 10
18.4886
 20
93.8802
 11
18.4548
 21
94.0065
  0
LINE
  8
0
 10
18.4548
 20
94.0065
 11
18.3995
 21
94.125
  0
LINE
  8
0
 10
18.3995
 20
94.125
 11
18.3245
 21
94.2321
  0
LINE
  8
0
 10
18.3245
 20
94.2321
 11
18.2321
 21
94.3245
  0
LINE
  8
0
 10
18.2321
 20
94.3245
 11
18.125
 21
94.3995
  0
LINE
  8
0
 10
18.125
 20
94.3995
 11
18.0065
 21
94.4548
  0
LINE
  8
0
 10
18.0065
 20
94.4548
 11
17.8802
 21
94.4886
  0
LINE
  8
0
 10
17.8802
 20
94.4886
 11
17.75
 21
94.5
  0
LINE
  8
0
 10
17.75
 20
94.5
 11
1.25
 21
94.5
  0
LINE
  8
0
 10
1.25
 20
94.5
 11
1.11976
 21
94.4886
  0
LINE
  8
0
 10
1.11976
 20
94.4886
 11
0.993485
 21
94.4548
  0
LINE
  8
0
 10
0.993485
 20
94.4548
 11
0.875
 21
94.3995
  0
LINE
  8
0
 10
0.875
 20
94.3995
 11
0.76791
 21
94.3245
  0
LINE
  8
0
 10
0.76791
 20
94.3245
 11
0.675467
 21
94.2321
  0
LINE
  8
0
 10
0.675467
 20
94.2321
 11
0.600481
 21
94.125
  0
LINE
  8
0
 10
0.600481
 20
94.125
 11
0.545231
 21
94.0065
  0
LINE
  8
0
 10
0.545231
 20
94.0065
 11
0.511395
 21
93.8802
  0
LINE
  8
0
 10
0.511395
 20
93.8802
 11
0.5
 21
93.75
  0
LINE
  8
0
 10
0.5
 20
93.75
 11
0.5
 21
77.25
  0
LINE
  8
0
 10
1.5
 20
78.25
 11
1.5
 21
92.75
  0
LINE
  8
0
 10
1.5
 20
92.75
 11
1.51139
 21
92.8802
  0
LINE
  8
0
 10
1.51139
 20
92.8802
 11
1.54523
 21
93.0065
  0
LINE
  8
0
 10
1.54523
 20
93.0065
 11
1.60048
 21
93.125
  0
LINE
  8
0
 10
1.60048
 20
93.125
 11
1.67547
 21
93.2321
  0
LINE
  8
0
 10
1.67547
 20
93.2321
 11
1.76791
 21
93.3245
  0
LINE
  8
0
 10
1.76791
 20
93.3245
 11
1.875
 21
93.3995
  0
LINE
  8
0
 10
1.875
 20
93.3995
 11
1.99349
 21
93.4548
  0
LINE
  8
0
 10
1.99349
 20
93.4548
 11
2.11976
 21
93.4886
  0
LINE
  8
0
 10
2.11976
 20
93.4886
 11
2.25
 21
93.5
  0
LINE
  8
0
 10
2.25
 20
93.5
 11
16.75
 21
93.5
  0
LINE
  8
0
 10
16.75
 20
93.5
 11
16.8802
 21
93.4886
  0
LINE
  8
0
 10
16.8802
 20
93.4886
 11
17.0065
 21
93.4548
  0
LINE
  8
0
 10
17.0065
 20
93.4548
 11
17.125
 21
93.3995
  0
LINE
  8
0
 10
17.125
 20
93.3995
 11
17.2321
 21
93.3245
  0
LINE
  8
0
 10
17.2321
 20
93.3245
 11
17.3245
 21
93.2321
  0
LINE
  8
0
 10
17.3245
 20
93.2321
 11
17.3995
 21
93.125
  0
LINE
  8
0
 10
17.3995
 20
93.125
 11
17.4548
 21
93.0065
  0
LINE
  8
0
 10
17.4548
 20
93.0065
 11
17.4886
 21
92.8802
  0
LINE
  8
0
 10
17.4886
 20
92.8802
 11
17.5
 21
92.75
  0
LINE
  8
0
 10
17.5
 20
92.75
 11
17.5
 21
78.25
  0
LINE
  8
0
 10
17.5
 20
78.25
 11
17.4886
 21
78.1198
  0
LINE
  8
0
 10
17.4886
 20
78.1198
 11
17.4548
 21
77.9935
  0
LINE
  8
0
 10
17.4548
 20
77.9935
 11
17.3995
 21
77.875
  0
LINE
  8
0
 10
17.3995
 20
77.875
 11
17.3245
 21
77.7679
  0
LINE
  8
0
 10
17.3245
 20
77.7679
 11
17.2321
 21
77.6755
  0
LINE
  8
0
 10
17.2321
 20
77.6755
 11
17.125
 21
77.6005
  0
LINE
  8
0
 10
17.125
 20
77.6005
 11
17.0065
 21
77.5452
  0
LINE
  8
0
 10
17.0065
 20
77.5452
 11
16.8802
 21
77.5114
  0
LINE
  8
0
 10
16.8802
 20
77.5114
 11
16.75
 21
77.5
  0
LINE
  8
0
 10
16.75
 20
77.5
 11
2.25
 21
77.5
  0
LINE
  8
0
 10
2.25
 20
77.5
 11
2.11976
 21
77.5114
  0
LINE
  8
0
 10
2.11976
 20
77.5114
 11
1.99349
 21
77.5452
  0
LINE
  8
0
 10
1.99349
 20
77.5452
 11
1.875
 21
77.6005
  0
LINE
  8
0
 10
1.875
 20
77.6005
 11
1.76791
 21
77.6755
  0
LINE
  8
0
 10
1.76791
 20
77.6755
 11
1.67547
 21
77.7679
  0
LINE
  8
0
 10
1.67547
 20
77.7679
 11
1.60048
 21
77.875
  0
LINE
  8
0
 10
1.60048
 20
77.875
 11
1.54523
 21
77.9935
  0
LINE
  8
0
 10
1.54523
 20
77.9935
 11
1.51139
 21
78.1198
  0
LINE
  8
0
 10
1.51139
 20
78.1198
 11
1.5
 21
78.25
  0
LINE
  8
0
 10
0.5
 20
96.25
 11
0.511395
 21
96.1198
  0
LINE
  8
0
 10
0.511395
 20
96.1198
 11
0.545231
 21
95.9935
  0
LINE
  8
0
 10
0.545231
 20
95.9935
 11
0.600481
 21
95.875
  0
LINE
  8
0
 10
0.600481
 20
95.875
 11
0.675467
 21
95.7679
  0
LINE
  8
0
 10
0.675467
 20
95.7679
 11
0.76791
 21
95.6755
  0
LINE
  8
0
 10
0.76791
 20
95.6755
 11
0.875
 21
95.6005
  0
LINE
  8
0
 10
0.875
 20
95.6005
 11
0.993485
 21
95.5452
  0
LINE
  8
0
 10
0.993485
 20
95.5452
 11
1.11976
 21
95.5114
  0
LINE
  8
0
 10
1.11976
 20
95.5114
 11
1.25
 21
95.5
  0
LINE
  8
0
 10
1.25
 20
95.5
 11
17.75
 21
95.5
  0
LINE
  8
0
 10
17.75
 20
95.5
 11
17.8802
 21
95.5114
  0
LINE
  8
0
 10
17.8802
 20
95.5114
 11
18.0065
 21
95.5452
  0
LINE
  8
0
 10
18.0065
 20
95.5452
 11
18.125
 21
95.6005
  0
LINE
  8
0
 10
18.125
 20
95.6005
 11
18.2321
 21
95.6755
  0
LINE
  8
0
 10
18.2321
 20
95.6755
 11
18.3245
 21
95.7679
  0
LINE
  8
0
 10
18.3245
 20
95.7679
 11
18.3995
 21
95.875
  0
LINE
  8
0
 10
18.3995
 20
95.875
 11
18.4548
 21
95.9935
  0
LINE
  8
0
 10
18.4548
 20
95.9935
 11
18.4886
 21
96.1198
  0
LINE
  8
0
 10
18.4886
 20
96.1198
 11
18.5
 21
96.25
  0
LINE
  8
0
 10
18.5
 20
96.25
 11
18.5
 21
112.75
  0
LINE
  8
0
 10
18.5
 20
112.75
 11
18.4886
 21
112.88
  0
LINE
  8
0
 10
18.4886
 20
112.88
 11
18.4548
 21
113.007
  0
LINE
  8
0
 10
18.4548
 20
113.007
 11
18.3995
 21
113.125
  0
LINE
  8
0
 10
18.3995
 20
113.125
 11
18.3245
 21
113.232
  0
LINE
  8
0
 10
18.3245
 20
113.232
 11
18.2321
 21
113.325
  0
LINE
  8
0
 10
18.2321
 20
113.325
 11
18.125
 21
113.4
  0
LINE
  8
0
 10
18.125
 20
113.4
 11
18.0065
 21
113.455
  0
LINE
  8
0
 10
18.0065
 20
113.455
 11
17.8802
 21
113.489
  0
LINE
  8
0
 10
17.8802
 20
113.489
 11
17.75
 21
113.5
  0
LINE
  8
0
 10
17.75
 20
113.5
 11
1.25
 21
113.5
  0
LINE
  8
0
 10
1.25
 20
113.5
 11
1.11976
 21
113.489
  0
LINE
  8
0
 10
1.11976
 20
113.489
 11
0.993485
 21
113.455
  0
LINE
  8
0
 10
0.993485
 20
113.455
 11
0.875
 21
113.4
  0
LINE
  8
0
 10
0.875
 20
113.4
 11
0.76791
 21
113.325
  0
LINE
  8
0
 10
0.76791
 20
113.325
 11
0.675467
 21
113.232
  0
LINE
  8
0
 10
0.675467
 20
113.232
 11
0.600481
 21
113.125
  0
LINE
  8
0
 10
0.600481
 20
113.125
 11
0.545231
 21
113.007
  0
LINE
  8
0
 10
0.545231
 20
113.007
 11
0.511395
 21
112.88
  0
LINE
  8
0
 10
0.511395
 20
112.88
 11
0.5
 21
112.75
  0
LINE
  8
0
 10
0.5
 20
112.75
 11
0.5
 21
96.25
  0
LINE
  8
0
 10
1.5
 20
97.25
 11
1.5
 21
111.75
  0
LINE
  8
0
 10
1.5
 20
111.75
 11
1.51139
 21
111.88
  0
LINE
  8
0
 10
1.51139
 20
111.88
 11
1.54523
 21
112.007
  0
LINE
  8
0
 10
1.54523
 20
112.007
 11
1.60048
 21
112.125
  0
LINE
  8
0
 10
1.60048
 20
112.125
 11
1.67547
 21
112.232
  0
LINE
  8
0
 10
1.67547
 20
112.232
 11
1.76791
 21
112.325
  0
LINE
  8
0
 10
1.76791
 20
112.325
 11
1.875
 21
112.4
  0
LINE
  8
0
 10
1.875
 20
112.4
 11
1.99349
 21
112.455
  0
LINE
  8
0
 10
1.99349
 20
112.455
 11
2.11976
 21
112.489
  0
LINE
  8
0
 10
2.11976
 20
112.489
 11
2.25
 21
112.5
  0
LINE
  8
0
 10
2.25
 20
112.5
 11
16.75
 21
112.5
  0
LINE
  8
0
 10
16.75
 20
112.5
 11
16.8802
 21
112.489
  0
LINE
  8
0
 10
16.8802
 20
112.489
 11
17.0065
 21
112.455
  0
LINE
  8
0
 10
17.0065
 20
112.455
 11
17.125
 21
112.4
  0
LINE
  8
0
 10
17.125
 20
112.4
 11
17.2321
 21
112.325
  0
LINE
  8
0
 10
17.2321
 20
112.325
 11
17.3245
 21
112.232
  0
LINE
  8
0
 10
17.3245
 20
112.232
 11
17.3995
 21
112.125
  0
LINE
  8
0
 10
17.3995
 20
112.125
 11
17.4548
 21
112.007
  0
LINE
  8
0
 10
17.4548
 20
112.007
 11
17.4886
 21
111.88
  0
LINE
  8
0
 10
17.4886
 20
111.88
 11
17.5
 21
111.75
  0
LINE
  8
0
 10
17.5
 20
111.75
 11
17.5
 21
97.25
  0
LINE
  8
0
 10
17.5
 20
97.25
 11
17.4886
 21
97.1198
  0
LINE
  8
0
 10
17.4886
 20
97.1198
 11
17.4548
 21
96.9935
  0
LINE
  8
0
 10
17.4548
 20
96.9935
 11
17.3995
 21
96.875
  0
LINE
  8
0
 10
17.3995
 20
96.875
 11
17.3245
 21
96.7679
  0
LINE
  8
0
 10
17.3245
 20
96.7679
 11
17.2321
 21
96.6755
  0
LINE
  8
0
 10
17.2321
 20
96.6755
 11
17.125
 21
96.6005
  0
LINE
  8
0
 10
17.125
 20
96.6005
 11
17.0065
 21
96.5452
  0
LINE
  8
0
 10
17.0065
 20
96.5452
 11
16.8802
 21
96.5114
  0
LINE
  8
0
 10
16.8802
 20
96.5114
 11
16.75
 21
96.5
  0
LINE
  8
0
 10
16.75
 20
96.5
 11
2.25
 21
96.5
  0
LINE
  8
0
 10
2.25
 20
96.5
 11
2.11976
 21
96.5114
  0
LINE
  8
0
 10
2.11976
 20
96.5114
 11
1.99349
 21
96.5452
  0
LINE
  8
0
 10
1.99349
 20
96.5452
 11
1.875
 21
96.6005
  0
LINE
  8
0
 10
1.875
 20
96.6005
 11
1.76791
 21
96.6755
  0
LINE
  8
0
 10
1.76791
 20
96.6755
 11
1.67547
 21
96.7679
  0
LINE
  8
0
 10
1.67547
 20
96.7679
 11
1.60048
 21
96.875
  0
LINE
  8
0
 10
1.60048
 20
96.875
 11
1.54523
 21
96.9935
  0
LINE
  8
0
 10
1.54523
 20
96.9935
 11
1.51139
 21
97.1198
  0
LINE
  8
0
 10
1.51139
 20
97.1198
 11
1.5
 21
97.25
  0
LINE
  8
0
 10
0.5
 20
115.25
 11
0.511395
 21
115.12
  0
LINE
  8
0
 10
0.511395
 20
115.12
 11
0.545231
 21
114.993
  0
LINE
  8
0
 10
0.545231
 20
114.993
 11
0.600481
 21
114.875
  0
LINE
  8
0
 10
0.600481
 20
114.875
 11
0.675467
 21
114.768
  0
LINE
  8
0
 10
0.675467
 20
114.768
 11
0.76791
 21
114.675
  0
LINE
  8
0
 10
0.76791
 20
114.675
 11
0.875
 21
114.6
  0
LINE
  8
0
 10
0.875
 20
114.6
 11
0.993485
 21
114.545
  0
LINE
  8
0
 10
0.993485
 20
114.545
 11
1.11976
 21
114.511
  0
LINE
  8
0
 10
1.11976
 20
114.511
 11
1.25
 21
114.5
  0
LINE
  8
0
 10
1.25
 20
114.5
 11
17.75
 21
114.5
  0
LINE
  8
0
 10
17.75
 20
114.5
 11
17.8802
 21
114.511
  0
LINE
  8
0
 10
17.8802
 20
114.511
 11
18.0065
 21
114.545
  0
LINE
  8
0
 10
18.0065
 20
114.545
 11
18.125
 21
114.6
  0
LINE
  8
0
 10
18.125
 20
114.6
 11
18.2321
 21
114.675
  0
LINE
  8
0
 10
18.2321
 20
114.675
 11
18.3245
 21
114.768
  0
LINE
  8
0
 10
18.3245
 20
114.768
 11
18.3995
 21
114.875
  0
LINE
  8
0
 10
18.3995
 20
114.875
 11
18.4548
 21
114.993
  0
LINE
  8
0
 10
18.4548
 20
114.993
 11
18.4886
 21
115.12
  0
LINE
  8
0
 10
18.4886
 20
115.12
 11
18.5
 21
115.25
  0
LINE
  8
0
 10
18.5
 20
115.25
 11
18.5
 21
131.75
  0
LINE
  8
0
 10
18.5
 20
131.75
 11
18.4886
 21
131.88
  0
LINE
  8
0
 10
18.4886
 20
131.88
 11
18.4548
 21
132.007
  0
LINE
  8
0
 10
18.4548
 20
132.007
 11
18.3995
 21
132.125
  0
LINE
  8
0
 10
18.3995
 20
132.125
 11
18.3245
 21
132.232
  0
LINE
  8
0
 10
18.3245
 20
132.232
 11
18.2321
 21
132.325
  0
LINE
  8
0
 10
18.2321
 20
132.325
 11
18.125
 21
132.4
  0
LINE
  8
0
 10
18.125
 20
132.4
 11
18.0065
 21
132.455
  0
LINE
  8
0
 10
18.0065
 20
132.455
 11
17.8802
 21
132.489
  0
LINE
  8
0
 10
17.8802
 20
132.489
 11
17.75
 21
132.5
  0
LINE
  8
0
 10
17.75
 20
132.5
 11
1.25
 21
132.5
  0
LINE
  8
0
 10
1.25
 20
132.5
 11
1.11976
 21
132.489
  0
LINE
  8
0
 10
1.11976
 20
132.489
 11
0.993485
 21
132.455
  0
LINE
  8
0
 10
0.993485
 20
132.455
 11
0.875
 21
132.4
  0
LINE
  8
0
 10
0.875
 20
132.4
 11
0.76791
 21
132.325
  0
LINE
  8
0
 10
0.76791
 20
132.325
 11
0.675467
 21
132.232
  0
LINE
  8
0
 10
0.675467
 20
132.232
 11
0.600481
 21
132.125
  0
LINE
  8
0
 10
0.600481
 20
132.125
 11
0.545231
 21
132.007
  0
LINE
  8
0
 10
0.545231
 20
132.007
 11
0.511395
 21
131.88
  0
LINE
  8
0
 10
0.511395
 20
131.88
 11
0.5
 21
131.75
  0
LINE
  8
0
 10
0.5
 20
131.75
 11
0.5
 21
115.25
  0
LINE
  8
0
 10
1.5
 20
116.25
 11
1.5
 21
130.75
  0
LINE
  8
0
 10
1.5
 20
130.75
 11
1.51139
 21
130.88
  0
LINE
  8
0
 10
1.51139
 20
130.88
 11
1.54523
 21
131.007
  0
LINE
  8
0
 10
1.54523
 20
131.007
 11
1.60048
 21
131.125
  0
LINE
  8
0
 10
1.60048
 20
131.125
 11
1.67547
 21
131.232
  0
LINE
  8
0
 10
1.67547
 20
131.232
 11
1.76791
 21
131.325
  0
LINE
  8
0
 10
1.76791
 20
131.325
 11
1.875
 21
131.4
  0
LINE
  8
0
 10
1.875
 20
131.4
 11
1.99349
 21
131.455
  0
LINE
  8
0
 10
1.99349
 20
131.455
 11
2.11976
 21
131.489
  0
LINE
  8
0
 10
2.11976
 20
131.489
 11
2.25
 21
131.5
  0
LINE
  8
0
 10
2.25
 20
131.5
 11
16.75
 21
131.5
  0
LINE
  8
0
 10
16.75
 20
131.5
 11
16.8802
 21
131.489
  0
LINE
  8
0
 10
16.8802
 20
131.489
 11
17.0065
 21
131.455
  0
LINE
  8
0
 10
17.0065
 20
131.455
 11
17.125
 21
131.4
  0
LINE
  8
0
 10
17.125
 20
131.4
 11
17.2321
 21
131.325
  0
LINE
  8
0
 10
17.2321
 20
131.325
 11
17.3245
 21
131.232
  0
LINE
  8
0
 10
17.3245
 20
131.232
 11
17.3995
 21
131.125
  0
LINE
  8
0
 10
17.3995
 20
131.125
 11
17.4548
 21
131.007
  0
LINE
  8
0
 10
17.4548
 20
131.007
 11
17.4886
 21
130.88
  0
LINE
  8
0
 10
17.4886
 20
130.88
 11
17.5
 21
130.75
  0
LINE
  8
0
 10
17.5
 20
130.75
 11
17.5
 21
116.25
  0
LINE
  8
0
 10
17.5
 20
116.25
 11
17.4886
 21
116.12
  0
LINE
  8
0
 10
17.4886
 20
116.12
 11
17.4548
 21
115.993
  0
LINE
  8
0
 10
17.4548
 20
115.993
 11
17.3995
 21
115.875
  0
LINE
  8
0
 10
17.3995
 20
115.875
 11
17.3245
 21
115.768
  0
LINE
  8
0
 10
17.3245
 20
115.768
 11
17.2321
 21
115.675
  0
LINE
  8
0
 10
17.2321
 20
115.675
 11
17.125
 21
115.6
  0
LINE
  8
0
 10
17.125
 20
115.6
 11
17.0065
 21
115.545
  0
LINE
  8
0
 10
17.0065
 20
115.545
 11
16.8802
 21
115.511
  0
LINE
  8
0
 10
16.8802
 20
115.511
 11
16.75
 21
115.5
  0
LINE
  8
0
 10
16.75
 20
115.5
 11
2.25
 21
115.5
  0
LINE
  8
0
 10
2.25
 20
115.5
 11
2.11976
 21
115.511
  0
LINE
  8
0
 10
2.11976
 20
115.511
 11
1.99349
 21
115.545
  0
LINE
  8
0
 10
1.99349
 20
115.545
 11
1.875
 21
115.6
  0
LINE
  8
0
 10
1.875
 20
115.6
 11
1.76791
 21
115.675
  0
LINE
  8
0
 10
1.76791
 20
115.675
 11
1.67547
 21
115.768
  0
LINE
  8
0
 10
1.67547
 20
115.768
 11
1.60048
 21
115.875
  0
LINE
  8
0
 10
1.60048
 20
115.875
 11
1.54523
 21
115.993
  0
LINE
  8
0
 10
1.54523
 20
115.993
 11
1.51139
 21
116.12
  0
LINE
  8
0
 10
1.51139
 20
116.12
 11
1.5
 21
116.25
  0
LINE
  8
0
 10
19.5
 20
1.25
 11
19.5114
 21
1.11976
  0
LINE
  8
0
 10
19.5114
 20
1.11976
 11
19.5452
 21
0.993485
  0
LINE
  8
0
 10
19.5452
 20
0.993485
 11
19.6005
 21
0.875
  0
LINE
  8
0
 10
19.6005
 20
0.875
 11
19.6755
 21
0.76791
  0
LINE
  8
0
 10
19.6755
 20
0.76791
 11
19.7679
 21
0.675467
  0
LINE
  8
0
 10
19.7679
 20
0.675467
 11
19.875
 21
0.600481
  0
LINE
  8
0
 10
19.875
 20
0.600481
 11
19.9935
 21
0.545231
  0
LINE
  8
0
 10
19.9935
 20
0.545231
 11
20.1198
 21
0.511395
  0
LINE
  8
0
 10
20.1198
 20
0.511395
 11
20.25
 21
0.5
  0
LINE
  8
0
 10
20.25
 20
0.5
 11
36.75
 21
0.5
  0
LINE
  8
0
 10
36.75
 20
0.5
 11
36.8802
 21
0.511395
  0
LINE
  8
0
 10
36.8802
 20
0.511395
 11
37.0065
 21
0.545231
  0
LINE
  8
0
 10
37.0065
 20
0.545231
 11
37.125
 21
0.600481
  0
LINE
  8
0
 10
37.125
 20
0.600481
 11
37.2321
 21
0.675467
  0
LINE
  8
0
 10
37.2321
 20
0.675467
 11
37.3245
 21
0.76791
  0
LINE
  8
0
 10
37.3245
 20
0.76791
 11
37.3995
 21
0.875
  0
LINE
  8
0
 10
37.3995
 20
0.875
 11
37.4548
 21
0.993485
  0
LINE
  8
0
 10
37.4548
 20
0.993485
 11
37.4886
 21
1.11976
  0
LINE
  8
0
 10
37.4886
 20
1.11976
 11
37.5
 21
1.25
  0
LINE
  8
0
 10
37.5
 20
1.25
 11
37.5
 21
17.75
  0
LINE
  8
0
 10
37.5
 20
17.75
 11
37.4886
 21
17.8802
  0
LINE
  8
0
 10
37.4886
 20
17.8802
 11
37.4548
 21
18.0065
  0
LINE
  8
0
 10
37.4548
 20
18.0065
 11
37.3995
 21
18.125
  0
LINE
  8
0
 10
37.3995
 20
18.125
 11
37.3245
 21
18.2321
  0
LINE
  8
0
 10
37.3245
 20
18.2321
 11
37.2321
 21
18.3245
  0
LINE
  8
0
 10
37.2321
 20
18.3245
 11
37.125
 21
18.3995
  0
LINE
  8
0
 10
37.125
 20
18.3995
 11
37.0065
 21
18.4548
  0
LINE
  8
0
 10
37.0065
 20
18.4548
 11
36.8802
 21
18.4886
  0
LINE
  8
0
 10
36.8802
 20
18.4886
 11
36.75
 21
18.5
  0
LINE
  8
0
 10
36.75
 20
18.5
 11
20.25
 21
18.5
  0
LINE
  8
0
 10
20.25
 20
18.5
 11
20.1198
 21
18.4886
  0
LINE
  8
0
 10
20.1198
 20
18.4886
 11
19.9935
 21
18.4548
  0
LINE
  8
0
 10
19.9935
 20
18.4548
 11
19.875
 21
18.3995
  0
LINE
  8
0
 10
19.875
 20
18.3995
 11
19.7679
 21
18.3245
  0
LINE
  8
0
 10
19.7679
 20
18.3245
 11
19.6755
 21
18.2321
  0
LINE
  8
0
 10
19.6755
 20
18.2321
 11
19.6005
 21
18.125
  0
LINE
  8
0
 10
19.6005
 20
18.125
 11
19.5452
 21
18.0065
  0
LINE
  8
0
 10
19.5452
 20
18.0065
 11
19.5114
 21
17.8802
  0
LINE
  8
0
 10
19.5114
 20
17.8802
 11
19.5
 21
17.75
  0
LINE
  8
0
 10
19.5
 20
17.75
 11
19.5
 21
1.25
  0
LINE
  8
0
 10
20.5
 20
2.25
 11
20.5
 21
16.75
  0
LINE
  8
0
 10
20.5
 20
16.75
 11
20.5114
 21
16.8802
  0
LINE
  8
0
 10
20.5114
 20
16.8802
 11
20.5452
 21
17.0065
  0
LINE
  8
0
 10
20.5452
 20
17.0065
 11
20.6005
 21
17.125
  0
LINE
  8
0
 10
20.6005
 20
17.125
 11
20.6755
 21
17.2321
  0
LINE
  8
0
 10
20.6755
 20
17.2321
 11
20.7679
 21
17.3245
  0
LINE
  8
0
 10
20.7679
 20
17.3245
 11
20.875
 21
17.3995
  0
LINE
  8
0
 10
20.875
 20
17.3995
 11
20.9935
 21
17.4548
  0
LINE
  8
0
 10
20.9935
 20
17.4548
 11
21.1198
 21
17.4886
  0
LINE
  8
0
 10
21.1198
 20
17.4886
 11
21.25
 21
17.5
  0
LINE
  8
0
 10
21.25
 20
17.5
 11
35.75
 21
17.5
  0
LINE
  8
0
 10
35.75
 20
17.5
 11
35.8802
 21
17.4886
  0
LINE
  8
0
 10
35.8802
 20
17.4886
 11
36.0065
 21
17.4548
  0
LINE
  8
0
 10
36.0065
 20
17.4548
 11
36.125
 21
17.3995
  0
LINE
  8
0
 10
36.125
 20
17.3995
 11
36.2321
 21
17.3245
  0
LINE
  8
0
 10
36.2321
 20
17.3245
 11
36.3245
 21
17.2321
  0
LINE
  8
0
 10
36.3245
 20
17.2321
 11
36.3995
 21
17.125
  0
LINE
  8
0
 10
36.3995
 20
17.125
 11
36.4548
 21
17.0065
  0
LINE
  8
0
 10
36.4548
 20
17.0065
 11
36.4886
 21
16.8802
  0
LINE
  8
0
 10
36.4886
 20
16.8802
 11
36.5
 21
16.75
  0
LINE
  8
0
 10
36.5
 20
16.75
 11
36.5
 21
2.25
  0
LINE
  8
0
 10
36.5
 20
2.25
 11
36.4886
 21
2.11976
  0
LINE
  8
0
 10
36.4886
 20
2.11976
 11
36.4548
 21
1.99349
  0
LINE
  8
0
 10
36.4548
 20
1.99349
 11
36.3995
 21
1.875
  0
LINE
  8
0
 10
36.3995
 20
1.875
 11
36.3245
 21
1.76791
  0
LINE
  8
0
 10
36.3245
 20
1.76791
 11
36.2321
 21
1.67547
  0
LINE
  8
0
 10
36.2321
 20
1.67547
 11
36.125
 21
1.60048
  0
LINE
  8
0
 10
36.125
 20
1.60048
 11
36.0065
 21
1.54523
  0
LINE
  8
0
 10
36.0065
 20
1.54523
 11
35.8802
 21
1.51139
  0
LINE
  8
0
 10
35.8802
 20
1.51139
 11
35.75
 21
1.5
  0
LINE
  8
0
 10
35.75
 20
1.5
 11
21.25
 21
1.5
  0
LINE
  8
0
 10
21.25
 20
1.5
 11
21.1198
 21
1.51139
  0
LINE
  8
0
 10
21.1198
 20
1.51139
 11
20.9935
 21
1.54523
  0
LINE
  8
0
 10
20.9935
 20
1.54523
 11
20.875
 21
1.60048
  0
LINE
  8
0
 10
20.875
 20
1.60048
 11
20.7679
 21
1.67547
  0
LINE
  8
0
 10
20.7679
 20
1.67547
 11
20.6755
 21
1.76791
  0
LINE
  8
0
 10
20.6755
 20
1.76791
 11
20.6005
 21
1.875
  0
LINE
  8
0
 10
20.6005
 20
1.875
 11
20.5452
 21
1.99349
  0
LINE
  8
0
 10
20.5452
 20
1.99349
 11
20.5114
 21
2.11976
  0
LINE
  8
0
 10
20.5114
 20
2.11976
 11
20.5
 21
2.25
  0
LINE
  8
0
 10
19.5
 20
20.25
 11
19.5114
 21
20.1198
  0
LINE
  8
0
 10
19.5114
 20
20.1198
 11
19.5452
 21
19.9935
  0
LINE
  8
0
 10
19.5452
 20
19.9935
 11
19.6005
 21
19.875
  0
LINE
  8
0
 10
19.6005
 20
19.875
 11
19.6755
 21
19.7679
  0
LINE
  8
0
 10
19.6755
 20
19.7679
 11
19.7679
 21
19.6755
  0
LINE
  8
0
 10
19.7679
 20
19.6755
 11
19.875
 21
19.6005
  0
LINE
  8
0
 10
19.875
 20
19.6005
 11
19.9935
 21
19.5452
  0
LINE
  8
0
 10
19.9935
 20
19.5452
 11
20.1198
 21
19.5114
  0
LINE
  8
0
 10
20.1198
 20
19.5114
 11
20.25
 21
19.5
  0
LINE
  8
0
 10
20.25
 20
19.5
 11
36.75
 21
19.5
  0
LINE
  8
0
 10
36.75
 20
19.5
 11
36.8802
 21
19.5114
  0
LINE
  8
0
 10
36.8802
 20
19.5114
 11
37.0065
 21
19.5452
  0
LINE
  8
0
 10
37.0065
 20
19.5452
 11
37.125
 21
19.6005
  0
LINE
  8
0
 10
37.125
 20
19.6005
 11
37.2321
 21
19.6755
  0
LINE
  8
0
 10
37.2321
 20
19.6755
 11
37.3245
 21
19.7679
  0
LINE
  8
0
 10
37.3245
 20
19.7679
 11
37.3995
 21
19.875
  0
LINE
  8
0
 10
37.3995
 20
19.875
 11
37.4548
 21
19.9935
  0
LINE
  8
0
 10
37.4548
 20
19.9935
 11
37.4886
 21
20.1198
  0
LINE
  8
0
 10
37.4886
 20
20.1198
 11
37.5
 21
20.25
  0
LINE
  8
0
 10
37.5
 20
20.25
 11
37.5
 21
36.75
  0
LINE
  8
0
 10
37.5
 20
36.75
 11
37.4886
 21
36.8802
  0
LINE
  8
0
 10
37.4886
 20
36.8802
 11
37.4548
 21
37.0065
  0
LINE
  8
0
 10
37.4548
 20
37.0065
 11
37.3995
 21
37.125
  0
LINE
  8
0
 10
37.3995
 20
37.125
 11
37.3245
 21
37.2321
  0
LINE
  8
0
 10
37.3245
 20
37.2321
 11
37.2321
 21
37.3245
  0
LINE
  8
0
 10
37.2321
 20
37.3245
 11
37.125
 21
37.3995
  0
LINE
  8
0
 10
37.125
 20
37.3995
 11
37.0065
 21
37.4548
  0
LINE
  8
0
 10
37.0065
 20
37.4548
 11
36.8802
 21
37.4886
  0
LINE
  8
0
 10
36.8802
 20
37.4886
 11
36.75
 21
37.5
  0
LINE
  8
0
 10
36.75
 20
37.5
 11
20.25
 21
37.5
  0
LINE
  8
0
 10
20.25
 20
37.5
 11
20.1198
 21
37.4886
  0
LINE
  8
0
 10
20.1198
 20
37.4886
 11
19.9935
 21
37.4548
  0
LINE
  8
0
 10
19.9935
 20
37.4548
 11
19.875
 21
37.3995
  0
LINE
  8
0
 10
19.875
 20
37.3995
 11
19.7679
 21
37.3245
  0
LINE
  8
0
 10
19.7679
 20
37.3245
 11
19.6755
 21
37.2321
  0
LINE
  8
0
 10
19.6755
 20
37.2321
 11
19.6005
 21
37.125
  0
LINE
  8
0
 10
19.6005
 20
37.125
 11
19.5452
 21
37.0065
  0
LINE
  8
0
 10
19.5452
 20
37.0065
 11
19.5114
 21
36.8802
  0
LINE
  8
0
 10
19.5114
 20
36.8802
 11
19.5
 21
36.75
  0
LINE
  8
0
 10
19.5
 20
36.75
 11
19.5
 21
20.25
  0
LINE
  8
0
 10
20.5
 20
21.25
 11
20.5
 21
35.75
  0
LINE
  8
0
 10
20.5
 20
35.75
 11
20.5114
 21
35.8802
  0
LINE
  8
0
 10
20.5114
 20
35.8802
 11
20.5452
 21
36.0065
  0
LINE
  8
0
 10
20.5452
 20
36.0065
 11
20.6005
 21
36.125
  0
LINE
  8
0
 10
20.6005
 20
36.125
 11
20.6755
 21
36.2321
  0
LINE
  8
0
 10
20.6755
 20
36.2321
 11
20.7679
 21
36.3245
  0
LINE
  8
0
 10
20.7679
 20
36.3245
 11
20.875
 21
36.3995
  0
LINE
  8
0
 10
20.875
 20
36.3995
 11
20.9935
 21
36.4548
  0
LINE
  8
0
 10
20.9935
 20
36.4548
 11
21.1198
 21
36.4886
  0
LINE
  8
0
 10
21.1198
 20
36.4886
 11
21.25
 21
36.5
  0
LINE
  8
0
 10
21.25
 20
36.5
 11
35.75
 21
36.5
  0
LINE
  8
0
 10
35.75
 20
36.5
 11
35.8802
 21
36.4886
  0
LINE
  8
0
 10
35.8802
 20
36.4886
 11
36.0065
 21
36.4548
  0
LINE
  8
0
 10
36.0065
 20
36.4548
 11
36.125
 21
36.3995
  0
LINE
  8
0
 10
36.125
 20
36.3995
 11
36.2321
 21
36.3245
  0
LINE
  8
0
 10
36.2321
 20
36.3245
 11
36.3245
 21
36.2321
  0
LINE
  8
0
 10
36.3245
 20
36.2321
 11
36.3995
 21
36.125
  0
LINE
  8
0
 10
36.3995
 20
36.125
 11
36.4548
 21
36.0065
  0
LINE
  8
0
 10
36.4548
 20
36.0065
 11
36.4886
 21
35.8802
  0
LINE
  8
0
 10
36.4886
 20
35.8802
 11
36.5
 21
35.75
  0
LINE
  8
0
 10
36.5
 20
35.75
 11
36.5
 21
21.25
  0
LINE
  8
0
 10
36.5
 20
21.25
 11
36.4886
 21
21.1198
  0
LINE
  8
0
 10
36.4886
 20
21.1198
 11
36.4548
 21
20.9935
  0
LINE
  8
0
 10
36.4548
 20
20.9935
 11
36.3995
 21
20.875
  0
LINE
  8
0
 10
36.3995
 20
20.875
 11
36.3245
 21
20.7679
  0
LINE
  8
0
 10
36.3245
 20
20.7679
 11
36.2321
 21
20.6755
  0
LINE
  8
0
 10
36.2321
 20
20.6755
 11
36.125
 21
20.6005
  0
LINE
  8
0
 10
36.125
 20
20.6005
 11
36.0065
 21
20.5452
  0
LINE
  8
0
 10
36.0065
 20
20.5452
 11
35.8802
 21
20.5114
  0
LINE
  8
0
 10
35.8802
 20
20.5114
 11
35.75
 21
20.5
  0
LINE
  8
0
 10
35.75
 20
20.5
 11
21.25
 21
20.5
  0
LINE
  8
0
 10
21.25
 20
20.5
 11
21.1198
 21
20.5114
  0
LINE
  8
0
 10
21.1198
 20
20.5114
 11
20.9935
 21
20.5452
  0
LINE
  8
0
 10
20.9935
 20
20.5452
 11
20.875
 21
20.6005
  0
LINE
  8
0
 10
20.875
 20
20.6005
 11
20.7679
 21
20.6755
  0
LINE
  8
0
 10
20.7679
 20
20.6755
 11
20.6755
 21
20.7679
  0
LINE
  8
0
 10
20.6755
 20
20.7679
 11
20.6005
 21
20.875
  0
LINE
  8
0
 10
20.6005
 20
20.875
 11
20.5452
 21
20.9935
  0
LINE
  8
0
 10
20.5452
 20
20.9935
 11
20.5114
 21
21.1198
  0
LINE
  8
0
 10
20.5114
 20
21.1198
 11
20.5
 21
21.25
  0
LINE
  8
0
 10
19.5
 20
39.25
 11
19.5114
 21
39.1198
  0
LINE
  8
0
 10
19.5114
 20
39.1198
 11
19.5452
 21
38.9935
  0
LINE
  8
0
 10
19.5452
 20
38.9935
 11
19.6005
 21
38.875
  0
LINE
  8
0
 10
19.6005
 20
38.875
 11
19.6755
 21
38.7679
  0
LINE
  8
0
 10
19.6755
 20
38.7679
 11
19.7679
 21
38.6755
  0
LINE
  8
0
 10
19.7679
 20
38.6755
 11
19.875
 21
38.6005
  0
LINE
  8
0
 10
19.875
 20
38.6005
 11
19.9935
 21
38.5452
  0
LINE
  8
0
 10
19.9935
 20
38.5452
 11
20.1198
 21
38.5114
  0
LINE
  8
0
 10
20.1198
 20
38.5114
 11
20.25
 21
38.5
  0
LINE
  8
0
 10
20.25
 20
38.5
 11
36.75
 21
38.5
  0
LINE
  8
0
 10
36.75
 20
38.5
 11
36.8802
 21
38.5114
  0
LINE
  8
0
 10
36.8802
 20
38.5114
 11
37.0065
 21
38.5452
  0
LINE
  8
0
 10
37.0065
 20
38.5452
 11
37.125
 21
38.6005
  0
LINE
  8
0
 10
37.125
 20
38.6005
 11
37.2321
 21
38.6755
  0
LINE
  8
0
 10
37.2321
 20
38.6755
 11
37.3245
 21
38.7679
  0
LINE
  8
0
 10
37.3245
 20
38.7679
 11
37.3995
 21
38.875
  0
LINE
  8
0
 10
37.3995
 20
38.875
 11
37.4548
 21
38.9935
  0
LINE
  8
0
 10
37.4548
 20
38.9935
 11
37.4886
 21
39.1198
  0
LINE
  8
0
 10
37.4886
 20
39.1198
 11
37.5
 21
39.25
  0
LINE
  8
0
 10
37.5
 20
39.25
 11
37.5
 21
55.75
  0
LINE
  8
0
 10
37.5
 20
55.75
 11
37.4886
 21
55.8802
  0
LINE
  8
0
 10
37.4886
 20
55.8802
 11
37.4548
 21
56.0065
  0
LINE
  8
0
 10
37.4548
 20
56.0065
 11
37.3995
 21
56.125
  0
LINE
  8
0
 10
37.3995
 20
56.125
 11
37.3245
 21
56.2321
  0
LINE
  8
0
 10
37.3245
 20
56.2321
 11
37.2321
 21
56.3245
  0
LINE
  8
0
 10
37.2321
 20
56.3245
 11
37.125
 21
56.3995
  0
LINE
  8
0
 10
37.125
 20
56.3995
 11
37.0065
 21
56.4548
  0
LINE
  8
0
 10
37.0065
 20
56.4548
 11
36.8802
 21
56.4886
  0
LINE
  8
0
 10
36.8802
 20
56.4886
 11
36.75
 21
56.5
  0
LINE
  8
0
 10
36.75
 20
56.5
 11
20.25
 21
56.5
  0
LINE
  8
0
 10
20.25
 20
56.5
 11
20.1198
 21
56.4886
  0
LINE
  8
0
 10
20.1198
 20
56.4886
 11
19.9935
 21
56.4548
  0
LINE
  8
0
 10
19.9935
 20
56.4548
 11
19.875
 21
56.3995
  0
LINE
  8
0
 10
19.875
 20
56.3995
 11
19.7679
 21
56.3245
  0
LINE
  8
0
 10
19.7679
 20
56.3245
 11
19.6755
 21
56.2321
  0
LINE
  8
0
 10
19.6755
 20
56.2321
 11
19.6005
 21
56.125
  0
LINE
  8
0
 10
19.6005
 20
56.125
 11
19.5452
 21
56.0065
  0
LINE
  8
0
 10
19.5452
 20
56.0065
 11
19.5114
 21
55.8802
  0
LINE
  8
0
 10
19.5114
 20
55.8802
 11
19.5
 21
55.75
  0
LINE
  8
0
 10
19.5
 20
55.75
 11
19.5
 21
39.25
  0
LINE
  8
0
 10
20.5
 20
40.25
 11
20.5
 21
54.75
  0
LINE
  8
0
 10
20.5
 20
54.75
 11
20.5114
 21
54.8802
  0
LINE
  8
0
 10
20.5114
 20
54.8802
 11
20.5452
 21
55.0065
  0
LINE
  8
0
 10
20.5452
 20
55.0065
 11
20.6005
 21
55.125
  0
LINE
  8
0
 10
20.6005
 20
55.125
 11
20.6755
 21
55.2321
  0
LINE
  8
0
 10
20.6755
 20
55.2321
 11
20.7679
 21
55.3245
  0
LINE
  8
0
 10
20.7679
 20
55.3245
 11
20.875
 21
55.3995
  0
LINE
  8
0
 10
20.875
 20
55.3995
 11
20.9935
 21
55.4548
  0
LINE
  8
0
 10
20.9935
 20
55.4548
 11
21.1198
 21
55.4886
  0
LINE
  8
0
 10
21.1198
 20
55.4886
 11
21.25
 21
55.5
  0
LINE
  8
0
 10
21.25
 20
55.5
 11
35.75
 21
55.5
  0
LINE
  8
0
 10
35.75
 20
55.5
 11
35.8802
 21
55.4886
  0
LINE
  8
0
 10
35.8802
 20
55.4886
 11
36.0065
 21
55.4548
  0
LINE
  8
0
 10
36.0065
 20
55.4548
 11
36.125
 21
55.3995
  0
LINE
  8
0
 10
36.125
 20
55.3995
 11
36.2321
 21
55.3245
  0
LINE
  8
0
 10
36.2321
 20
55.3245
 11
36.3245
 21
55.2321
  0
LINE
  8
0
 10
36.3245
 20
55.2321
 11
36.3995
 21
55.125
  0
LINE
  8
0
 10
36.3995
 20
55.125
 11
36.4548
 21
55.0065
  0
LINE
  8
0
 10
36.4548
 20
55.0065
 11
36.4886
 21
54.8802
  0
LINE
  8
0
 10
36.4886
 20
54.8802
 11
36.5
 21
54.75
  0
LINE
  8
0
 10
36.5
 20
54.75
 11
36.5
 21
40.25
  0
LINE
  8
0
 10
36.5
 20
40.25
 11
36.4886
 21
40.1198
  0
LINE
  8
0
 10
36.4886
 20
40.1198
 11
36.4548
 21
39.9935
  0
LINE
  8
0
 10
36.4548
 20
39.9935
 11
36.3995
 21
39.875
  0
LINE
  8
0
 10
36.3995
 20
39.875
 11
36.3245
 21
39.7679
  0
LINE
  8
0
 10
36.3245
 20
39.7679
 11
36.2321
 21
39.6755
  0
LINE
  8
0
 10
36.2321
 20
39.6755
 11
36.125
 21
39.6005
  0
LINE
  8
0
 10
36.125
 20
39.6005
 11
36.0065
 21
39.5452
  0
LINE
  8
0
 10
36.0065
 20
39.5452
 11
35.8802
 21
39.5114
  0
LINE
  8
0
 10
35.8802
 20
39.5114
 11
35.75
 21
39.5
  0
LINE
  8
0
 10
35.75
 20
39.5
 11
21.25
 21
39.5
  0
LINE
  8
0
 10
21.25
 20
39.5
 11
21.1198
 21
39.5114
  0
LINE
  8
0
 10
21.1198
 20
39.5114
 11
20.9935
 21
39.5452
  0
LINE
  8
0
 10
20.9935
 20
39.5452
 11
20.875
 21
39.6005
  0
LINE
  8
0
 10
20.875
 20
39.6005
 11
20.7679
 21
39.6755
  0
LINE
  8
0
 10
20.7679
 20
39.6755
 11
20.6755
 21
39.7679
  0
LINE
  8
0
 10
20.6755
 20
39.7679
 11
20.6005
 21
39.875
  0
LINE
  8
0
 10
20.6005
 20
39.875
 11
20.5452
 21
39.9935
  0
LINE
  8
0
 10
20.5452
 20
39.9935
 11
20.5114
 21
40.1198
  0
LINE
  8
0
 10
20.5114
 20
40.1198
 11
20.5
 21
40.25
  0
LINE
  8
0
 10
19.5
 20
58.25
 11
19.5114
 21
58.1198
  0
LINE
  8
0
 10
19.5114
 20
58.1198
 11
19.5452
 21
57.9935
  0
LINE
  8
0
 10
19.5452
 20
57.9935
 11
19.6005
 21
57.875
  0
LINE
  8
0
 10
19.6005
 20
57.875
 11
19.6755
 21
57.7679
  0
LINE
  8
0
 10
19.6755
 20
57.7679
 11
19.7679
 21
57.6755
  0
LINE
  8
0
 10
19.7679
 20
57.6755
 11
19.875
 21
57.6005
  0
LINE
  8
0
 10
19.875
 20
57.6005
 11
19.9935
 21
57.5452
  0
LINE
  8
0
 10
19.9935
 20
57.5452
 11
20.1198
 21
57.5114
  0
LINE
  8
0
 10
20.1198
 20
57.5114
 11
20.25
 21
57.5
  0
LINE
  8
0
 10
20.25
 20
57.5
 11
36.75
 21
57.5
  0
LINE
  8
0
 10
36.75
 20
57.5
 11
36.8802
 21
57.5114
  0
LINE
  8
0
 10
36.8802
 20
57.5114
 11
37.0065
 21
57.5452
  0
LINE
  8
0
 10
37.0065
 20
57.5452
 11
37.125
 21
57.6005
  0
LINE
  8
0
 10
37.125
 20
57.6005
 11
37.2321
 21
57.6755
  0
LINE
  8
0
 10
37.2321
 20
57.6755
 11
37.3245
 21
57.7679
  0
LINE
  8
0
 10
37.3245
 20
57.7679
 11
37.3995
 21
57.875
  0
LINE
  8
0
 10
37.3995
 20
57.875
 11
37.4548
 21
57.9935
  0
LINE
  8
0
 10
37.4548
 20
57.9935
 11
37.4886
 21
58.1198
  0
LINE
  8
0
 10
37.4886
 20
58.1198
 11
37.5
 21
58.25
  0
LINE
  8
0
 10
37.5
 20
58.25
 11
37.5
 21
74.75
  0
LINE
  8
0
 10
37.5
 20
74.75
 11
37.4886
 21
74.8802
  0
LINE
  8
0
 10
37.4886
 20
74.8802
 11
37.4548
 21
75.0065
  0
LINE
  8
0
 10
37.4548
 20
75.0065
 11
37.3995
 21
75.125
  0
LINE
  8
0
 10
37.3995
 20
75.125
 11
37.3245
 21
75.2321
  0
LINE
  8
0
 10
37.3245
 20
75.2321
 11
37.2321
 21
75.3245
  0
LINE
  8
0
 10
37.2321
 20
75.3245
 11
37.125
 21
75.3995
  0
LINE
  8
0
 10
37.125
 20
75.3995
 11
37.0065
 21
75.4548
  0
LINE
  8
0
 10
37.0065
 20
75.4548
 11
36.8802
 21
75.4886
  0
LINE
  8
0
 10
36.8802
 20
75.4886
 11
36.75
 21
75.5
  0
LINE
  8
0
 10
36.75
 20
75.5
 11
20.25
 21
75.5
  0
LINE
  8
0
 10
20.25
 20
75.5
 11
20.1198
 21
75.4886
  0
LINE
  8
0
 10
20.1198
 20
75.4886
 11
19.9935
 21
75.4548
  0
LINE
  8
0
 10
19.9935
 20
75.4548
 11
19.875
 21
75.3995
  0
LINE
  8
0
 10
19.875
 20
75.3995
 11
19.7679
 21
75.3245
  0
LINE
  8
0
 10
19.7679
 20
75.3245
 11
19.6755
 21
75.2321
  0
LINE
  8
0
 10
19.6755
 20
75.2321
 11
19.6005
 21
75.125
  0
LINE
  8
0
 10
19.6005
 20
75.125
 11
19.5452
 21
75.0065
  0
LINE
  8
0
 10
19.5452
 20
75.0065
 11
19.5114
 21
74.8802
  0
LINE
  8
0
 10
19.5114
 20
74.8802
 11
19.5
 21
74.75
  0
LINE
  8
0
 10
19.5
 20
74.75
 11
19.5
 21
58.25
  0
LINE
  8
0
 10
20.5
 20
59.25
 11
20.5
 21
73.75
  0
LINE
  8
0
 10
20.5
 20
73.75
 11
20.5114
 21
73.8802
  0
LINE
  8
0
 10
20.5114
 20
73.8802
 11
20.5452
 21
74.0065
  0
LINE
  8
0
 10
20.5452
 20
74.0065
 11
20.6005
 21
74.125
  0
LINE
  8
0
 10
20.6005
 20
74.125
 11
20.6755
 21
74.2321
  0
LINE
  8
0
 10
20.6755
 20
74.2321
 11
20.7679
 21
74.3245
  0
LINE
  8
0
 10
20.7679
 20
74.3245
 11
20.875
 21
74.3995
  0
LINE
  8
0
 10
20.875
 20
74.3995
 11
20.9935
 21
74.4548
  0
LINE
  8
0
 10
20.9935
 20
74.4548
 11
21.1198
 21
74.4886
  0
LINE
  8
0
 10
21.1198
 20
74.4886
 11
21.25
 21
74.5
  0
LINE
  8
0
 10
21.25
 20
74.5
 11
35.75
 21
74.5
  0
LINE
  8
0
 10
35.75
 20
74.5
 11
35.8802
 21
74.4886
  0
LINE
  8
0
 10
35.8802
 20
74.4886
 11
36.0065
 21
74.4548
  0
LINE
  8
0
 10
36.0065
 20
74.4548
 11
36.125
 21
74.3995
  0
LINE
  8
0
 10
36.125
 20
74.3995
 11
36.2321
 21
74.3245
  0
LINE
  8
0
 10
36.2321
 20
74.3245
 11
36.3245
 21
74.2321
  0
LINE
  8
0
 10
36.3245
 20
74.2321
 11
36.3995
 21
74.125
  0
LINE
  8
0
 10
36.3995
 20
74.125
 11
36.4548
 21
74.0065
  0
LINE
  8
0
 10
36.4548
 20
74.0065
 11
36.4886
 21
73.8802
  0
LINE
  8
0
 10
36.4886
 20
73.8802
 11
36.5
 21
73.75
  0
LINE
  8
0
 10
36.5
 20
73.75
 11
36.5
 21
59.25
  0
LINE
  8
0
 10
36.5
 20
59.25
 11
36.4886
 21
59.1198
  0
LINE
  8
0
 10
36.4886
 20
59.1198
 11
36.4548
 21
58.9935
  0
LINE
  8
0
 10
36.4548
 20
58.9935
 11
36.3995
 21
58.875
  0
LINE
  8
0
 10
36.3995
 20
58.875
 11
36.3245
 21
58.7679
  0
LINE
  8
0
 10
36.3245
 20
58.7679
 11
36.2321
 21
58.6755
  0
LINE
  8
0
 10
36.2321
 20
58.6755
 11
36.125
 21
58.6005
  0
LINE
  8
0
 10
36.125
 20
58.6005
 11
36.0065
 21
58.5452
  0
LINE
  8
0
 10
36.0065
 20
58.5452
 11
35.8802
 21
58.5114
  0
LINE
  8
0
 10
35.8802
 20
58.5114
 11
35.75
 21
58.5
  0
LINE
  8
0
 10
35.75
 20
58.5
 11
21.25
 21
58.5
  0
LINE
  8
0
 10
21.25
 20
58.5
 11
21.1198
 21
58.5114
  0
LINE
  8
0
 10
21.1198
 20
58.5114
 11
20.9935
 21
58.5452
  0
LINE
  8
0
 10
20.9935
 20
58.5452
 11
20.875
 21
58.6005
  0
LINE
  8
0
 10
20.875
 20
58.6005
 11
20.7679
 21
58.6755
  0
LINE
  8
0
 10
20.7679
 20
58.6755
 11
20.6755
 21
58.7679
  0
LINE
  8
0
 10
20.6755
 20
58.7679
 11
20.6005
 21
58.875
  0
LINE
  8
0
 10
20.6005
 20
58.875
 11
20.5452
 21
58.9935
  0
LINE
  8
0
 10
20.5452
 20
58.9935
 11
20.5114
 21
59.1198
  0
LINE
  8
0
 10
20.5114
 20
59.1198
 11
20.5
 21
59.25
  0
LINE
  8
0
 10
19.5
 20
77.25
 11
19.5114
 21
77.1198
  0
LINE
  8
0
 10
19.5114
 20
77.1198
 11
19.5452
 21
76.9935
  0
LINE
  8
0
 10
19.5452
 20
76.9935
 11
19.6005
 21
76.875
  0
LINE
  8
0
 10
19.6005
 20
76.875
 11
19.6755
 21
76.7679
  0
LINE
  8
0
 10
19.6755
 20
76.7679
 11
19.7679
 21
76.6755
  0
LINE
  8
0
 10
19.7679
 20
76.6755
 11
19.875
 21
76.6005
  0
LINE
  8
0
 10
19.875
 20
76.6005
 11
19.9935
 21
76.5452
  0
LINE
  8
0
 10
19.9935
 20
76.5452
 11
20.1198
 21
76.5114
  0
LINE
  8
0
 10
20.1198
 20
76.5114
 11
20.25
 21
76.5
  0
LINE
  8
0
 10
20.25
 20
76.5
 11
36.75
 21
76.5
  0
LINE
  8
0
 10
36.75
 20
76.5
 11
36.8802
 21
76.5114
  0
LINE
  8
0
 10
36.8802
 20
76.5114
 11
37.0065
 21
76.5452
  0
LINE
  8
0
 10
37.0065
 20
76.5452
 11
37.125
 21
76.6005
  0
LINE
  8
0
 10
37.125
 20
76.6005
 11
37.2321
 21
76.6755
  0
LINE
  8
0
 10
37.2321
 20
76.6755
 11
37.3245
 21
76.7679
  0
LINE
  8
0
 10
37.3245
 20
76.7679
 11
37.3995
 21
76.875
  0
LINE
  8
0
 10
37.3995
 20
76.875
 11
37.4548
 21
76.9935
  0
LINE
  8
0
 10
37.4548
 20
76.9935
 11
37.4886
 21
77.1198
  0
LINE
  8
0
 10
37.4886
 20
77.1198
 11
37.5
 21
77.25
  0
LINE
  8
0
 10
37.5
 20
77.25
 11
37.5
 21
93.75
  0
LINE
  8
0
 10
37.5
 20
93.75
 11
37.4886
 21
93.8802
  0
LINE
  8
0
 10
37.4886
 20
93.8802
 11
37.4548
 21
94.0065
  0
LINE
  8
0
 10
37.4548
 20
94.0065
 11
37.3995
 21
94.125
  0
LINE
  8
0
 10
37.3995
 20
94.125
 11
37.3245
 21
94.2321
  0
LINE
  8
0
 10
37.3245
 20
94.2321
 11
37.2321
 21
94.3245
  0
LINE
  8
0
 10
37.2321
 20
94.3245
 11
37.125
 21
94.3995
  0
LINE
  8
0
 10
37.125
 20
94.3995
 11
37.0065
 21
94.4548
  0
LINE
  8
0
 10
37.0065
 20
94.4548
 11
36.8802
 21
94.4886
  0
LINE
  8
0
 10
36.8802
 20
94.4886
 11
36.75
 21
94.5
  0
LINE
  8
0
 10
36.75
 20
94.5
 11
20.25
 21
94.5
  0
LINE
  8
0
 10
20.25
 20
94.5
 11
20.1198
 21
94.4886
  0
LINE
  8
0
 10
20.1198
 20
94.4886
 11
19.9935
 21
94.4548
  0
LINE
  8
0
 10
19.9935
 20
94.4548
 11
19.875
 21
94.3995
  0
LINE
  8
0
 10
19.875
 20
94.3995
 11
19.7679
 21
94.3245
  0
LINE
  8
0
 10
19.7679
 20
94.3245
 11
19.6755
 21
94.2321
  0
LINE
  8
0
 10
19.6755
 20
94.2321
 11
19.6005
 21
94.125
  0
LINE
  8
0
 10
19.6005
 20
94.125
 11
19.5452
 21
94.0065
  0
LINE
  8
0
 10
19.5452
 20
94.0065
 11
19.5114
 21
93.8802
  0
LINE
  8
0
 10
19.5114
 20
93.8802
 11
19.5
 21
93.75
  0
LINE
  8
0
 10
19.5
 20
93.75
 11
19.5
 21
77.25
  0
LINE
  8
0
 10
20.5
 20
78.25
 11
20.5
 21
92.75
  0
LINE
  8
0
 10
20.5
 20
92.75
 11
20.5114
 21
92.8802
  0
LINE
  8
0
 10
20.5114
 20
92.8802
 11
20.5452
 21
93.0065
  0
LINE
  8
0
 10
20.5452
 20
93.0065
 11
20.6005
 21
93.125
  0
LINE
  8
0
 10
20.6005
 20
93.125
 11
20.6755
 21
93.2321
  0
LINE
  8
0
 10
20.6755
 20
93.2321
 11
20.7679
 21
93.3245
  0
LINE
  8
0
 10
20.7679
 20
93.3245
 11
20.875
 21
93.3995
  0
LINE
  8
0
 10
20.875
 20
93.3995
 11
20.9935
 21
93.4548
  0
LINE
  8
0
 10
20.9935
 20
93.4548
 11
21.1198
 21
93.4886
  0
LINE
  8
0
 10
21.1198
 20
93.4886
 11
21.25
 21
93.5
  0
LINE
  8
0
 10
21.25
 20
93.5
 11
35.75
 21
93.5
  0
LINE
  8
0
 10
35.75
 20
93.5
 11
35.8802
 21
93.4886
  0
LINE
  8
0
 10
35.8802
 20
93.4886
 11
36.0065
 21
93.4548
  0
LINE
  8
0
 10
36.0065
 20
93.4548
 11
36.125
 21
93.3995
  0
LINE
  8
0
 10
36.125
 20
93.3995
 11
36.2321
 21
93.3245
  0
LINE
  8
0
 10
36.2321
 20
93.3245
 11
36.3245
 21
93.2321
  0
LINE
  8
0
 10
36.3245
 20
93.2321
 11
36.3995
 21
93.125
  0
LINE
  8
0
 10
36.3995
 20
93.125
 11
36.4548
 21
93.0065
  0
LINE
  8
0
 10
36.4548
 20
93.0065
 11
36.4886
 21
92.8802
  0
LINE
  8
0
 10
36.4886
 20
92.8802
 11
36.5
 21
92.75
  0
LINE
  8
0
 10
36.5
 20
92.75
 11
36.5
 21
78.25
  0
LINE
  8
0
 10
36.5
 20
78.25
 11
36.4886
 21
78.1198
  0
LINE
  8
0
 10
36.4886
 20
78.1198
 11
36.4548
 21
77.9935
  0
LINE
  8
0
 10
36.4548
 20
77.9935
 11
36.3995
 21
77.875
  0
LINE
  8
0
 10
36.3995
 20
77.875
 11
36.3245
 21
77.7679
  0
LINE
  8
0
 10
36.3245
 20
77.7679
 11
36.2321
 21
77.6755
  0
LINE
  8
0
 10
36.2321
 20
77.6755
 11
36.125
 21
77.6005
  0
LINE
  8
0
 10
36.125
 20
77.6005
 11
36.0065
 21
77.5452
  0
LINE
  8
0
 10
36.0065
 20
77.5452
 11
35.8802
 21
77.5114
  0
LINE
  8
0
 10
35.8802
 20
77.5114
 11
35.75
 21
77.5
  0
LINE
  8
0
 10
35.75
 20
77.5
 11
21.25
 21
77.5
  0
LINE
  8
0
 10
21.25
 20
77.5
 11
21.1198
 21
77.5114
  0
LINE
  8
0
 10
21.1198
 20
77.5114
 11
20.9935
 21
77.5452
  0
LINE
  8
0
 10
20.9935
 20
77.5452
 11
20.875
 21
77.6005
  0
LINE
  8
0
 10
20.875
 20
77.6005
 11
20.7679
 21
77.6755
  0
LINE
  8
0
 10
20.7679
 20
77.6755
 11
20.6755
 21
77.7679
  0
LINE
  8
0
 10
20.6755
 20
77.7679
 11
20.6005
 21
77.875
  0
LINE
  8
0
 10
20.6005
 20
77.875
 11
20.5452
 21
77.9935
  0
LINE
  8
0
 10
20.5452
 20
77.9935
 11
20.5114
 21
78.1198
  0
LINE
  8
0
 10
20.5114
 20
78.1198
 11
20.5
 21
78.25
  0
LINE
  8
0
 10
19.5
 20
96.25
 11
19.5114
 21
96.1198
  0
LINE
  8
0
 10
19.5114
 20
96.1198
 11
19.5452
 21
95.9935
  0
LINE
  8
0
 10
19.5452
 20
95.9935
 11
19.6005
 21
95.875
  0
LINE
  8
0
 10
19.6005
 20
95.875
 11
19.6755
 21
95.7679
  0
LINE
  8
0
 10
19.6755
 20
95.7679
 11
19.7679
 21
95.6755
  0
LINE
  8
0
 10
19.7679
 20
95.6755
 11
19.875
 21
95.6005
  0
LINE
  8
0
 10
19.875
 20
95.6005
 11
19.9935
 21
95.5452
  0
LINE
  8
0
 10
19.9935
 20
95.5452
 11
20.1198
 21
95.5114
  0
LINE
  8
0
 10
20.1198
 20
95.5114
 11
20.25
 21
95.5
  0
LINE
  8
0
 10
20.25
 20
95.5
 11
36.75
 21
95.5
  0
LINE
  8
0
 10
36.75
 20
95.5
 11
36.8802
 21
95.5114
  0
LINE
  8
0
 10
36.8802
 20
95.5114
 11
37.0065
 21
95.5452
  0
LINE
  8
0
 10
37.0065
 20
95.5452
 11
37.125
 21
95.6005
  0
LINE
  8
0
 10
37.125
 20
95.6005
 11
37.2321
 21
95.6755
  0
LINE
  8
0
 10
37.2321
 20
95.6755
 11
37.3245
 21
95.7679
  0
LINE
  8
0
 10
37.3245
 20
95.7679
 11
37.3995
 21
95.875
  0
LINE
  8
0
 10
37.3995
 20
95.875
 11
37.4548
 21
95.9935
  0
LINE
  8
0
 10
37.4548
 20
95.9935
 11
37.4886
 21
96.1198
  0
LINE
  8
0
 10
37.4886
 20
96.1198
 11
37.5
 21
96.25
  0
LINE
  8
0
 10
37.5
 20
96.25
 11
37.5
 21
112.75
  0
LINE
  8
0
 10
37.5
 20
112.75
 11
37.4886
 21
112.88
  0
LINE
  8
0
 10
37.4886
 20
112.88
 11
37.4548
 21
113.007
  0
LINE
  8
0
 10
37.4548
 20
113.007
 11
37.3995
 21
113.125
  0
LINE
  8
0
 10
37.3995
 20
113.125
 11
37.3245
 21
113.232
  0
LINE
  8
0
 10
37.3245
 20
113.232
 11
37.2321
 21
113.325
  0
LINE
  8
0
 10
37.2321
 20
113.325
 11
37.125
 21
113.4
  0
LINE
  8
0
 10
37.125
 20
113.4
 11
37.0065
 21
113.455
  0
LINE
  8
0
 10
37.0065
 20
113.455
 11
36.8802
 21
113.489
  0
LINE
  8
0
 10
36.8802
 20
113.489
 11
36.75
 21
113.5
  0
LINE
  8
0
 10
36.75
 20
113.5
 11
20.25
 21
113.5
  0
LINE
  8
0
 10
20.25
 20
113.5
 11
20.1198
 21
113.489
  0
LINE
  8
0
 10
20.1198
 20
113.489
 11
19.9935
 21
113.455
  0
LINE
  8
0
 10
19.9935
 20
113.455
 11
19.875
 21
113.4
  0
LINE
  8
0
 10
19.875
 20
113.4
 11
19.7679
 21
113.325
  0
LINE
  8
0
 10
19.7679
 20
113.325
 11
19.6755
 21
113.232
  0
LINE
  8
0
 10
19.6755
 20
113.232
 11
19.6005
 21
113.125
  0
LINE
  8
0
 10
19.6005
 20
113.125
 11
19.5452
 21
113.007
  0
LINE
  8
0
 10
19.5452
 20
113.007
 11
19.5114
 21
112.88
  0
LINE
  8
0
 10
19.5114
 20
112.88
 11
19.5
 21
112.75
  0
LINE
  8
0
 10
19.5
 20
112.75
 11
19.5
 21
96.25
  0
LINE
  8
0
 10
20.5
 20
97.25
 11
20.5
 21
111.75
  0
LINE
  8
0
 10
20.5
 20
111.75
 11
20.5114
 21
111.88
  0
LINE
  8
0
 10
20.5114
 20
111.88
 11
20.5452
 21
112.007
  0
LINE
  8
0
 10
20.5452
 20
112.007
 11
20.6005
 21
112.125
  0
LINE
  8
0
 10
20.6005
 20
112.125
 11
20.6755
 21
112.232
  0
LINE
  8
0
 10
20.6755
 20
112.232
 11
20.7679
 21
112.325
  0
LINE
  8
0
 10
20.7679
 20
112.325
 11
20.875
 21
112.4
  0
LINE
  8
0
 10
20.875
 20
112.4
 11
20.9935
 21
112.455
  0
LINE
  8
0
 10
20.9935
 20
112.455
 11
21.1198
 21
112.489
  0
LINE
  8
0
 10
21.1198
 20
112.489
 11
21.25
 21
112.5
  0
LINE
  8
0
 10
21.25
 20
112.5
 11
35.75
 21
112.5
  0
LINE
  8
0
 10
35.75
 20
112.5
 11
35.8802
 21
112.489
  0
LINE
  8
0
 10
35.8802
 20
112.489
 11
36.0065
 21
112.455
  0
LINE
  8
0
 10
36.0065
 20
112.455
 11
36.125
 21
112.4
  0
LINE
  8
0
 10
36.125
 20
112.4
 11
36.2321
 21
112.325
  0
LINE
  8
0
 10
36.2321
 20
112.325
 11
36.3245
 21
112.232
  0
LINE
  8
0
 10
36.3245
 20
112.232
 11
36.3995
 21
112.125
  0
LINE
  8
0
 10
36.3995
 20
112.125
 11
36.4548
 21
112.007
  0
LINE
  8
0
 10
36.4548
 20
112.007
 11
36.4886
 21
111.88
  0
LINE
  8
0
 10
36.4886
 20
111.88
 11
36.5
 21
111.75
  0
LINE
  8
0
 10
36.5
 20
111.75
 11
36.5
 21
97.25
  0
LINE
  8
0
 10
36.5
 20
97.25
 11
36.4886
 21
97.1198
  0
LINE
  8
0
 10
36.4886
 20
97.1198
 11
36.4548
 21
96.9935
  0
LINE
  8
0
 10
36.4548
 20
96.9935
 11
36.3995
 21
96.875
  0
LINE
  8
0
 10
36.3995
 20
96.875
 11
36.3245
 21
96.7679
  0
LINE
  8
0
 10
36.3245
 20
96.7679
 11
36.2321
 21
96.6755
  0
LINE
  8
0
 10
36.2321
 20
96.6755
 11
36.125
 21
96.6005
  0
LINE
  8
0
 10
36.125
 20
96.6005
 11
36.0065
 21
96.5452
  0
LINE
  8
0
 10
36.0065
 20
96.5452
 11
35.8802
 21
96.5114
  0
LINE
  8
0
 10
35.8802
 20
96.5114
 11
35.75
 21
96.5
  0
LINE
  8
0
 10
35.75
 20
96.5
 11
21.25
 21
96.5
  0
LINE
  8
0
 10
21.25
 20
96.5
 11
21.1198
 21
96.5114
  0
LINE
  8
0
 10
21.1198
 20
96.5114
 11
20.9935
 21
96.5452
  0
LINE
  8
0
 10
20.9935
 20
96.5452
 11
20.875
 21
96.6005
  0
LINE
  8
0
 10
20.875
 20
96.6005
 11
20.7679
 21
96.6755
  0
LINE
  8
0
 10
20.7679
 20
96.6755
 11
20.6755
 21
96.7679
  0
LINE
  8
0
 10
20.6755
 20
96.7679
 11
20.6005
 21
96.875
  0
LINE
  8
0
 10
20.6005
 20
96.875
 11
20.5452
 21
96.9935
  0
LINE
  8
0
 10
20.5452
 20
96.9935
 11
20.5114
 21
97.1198
  0
LINE
  8
0
 10
20.5114
 20
97.1198
 11
20.5
 21
97.25
  0
LINE
  8
0
 10
19.5
 20
115.25
 11
19.5114
 21
115.12
  0
LINE
  8
0
 10
19.5114
 20
115.12
 11
19.5452
 21
114.993
  0
LINE
  8
0
 10
19.5452
 20
114.993
 11
19.6005
 21
114.875
  0
LINE
  8
0
 10
19.6005
 20
114.875
 11
19.6755
 21
114.768
  0
LINE
  8
0
 10
19.6755
 20
114.768
 11
19.7679
 21
114.675
  0
LINE
  8
0
 10
19.7679
 20
114.675
 11
19.875
 21
114.6
  0
LINE
  8
0
 10
19.875
 20
114.6
 11
19.9935
 21
114.545
  0
LINE
  8
0
 10
19.9935
 20
114.545
 11
20.1198
 21
114.511
  0
LINE
  8
0
 10
20.1198
 20
114.511
 11
20.25
 21
114.5
  0
LINE
  8
0
 10
20.25
 20
114.5
 11
36.75
 21
114.5
  0
LINE
  8
0
 10
36.75
 20
114.5
 11
36.8802
 21
114.511
  0
LINE
  8
0
 10
36.8802
 20
114.511
 11
37.0065
 21
114.545
  0
LINE
  8
0
 10
37.0065
 20
114.545
 11
37.125
 21
114.6
  0
LINE
  8
0
 10
37.125
 20
114.6
 11
37.2321
 21
114.675
  0
LINE
  8
0
 10
37.2321
 20
114.675
 11
37.3245
 21
114.768
  0
LINE
  8
0
 10
37.3245
 20
114.768
 11
37.3995
 21
114.875
  0
LINE
  8
0
 10
37.3995
 20
114.875
 11
37.4548
 21
114.993
  0
LINE
  8
0
 10
37.4548
 20
114.993
 11
37.4886
 21
115.12
  0
LINE
  8
0
 10
37.4886
 20
115.12
 11
37.5
 21
115.25
  0
LINE
  8
0
 10
37.5
 20
115.25
 11
37.5
 21
131.75
  0
LINE
  8
0
 10
37.5
 20
131.75
 11
37.4886
 21
131.88
  0
LINE
  8
0
 10
37.4886
 20
131.88
 11
37.4548
 21
132.007
  0
LINE
  8
0
 10
37.4548
 20
132.007
 11
37.3995
 21
132.125
  0
LINE
  8
0
 10
37.3995
 20
132.125
 11
37.3245
 21
132.232
  0
LINE
  8
0
 10
37.3245
 20
132.232
 11
37.2321
 21
132.325
  0
LINE
  8
0
 10
37.2321
 20
132.325
 11
37.125
 21
132.4
  0
LINE
  8
0
 10
37.125
 20
132.4
 11
37.0065
 21
132.455
  0
LINE
  8
0
 10
37.0065
 20
132.455
 11
36.8802
 21
132.489
  0
LINE
  8
0
 10
36.8802
 20
132.489
 11
36.75
 21
132.5
  0
LINE
  8
0
 10
36.75
 20
132.5
 11
20.25
 21
132.5
  0
LINE
  8
0
 10
20.25
 20
132.5
 11
20.1198
 21
132.489
  0
LINE
  8
0
 10
20.1198
 20
132.489
 11
19.9935
 21
132.455
  0
LINE
  8
0
 10
19.9935
 20
132.455
 11
19.875
 21
132.4
  0
LINE
  8
0
 10
19.875
 20
132.4
 11
19.7679
 21
132.325
  0
LINE
  8
0
 10
19.7679
 20
132.325
 11
19.6755
 21
132.232
  0
LINE
  8
0
 10
19.6755
 20
132.232
 11
19.6005
 21
132.125
  0
LINE
  8
0
 10
19.6005
 20
132.125
 11
19.5452
 21
132.007
  0
LINE
  8
0
 10
19.5452
 20
132.007
 11
19.5114
 21
131.88
  0
LINE
  8
0
 10
19.5114
 20
131.88
 11
19.5
 21
131.75
  0
LINE
  8
0
 10
19.5
 20
131.75
 11
19.5
 21
115.25
  0
LINE
  8
0
 10
20.5
 20
116.25
 11
20.5
 21
130.75
  0
LINE
  8
0
 10
20.5
 20
130.75
 11
20.5114
 21
130.88
  0
LINE
  8
0
 10
20.5114
 20
130.88
 11
20.5452
 21
131.007
  0
LINE
  8
0
 10
20.5452
 20
131.007
 11
20.6005
 21
131.125
  0
LINE
  8
0
 10
20.6005
 20
131.125
 11
20.6755
 21
131.232
  0
LINE
  8
0
 10
20.6755
 20
131.232
 11
20.7679
 21
131.325
  0
LINE
  8
0
 10
20.7679
 20
131.325
 11
20.875
 21
131.4
  0
LINE
  8
0
 10
20.875
 20
131.4
 11
20.9935
 21
131.455
  0
LINE
  8
0
 10
20.9935
 20
131.455
 11
21.1198
 21
131.489
  0
LINE
  8
0
 10
21.1198
 20
131.489
 11
21.25
 21
131.5
  0
LINE
  8
0
 10
21.25
 20
131.5
 11
35.75
 21
131.5
  0
LINE
  8
0
 10
35.75
 20
131.5
 11
35.8802
 21
131.489
  0
LINE
  8
0
 10
35.8802
 20
131.489
 11
36.0065
 21
131.455
  0
LINE
  8
0
 10
36.0065
 20
131.455
 11
36.125
 21
131.4
  0
LINE
  8
0
 10
36.125
 20
131.4
 11
36.2321
 21
131.325
  0
LINE
  8
0
 10
36.2321
 20
131.325
 11
36.3245
 21
131.232
  0
LINE
  8
0
 10
36.3245
 20
131.232
 11
36.3995
 21
131.125
  0
LINE
  8
0
 10
36.3995
 20
131.125
 11
36.4548
 21
131.007
  0
LINE
  8
0
 10
36.4548
 20
131.007
 11
36.4886
 21
130.88
  0
LINE
  8
0
 10
36.4886
 20
130.88
 11
36.5
 21
130.75
  0
LINE
  8
0
 10
36.5
 20
130.75
 11
36.5
 21
116.25
  0
LINE
  8
0
 10
36.5
 20
116.25
 11
36.4886
 21
116.12
  0
LINE
  8
0
 10
36.4886
 20
116.12
 11
36.4548
 21
115.993
  0
LINE
  8
0
 10
36.4548
 20
115.993
 11
36.3995
 21
115.875
  0
LINE
  8
0
 10
36.3995
 20
115.875
 11
36.3245
 21
115.768
  0
LINE
  8
0
 10
36.3245
 20
115.768
 11
36.2321
 21
115.675
  0
LINE
  8
0
 10
36.2321
 20
115.675
 11
36.125
 21
115.6
  0
LINE
  8
0
 10
36.125
 20
115.6
 11
36.0065
 21
115.545
  0
LINE
  8
0
 10
36.0065
 20
115.545
 11
35.8802
 21
115.511
  0
LINE
  8
0
 10
35.8802
 20
115.511
 11
35.75
 21
115.5
  0
LINE
  8
0
 10
35.75
 20
115.5
 11
21.25
 21
115.5
  0
LINE
  8
0
 10
21.25
 20
115.5
 11
21.1198
 21
115.511
  0
LINE
  8
0
 10
21.1198
 20
115.511
 11
20.9935
 21
115.545
  0
LINE
  8
0
 10
20.9935
 20
115.545
 11
20.875
 21
115.6
  0
LINE
  8
0
 10
20.875
 20
115.6
 11
20.7679
 21
115.675
  0
LINE
  8
0
 10
20.7679
 20
115.675
 11
20.6755
 21
115.768
  0
LINE
  8
0
 10
20.6755
 20
115.768
 11
20.6005
 21
115.875
  0
LINE
  8
0
 10
20.6005
 20
115.875
 11
20.5452
 21
115.993
  0
LINE
  8
0
 10
20.5452
 20
115.993
 11
20.5114
 21
116.12
  0
LINE
  8
0
 10
20.5114
 20
116.12
 11
20.5
 21
116.25
  0
LINE
  8
0
 10
38.5
 20
1.25
 11
38.5114
 21
1.11976
  0
LINE
  8
0
 10
38.5114
 20
1.11976
 11
38.5452
 21
0.993485
  0
LINE
  8
0
 10
38.5452
 20
0.993485
 11
38.6005
 21
0.875
  0
LINE
  8
0
 10
38.6005
 20
0.875
 11
38.6755
 21
0.76791
  0
LINE
  8
0
 10
38.6755
 20
0.76791
 11
38.7679
 21
0.675467
  0
LINE
  8
0
 10
38.7679
 20
0.675467
 11
38.875
 21
0.600481
  0
LINE
  8
0
 10
38.875
 20
0.600481
 11
38.9935
 21
0.545231
  0
LINE
  8
0
 10
38.9935
 20
0.545231
 11
39.1198
 21
0.511395
  0
LINE
  8
0
 10
39.1198
 20
0.511395
 11
39.25
 21
0.5
  0
LINE
  8
0
 10
39.25
 20
0.5
 11
55.75
 21
0.5
  0
LINE
  8
0
 10
55.75
 20
0.5
 11
55.8802
 21
0.511395
  0
LINE
  8
0
 10
55.8802
 20
0.511395
 11
56.0065
 21
0.545231
  0
LINE
  8
0
 10
56.0065
 20
0.545231
 11
56.125
 21
0.600481
  0
LINE
  8
0
 10
56.125
 20
0.600481
 11
56.2321
 21
0.675467
  0
LINE
  8
0
 10
56.2321
 20
0.675467
 11
56.3245
 21
0.76791
  0
LINE
  8
0
 10
56.3245
 20
0.76791
 11
56.3995
 21
0.875
  0
LINE
  8
0
 10
56.3995
 20
0.875
 11
56.4548
 21
0.993485
  0
LINE
  8
0
 10
56.4548
 20
0.993485
 11
56.4886
 21
1.11976
  0
LINE
  8
0
 10
56.4886
 20
1.11976
 11
56.5
 21
1.25
  0
LINE
  8
0
 10
56.5
 20
1.25
 11
56.5
 21
17.75
  0
LINE
  8
0
 10
56.5
 20
17.75
 11
56.4886
 21
17.8802
  0
LINE
  8
0
 10
56.4886
 20
17.8802
 11
56.4548
 21
18.0065
  0
LINE
  8
0
 10
56.4548
 20
18.0065
 11
56.3995
 21
18.125
  0
LINE
  8
0
 10
56.3995
 20
18.125
 11
56.3245
 21
18.2321
  0
LINE
  8
0
 10
56.3245
 20
18.2321
 11
56.2321
 21
18.3245
  0
LINE
  8
0
 10
56.2321
 20
18.3245
 11
56.125
 21
18.3995
  0
LINE
  8
0
 10
56.125
 20
18.3995
 11
56.0065
 21
18.4548
  0
LINE
  8
0
 10
56.0065
 20
18.4548
 11
55.8802
 21
18.4886
  0
LINE
  8
0
 10
55.8802
 20
18.4886
 11
55.75
 21
18.5
  0
LINE
  8
0
 10
55.75
 20
18.5
 11
39.25
 21
18.5
  0
LINE
  8
0
 10
39.25
 20
18.5
 11
39.1198
 21
18.4886
  0
LINE
  8
0
 10
39.1198
 20
18.4886
 11
38.9935
 21
18.4548
  0
LINE
  8
0
 10
38.9935
 20
18.4548
 11
38.875
 21
18.3995
  0
LINE
  8
0
 10
38.875
 20
18.3995
 11
38.7679
 21
18.3245
  0
LINE
  8
0
 10
38.7679
 20
18.3245
 11
38.6755
 21
18.2321
  0
LINE
  8
0
 10
38.6755
 20
18.2321
 11
38.6005
 21
18.125
  0
LINE
  8
0
 10
38.6005
 20
18.125
 11
38.5452
 21
18.0065
  0
LINE
  8
0
 10
38.5452
 20
18.0065
 11
38.5114
 21
17.8802
  0
LINE
  8
0
 10
38.5114
 20
17.8802
 11
38.5
 21
17.75
  0
LINE
  8
0
 10
38.5
 20
17.75
 11
38.5
 21
1.25
  0
LINE
  8
0
 10
39.5
 20
2.25
 11
39.5
 21
16.75
  0
LINE
  8
0
 10
39.5
 20
16.75
 11
39.5114
 21
16.8802
  0
LINE
  8
0
 10
39.5114
 20
16.8802
 11
39.5452
 21
17.0065
  0
LINE
  8
0
 10
39.5452
 20
17.0065
 11
39.6005
 21
17.125
  0
LINE
  8
0
 10
39.6005
 20
17.125
 11
39.6755
 21
17.2321
  0
LINE
  8
0
 10
39.6755
 20
17.2321
 11
39.7679
 21
17.3245
  0
LINE
  8
0
 10
39.7679
 20
17.3245
 11
39.875
 21
17.3995
  0
LINE
  8
0
 10
39.875
 20
17.3995
 11
39.9935
 21
17.4548
  0
LINE
  8
0
 10
39.9935
 20
17.4548
 11
40.1198
 21
17.4886
  0
LINE
  8
0
 10
40.1198
 20
17.4886
 11
40.25
 21
17.5
  0
LINE
  8
0
 10
40.25
 20
17.5
 11
54.75
 21
17.5
  0
LINE
  8
0
 10
54.75
 20
17.5
 11
54.8802
 21
17.4886
  0
LINE
  8
0
 10
54.8802
 20
17.4886
 11
55.0065
 21
17.4548
  0
LINE
  8
0
 10
55.0065
 20
17.4548
 11
55.125
 21
17.3995
  0
LINE
  8
0
 10
55.125
 20
17.3995
 11
55.2321
 21
17.3245
  0
LINE
  8
0
 10
55.2321
 20
17.3245
 11
55.3245
 21
17.2321
  0
LINE
  8
0
 10
55.3245
 20
17.2321
 11
55.3995
 21
17.125
  0
LINE
  8
0
 10
55.3995
 20
17.125
 11
55.4548
 21
17.0065
  0
LINE
  8
0
 10
55.4548
 20
17.0065
 11
55.4886
 21
16.8802
  0
LINE
  8
0
 10
55.4886
 20
16.8802
 11
55.5
 21
16.75
  0
LINE
  8
0
 10
55.5
 20
16.75
 11
55.5
 21
2.25
  0
LINE
  8
0
 10
55.5
 20
2.25
 11
55.4886
 21
2.11976
  0
LINE
  8
0
 10
55.4886
 20
2.11976
 11
55.4548
 21
1.99349
  0
LINE
  8
0
 10
55.4548
 20
1.99349
 11
55.3995
 21
1.875
  0
LINE
  8
0
 10
55.3995
 20
1.875
 11
55.3245
 21
1.76791
  0
LINE
  8
0
 10
55.3245
 20
1.76791
 11
55.2321
 21
1.67547
  0
LINE
  8
0
 10
55.2321
 20
1.67547
 11
55.125
 21
1.60048
  0
LINE
  8
0
 10
55.125
 20
1.60048
 11
55.0065
 21
1.54523
  0
LINE
  8
0
 10
55.0065
 20
1.54523
 11
54.8802
 21
1.51139
  0
LINE
  8
0
 10
54.8802
 20
1.51139
 11
54.75
 21
1.5
  0
LINE
  8
0
 10
54.75
 20
1.5
 11
40.25
 21
1.5
  0
LINE
  8
0
 10
40.25
 20
1.5
 11
40.1198
 21
1.51139
  0
LINE
  8
0
 10
40.1198
 20
1.51139
 11
39.9935
 21
1.54523
  0
LINE
  8
0
 10
39.9935
 20
1.54523
 11
39.875
 21
1.60048
  0
LINE
  8
0
 10
39.875
 20
1.60048
 11
39.7679
 21
1.67547
  0
LINE
  8
0
 10
39.7679
 20
1.67547
 11
39.6755
 21
1.76791
  0
LINE
  8
0
 10
39.6755
 20
1.76791
 11
39.6005
 21
1.875
  0
LINE
  8
0
 10
39.6005
 20
1.875
 11
39.5452
 21
1.99349
  0
LINE
  8
0
 10
39.5452
 20
1.99349
 11
39.5114
 21
2.11976
  0
LINE
  8
0
 10
39.5114
 20
2.11976
 11
39.5
 21
2.25
  0
LINE
  8
0
 10
38.5
 20
20.25
 11
38.5114
 21
20.1198
  0
LINE
  8
0
 10
38.5114
 20
20.1198
 11
38.5452
 21
19.9935
  0
LINE
  8
0
 10
38.5452
 20
19.9935
 11
38.6005
 21
19.875
  0
LINE
  8
0
 10
38.6005
 20
19.875
 11
38.6755
 21
19.7679
  0
LINE
  8
0
 10
38.6755
 20
19.7679
 11
38.7679
 21
19.6755
  0
LINE
  8
0
 10
38.7679
 20
19.6755
 11
38.875
 21
19.6005
  0
LINE
  8
0
 10
38.875
 20
19.6005
 11
38.9935
 21
19.5452
  0
LINE
  8
0
 10
38.9935
 20
19.5452
 11
39.1198
 21
19.5114
  0
LINE
  8
0
 10
39.1198
 20
19.5114
 11
39.25
 21
19.5
  0
LINE
  8
0
 10
39.25
 20
19.5
 11
55.75
 21
19.5
  0
LINE
  8
0
 10
55.75
 20
19.5
 11
55.8802
 21
19.5114
  0
LINE
  8
0
 10
55.8802
 20
19.5114
 11
56.0065
 21
19.5452
  0
LINE
  8
0
 10
56.0065
 20
19.5452
 11
56.125
 21
19.6005
  0
LINE
  8
0
 10
56.125
 20
19.6005
 11
56.2321
 21
19.6755
  0
LINE
  8
0
 10
56.2321
 20
19.6755
 11
56.3245
 21
19.7679
  0
LINE
  8
0
 10
56.3245
 20
19.7679
 11
56.3995
 21
19.875
  0
LINE
  8
0
 10
56.3995
 20
19.875
 11
56.4548
 21
19.9935
  0
LINE
  8
0
 10
56.4548
 20
19.9935
 11
56.4886
 21
20.1198
  0
LINE
  8
0
 10
56.4886
 20
20.1198
 11
56.5
 21
20.25
  0
LINE
  8
0
 10
56.5
 20
20.25
 11
56.5
 21
36.75
  0
LINE
  8
0
 10
56.5
 20
36.75
 11
56.4886
 21
36.8802
  0
LINE
  8
0
 10
56.4886
 20
36.8802
 11
56.4548
 21
37.0065
  0
LINE
  8
0
 10
56.4548
 20
37.0065
 11
56.3995
 21
37.125
  0
LINE
  8
0
 10
56.3995
 20
37.125
 11
56.3245
 21
37.2321
  0
LINE
  8
0
 10
56.3245
 20
37.2321
 11
56.2321
 21
37.3245
  0
LINE
  8
0
 10
56.2321
 20
37.3245
 11
56.125
 21
37.3995
  0
LINE
  8
0
 10
56.125
 20
37.3995
 11
56.0065
 21
37.4548
  0
LINE
  8
0
 10
56.0065
 20
37.4548
 11
55.8802
 21
37.4886
  0
LINE
  8
0
 10
55.8802
 20
37.4886
 11
55.75
 21
37.5
  0
LINE
  8
0
 10
55.75
 20
37.5
 11
39.25
 21
37.5
  0
LINE
  8
0
 10
39.25
 20
37.5
 11
39.1198
 21
37.4886
  0
LINE
  8
0
 10
39.1198
 20
37.4886
 11
38.9935
 21
37.4548
  0
LINE
  8
0
 10
38.9935
 20
37.4548
 11
38.875
 21
37.3995
  0
LINE
  8
0
 10
38.875
 20
37.3995
 11
38.7679
 21
37.3245
  0
LINE
  8
0
 10
38.7679
 20
37.3245
 11
38.6755
 21
37.2321
  0
LINE
  8
0
 10
38.6755
 20
37.2321
 11
38.6005
 21
37.125
  0
LINE
  8
0
 10
38.6005
 20
37.125
 11
38.5452
 21
37.0065
  0
LINE
  8
0
 10
38.5452
 20
37.0065
 11
38.5114
 21
36.8802
  0
LINE
  8
0
 10
38.5114
 20
36.8802
 11
38.5
 21
36.75
  0
LINE
  8
0
 10
38.5
 20
36.75
 11
38.5
 21
20.25
  0
LINE
  8
0
 10
39.5
 20
21.25
 11
39.5
 21
35.75
  0
LINE
  8
0
 10
39.5
 20
35.75
 11
39.5114
 21
35.8802
  0
LINE
  8
0
 10
39.5114
 20
35.8802
 11
39.5452
 21
36.0065
  0
LINE
  8
0
 10
39.5452
 20
36.0065
 11
39.6005
 21
36.125
  0
LINE
  8
0
 10
39.6005
 20
36.125
 11
39.6755
 21
36.2321
  0
LINE
  8
0
 10
39.6755
 20
36.2321
 11
39.7679
 21
36.3245
  0
LINE
  8
0
 10
39.7679
 20
36.3245
 11
39.875
 21
36.3995
  0
LINE
  8
0
 10
39.875
 20
36.3995
 11
39.9935
 21
36.4548
  0
LINE
  8
0
 10
39.9935
 20
36.4548
 11
40.1198
 21
36.4886
  0
LINE
  8
0
 10
40.1198
 20
36.4886
 11
40.25
 21
36.5
  0
LINE
  8
0
 10
40.25
 20
36.5
 11
54.75
 21
36.5
  0
LINE
  8
0
 10
54.75
 20
36.5
 11
54.8802
 21
36.4886
  0
LINE
  8
0
 10
54.8802
 20
36.4886
 11
55.0065
 21
36.4548
  0
LINE
  8
0
 10
55.0065
 20
36.4548
 11
55.125
 21
36.3995
  0
LINE
  8
0
 10
55.125
 20
36.3995
 11
55.2321
 21
36.3245
  0
LINE
  8
0
 10
55.2321
 20
36.3245
 11
55.3245
 21
36.2321
  0
LINE
  8
0
 10
55.3245
 20
36.2321
 11
55.3995
 21
36.125
  0
LINE
  8
0
 10
55.3995
 20
36.125
 11
55.4548
 21
36.0065
  0
LINE
  8
0
 10
55.4548
 20
36.0065
 11
55.4886
 21
35.8802
  0
LINE
  8
0
 10
55.4886
 20
35.8802
 11
55.5
 21
35.75
  0
LINE
  8
0
 10
55.5
 20
35.75
 11
55.5
 21
21.25
  0
LINE
  8
0
 10
55.5
 20
21.25
 11
55.4886
 21
21.1198
  0
LINE
  8
0
 10
55.4886
 20
21.1198
 11
55.4548
 21
20.9935
  0
LINE
  8
0
 10
55.4548
 20
20.9935
 11
55.3995
 21
20.875
  0
LINE
  8
0
 10
55.3995
 20
20.875
 11
55.3245
 21
20.7679
  0
LINE
  8
0
 10
55.3245
 20
20.7679
 11
55.2321
 21
20.6755
  0
LINE
  8
0
 10
55.2321
 20
20.6755
 11
55.125
 21
20.6005
  0
LINE
  8
0
 10
55.125
 20
20.6005
 11
55.0065
 21
20.5452
  0
LINE
  8
0
 10
55.0065
 20
20.5452
 11
54.8802
 21
20.5114
  0
LINE
  8
0
 10
54.8802
 20
20.5114
 11
54.75
 21
20.5
  0
LINE
  8
0
 10
54.75
 20
20.5
 11
40.25
 21
20.5
  0
LINE
  8
0
 10
40.25
 20
20.5
 11
40.1198
 21
20.5114
  0
LINE
  8
0
 10
40.1198
 20
20.5114
 11
39.9935
 21
20.5452
  0
LINE
  8
0
 10
39.9935
 20
20.5452
 11
39.875
 21
20.6005
  0
LINE
  8
0
 10
39.875
 20
20.6005
 11
39.7679
 21
20.6755
  0
LINE
  8
0
 10
39.7679
 20
20.6755
 11
39.6755
 21
20.7679
  0
LINE
  8
0
 10
39.6755
 20
20.7679
 11
39.6005
 21
20.875
  0
LINE
  8
0
 10
39.6005
 20
20.875
 11
39.5452
 21
20.9935
  0
LINE
  8
0
 10
39.5452
 20
20.9935
 11
39.5114
 21
21.1198
  0
LINE
  8
0
 10
39.5114
 20
21.1198
 11
39.5
 21
21.25
  0
LINE
  8
0
 10
38.5
 20
39.25
 11
38.5114
 21
39.1198
  0
LINE
  8
0
 10
38.5114
 20
39.1198
 11
38.5452
 21
38.9935
  0
LINE
  8
0
 10
38.5452
 20
38.9935
 11
38.6005
 21
38.875
  0
LINE
  8
0
 10
38.6005
 20
38.875
 11
38.6755
 21
38.7679
  0
LINE
  8
0
 10
38.6755
 20
38.7679
 11
38.7679
 21
38.6755
  0
LINE
  8
0
 10
38.7679
 20
38.6755
 11
38.875
 21
38.6005
  0
LINE
  8
0
 10
38.875
 20
38.6005
 11
38.9935
 21
38.5452
  0
LINE
  8
0
 10
38.9935
 20
38.5452
 11
39.1198
 21
38.5114
  0
LINE
  8
0
 10
39.1198
 20
38.5114
 11
39.25
 21
38.5
  0
LINE
  8
0
 10
39.25
 20
38.5
 11
55.75
 21
38.5
  0
LINE
  8
0
 10
55.75
 20
38.5
 11
55.8802
 21
38.5114
  0
LINE
  8
0
 10
55.8802
 20
38.5114
 11
56.0065
 21
38.5452
  0
LINE
  8
0
 10
56.0065
 20
38.5452
 11
56.125
 21
38.6005
  0
LINE
  8
0
 10
56.125
 20
38.6005
 11
56.2321
 21
38.6755
  0
LINE
  8
0
 10
56.2321
 20
38.6755
 11
56.3245
 21
38.7679
  0
LINE
  8
0
 10
56.3245
 20
38.7679
 11
56.3995
 21
38.875
  0
LINE
  8
0
 10
56.3995
 20
38.875
 11
56.4548
 21
38.9935
  0
LINE
  8
0
 10
56.4548
 20
38.9935
 11
56.4886
 21
39.1198
  0
LINE
  8
0
 10
56.4886
 20
39.1198
 11
56.5
 21
39.25
  0
LINE
  8
0
 10
56.5
 20
39.25
 11
56.5
 21
55.75
  0
LINE
  8
0
 10
56.5
 20
55.75
 11
56.4886
 21
55.8802
  0
LINE
  8
0
 10
56.4886
 20
55.8802
 11
56.4548
 21
56.0065
  0
LINE
  8
0
 10
56.4548
 20
56.0065
 11
56.3995
 21
56.125
  0
LINE
  8
0
 10
56.3995
 20
56.125
 11
56.3245
 21
56.2321
  0
LINE
  8
0
 10
56.3245
 20
56.2321
 11
56.2321
 21
56.3245
  0
LINE
  8
0
 10
56.2321
 20
56.3245
 11
56.125
 21
56.3995
  0
LINE
  8
0
 10
56.125
 20
56.3995
 11
56.0065
 21
56.4548
  0
LINE
  8
0
 10
56.0065
 20
56.4548
 11
55.8802
 21
56.4886
  0
LINE
  8
0
 10
55.8802
 20
56.4886
 11
55.75
 21
56.5
  0
LINE
  8
0
 10
55.75
 20
56.5
 11
39.25
 21
56.5
  0
LINE
  8
0
 10
39.25
 20
56.5
 11
39.1198
 21
56.4886
  0
LINE
  8
0
 10
39.1198
 20
56.4886
 11
38.9935
 21
56.4548
  0
LINE
  8
0
 10
38.9935
 20
56.4548
 11
38.875
 21
56.3995
  0
LINE
  8
0
 10
38.875
 20
56.3995
 11
38.7679
 21
56.3245
  0
LINE
  8
0
 10
38.7679
 20
56.3245
 11
38.6755
 21
56.2321
  0
LINE
  8
0
 10
38.6755
 20
56.2321
 11
38.6005
 21
56.125
  0
LINE
  8
0
 10
38.6005
 20
56.125
 11
38.5452
 21
56.0065
  0
LINE
  8
0
 10
38.5452
 20
56.0065
 11
38.5114
 21
55.8802
  0
LINE
  8
0
 10
38.5114
 20
55.8802
 11
38.5
 21
55.75
  0
LINE
  8
0
 10
38.5
 20
55.75
 11
38.5
 21
39.25
  0
LINE
  8
0
 10
39.5
 20
40.25
 11
39.5
 21
54.75
  0
LINE
  8
0
 10
39.5
 20
54.75
 11
39.5114
 21
54.8802
  0
LINE
  8
0
 10
39.5114
 20
54.8802
 11
39.5452
 21
55.0065
  0
LINE
  8
0
 10
39.5452
 20
55.0065
 11
39.6005
 21
55.125
  0
LINE
  8
0
 10
39.6005
 20
55.125
 11
39.6755
 21
55.2321
  0
LINE
  8
0
 10
39.6755
 20
55.2321
 11
39.7679
 21
55.3245
  0
LINE
  8
0
 10
39.7679
 20
55.3245
 11
39.875
 21
55.3995
  0
LINE
  8
0
 10
39.875
 20
55.3995
 11
39.9935
 21
55.4548
  0
LINE
  8
0
 10
39.9935
 20
55.4548
 11
40.1198
 21
55.4886
  0
LINE
  8
0
 10
40.1198
 20
55.4886
 11
40.25
 21
55.5
  0
LINE
  8
0
 10
40.25
 20
55.5
 11
54.75
 21
55.5
  0
LINE
  8
0
 10
54.75
 20
55.5
 11
54.8802
 21
55.4886
  0
LINE
  8
0
 10
54.8802
 20
55.4886
 11
55.0065
 21
55.4548
  0
LINE
  8
0
 10
55.0065
 20
55.4548
 11
55.125
 21
55.3995
  0
LINE
  8
0
 10
55.125
 20
55.3995
 11
55.2321
 21
55.3245
  0
LINE
  8
0
 10
55.2321
 20
55.3245
 11
55.3245
 21
55.2321
  0
LINE
  8
0
 10
55.3245
 20
55.2321
 11
55.3995
 21
55.125
  0
LINE
  8
0
 10
55.3995
 20
55.125
 11
55.4548
 21
55.0065
  0
LINE
  8
0
 10
55.4548
 20
55.0065
 11
55.4886
 21
54.8802
  0
LINE
  8
0
 10
55.4886
 20
54.8802
 11
55.5
 21
54.75
  0
LINE
  8
0
 10
55.5
 20
54.75
 11
55.5
 21
40.25
  0
LINE
  8
0
 10
55.5
 20
40.25
 11
55.4886
 21
40.1198
  0
LINE
  8
0
 10
55.4886
 20
40.1198
 11
55.4548
 21
39.9935
  0
LINE
  8
0
 10
55.4548
 20
39.9935
 11
55.3995
 21
39.875
  0
LINE
  8
0
 10
55.3995
 20
39.875
 11
55.3245
 21
39.7679
  0
LINE
  8
0
 10
55.3245
 20
39.7679
 11
55.2321
 21
39.6755
  0
LINE
  8
0
 10
55.2321
 20
39.6755
 11
55.125
 21
39.6005
  0
LINE
  8
0
 10
55.125
 20
39.6005
 11
55.0065
 21
39.5452
  0
LINE
  8
0
 10
55.0065
 20
39.5452
 11
54.8802
 21
39.5114
  0
LINE
  8
0
 10
54.8802
 20
39.5114
 11
54.75
 21
39.5
  0
LINE
  8
0
 10
54.75
 20
39.5
 11
40.25
 21
39.5
  0
LINE
  8
0
 10
40.25
 20
39.5
 11
40.1198
 21
39.5114
  0
LINE
  8
0
 10
40.1198
 20
39.5114
 11
39.9935
 21
39.5452
  0
LINE
  8
0
 10
39.9935
 20
39.5452
 11
39.875
 21
39.6005
  0
LINE
  8
0
 10
39.875
 20
39.6005
 11
39.7679
 21
39.6755
  0
LINE
  8
0
 10
39.7679
 20
39.6755
 11
39.6755
 21
39.7679
  0
LINE
  8
0
 10
39.6755
 20
39.7679
 11
39.6005
 21
39.875
  0
LINE
  8
0
 10
39.6005
 20
39.875
 11
39.5452
 21
39.9935
  0
LINE
  8
0
 10
39.5452
 20
39.9935
 11
39.5114
 21
40.1198
  0
LINE
  8
0
 10
39.5114
 20
40.1198
 11
39.5
 21
40.25
  0
LINE
  8
0
 10
38.5
 20
58.25
 11
38.5114
 21
58.1198
  0
LINE
  8
0
 10
38.5114
 20
58.1198
 11
38.5452
 21
57.9935
  0
LINE
  8
0
 10
38.5452
 20
57.9935
 11
38.6005
 21
57.875
  0
LINE
  8
0
 10
38.6005
 20
57.875
 11
38.6755
 21
57.7679
  0
LINE
  8
0
 10
38.6755
 20
57.7679
 11
38.7679
 21
57.6755
  0
LINE
  8
0
 10
38.7679
 20
57.6755
 11
38.875
 21
57.6005
  0
LINE
  8
0
 10
38.875
 20
57.6005
 11
38.9935
 21
57.5452
  0
LINE
  8
0
 10
38.9935
 20
57.5452
 11
39.1198
 21
57.5114
  0
LINE
  8
0
 10
39.1198
 20
57.5114
 11
39.25
 21
57.5
  0
LINE
  8
0
 10
39.25
 20
57.5
 11
55.75
 21
57.5
  0
LINE
  8
0
 10
55.75
 20
57.5
 11
55.8802
 21
57.5114
  0
LINE
  8
0
 10
55.8802
 20
57.5114
 11
56.0065
 21
57.5452
  0
LINE
  8
0
 10
56.0065
 20
57.5452
 11
56.125
 21
57.6005
  0
LINE
  8
0
 10
56.125
 20
57.6005
 11
56.2321
 21
57.6755
  0
LINE
  8
0
 10
56.2321
 20
57.6755
 11
56.3245
 21
57.7679
  0
LINE
  8
0
 10
56.3245
 20
57.7679
 11
56.3995
 21
57.875
  0
LINE
  8
0
 10
56.3995
 20
57.875
 11
56.4548
 21
57.9935
  0
LINE
  8
0
 10
56.4548
 20
57.9935
 11
56.4886
 21
58.1198
  0
LINE
  8
0
 10
56.4886
 20
58.1198
 11
56.5
 21
58.25
  0
LINE
  8
0
 10
56.5
 20
58.25
 11
56.5
 21
74.75
  0
LINE
  8
0
 10
56.5
 20
74.75
 11
56.4886
 21
74.8802
  0
LINE
  8
0
 10
56.4886
 20
74.8802
 11
56.4548
 21
75.0065
  0
LINE
  8
0
 10
56.4548
 20
75.0065
 11
56.3995
 21
75.125
  0
LINE
  8
0
 10
56.3995
 20
75.125
 11
56.3245
 21
75.2321
  0
LINE
  8
0
 10
56.3245
 20
75.2321
 11
56.2321
 21
75.3245
  0
LINE
  8
0
 10
56.2321
 20
75.3245
 11
56.125
 21
75.3995
  0
LINE
  8
0
 10
56.125
 20
75.3995
 11
56.0065
 21
75.4548
  0
LINE
  8
0
 10
56.0065
 20
75.4548
 11
55.8802
 21
75.4886
  0
LINE
  8
0
 10
55.8802
 20
75.4886
 11
55.75
 21
75.5
  0
LINE
  8
0
 10
55.75
 20
75.5
 11
39.25
 21
75.5
  0
LINE
  8
0
 10
39.25
 20
75.5
 11
39.1198
 21
75.4886
  0
LINE
  8
0
 10
39.1198
 20
75.4886
 11
38.9935
 21
75.4548
  0
LINE
  8
0
 10
38.9935
 20
75.4548
 11
38.875
 21
75.3995
  0
LINE
  8
0
 10
38.875
 20
75.3995
 11
38.7679
 21
75.3245
  0
LINE
  8
0
 10
38.7679
 20
75.3245
 11
38.6755
 21
75.2321
  0
LINE
  8
0
 10
38.6755
 20
75.2321
 11
38.6005
 21
75.125
  0
LINE
  8
0
 10
38.6005
 20
75.125
 11
38.5452
 21
75.0065
  0
LINE
  8
0
 10
38.5452
 20
75.0065
 11
38.5114
 21
74.8802
  0
LINE
  8
0
 10
38.5114
 20
74.8802
 11
38.5
 21
74.75
  0
LINE
  8
0
 10
38.5
 20
74.75
 11
38.5
 21
58.25
  0
LINE
  8
0
 10
39.5
 20
59.25
 11
39.5
 21
73.75
  0
LINE
  8
0
 10
39.5
 20
73.75
 11
39.5114
 21
73.8802
  0
LINE
  8
0
 10
39.5114
 20
73.8802
 11
39.5452
 21
74.0065
  0
LINE
  8
0
 10
39.5452
 20
74.0065
 11
39.6005
 21
74.125
  0
LINE
  8
0
 10
39.6005
 20
74.125
 11
39.6755
 21
74.2321
  0
LINE
  8
0
 10
39.6755
 20
74.2321
 11
39.7679
 21
74.3245
  0
LINE
  8
0
 10
39.7679
 20
74.3245
 11
39.875
 21
74.3995
  0
LINE
  8
0
 10
39.875
 20
74.3995
 11
39.9935
 21
74.4548
  0
LINE
  8
0
 10
39.9935
 20
74.4548
 11
40.1198
 21
74.4886
  0
LINE
  8
0
 10
40.1198
 20
74.4886
 11
40.25
 21
74.5
  0
LINE
  8
0
 10
40.25
 20
74.5
 11
54.75
 21
74.5
  0
LINE
  8
0
 10
54.75
 20
74.5
 11
54.8802
 21
74.4886
  0
LINE
  8
0
 10
54.8802
 20
74.4886
 11
55.0065
 21
74.4548
  0
LINE
  8
0
 10
55.0065
 20
74.4548
 11
55.125
 21
74.3995
  0
LINE
  8
0
 10
55.125
 20
74.3995
 11
55.2321
 21
74.3245
  0
LINE
  8
0
 10
55.2321
 20
74.3245
 11
55.3245
 21
74.2321
  0
LINE
  8
0
 10
55.3245
 20
74.2321
 11
55.3995
 21
74.125
  0
LINE
  8
0
 10
55.3995
 20
74.125
 11
55.4548
 21
74.0065
  0
LINE
  8
0
 10
55.4548
 20
74.0065
 11
55.4886
 21
73.8802
  0
LINE
  8
0
 10
55.4886
 20
73.8802
 11
55.5
 21
73.75
  0
LINE
  8
0
 10
55.5
 20
73.75
 11
55.5
 21
59.25
  0
LINE
  8
0
 10
55.5
 20
59.25
 11
55.4886
 21
59.1198
  0
LINE
  8
0
 10
55.4886
 20
59.1198
 11
55.4548
 21
58.9935
  0
LINE
  8
0
 10
55.4548
 20
58.9935
 11
55.3995
 21
58.875
  0
LINE
  8
0
 10
55.3995
 20
58.875
 11
55.3245
 21
58.7679
  0
LINE
  8
0
 10
55.3245
 20
58.7679
 11
55.2321
 21
58.6755
  0
LINE
  8
0
 10
55.2321
 20
58.6755
 11
55.125
 21
58.6005
  0
LINE
  8
0
 10
55.125
 20
58.6005
 11
55.0065
 21
58.5452
  0
LINE
  8
0
 10
55.0065
 20
58.5452
 11
54.8802
 21
58.5114
  0
LINE
  8
0
 10
54.8802
 20
58.5114
 11
54.75
 21
58.5
  0
LINE
  8
0
 10
54.75
 20
58.5
 11
40.25
 21
58.5
  0
LINE
  8
0
 10
40.25
 20
58.5
 11
40.1198
 21
58.5114
  0
LINE
  8
0
 10
40.1198
 20
58.5114
 11
39.9935
 21
58.5452
  0
LINE
  8
0
 10
39.9935
 20
58.5452
 11
39.875
 21
58.6005
  0
LINE
  8
0
 10
39.875
 20
58.6005
 11
39.7679
 21
58.6755
  0
LINE
  8
0
 10
39.7679
 20
58.6755
 11
39.6755
 21
58.7679
  0
LINE
  8
0
 10
39.6755
 20
58.7679
 11
39.6005
 21
58.875
  0
LINE
  8
0
 10
39.6005
 20
58.875
 11
39.5452
 21
58.9935
  0
LINE
  8
0
 10
39.5452
 20
58.9935
 11
39.5114
 21
59.1198
  0
LINE
  8
0
 10
39.5114
 20
59.1198
 11
39.5
 21
59.25
  0
LINE
  8
0
 10
38.5
 20
77.25
 11
38.5114
 21
77.1198
  0
LINE
  8
0
 10
38.5114
 20
77.1198
 11
38.5452
 21
76.9935
  0
LINE
  8
0
 10
38.5452
 20
76.9935
 11
38.6005
 21
76.875
  0
LINE
  8
0
 10
38.6005
 20
76.875
 11
38.6755
 21
76.7679
  0
LINE
  8
0
 10
38.6755
 20
76.7679
 11
38.7679
 21
76.6755
  0
LINE
  8
0
 10
38.7679
 20
76.6755
 11
38.875
 21
76.6005
  0
LINE
  8
0
 10
38.875
 20
76.6005
 11
38.9935
 21
76.5452
  0
LINE
  8
0
 10
38.9935
 20
76.5452
 11
39.1198
 21
76.5114
  0
LINE
  8
0
 10
39.1198
 20
76.5114
 11
39.25
 21
76.5
  0
LINE
  8
0
 10
39.25
 20
76.5
 11
55.75
 21
76.5
  0
LINE
  8
0
 10
55.75
 20
76.5
 11
55.8802
 21
76.5114
  0
LINE
  8
0
 10
55.8802
 20
76.5114
 11
56.0065
 21
76.5452
  0
LINE
  8
0
 10
56.0065
 20
76.5452
 11
56.125
 21
76.6005
  0
LINE
  8
0
 10
56.125
 20
76.6005
 11
56.2321
 21
76.6755
  0
LINE
  8
0
 10
56.2321
 20
76.6755
 11
56.3245
 21
76.7679
  0
LINE
  8
0
 10
56.3245
 20
76.7679
 11
56.3995
 21
76.875
  0
LINE
  8
0
 10
56.3995
 20
76.875
 11
56.4548
 21
76.9935
  0
LINE
  8
0
 10
56.4548
 20
76.9935
 11
56.4886
 21
77.1198
  0
LINE
  8
0
 10
56.4886
 20
77.1198
 11
56.5
 21
77.25
  0
LINE
  8
0
 10
56.5
 20
77.25
 11
56.5
 21
93.75
  0
LINE
  8
0
 10
56.5
 20
93.75
 11
56.4886
 21
93.8802
  0
LINE
  8
0
 10
56.4886
 20
93.8802
 11
56.4548
 21
94.0065
  0
LINE
  8
0
 10
56.4548
 20
94.0065
 11
56.3995
 21
94.125
  0
LINE
  8
0
 10
56.3995
 20
94.125
 11
56.3245
 21
94.2321
  0
LINE
  8
0
 10
56.3245
 20
94.2321
 11
56.2321
 21
94.3245
  0
LINE
  8
0
 10
56.2321
 20
94.3245
 11
56.125
 21
94.3995
  0
LINE
  8
0
 10
56.125
 20
94.3995
 11
56.0065
 21
94.4548
  0
LINE
  8
0
 10
56.0065
 20
94.4548
 11
55.8802
 21
94.4886
  0
LINE
  8
0
 10
55.8802
 20
94.4886
 11
55.75
 21
94.5
  0
LINE
  8
0
 10
55.75
 20
94.5
 11
39.25
 21
94.5
  0
LINE
  8
0
 10
39.25
 20
94.5
 11
39.1198
 21
94.4886
  0
LINE
  8
0
 10
39.1198
 20
94.4886
 11
38.9935
 21
94.4548
  0
LINE
  8
0
 10
38.9935
 20
94.4548
 11
38.875
 21
94.3995
  0
LINE
  8
0
 10
38.875
 20
94.3995
 11
38.7679
 21
94.3245
  0
LINE
  8
0
 10
38.7679
 20
94.3245
 11
38.6755
 21
94.2321
  0
LINE
  8
0
 10
38.6755
 20
94.2321
 11
38.6005
 21
94.125
  0
LINE
  8
0
 10
38.6005
 20
94.125
 11
38.5452
 21
94.0065
  0
LINE
  8
0
 10
38.5452
 20
94.0065
 11
38.5114
 21
93.8802
  0
LINE
  8
0
 10
38.5114
 20
93.8802
 11
38.5
 21
93.75
  0
LINE
  8
0
 10
38.5
 20
93.75
 11
38.5
 21
77.25
  0
LINE
  8
0
 10
39.5
 20
78.25
 11
39.5
 21
92.75
  0
LINE
  8
0
 10
39.5
 20
92.75
 11
39.5114
 21
92.8802
  0
LINE
  8
0
 10
39.5114
 20
92.8802
 11
39.5452
 21
93.0065
  0
LINE
  8
0
 10
39.5452
 20
93.0065
 11
39.6005
 21
93.125
  0
LINE
  8
0
 10
39.6005
 20
93.125
 11
39.6755
 21
93.2321
  0
LINE
  8
0
 10
39.6755
 20
93.2321
 11
39.7679
 21
93.3245
  0
LINE
  8
0
 10
39.7679
 20
93.3245
 11
39.875
 21
93.3995
  0
LINE
  8
0
 10
39.875
 20
93.3995
 11
39.9935
 21
93.4548
  0
LINE
  8
0
 10
39.9935
 20
93.4548
 11
40.1198
 21
93.4886
  0
LINE
  8
0
 10
40.1198
 20
93.4886
 11
40.25
 21
93.5
  0
LINE
  8
0
 10
40.25
 20
93.5
 11
54.75
 21
93.5
  0
LINE
  8
0
 10
54.75
 20
93.5
 11
54.8802
 21
93.4886
  0
LINE
  8
0
 10
54.8802
 20
93.4886
 11
55.0065
 21
93.4548
  0
LINE
  8
0
 10
55.0065
 20
93.4548
 11
55.125
 21
93.3995
  0
LINE
  8
0
 10
55.125
 20
93.3995
 11
55.2321
 21
93.3245
  0
LINE
  8
0
 10
55.2321
 20
93.3245
 11
55.3245
 21
93.2321
  0
LINE
  8
0
 10
55.3245
 20
93.2321
 11
55.3995
 21
93.125
  0
LINE
  8
0
 10
55.3995
 20
93.125
 11
55.4548
 21
93.0065
  0
LINE
  8
0
 10
55.4548
 20
93.0065
 11
55.4886
 21
92.8802
  0
LINE
  8
0
 10
55.4886
 20
92.8802
 11
55.5
 21
92.75
  0
LINE
  8
0
 10
55.5
 20
92.75
 11
55.5
 21
78.25
  0
LINE
  8
0
 10
55.5
 20
78.25
 11
55.4886
 21
78.1198
  0
LINE
  8
0
 10
55.4886
 20
78.1198
 11
55.4548
 21
77.9935
  0
LINE
  8
0
 10
55.4548
 20
77.9935
 11
55.3995
 21
77.875
  0
LINE
  8
0
 10
55.3995
 20
77.875
 11
55.3245
 21
77.7679
  0
LINE
  8
0
 10
55.3245
 20
77.7679
 11
55.2321
 21
77.6755
  0
LINE
  8
0
 10
55.2321
 20
77.6755
 11
55.125
 21
77.6005
  0
LINE
  8
0
 10
55.125
 20
77.6005
 11
55.0065
 21
77.5452
  0
LINE
  8
0
 10
55.0065
 20
77.5452
 11
54.8802
 21
77.5114
  0
LINE
  8
0
 10
54.8802
 20
77.5114
 11
54.75
 21
77.5
  0
LINE
  8
0
 10
54.75
 20
77.5
 11
40.25
 21
77.5
  0
LINE
  8
0
 10
40.25
 20
77.5
 11
40.1198
 21
77.5114
  0
LINE
  8
0
 10
40.1198
 20
77.5114
 11
39.9935
 21
77.5452
  0
LINE
  8
0
 10
39.9935
 20
77.5452
 11
39.875
 21
77.6005
  0
LINE
  8
0
 10
39.875
 20
77.6005
 11
39.7679
 21
77.6755
  0
LINE
  8
0
 10
39.7679
 20
77.6755
 11
39.6755
 21
77.7679
  0
LINE
  8
0
 10
39.6755
 20
77.7679
 11
39.6005
 21
77.875
  0
LINE
  8
0
 10
39.6005
 20
77.875
 11
39.5452
 21
77.9935
  0
LINE
  8
0
 10
39.5452
 20
77.9935
 11
39.5114
 21
78.1198
  0
LINE
  8
0
 10
39.5114
 20
78.1198
 11
39.5
 21
78.25
  0
LINE
  8
0
 10
38.5
 20
96.25
 11
38.5114
 21
96.1198
  0
LINE
  8
0
 10
38.5114
 20
96.1198
 11
38.5452
 21
95.9935
  0
LINE
  8
0
 10
38.5452
 20
95.9935
 11
38.6005
 21
95.875
  0
LINE
  8
0
 10
38.6005
 20
95.875
 11
38.6755
 21
95.7679
  0
LINE
  8
0
 10
38.6755
 20
95.7679
 11
38.7679
 21
95.6755
  0
LINE
  8
0
 10
38.7679
 20
95.6755
 11
38.875
 21
95.6005
  0
LINE
  8
0
 10
38.875
 20
95.6005
 11
38.9935
 21
95.5452
  0
LINE
  8
0
 10
38.9935
 20
95.5452
 11
39.1198
 21
95.5114
  0
LINE
  8
0
 10
39.1198
 20
95.5114
 11
39.25
 21
95.5
  0
LINE
  8
0
 10
39.25
 20
95.5
 11
55.75
 21
95.5
  0
LINE
  8
0
 10
55.75
 20
95.5
 11
55.8802
 21
95.5114
  0
LINE
  8
0
 10
55.8802
 20
95.5114
 11
56.0065
 21
95.5452
  0
LINE
  8
0
 10
56.0065
 20
95.5452
 11
56.125
 21
95.6005
  0
LINE
  8
0
 10
56.125
 20
95.6005
 11
56.2321
 21
95.6755
  0
LINE
  8
0
 10
56.2321
 20
95.6755
 11
56.3245
 21
95.7679
  0
LINE
  8
0
 10
56.3245
 20
95.7679
 11
56.3995
 21
95.875
  0
LINE
  8
0
 10
56.3995
 20
95.875
 11
56.4548
 21
95.9935
  0
LINE
  8
0
 10
56.4548
 20
95.9935
 11
56.4886
 21
96.1198
  0
LINE
  8
0
 10
56.4886
 20
96.1198
 11
56.5
 21
96.25
  0
LINE
  8
0
 10
56.5
 20
96.25
 11
56.5
 21
112.75
  0
LINE
  8
0
 10
56.5
 20
112.75
 11
56.4886
 21
112.88
  0
LINE
  8
0
 10
56.4886
 20
112.88
 11
56.4548
 21
113.007
  0
LINE
  8
0
 10
56.4548
 20
113.007
 11
56.3995
 21
113.125
  0
LINE
  8
0
 10
56.3995
 20
113.125
 11
56.3245
 21
113.232
  0
LINE
  8
0
 10
56.3245
 20
113.232
 11
56.2321
 21
113.325
  0
LINE
  8
0
 10
56.2321
 20
113.325
 11
56.125
 21
113.4
  0
LINE
  8
0
 10
56.125
 20
113.4
 11
56.0065
 21
113.455
  0
LINE
  8
0
 10
56.0065
 20
113.455
 11
55.8802
 21
113.489
  0
LINE
  8
0
 10
55.8802
 20
113.489
 11
55.75
 21
113.5
  0
LINE
  8
0
 10
55.75
 20
113.5
 11
39.25
 21
113.5
  0
LINE
  8
0
 10
39.25
 20
113.5
 11
39.1198
 21
113.489
  0
LINE
  8
0
 10
39.1198
 20
113.489
 11
38.9935
 21
113.455
  0
LINE
  8
0
 10
38.9935
 20
113.455
 11
38.875
 21
113.4
  0
LINE
  8
0
 10
38.875
 20
113.4
 11
38.7679
 21
113.325
  0
LINE
  8
0
 10
38.7679
 20
113.325
 11
38.6755
 21
113.232
  0
LINE
  8
0
 10
38.6755
 20
113.232
 11
38.6005
 21
113.125
  0
LINE
  8
0
 10
38.6005
 20
113.125
 11
38.5452
 21
113.007
  0
LINE
  8
0
 10
38.5452
 20
113.007
 11
38.5114
 21
112.88
  0
LINE
  8
0
 10
38.5114
 20
112.88
 11
38.5
 21
112.75
  0
LINE
  8
0
 10
38.5
 20
112.75
 11
38.5
 21
96.25
  0
LINE
  8
0
 10
39.5
 20
97.25
 11
39.5
 21
111.75
  0
LINE
  8
0
 10
39.5
 20
111.75
 11
39.5114
 21
111.88
  0
LINE
  8
0
 10
39.5114
 20
111.88
 11
39.5452
 21
112.007
  0
LINE
  8
0
 10
39.5452
 20
112.007
 11
39.6005
 21
112.125
  0
LINE
  8
0
 10
39.6005
 20
112.125
 11
39.6755
 21
112.232
  0
LINE
  8
0
 10
39.6755
 20
112.232
 11
39.7679
 21
112.325
  0
LINE
  8
0
 10
39.7679
 20
112.325
 11
39.875
 21
112.4
  0
LINE
  8
0
 10
39.875
 20
112.4
 11
39.9935
 21
112.455
  0
LINE
  8
0
 10
39.9935
 20
112.455
 11
40.1198
 21
112.489
  0
LINE
  8
0
 10
40.1198
 20
112.489
 11
40.25
 21
112.5
  0
LINE
  8
0
 10
40.25
 20
112.5
 11
54.75
 21
112.5
  0
LINE
  8
0
 10
54.75
 20
112.5
 11
54.8802
 21
112.489
  0
LINE
  8
0
 10
54.8802
 20
112.489
 11
55.0065
 21
112.455
  0
LINE
  8
0
 10
55.0065
 20
112.455
 11
55.125
 21
112.4
  0
LINE
  8
0
 10
55.125
 20
112.4
 11
55.2321
 21
112.325
  0
LINE
  8
0
 10
55.2321
 20
112.325
 11
55.3245
 21
112.232
  0
LINE
  8
0
 10
55.3245
 20
112.232
 11
55.3995
 21
112.125
  0
LINE
  8
0
 10
55.3995
 20
112.125
 11
55.4548
 21
112.007
  0
LINE
  8
0
 10
55.4548
 20
112.007
 11
55.4886
 21
111.88
  0
LINE
  8
0
 10
55.4886
 20
111.88
 11
55.5
 21
111.75
  0
LINE
  8
0
 10
55.5
 20
111.75
 11
55.5
 21
97.25
  0
LINE
  8
0
 10
55.5
 20
97.25
 11
55.4886
 21
97.1198
  0
LINE
  8
0
 10
55.4886
 20
97.1198
 11
55.4548
 21
96.9935
  0
LINE
  8
0
 10
55.4548
 20
96.9935
 11
55.3995
 21
96.875
  0
LINE
  8
0
 10
55.3995
 20
96.875
 11
55.3245
 21
96.7679
  0
LINE
  8
0
 10
55.3245
 20
96.7679
 11
55.2321
 21
96.6755
  0
LINE
  8
0
 10
55.2321
 20
96.6755
 11
55.125
 21
96.6005
  0
LINE
  8
0
 10
55.125
 20
96.6005
 11
55.0065
 21
96.5452
  0
LINE
  8
0
 10
55.0065
 20
96.5452
 11
54.8802
 21
96.5114
  0
LINE
  8
0
 10
54.8802
 20
96.5114
 11
54.75
 21
96.5
  0
LINE
  8
0
 10
54.75
 20
96.5
 11
40.25
 21
96.5
  0
LINE
  8
0
 10
40.25
 20
96.5
 11
40.1198
 21
96.5114
  0
LINE
  8
0
 10
40.1198
 20
96.5114
 11
39.9935
 21
96.5452
  0
LINE
  8
0
 10
39.9935
 20
96.5452
 11
39.875
 21
96.6005
  0
LINE
  8
0
 10
39.875
 20
96.6005
 11
39.7679
 21
96.6755
  0
LINE
  8
0
 10
39.7679
 20
96.6755
 11
39.6755
 21
96.7679
  0
LINE
  8
0
 10
39.6755
 20
96.7679
 11
39.6005
 21
96.875
  0
LINE
  8
0
 10
39.6005
 20
96.875
 11
39.5452
 21
96.9935
  0
LINE
  8
0
 10
39.5452
 20
96.9935
 11
39.5114
 21
97.1198
  0
LINE
  8
0
 10
39.5114
 20
97.1198
 11
39.5
 21
97.25
  0
LINE
  8
0
 10
38.5
 20
115.25
 11
38.5114
 21
115.12
  0
LINE
  8
0
 10
38.5114
 20
115.12
 11
38.5452
 21
114.993
  0
LINE
  8
0
 10
38.5452
 20
114.993
 11
38.6005
 21
114.875
  0
LINE
  8
0
 10
38.6005
 20
114.875
 11
38.6755
 21
114.768
  0
LINE
  8
0
 10
38.6755
 20
114.768
 11
38.7679
 21
114.675
  0
LINE
  8
0
 10
38.7679
 20
114.675
 11
38.875
 21
114.6
  0
LINE
  8
0
 10
38.875
 20
114.6
 11
38.9935
 21
114.545
  0
LINE
  8
0
 10
38.9935
 20
114.545
 11
39.1198
 21
114.511
  0
LINE
  8
0
 10
39.1198
 20
114.511
 11
39.25
 21
114.5
  0
LINE
  8
0
 10
39.25
 20
114.5
 11
55.75
 21
114.5
  0
LINE
  8
0
 10
55.75
 20
114.5
 11
55.8802
 21
114.511
  0
LINE
  8
0
 10
55.8802
 20
114.511
 11
56.0065
 21
114.545
  0
LINE
  8
0
 10
56.0065
 20
114.545
 11
56.125
 21
114.6
  0
LINE
  8
0
 10
56.125
 20
114.6
 11
56.2321
 21
114.675
  0
LINE
  8
0
 10
56.2321
 20
114.675
 11
56.3245
 21
114.768
  0
LINE
  8
0
 10
56.3245
 20
114.768
 11
56.3995
 21
114.875
  0
LINE
  8
0
 10
56.3995
 20
114.875
 11
56.4548
 21
114.993
  0
LINE
  8
0
 10
56.4548
 20
114.993
 11
56.4886
 21
115.12
  0
LINE
  8
0
 10
56.4886
 20
115.12
 11
56.5
 21
115.25
  0
LINE
  8
0
 10
56.5
 20
115.25
 11
56.5
 21
131.75
  0
LINE
  8
0
 10
56.5
 20
131.75
 11
56.4886
 21
131.88
  0
LINE
  8
0
 10
56.4886
 20
131.88
 11
56.4548
 21
132.007
  0
LINE
  8
0
 10
56.4548
 20
132.007
 11
56.3995
 21
132.125
  0
LINE
  8
0
 10
56.3995
 20
132.125
 11
56.3245
 21
132.232
  0
LINE
  8
0
 10
56.3245
 20
132.232
 11
56.2321
 21
132.325
  0
LINE
  8
0
 10
56.2321
 20
132.325
 11
56.125
 21
132.4
  0
LINE
  8
0
 10
56.125
 20
132.4
 11
56.0065
 21
132.455
  0
LINE
  8
0
 10
56.0065
 20
132.455
 11
55.8802
 21
132.489
  0
LINE
  8
0
 10
55.8802
 20
132.489
 11
55.75
 21
132.5
  0
LINE
  8
0
 10
55.75
 20
132.5
 11
39.25
 21
132.5
  0
LINE
  8
0
 10
39.25
 20
132.5
 11
39.1198
 21
132.489
  0
LINE
  8
0
 10
39.1198
 20
132.489
 11
38.9935
 21
132.455
  0
LINE
  8
0
 10
38.9935
 20
132.455
 11
38.875
 21
132.4
  0
LINE
  8
0
 10
38.875
 20
132.4
 11
38.7679
 21
132.325
  0
LINE
  8
0
 10
38.7679
 20
132.325
 11
38.6755
 21
132.232
  0
LINE
  8
0
 10
38.6755
 20
132.232
 11
38.6005
 21
132.125
  0
LINE
  8
0
 10
38.6005
 20
132.125
 11
38.5452
 21
132.007
  0
LINE
  8
0
 10
38.5452
 20
132.007
 11
38.5114
 21
131.88
  0
LINE
  8
0
 10
38.5114
 20
131.88
 11
38.5
 21
131.75
  0
LINE
  8
0
 10
38.5
 20
131.75
 11
38.5
 21
115.25
  0
LINE
  8
0
 10
39.5
 20
116.25
 11
39.5
 21
130.75
  0
LINE
  8
0
 10
39.5
 20
130.75
 11
39.5114
 21
130.88
  0
LINE
  8
0
 10
39.5114
 20
130.88
 11
39.5452
 21
131.007
  0
LINE
  8
0
 10
39.5452
 20
131.007
 11
39.6005
 21
131.125
  0
LINE
  8
0
 10
39.6005
 20
131.125
 11
39.6755
 21
131.232
  0
LINE
  8
0
 10
39.6755
 20
131.232
 11
39.7679
 21
131.325
  0
LINE
  8
0
 10
39.7679
 20
131.325
 11
39.875
 21
131.4
  0
LINE
  8
0
 10
39.875
 20
131.4
 11
39.9935
 21
131.455
  0
LINE
  8
0
 10
39.9935
 20
131.455
 11
40.1198
 21
131.489
  0
LINE
  8
0
 10
40.1198
 20
131.489
 11
40.25
 21
131.5
  0
LINE
  8
0
 10
40.25
 20
131.5
 11
54.75
 21
131.5
  0
LINE
  8
0
 10
54.75
 20
131.5
 11
54.8802
 21
131.489
  0
LINE
  8
0
 10
54.8802
 20
131.489
 11
55.0065
 21
131.455
  0
LINE
  8
0
 10
55.0065
 20
131.455
 11
55.125
 21
131.4
  0
LINE
  8
0
 10
55.125
 20
131.4
 11
55.2321
 21
131.325
  0
LINE
  8
0
 10
55.2321
 20
131.325
 11
55.3245
 21
131.232
  0
LINE
  8
0
 10
55.3245
 20
131.232
 11
55.3995
 21
131.125
  0
LINE
  8
0
 10
55.3995
 20
131.125
 11
55.4548
 21
131.007
  0
LINE
  8
0
 10
55.4548
 20
131.007
 11
55.4886
 21
130.88
  0
LINE
  8
0
 10
55.4886
 20
130.88
 11
55.5
 21
130.75
  0
LINE
  8
0
 10
55.5
 20
130.75
 11
55.5
 21
116.25
  0
LINE
  8
0
 10
55.5
 20
116.25
 11
55.4886
 21
116.12
  0
LINE
  8
0
 10
55.4886
 20
116.12
 11
55.4548
 21
115.993
  0
LINE
  8
0
 10
55.4548
 20
115.993
 11
55.3995
 21
115.875
  0
LINE
  8
0
 10
55.3995
 20
115.875
 11
55.3245
 21
115.768
  0
LINE
  8
0
 10
55.3245
 20
115.768
 11
55.2321
 21
115.675
  0
LINE
  8
0
 10
55.2321
 20
115.675
 11
55.125
 21
115.6
  0
LINE
  8
0
 10
55.125
 20
115.6
 11
55.0065
 21
115.545
  0
LINE
  8
0
 10
55.0065
 20
115.545
 11
54.8802
 21
115.511
  0
LINE
  8
0
 10
54.8802
 20
115.511
 11
54.75
 21
115.5
  0
LINE
  8
0
 10
54.75
 20
115.5
 11
40.25
 21
115.5
  0
LINE
  8
0
 10
40.25
 20
115.5
 11
40.1198
 21
115.511
  0
LINE
  8
0
 10
40.1198
 20
115.511
 11
39.9935
 21
115.545
  0
LINE
  8
0
 10
39.9935
 20
115.545
 11
39.875
 21
115.6
  0
LINE
  8
0
 10
39.875
 20
115.6
 11
39.7679
 21
115.675
  0
LINE
  8
0
 10
39.7679
 20
115.675
 11
39.6755
 21
115.768
  0
LINE
  8
0
 10
39.6755
 20
115.768
 11
39.6005
 21
115.875
  0
LINE
  8
0
 10
39.6005
 20
115.875
 11
39.5452
 21
115.993
  0
LINE
  8
0
 10
39.5452
 20
115.993
 11
39.5114
 21
116.12
  0
LINE
  8
0
 10
39.5114
 20
116.12
 11
39.5
 21
116.25
  0
LINE
  8
0
 10
57.5
 20
1.25
 11
57.5114
 21
1.11976
  0
LINE
  8
0
 10
57.5114
 20
1.11976
 11
57.5452
 21
0.993485
  0
LINE
  8
0
 10
57.5452
 20
0.993485
 11
57.6005
 21
0.875
  0
LINE
  8
0
 10
57.6005
 20
0.875
 11
57.6755
 21
0.76791
  0
LINE
  8
0
 10
57.6755
 20
0.76791
 11
57.7679
 21
0.675467
  0
LINE
  8
0
 10
57.7679
 20
0.675467
 11
57.875
 21
0.600481
  0
LINE
  8
0
 10
57.875
 20
0.600481
 11
57.9935
 21
0.545231
  0
LINE
  8
0
 10
57.9935
 20
0.545231
 11
58.1198
 21
0.511395
  0
LINE
  8
0
 10
58.1198
 20
0.511395
 11
58.25
 21
0.5
  0
LINE
  8
0
 10
58.25
 20
0.5
 11
74.75
 21
0.5
  0
LINE
  8
0
 10
74.75
 20
0.5
 11
74.8802
 21
0.511395
  0
LINE
  8
0
 10
74.8802
 20
0.511395
 11
75.0065
 21
0.545231
  0
LINE
  8
0
 10
75.0065
 20
0.545231
 11
75.125
 21
0.600481
  0
LINE
  8
0
 10
75.125
 20
0.600481
 11
75.2321
 21
0.675467
  0
LINE
  8
0
 10
75.2321
 20
0.675467
 11
75.3245
 21
0.76791
  0
LINE
  8
0
 10
75.3245
 20
0.76791
 11
75.3995
 21
0.875
  0
LINE
  8
0
 10
75.3995
 20
0.875
 11
75.4548
 21
0.993485
  0
LINE
  8
0
 10
75.4548
 20
0.993485
 11
75.4886
 21
1.11976
  0
LINE
  8
0
 10
75.4886
 20
1.11976
 11
75.5
 21
1.25
  0
LINE
  8
0
 10
75.5
 20
1.25
 11
75.5
 21
17.75
  0
LINE
  8
0
 10
75.5
 20
17.75
 11
75.4886
 21
17.8802
  0
LINE
  8
0
 10
75.4886
 20
17.8802
 11
75.4548
 21
18.0065
  0
LINE
  8
0
 10
75.4548
 20
18.0065
 11
75.3995
 21
18.125
  0
LINE
  8
0
 10
75.3995
 20
18.125
 11
75.3245
 21
18.2321
  0
LINE
  8
0
 10
75.3245
 20
18.2321
 11
75.2321
 21
18.3245
  0
LINE
  8
0
 10
75.2321
 20
18.3245
 11
75.125
 21
18.3995
  0
LINE
  8
0
 10
75.125
 20
18.3995
 11
75.0065
 21
18.4548
  0
LINE
  8
0
 10
75.0065
 20
18.4548
 11
74.8802
 21
18.4886
  0
LINE
  8
0
 10
74.8802
 20
18.4886
 11
74.75
 21
18.5
  0
LINE
  8
0
 10
74.75
 20
18.5
 11
58.25
 21
18.5
  0
LINE
  8
0
 10
58.25
 20
18.5
 11
58.1198
 21
18.4886
  0
LINE
  8
0
 10
58.1198
 20
18.4886
 11
57.9935
 21
18.4548
  0
LINE
  8
0
 10
57.9935
 20
18.4548
 11
57.875
 21
18.3995
  0
LINE
  8
0
 10
57.875
 20
18.3995
 11
57.7679
 21
18.3245
  0
LINE
  8
0
 10
57.7679
 20
18.3245
 11
57.6755
 21
18.2321
  0
LINE
  8
0
 10
57.6755
 20
18.2321
 11
57.6005
 21
18.125
  0
LINE
  8
0
 10
57.6005
 20
18.125
 11
57.5452
 21
18.0065
  0
LINE
  8
0
 10
57.5452
 20
18.0065
 11
57.5114
 21
17.8802
  0
LINE
  8
0
 10
57.5114
 20
17.8802
 11
57.5
 21
17.75
  0
LINE
  8
0
 10
57.5
 20
17.75
 11
57.5
 21
1.25
  0
LINE
  8
0
 10
58.5
 20
2.25
 11
58.5
 21
16.75
  0
LINE
  8
0
 10
58.5
 20
16.75
 11
58.5114
 21
16.8802
  0
LINE
  8
0
 10
58.5114
 20
16.8802
 11
58.5452
 21
17.0065
  0
LINE
  8
0
 10
58.5452
 20
17.0065
 11
58.6005
 21
17.125
  0
LINE
  8
0
 10
58.6005
 20
17.125
 11
58.6755
 21
17.2321
  0
LINE
  8
0
 10
58.6755
 20
17.2321
 11
58.7679
 21
17.3245
  0
LINE
  8
0
 10
58.7679
 20
17.3245
 11
58.875
 21
17.3995
  0
LINE
  8
0
 10
58.875
 20
17.3995
 11
58.9935
 21
17.4548
  0
LINE
  8
0
 10
58.9935
 20
17.4548
 11
59.1198
 21
17.4886
  0
LINE
  8
0
 10
59.1198
 20
17.4886
 11
59.25
 21
17.5
  0
LINE
  8
0
 10
59.25
 20
17.5
 11
73.75
 21
17.5
  0
LINE
  8
0
 10
73.75
 20
17.5
 11
73.8802
 21
17.4886
  0
LINE
  8
0
 10
73.8802
 20
17.4886
 11
74.0065
 21
17.4548
  0
LINE
  8
0
 10
74.0065
 20
17.4548
 11
74.125
 21
17.3995
  0
LINE
  8
0
 10
74.125
 20
17.3995
 11
74.2321
 21
17.3245
  0
LINE
  8
0
 10
74.2321
 20
17.3245
 11
74.3245
 21
17.2321
  0
LINE
  8
0
 10
74.3245
 20
17.2321
 11
74.3995
 21
17.125
  0
LINE
  8
0
 10
74.3995
 20
17.125
 11
74.4548
 21
17.0065
  0
LINE
  8
0
 10
74.4548
 20
17.0065
 11
74.4886
 21
16.8802
  0
LINE
  8
0
 10
74.4886
 20
16.8802
 11
74.5
 21
16.75
  0
LINE
  8
0
 10
74.5
 20
16.75
 11
74.5
 21
2.25
  0
LINE
  8
0
 10
74.5
 20
2.25
 11
74.4886
 21
2.11976
  0
LINE
  8
0
 10
74.4886
 20
2.11976
 11
74.4548
 21
1.99349
  0
LINE
  8
0
 10
74.4548
 20
1.99349
 11
74.3995
 21
1.875
  0
LINE
  8
0
 10
74.3995
 20
1.875
 11
74.3245
 21
1.76791
  0
LINE
  8
0
 10
74.3245
 20
1.76791
 11
74.2321
 21
1.67547
  0
LINE
  8
0
 10
74.2321
 20
1.67547
 11
74.125
 21
1.60048
  0
LINE
  8
0
 10
74.125
 20
1.60048
 11
74.0065
 21
1.54523
  0
LINE
  8
0
 10
74.0065
 20
1.54523
 11
73.8802
 21
1.51139
  0
LINE
  8
0
 10
73.8802
 20
1.51139
 11
73.75
 21
1.5
  0
LINE
  8
0
 10
73.75
 20
1.5
 11
59.25
 21
1.5
  0
LINE
  8
0
 10
59.25
 20
1.5
 11
59.1198
 21
1.51139
  0
LINE
  8
0
 10
59.1198
 20
1.51139
 11
58.9935
 21
1.54523
  0
LINE
  8
0
 10
58.9935
 20
1.54523
 11
58.875
 21
1.60048
  0
LINE
  8
0
 10
58.875
 20
1.60048
 11
58.7679
 21
1.67547
  0
LINE
  8
0
 10
58.7679
 20
1.67547
 11
58.6755
 21
1.76791
  0
LINE
  8
0
 10
58.6755
 20
1.76791
 11
58.6005
 21
1.875
  0
LINE
  8
0
 10
58.6005
 20
1.875
 11
58.5452
 21
1.99349
  0
LINE
  8
0
 10
58.5452
 20
1.99349
 11
58.5114
 21
2.11976
  0
LINE
  8
0
 10
58.5114
 20
2.11976
 11
58.5
 21
2.25
  0
LINE
  8
0
 10
57.5
 20
20.25
 11
57.5114
 21
20.1198
  0
LINE
  8
0
 10
57.5114
 20
20.1198
 11
57.5452
 21
19.9935
  0
LINE
  8
0
 10
57.5452
 20
19.9935
 11
57.6005
 21
19.875
  0
LINE
  8
0
 10
57.6005
 20
19.875
 11
57.6755
 21
19.7679
  0
LINE
  8
0
 10
57.6755
 20
19.7679
 11
57.7679
 21
19.6755
  0
LINE
  8
0
 10
57.7679
 20
19.6755
 11
57.875
 21
19.6005
  0
LINE
  8
0
 10
57.875
 20
19.6005
 11
57.9935
 21
19.5452
  0
LINE
  8
0
 10
57.9935
 20
19.5452
 11
58.1198
 21
19.5114
  0
LINE
  8
0
 10
58.1198
 20
19.5114
 11
58.25
 21
19.5
  0
LINE
  8
0
 10
58.25
 20
19.5
 11
74.75
 21
19.5
  0
LINE
  8
0
 10
74.75
 20
19.5
 11
74.8802
 21
19.5114
  0
LINE
  8
0
 10
74.8802
 20
19.5114
 11
75.0065
 21
19.5452
  0
LINE
  8
0
 10
75.0065
 20
19.5452
 11
75.125
 21
19.6005
  0
LINE
  8
0
 10
75.125
 20
19.6005
 11
75.2321
 21
19.6755
  0
LINE
  8
0
 10
75.2321
 20
19.6755
 11
75.3245
 21
19.7679
  0
LINE
  8
0
 10
75.3245
 20
19.7679
 11
75.3995
 21
19.875
  0
LINE
  8
0
 10
75.3995
 20
19.875
 11
75.4548
 21
19.9935
  0
LINE
  8
0
 10
75.4548
 20
19.9935
 11
75.4886
 21
20.1198
  0
LINE
  8
0
 10
75.4886
 20
20.1198
 11
75.5
 21
20.25
  0
LINE
  8
0
 10
75.5
 20
20.25
 11
75.5
 21
36.75
  0
LINE
  8
0
 10
75.5
 20
36.75
 11
75.4886
 21
36.8802
  0
LINE
  8
0
 10
75.4886
 20
36.8802
 11
75.4548
 21
37.0065
  0
LINE
  8
0
 10
75.4548
 20
37.0065
 11
75.3995
 21
37.125
  0
LINE
  8
0
 10
75.3995
 20
37.125
 11
75.3245
 21
37.2321
  0
LINE
  8
0
 10
75.3245
 20
37.2321
 11
75.2321
 21
37.3245
  0
LINE
  8
0
 10
75.2321
 20
37.3245
 11
75.125
 21
37.3995
  0
LINE
  8
0
 10
75.125
 20
37.3995
 11
75.0065
 21
37.4548
  0
LINE
  8
0
 10
75.0065
 20
37.4548
 11
74.8802
 21
37.4886
  0
LINE
  8
0
 10
74.8802
 20
37.4886
 11
74.75
 21
37.5
  0
LINE
  8
0
 10
74.75
 20
37.5
 11
58.25
 21
37.5
  0
LINE
  8
0
 10
58.25
 20
37.5
 11
58.1198
 21
37.4886
  0
LINE
  8
0
 10
58.1198
 20
37.4886
 11
57.9935
 21
37.4548
  0
LINE
  8
0
 10
57.9935
 20
37.4548
 11
57.875
 21
37.3995
  0
LINE
  8
0
 10
57.875
 20
37.3995
 11
57.7679
 21
37.3245
  0
LINE
  8
0
 10
57.7679
 20
37.3245
 11
57.6755
 21
37.2321
  0
LINE
  8
0
 10
57.6755
 20
37.2321
 11
57.6005
 21
37.125
  0
LINE
  8
0
 10
57.6005
 20
37.125
 11
57.5452
 21
37.0065
  0
LINE
  8
0
 10
57.5452
 20
37.0065
 11
57.5114
 21
36.8802
  0
LINE
  8
0
 10
57.5114
 20
36.8802
 11
57.5
 21
36.75
  0
LINE
  8
0
 10
57.5
 20
36.75
 11
57.5
 21
20.25
  0
LINE
  8
0
 10
58.5
 20
21.25
 11
58.5
 21
35.75
  0
LINE
  8
0
 10
58.5
 20
35.75
 11
58.5114
 21
35.8802
  0
LINE
  8
0
 10
58.5114
 20
35.8802
 11
58.5452
 21
36.0065
  0
LINE
  8
0
 10
58.5452
 20
36.0065
 11
58.6005
 21
36.125
  0
LINE
  8
0
 10
58.6005
 20
36.125
 11
58.6755
 21
36.2321
  0
LINE
  8
0
 10
58.6755
 20
36.2321
 11
58.7679
 21
36.3245
  0
LINE
  8
0
 10
58.7679
 20
36.3245
 11
58.875
 21
36.3995
  0
LINE
  8
0
 10
58.875
 20
36.3995
 11
58.9935
 21
36.4548
  0
LINE
  8
0
 10
58.9935
 20
36.4548
 11
59.1198
 21
36.4886
  0
LINE
  8
0
 10
59.1198
 20
36.4886
 11
59.25
 21
36.5
  0
LINE
  8
0
 10
59.25
 20
36.5
 11
73.75
 21
36.5
  0
LINE
  8
0
 10
73.75
 20
36.5
 11
73.8802
 21
36.4886
  0
LINE
  8
0
 10
73.8802
 20
36.4886
 11
74.0065
 21
36.4548
  0
LINE
  8
0
 10
74.0065
 20
36.4548
 11
74.125
 21
36.3995
  0
LINE
  8
0
 10
74.125
 20
36.3995
 11
74.2321
 21
36.3245
  0
LINE
  8
0
 10
74.2321
 20
36.3245
 11
74.3245
 21
36.2321
  0
LINE
  8
0
 10
74.3245
 20
36.2321
 11
74.3995
 21
36.125
  0
LINE
  8
0
 10
74.3995
 20
36.125
 11
74.4548
 21
36.0065
  0
LINE
  8
0
 10
74.4548
 20
36.0065
 11
74.4886
 21
35.8802
  0
LINE
  8
0
 10
74.4886
 20
35.8802
 11
74.5
 21
35.75
  0
LINE
  8
0
 10
74.5
 20
35.75
 11
74.5
 21
21.25
  0
LINE
  8
0
 10
74.5
 20
21.25
 11
74.4886
 21
21.1198
  0
LINE
  8
0
 10
74.4886
 20
21.1198
 11
74.4548
 21
20.9935
  0
LINE
  8
0
 10
74.4548
 20
20.9935
 11
74.3995
 21
20.875
  0
LINE
  8
0
 10
74.3995
 20
20.875
 11
74.3245
 21
20.7679
  0
LINE
  8
0
 10
74.3245
 20
20.7679
 11
74.2321
 21
20.6755
  0
LINE
  8
0
 10
74.2321
 20
20.6755
 11
74.125
 21
20.6005
  0
LINE
  8
0
 10
74.125
 20
20.6005
 11
74.0065
 21
20.5452
  0
LINE
  8
0
 10
74.0065
 20
20.5452
 11
73.8802
 21
20.5114
  0
LINE
  8
0
 10
73.8802
 20
20.5114
 11
73.75
 21
20.5
  0
LINE
  8
0
 10
73.75
 20
20.5
 11
59.25
 21
20.5
  0
LINE
  8
0
 10
59.25
 20
20.5
 11
59.1198
 21
20.5114
  0
LINE
  8
0
 10
59.1198
 20
20.5114
 11
58.9935
 21
20.5452
  0
LINE
  8
0
 10
58.9935
 20
20.5452
 11
58.875
 21
20.6005
  0
LINE
  8
0
 10
58.875
 20
20.6005
 11
58.7679
 21
20.6755
  0
LINE
  8
0
 10
58.7679
 20
20.6755
 11
58.6755
 21
20.7679
  0
LINE
  8
0
 10
58.6755
 20
20.7679
 11
58.6005
 21
20.875
  0
LINE
  8
0
 10
58.6005
 20
20.875
 11
58.5452
 21
20.9935
  0
LINE
  8
0
 10
58.5452
 20
20.9935
 11
58.5114
 21
21.1198
  0
LINE
  8
0
 10
58.5114
 20
21.1198
 11
58.5
 21
21.25
  0
LINE
  8
0
 10
57.5
 20
39.25
 11
57.5114
 21
39.1198
  0
LINE
  8
0
 10
57.5114
 20
39.1198
 11
57.5452
 21
38.9935
  0
LINE
  8
0
 10
57.5452
 20
38.9935
 11
57.6005
 21
38.875
  0
LINE
  8
0
 10
57.6005
 20
38.875
 11
57.6755
 21
38.7679
  0
LINE
  8
0
 10
57.6755
 20
38.7679
 11
57.7679
 21
38.6755
  0
LINE
  8
0
 10
57.7679
 20
38.6755
 11
57.875
 21
38.6005
  0
LINE
  8
0
 10
57.875
 20
38.6005
 11
57.9935
 21
38.5452
  0
LINE
  8
0
 10
57.9935
 20
38.5452
 11
58.1198
 21
38.5114
  0
LINE
  8
0
 10
58.1198
 20
38.5114
 11
58.25
 21
38.5
  0
LINE
  8
0
 10
58.25
 20
38.5
 11
74.75
 21
38.5
  0
LINE
  8
0
 10
74.75
 20
38.5
 11
74.8802
 21
38.5114
  0
LINE
  8
0
 10
74.8802
 20
38.5114
 11
75.0065
 21
38.5452
  0
LINE
  8
0
 10
75.0065
 20
38.5452
 11
75.125
 21
38.6005
  0
LINE
  8
0
 10
75.125
 20
38.6005
 11
75.2321
 21
38.6755
  0
LINE
  8
0
 10
75.2321
 20
38.6755
 11
75.3245
 21
38.7679
  0
LINE
  8
0
 10
75.3245
 20
38.7679
 11
75.3995
 21
38.875
  0
LINE
  8
0
 10
75.3995
 20
38.875
 11
75.4548
 21
38.9935
  0
LINE
  8
0
 10
75.4548
 20
38.9935
 11
75.4886
 21
39.1198
  0
LINE
  8
0
 10
75.4886
 20
39.1198
 11
75.5
 21
39.25
  0
LINE
  8
0
 10
75.5
 20
39.25
 11
75.5
 21
55.75
  0
LINE
  8
0
 10
75.5
 20
55.75
 11
75.4886
 21
55.8802
  0
LINE
  8
0
 10
75.4886
 20
55.8802
 11
75.4548
 21
56.0065
  0
LINE
  8
0
 10
75.4548
 20
56.0065
 11
75.3995
 21
56.125
  0
LINE
  8
0
 10
75.3995
 20
56.125
 11
75.3245
 21
56.2321
  0
LINE
  8
0
 10
75.3245
 20
56.2321
 11
75.2321
 21
56.3245
  0
LINE
  8
0
 10
75.2321
 20
56.3245
 11
75.125
 21
56.3995
  0
LINE
  8
0
 10
75.125
 20
56.3995
 11
75.0065
 21
56.4548
  0
LINE
  8
0
 10
75.0065
 20
56.4548
 11
74.8802
 21
56.4886
  0
LINE
  8
0
 10
74.8802
 20
56.4886
 11
74.75
 21
56.5
  0
LINE
  8
0
 10
74.75
 20
56.5
 11
58.25
 21
56.5
  0
LINE
  8
0
 10
58.25
 20
56.5
 11
58.1198
 21
56.4886
  0
LINE
  8
0
 10
58.1198
 20
56.4886
 11
57.9935
 21
56.4548
  0
LINE
  8
0
 10
57.9935
 20
56.4548
 11
57.875
 21
56.3995
  0
LINE
  8
0
 10
57.875
 20
56.3995
 11
57.7679
 21
56.3245
  0
LINE
  8
0
 10
57.7679
 20
56.3245
 11
57.6755
 21
56.2321
  0
LINE
  8
0
 10
57.6755
 20
56.2321
 11
57.6005
 21
56.125
  0
LINE
  8
0
 10
57.6005
 20
56.125
 11
57.5452
 21
56.0065
  0
LINE
  8
0
 10
57.5452
 20
56.0065
 11
57.5114
 21
55.8802
  0
LINE
  8
0
 10
57.5114
 20
55.8802
 11
57.5
 21
55.75
  0
LINE
  8
0
 10
57.5
 20
55.75
 11
57.5
 21
39.25
  0
LINE
  8
0
 10
58.5
 20
40.25
 11
58.5
 21
54.75
  0
LINE
  8
0
 10
58.5
 20
54.75
 11
58.5114
 21
54.8802
  0
LINE
  8
0
 10
58.5114
 20
54.8802
 11
58.5452
 21
55.0065
  0
LINE
  8
0
 10
58.5452
 20
55.0065
 11
58.6005
 21
55.125
  0
LINE
  8
0
 10
58.6005
 20
55.125
 11
58.6755
 21
55.2321
  0
LINE
  8
0
 10
58.6755
 20
55.2321
 11
58.7679
 21
55.3245
  0
LINE
  8
0
 10
58.7679
 20
55.3245
 11
58.875
 21
55.3995
  0
LINE
  8
0
 10
58.875
 20
55.3995
 11
58.9935
 21
55.4548
  0
LINE
  8
0
 10
58.9935
 20
55.4548
 11
59.1198
 21
55.4886
  0
LINE
  8
0
 10
59.1198
 20
55.4886
 11
59.25
 21
55.5
  0
LINE
  8
0
 10
59.25
 20
55.5
 11
73.75
 21
55.5
  0
LINE
  8
0
 10
73.75
 20
55.5
 11
73.8802
 21
55.4886
  0
LINE
  8
0
 10
73.8802
 20
55.4886
 11
74.0065
 21
55.4548
  0
LINE
  8
0
 10
74.0065
 20
55.4548
 11
74.125
 21
55.3995
  0
LINE
  8
0
 10
74.125
 20
55.3995
 11
74.2321
 21
55.3245
  0
LINE
  8
0
 10
74.2321
 20
55.3245
 11
74.3245
 21
55.2321
  0
LINE
  8
0
 10
74.3245
 20
55.2321
 11
74.3995
 21
55.125
  0
LINE
  8
0
 10
74.3995
 20
55.125
 11
74.4548
 21
55.0065
  0
LINE
  8
0
 10
74.4548
 20
55.0065
 11
74.4886
 21
54.8802
  0
LINE
  8
0
 10
74.4886
 20
54.8802
 11
74.5
 21
54.75
  0
LINE
  8
0
 10
74.5
 20
54.75
 11
74.5
 21
40.25
  0
LINE
  8
0
 10
74.5
 20
40.25
 11
74.4886
 21
40.1198
  0
LINE
  8
0
 10
74.4886
 20
40.1198
 11
74.4548
 21
39.9935
  0
LINE
  8
0
 10
74.4548
 20
39.9935
 11
74.3995
 21
39.875
  0
LINE
  8
0
 10
74.3995
 20
39.875
 11
74.3245
 21
39.7679
  0
LINE
  8
0
 10
74.3245
 20
39.7679
 11
74.2321
 21
39.6755
  0
LINE
  8
0
 10
74.2321
 20
39.6755
 11
74.125
 21
39.6005
  0
LINE
  8
0
 10
74.125
 20
39.6005
 11
74.0065
 21
39.5452
  0
LINE
  8
0
 10
74.0065
 20
39.5452
 11
73.8802
 21
39.5114
  0
LINE
  8
0
 10
73.8802
 20
39.5114
 11
73.75
 21
39.5
  0
LINE
  8
0
 10
73.75
 20
39.5
 11
59.25
 21
39.5
  0
LINE
  8
0
 10
59.25
 20
39.5
 11
59.1198
 21
39.5114
  0
LINE
  8
0
 10
59.1198
 20
39.5114
 11
58.9935
 21
39.5452
  0
LINE
  8
0
 10
58.9935
 20
39.5452
 11
58.875
 21
39.6005
  0
LINE
  8
0
 10
58.875
 20
39.6005
 11
58.7679
 21
39.6755
  0
LINE
  8
0
 10
58.7679
 20
39.6755
 11
58.6755
 21
39.7679
  0
LINE
  8
0
 10
58.6755
 20
39.7679
 11
58.6005
 21
39.875
  0
LINE
  8
0
 10
58.6005
 20
39.875
 11
58.5452
 21
39.9935
  0
LINE
  8
0
 10
58.5452
 20
39.9935
 11
58.5114
 21
40.1198
  0
LINE
  8
0
 10
58.5114
 20
40.1198
 11
58.5
 21
40.25
  0
LINE
  8
0
 10
57.5
 20
58.25
 11
57.5114
 21
58.1198
  0
LINE
  8
0
 10
57.5114
 20
58.1198
 11
57.5452
 21
57.9935
  0
LINE
  8
0
 10
57.5452
 20
57.9935
 11
57.6005
 21
57.875
  0
LINE
  8
0
 10
57.6005
 20
57.875
 11
57.6755
 21
57.7679
  0
LINE
  8
0
 10
57.6755
 20
57.7679
 11
57.7679
 21
57.6755
  0
LINE
  8
0
 10
57.7679
 20
57.6755
 11
57.875
 21
57.6005
  0
LINE
  8
0
 10
57.875
 20
57.6005
 11
57.9935
 21
57.5452
  0
LINE
  8
0
 10
57.9935
 20
57.5452
 11
58.1198
 21
57.5114
  0
LINE
  8
0
 10
58.1198
 20
57.5114
 11
58.25
 21
57.5
  0
LINE
  8
0
 10
58.25
 20
57.5
 11
74.75
 21
57.5
  0
LINE
  8
0
 10
74.75
 20
57.5
 11
74.8802
 21
57.5114
  0
LINE
  8
0
 10
74.8802
 20
57.5114
 11
75.0065
 21
57.5452
  0
LINE
  8
0
 10
75.0065
 20
57.5452
 11
75.125
 21
57.6005
  0
LINE
  8
0
 10
75.125
 20
57.6005
 11
75.2321
 21
57.6755
  0
LINE
  8
0
 10
75.2321
 20
57.6755
 11
75.3245
 21
57.7679
  0
LINE
  8
0
 10
75.3245
 20
57.7679
 11
75.3995
 21
57.875
  0
LINE
  8
0
 10
75.3995
 20
57.875
 11
75.4548
 21
57.9935
  0
LINE
  8
0
 10
75.4548
 20
57.9935
 11
75.4886
 21
58.1198
  0
LINE
  8
0
 10
75.4886
 20
58.1198
 11
75.5
 21
58.25
  0
LINE
  8
0
 10
75.5
 20
58.25
 11
75.5
 21
74.75
  0
LINE
  8
0
 10
75.5
 20
74.75
 11
75.4886
 21
74.8802
  0
LINE
  8
0
 10
75.4886
 20
74.8802
 11
75.4548
 21
75.0065
  0
LINE
  8
0
 10
75.4548
 20
75.0065
 11
75.3995
 21
75.125
  0
LINE
  8
0
 10
75.3995
 20
75.125
 11
75.3245
 21
75.2321
  0
LINE
  8
0
 10
75.3245
 20
75.2321
 11
75.2321
 21
75.3245
  0
LINE
  8
0
 10
75.2321
 20
75.3245
 11
75.125
 21
75.3995
  0
LINE
  8
0
 10
75.125
 20
75.3995
 11
75.0065
 21
75.4548
  0
LINE
  8
0
 10
75.0065
 20
75.4548
 11
74.8802
 21
75.4886
  0
LINE
  8
0
 10
74.8802
 20
75.4886
 11
74.75
 21
75.5
  0
LINE
  8
0
 10
74.75
 20
75.5
 11
58.25
 21
75.5
  0
LINE
  8
0
 10
58.25
 20
75.5
 11
58.1198
 21
75.4886
  0
LINE
  8
0
 10
58.1198
 20
75.4886
 11
57.9935
 21
75.4548
  0
LINE
  8
0
 10
57.9935
 20
75.4548
 11
57.875
 21
75.3995
  0
LINE
  8
0
 10
57.875
 20
75.3995
 11
57.7679
 21
75.3245
  0
LINE
  8
0
 10
57.7679
 20
75.3245
 11
57.6755
 21
75.2321
  0
LINE
  8
0
 10
57.6755
 20
75.2321
 11
57.6005
 21
75.125
  0
LINE
  8
0
 10
57.6005
 20
75.125
 11
57.5452
 21
75.0065
  0
LINE
  8
0
 10
57.5452
 20
75.0065
 11
57.5114
 21
74.8802
  0
LINE
  8
0
 10
57.5114
 20
74.8802
 11
57.5
 21
74.75
  0
LINE
  8
0
 10
57.5
 20
74.75
 11
57.5
 21
58.25
  0
LINE
  8
0
 10
58.5
 20
59.25
 11
58.5
 21
73.75
  0
LINE
  8
0
 10
58.5
 20
73.75
 11
58.5114
 21
73.8802
  0
LINE
  8
0
 10
58.5114
 20
73.8802
 11
58.5452
 21
74.0065
  0
LINE
  8
0
 10
58.5452
 20
74.0065
 11
58.6005
 21
74.125
  0
LINE
  8
0
 10
58.6005
 20
74.125
 11
58.6755
 21
74.2321
  0
LINE
  8
0
 10
58.6755
 20
74.2321
 11
58.7679
 21
74.3245
  0
LINE
  8
0
 10
58.7679
 20
74.3245
 11
58.875
 21
74.3995
  0
LINE
  8
0
 10
58.875
 20
74.3995
 11
58.9935
 21
74.4548
  0
LINE
  8
0
 10
58.9935
 20
74.4548
 11
59.1198
 21
74.4886
  0
LINE
  8
0
 10
59.1198
 20
74.4886
 11
59.25
 21
74.5
  0
LINE
  8
0
 10
59.25
 20
74.5
 11
73.75
 21
74.5
  0
LINE
  8
0
 10
73.75
 20
74.5
 11
73.8802
 21
74.4886
  0
LINE
  8
0
 10
73.8802
 20
74.4886
 11
74.0065
 21
74.4548
  0
LINE
  8
0
 10
74.0065
 20
74.4548
 11
74.125
 21
74.3995
  0
LINE
  8
0
 10
74.125
 20
74.3995
 11
74.2321
 21
74.3245
  0
LINE
  8
0
 10
74.2321
 20
74.3245
 11
74.3245
 21
74.2321
  0
LINE
  8
0
 10
74.3245
 20
74.2321
 11
74.3995
 21
74.125
  0
LINE
  8
0
 10
74.3995
 20
74.125
 11
74.4548
 21
74.0065
  0
LINE
  8
0
 10
74.4548
 20
74.0065
 11
74.4886
 21
73.8802
  0
LINE
  8
0
 10
74.4886
 20
73.8802
 11
74.5
 21
73.75
  0
LINE
  8
0
 10
74.5
 20
73.75
 11
74.5
 21
59.25
  0
LINE
  8
0
 10
74.5
 20
59.25
 11
74.4886
 21
59.1198
  0
LINE
  8
0
 10
74.4886
 20
59.1198
 11
74.4548
 21
58.9935
  0
LINE
  8
0
 10
74.4548
 20
58.9935
 11
74.3995
 21
58.875
  0
LINE
  8
0
 10
74.3995
 20
58.875
 11
74.3245
 21
58.7679
  0
LINE
  8
0
 10
74.3245
 20
58.7679
 11
74.2321
 21
58.6755
  0
LINE
  8
0
 10
74.2321
 20
58.6755
 11
74.125
 21
58.6005
  0
LINE
  8
0
 10
74.125
 20
58.6005
 11
74.0065
 21
58.5452
  0
LINE
  8
0
 10
74.0065
 20
58.5452
 11
73.8802
 21
58.5114
  0
LINE
  8
0
 10
73.8802
 20
58.5114
 11
73.75
 21
58.5
  0
LINE
  8
0
 10
73.75
 20
58.5
 11
59.25
 21
58.5
  0
LINE
  8
0
 10
59.25
 20
58.5
 11
59.1198
 21
58.5114
  0
LINE
  8
0
 10
59.1198
 20
58.5114
 11
58.9935
 21
58.5452
  0
LINE
  8
0
 10
58.9935
 20
58.5452
 11
58.875
 21
58.6005
  0
LINE
  8
0
 10
58.875
 20
58.6005
 11
58.7679
 21
58.6755
  0
LINE
  8
0
 10
58.7679
 20
58.6755
 11
58.6755
 21
58.7679
  0
LINE
  8
0
 10
58.6755
 20
58.7679
 11
58.6005
 21
58.875
  0
LINE
  8
0
 10
58.6005
 20
58.875
 11
58.5452
 21
58.9935
  0
LINE
  8
0
 10
58.5452
 20
58.9935
 11
58.5114
 21
59.1198
  0
LINE
  8
0
 10
58.5114
 20
59.1198
 11
58.5
 21
59.25
  0
LINE
  8
0
 10
57.5
 20
77.25
 11
57.5114
 21
77.1198
  0
LINE
  8
0
 10
57.5114
 20
77.1198
 11
57.5452
 21
76.9935
  0
LINE
  8
0
 10
57.5452
 20
76.9935
 11
57.6005
 21
76.875
  0
LINE
  8
0
 10
57.6005
 20
76.875
 11
57.6755
 21
76.7679
  0
LINE
  8
0
 10
57.6755
 20
76.7679
 11
57.7679
 21
76.6755
  0
LINE
  8
0
 10
57.7679
 20
76.6755
 11
57.875
 21
76.6005
  0
LINE
  8
0
 10
57.875
 20
76.6005
 11
57.9935
 21
76.5452
  0
LINE
  8
0
 10
57.9935
 20
76.5452
 11
58.1198
 21
76.5114
  0
LINE
  8
0
 10
58.1198
 20
76.5114
 11
58.25
 21
76.5
  0
LINE
  8
0
 10
58.25
 20
76.5
 11
74.75
 21
76.5
  0
LINE
  8
0
 10
74.75
 20
76.5
 11
74.8802
 21
76.5114
  0
LINE
  8
0
 10
74.8802
 20
76.5114
 11
75.0065
 21
76.5452
  0
LINE
  8
0
 10
75.0065
 20
76.5452
 11
75.125
 21
76.6005
  0
LINE
  8
0
 10
75.125
 20
76.6005
 11
75.2321
 21
76.6755
  0
LINE
  8
0
 10
75.2321
 20
76.6755
 11
75.3245
 21
76.7679
  0
LINE
  8
0
 10
75.3245
 20
76.7679
 11
75.3995
 21
76.875
  0
LINE
  8
0
 10
75.3995
 20
76.875
 11
75.4548
 21
76.9935
  0
LINE
  8
0
 10
75.4548
 20
76.9935
 11
75.4886
 21
77.1198
  0
LINE
  8
0
 10
75.4886
 20
77.1198
 11
75.5
 21
77.25
  0
LINE
  8
0
 10
75.5
 20
77.25
 11
75.5
 21
93.75
  0
LINE
  8
0
 10
75.5
 20
93.75
 11
75.4886
 21
93.8802
  0
LINE
  8
0
 10
75.4886
 20
93.8802
 11
75.4548
 21
94.0065
  0
LINE
  8
0
 10
75.4548
 20
94.0065
 11
75.3995
 21
94.125
  0
LINE
  8
0
 10
75.3995
 20
94.125
 11
75.3245
 21
94.2321
  0
LINE
  8
0
 10
75.3245
 20
94.2321
 11
75.2321
 21
94.3245
  0
LINE
  8
0
 10
75.2321
 20
94.3245
 11
75.125
 21
94.3995
  0
LINE
  8
0
 10
75.125
 20
94.3995
 11
75.0065
 21
94.4548
  0
LINE
  8
0
 10
75.0065
 20
94.4548
 11
74.8802
 21
94.4886
  0
LINE
  8
0
 10
74.8802
 20
94.4886
 11
74.75
 21
94.5
  0
LINE
  8
0
 10
74.75
 20
94.5
 11
58.25
 21
94.5
  0
LINE
  8
0
 10
58.25
 20
94.5
 11
58.1198
 21
94.4886
  0
LINE
  8
0
 10
58.1198
 20
94.4886
 11
57.9935
 21
94.4548
  0
LINE
  8
0
 10
57.9935
 20
94.4548
 11
57.875
 21
94.3995
  0
LINE
  8
0
 10
57.875
 20
94.3995
 11
57.7679
 21
94.3245
  0
LINE
  8
0
 10
57.7679
 20
94.3245
 11
57.6755
 21
94.2321
  0
LINE
  8
0
 10
57.6755
 20
94.2321
 11
57.6005
 21
94.125
  0
LINE
  8
0
 10
57.6005
 20
94.125
 11
57.5452
 21
94.0065
  0
LINE
  8
0
 10
57.5452
 20
94.0065
 11
57.5114
 21
93.8802
  0
LINE
  8
0
 10
57.5114
 20
93.8802
 11
57.5
 21
93.75
  0
LINE
  8
0
 10
57.5
 20
93.75
 11
57.5
 21
77.25
  0
LINE
  8
0
 10
58.5
 20
78.25
 11
58.5
 21
92.75
  0
LINE
  8
0
 10
58.5
 20
92.75
 11
58.5114
 21
92.8802
  0
LINE
  8
0
 10
58.5114
 20
92.8802
 11
58.5452
 21
93.0065
  0
LINE
  8
0
 10
58.5452
 20
93.0065
 11
58.6005
 21
93.125
  0
LINE
  8
0
 10
58.6005
 20
93.125
 11
58.6755
 21
93.2321
  0
LINE
  8
0
 10
58.6755
 20
93.2321
 11
58.7679
 21
93.3245
  0
LINE
  8
0
 10
58.7679
 20
93.3245
 11
58.875
 21
93.3995
  0
LINE
  8
0
 10
58.875
 20
93.3995
 11
58.9935
 21
93.4548
  0
LINE
  8
0
 10
58.9935
 20
93.4548
 11
59.1198
 21
93.4886
  0
LINE
  8
0
 10
59.1198
 20
93.4886
 11
59.25
 21
93.5
  0
LINE
  8
0
 10
59.25
 20
93.5
 11
73.75
 21
93.5
  0
LINE
  8
0
 10
73.75
 20
93.5
 11
73.8802
 21
93.4886
  0
LINE
  8
0
 10
73.8802
 20
93.4886
 11
74.0065
 21
93.4548
  0
LINE
  8
0
 10
74.0065
 20
93.4548
 11
74.125
 21
93.3995
  0
LINE
  8
0
 10
74.125
 20
93.3995
 11
74.2321
 21
93.3245
  0
LINE
  8
0
 10
74.2321
 20
93.3245
 11
74.3245
 21
93.2321
  0
LINE
  8
0
 10
74.3245
 20
93.2321
 11
74.3995
 21
93.125
  0
LINE
  8
0
 10
74.3995
 20
93.125
 11
74.4548
 21
93.0065
  0
LINE
  8
0
 10
74.4548
 20
93.0065
 11
74.4886
 21
92.8802
  0
LINE
  8
0
 10
74.4886
 20
92.8802
 11
74.5
 21
92.75
  0
LINE
  8
0
 10
74.5
 20
92.75
 11
74.5
 21
78.25
  0
LINE
  8
0
 10
74.5
 20
78.25
 11
74.4886
 21
78.1198
  0
LINE
  8
0
 10
74.4886
 20
78.1198
 11
74.4548
 21
77.9935
  0
LINE
  8
0
 10
74.4548
 20
77.9935
 11
74.3995
 21
77.875
  0
LINE
  8
0
 10
74.3995
 20
77.875
 11
74.3245
 21
77.7679
  0
LINE
  8
0
 10
74.3245
 20
77.7679
 11
74.2321
 21
77.6755
  0
LINE
  8
0
 10
74.2321
 20
77.6755
 11
74.125
 21
77.6005
  0
LINE
  8
0
 10
74.125
 20
77.6005
 11
74.0065
 21
77.5452
  0
LINE
  8
0
 10
74.0065
 20
77.5452
 11
73.8802
 21
77.5114
  0
LINE
  8
0
 10
73.8802
 20
77.5114
 11
73.75
 21
77.5
  0
LINE
  8
0
 10
73.75
 20
77.5
 11
59.25
 21
77.5
  0
LINE
  8
0
 10
59.25
 20
77.5
 11
59.1198
 21
77.5114
  0
LINE
  8
0
 10
59.1198
 20
77.5114
 11
58.9935
 21
77.5452
  0
LINE
  8
0
 10
58.9935
 20
77.5452
 11
58.875
 21
77.6005
  0
LINE
  8
0
 10
58.875
 20
77.6005
 11
58.7679
 21
77.6755
  0
LINE
  8
0
 10
58.7679
 20
77.6755
 11
58.6755
 21
77.7679
  0
LINE
  8
0
 10
58.6755
 20
77.7679
 11
58.6005
 21
77.875
  0
LINE
  8
0
 10
58.6005
 20
77.875
 11
58.5452
 21
77.9935
  0
LINE
  8
0
 10
58.5452
 20
77.9935
 11
58.5114
 21
78.1198
  0
LINE
  8
0
 10
58.5114
 20
78.1198
 11
58.5
 21
78.25
  0
LINE
  8
0
 10
57.5
 20
96.25
 11
57.5114
 21
96.1198
  0
LINE
  8
0
 10
57.5114
 20
96.1198
 11
57.5452
 21
95.9935
  0
LINE
  8
0
 10
57.5452
 20
95.9935
 11
57.6005
 21
95.875
  0
LINE
  8
0
 10
57.6005
 20
95.875
 11
57.6755
 21
95.7679
  0
LINE
  8
0
 10
57.6755
 20
95.7679
 11
57.7679
 21
95.6755
  0
LINE
  8
0
 10
57.7679
 20
95.6755
 11
57.875
 21
95.6005
  0
LINE
  8
0
 10
57.875
 20
95.6005
 11
57.9935
 21
95.5452
  0
LINE
  8
0
 10
57.9935
 20
95.5452
 11
58.1198
 21
95.5114
  0
LINE
  8
0
 10
58.1198
 20
95.5114
 11
58.25
 21
95.5
  0
LINE
  8
0
 10
58.25
 20
95.5
 11
74.75
 21
95.5
  0
LINE
  8
0
 10
74.75
 20
95.5
 11
74.8802
 21
95.5114
  0
LINE
  8
0
 10
74.8802
 20
95.5114
 11
75.0065
 21
95.5452
  0
LINE
  8
0
 10
75.0065
 20
95.5452
 11
75.125
 21
95.6005
  0
LINE
  8
0
 10
75.125
 20
95.6005
 11
75.2321
 21
95.6755
  0
LINE
  8
0
 10
75.2321
 20
95.6755
 11
75.3245
 21
95.7679
  0
LINE
  8
0
 10
75.3245
 20
95.7679
 11
75.3995
 21
95.875
  0
LINE
  8
0
 10
75.3995
 20
95.875
 11
75.4548
 21
95.9935
  0
LINE
  8
0
 10
75.4548
 20
95.9935
 11
75.4886
 21
96.1198
  0
LINE
  8
0
 10
75.4886
 20
96.1198
 11
75.5
 21
96.25
  0
LINE
  8
0
 10
75.5
 20
96.25
 11
75.5
 21
112.75
  0
LINE
  8
0
 10
75.5
 20
112.75
 11
75.4886
 21
112.88
  0
LINE
  8
0
 10
75.4886
 20
112.88
 11
75.4548
 21
113.007
  0
LINE
  8
0
 10
75.4548
 20
113.007
 11
75.3995
 21
113.125
  0
LINE
  8
0
 10
75.3995
 20
113.125
 11
75.3245
 21
113.232
  0
LINE
  8
0
 10
75.3245
 20
113.232
 11
75.2321
 21
113.325
  0
LINE
  8
0
 10
75.2321
 20
113.325
 11
75.125
 21
113.4
  0
LINE
  8
0
 10
75.125
 20
113.4
 11
75.0065
 21
113.455
  0
LINE
  8
0
 10
75.0065
 20
113.455
 11
74.8802
 21
113.489
  0
LINE
  8
0
 10
74.8802
 20
113.489
 11
74.75
 21
113.5
  0
LINE
  8
0
 10
74.75
 20
113.5
 11
58.25
 21
113.5
  0
LINE
  8
0
 10
58.25
 20
113.5
 11
58.1198
 21
113.489
  0
LINE
  8
0
 10
58.1198
 20
113.489
 11
57.9935
 21
113.455
  0
LINE
  8
0
 10
57.9935
 20
113.455
 11
57.875
 21
113.4
  0
LINE
  8
0
 10
57.875
 20
113.4
 11
57.7679
 21
113.325
  0
LINE
  8
0
 10
57.7679
 20
113.325
 11
57.6755
 21
113.232
  0
LINE
  8
0
 10
57.6755
 20
113.232
 11
57.6005
 21
113.125
  0
LINE
  8
0
 10
57.6005
 20
113.125
 11
57.5452
 21
113.007
  0
LINE
  8
0
 10
57.5452
 20
113.007
 11
57.5114
 21
112.88
  0
LINE
  8
0
 10
57.5114
 20
112.88
 11
57.5
 21
112.75
  0
LINE
  8
0
 10
57.5
 20
112.75
 11
57.5
 21
96.25
  0
LINE
  8
0
 10
58.5
 20
97.25
 11
58.5
 21
111.75
  0
LINE
  8
0
 10
58.5
 20
111.75
 11
58.5114
 21
111.88
  0
LINE
  8
0
 10
58.5114
 20
111.88
 11
58.5452
 21
112.007
  0
LINE
  8
0
 10
58.5452
 20
112.007
 11
58.6005
 21
112.125
  0
LINE
  8
0
 10
58.6005
 20
112.125
 11
58.6755
 21
112.232
  0
LINE
  8
0
 10
58.6755
 20
112.232
 11
58.7679
 21
112.325
  0
LINE
  8
0
 10
58.7679
 20
112.325
 11
58.875
 21
112.4
  0
LINE
  8
0
 10
58.875
 20
112.4
 11
58.9935
 21
112.455
  0
LINE
  8
0
 10
58.9935
 20
112.455
 11
59.1198
 21
112.489
  0
LINE
  8
0
 10
59.1198
 20
112.489
 11
59.25
 21
112.5
  0
LINE
  8
0
 10
59.25
 20
112.5
 11
73.75
 21
112.5
  0
LINE
  8
0
 10
73.75
 20
112.5
 11
73.8802
 21
112.489
  0
LINE
  8
0
 10
73.8802
 20
112.489
 11
74.0065
 21
112.455
  0
LINE
  8
0
 10
74.0065
 20
112.455
 11
74.125
 21
112.4
  0
LINE
  8
0
 10
74.125
 20
112.4
 11
74.2321
 21
112.325
  0
LINE
  8
0
 10
74.2321
 20
112.325
 11
74.3245
 21
112.232
  0
LINE
  8
0
 10
74.3245
 20
112.232
 11
74.3995
 21
112.125
  0
LINE
  8
0
 10
74.3995
 20
112.125
 11
74.4548
 21
112.007
  0
LINE
  8
0
 10
74.4548
 20
112.007
 11
74.4886
 21
111.88
  0
LINE
  8
0
 10
74.4886
 20
111.88
 11
74.5
 21
111.75
  0
LINE
  8
0
 10
74.5
 20
111.75
 11
74.5
 21
97.25
  0
LINE
  8
0
 10
74.5
 20
97.25
 11
74.4886
 21
97.1198
  0
LINE
  8
0
 10
74.4886
 20
97.1198
 11
74.4548
 21
96.9935
  0
LINE
  8
0
 10
74.4548
 20
96.9935
 11
74.3995
 21
96.875
  0
LINE
  8
0
 10
74.3995
 20
96.875
 11
74.3245
 21
96.7679
  0
LINE
  8
0
 10
74.3245
 20
96.7679
 11
74.2321
 21
96.6755
  0
LINE
  8
0
 10
74.2321
 20
96.6755
 11
74.125
 21
96.6005
  0
LINE
  8
0
 10
74.125
 20
96.6005
 11
74.0065
 21
96.5452
  0
LINE
  8
0
 10
74.0065
 20
96.5452
 11
73.8802
 21
96.5114
  0
LINE
  8
0
 10
73.8802
 20
96.5114
 11
73.75
 21
96.5
  0
LINE
  8
0
 10
73.75
 20
96.5
 11
59.25
 21
96.5
  0
LINE
  8
0
 10
59.25
 20
96.5
 11
59.1198
 21
96.5114
  0
LINE
  8
0
 10
59.1198
 20
96.5114
 11
58.9935
 21
96.5452
  0
LINE
  8
0
 10
58.9935
 20
96.5452
 11
58.875
 21
96.6005
  0
LINE
  8
0
 10
58.875
 20
96.6005
 11
58.7679
 21
96.6755
  0
LINE
  8
0
 10
58.7679
 20
96.6755
 11
58.6755
 21
96.7679
  0
LINE
  8
0
 10
58.6755
 20
96.7679
 11
58.6005
 21
96.875
  0
LINE
  8
0
 10
58.6005
 20
96.875
 11
58.5452
 21
96.9935
  0
LINE
  8
0
 10
58.5452
 20
96.9935
 11
58.5114
 21
97.1198
  0
LINE
  8
0
 10
58.5114
 20
97.1198
 11
58.5
 21
97.25
  0
LINE
  8
0
 10
57.5
 20
115.25
 11
57.5114
 21
115.12
  0
LINE
  8
0
 10
57.5114
 20
115.12
 11
57.5452
 21
114.993
  0
LINE
  8
0
 10
57.5452
 20
114.993
 11
57.6005
 21
114.875
  0
LINE
  8
0
 10
57.6005
 20
114.875
 11
57.6755
 21
114.768
  0
LINE
  8
0
 10
57.6755
 20
114.768
 11
57.7679
 21
114.675
  0
LINE
  8
0
 10
57.7679
 20
114.675
 11
57.875
 21
114.6
  0
LINE
  8
0
 10
57.875
 20
114.6
 11
57.9935
 21
114.545
  0
LINE
  8
0
 10
57.9935
 20
114.545
 11
58.1198
 21
114.511
  0
LINE
  8
0
 10
58.1198
 20
114.511
 11
58.25
 21
114.5
  0
LINE
  8
0
 10
58.25
 20
114.5
 11
74.75
 21
114.5
  0
LINE
  8
0
 10
74.75
 20
114.5
 11
74.8802
 21
114.511
  0
LINE
  8
0
 10
74.8802
 20
114.511
 11
75.0065
 21
114.545
  0
LINE
  8
0
 10
75.0065
 20
114.545
 11
75.125
 21
114.6
  0
LINE
  8
0
 10
75.125
 20
114.6
 11
75.2321
 21
114.675
  0
LINE
  8
0
 10
75.2321
 20
114.675
 11
75.3245
 21
114.768
  0
LINE
  8
0
 10
75.3245
 20
114.768
 11
75.3995
 21
114.875
  0
LINE
  8
0
 10
75.3995
 20
114.875
 11
75.4548
 21
114.993
  0
LINE
  8
0
 10
75.4548
 20
114.993
 11
75.4886
 21
115.12
  0
LINE
  8
0
 10
75.4886
 20
115.12
 11
75.5
 21
115.25
  0
LINE
  8
0
 10
75.5
 20
115.25
 11
75.5
 21
131.75
  0
LINE
  8
0
 10
75.5
 20
131.75
 11
75.4886
 21
131.88
  0
LINE
  8
0
 10
75.4886
 20
131.88
 11
75.4548
 21
132.007
  0
LINE
  8
0
 10
75.4548
 20
132.007
 11
75.3995
 21
132.125
  0
LINE
  8
0
 10
75.3995
 20
132.125
 11
75.3245
 21
132.232
  0
LINE
  8
0
 10
75.3245
 20
132.232
 11
75.2321
 21
132.325
  0
LINE
  8
0
 10
75.2321
 20
132.325
 11
75.125
 21
132.4
  0
LINE
  8
0
 10
75.125
 20
132.4
 11
75.0065
 21
132.455
  0
LINE
  8
0
 10
75.0065
 20
132.455
 11
74.8802
 21
132.489
  0
LINE
  8
0
 10
74.8802
 20
132.489
 11
74.75
 21
132.5
  0
LINE
  8
0
 10
74.75
 20
132.5
 11
58.25
 21
132.5
  0
LINE
  8
0
 10
58.25
 20
132.5
 11
58.1198
 21
132.489
  0
LINE
  8
0
 10
58.1198
 20
132.489
 11
57.9935
 21
132.455
  0
LINE
  8
0
 10
57.9935
 20
132.455
 11
57.875
 21
132.4
  0
LINE
  8
0
 10
57.875
 20
132.4
 11
57.7679
 21
132.325
  0
LINE
  8
0
 10
57.7679
 20
132.325
 11
57.6755
 21
132.232
  0
LINE
  8
0
 10
57.6755
 20
132.232
 11
57.6005
 21
132.125
  0
LINE
  8
0
 10
57.6005
 20
132.125
 11
57.5452
 21
132.007
  0
LINE
  8
0
 10
57.5452
 20
132.007
 11
57.5114
 21
131.88
  0
LINE
  8
0
 10
57.5114
 20
131.88
 11
57.5
 21
131.75
  0
LINE
  8
0
 10
57.5
 20
131.75
 11
57.5
 21
115.25
  0
LINE
  8
0
 10
58.5
 20
116.25
 11
58.5
 21
130.75
  0
LINE
  8
0
 10
58.5
 20
130.75
 11
58.5114
 21
130.88
  0
LINE
  8
0
 10
58.5114
 20
130.88
 11
58.5452
 21
131.007
  0
LINE
  8
0
 10
58.5452
 20
131.007
 11
58.6005
 21
131.125
  0
LINE
  8
0
 10
58.6005
 20
131.125
 11
58.6755
 21
131.232
  0
LINE
  8
0
 10
58.6755
 20
131.232
 11
58.7679
 21
131.325
  0
LINE
  8
0
 10
58.7679
 20
131.325
 11
58.875
 21
131.4
  0
LINE
  8
0
 10
58.875
 20
131.4
 11
58.9935
 21
131.455
  0
LINE
  8
0
 10
58.9935
 20
131.455
 11
59.1198
 21
131.489
  0
LINE
  8
0
 10
59.1198
 20
131.489
 11
59.25
 21
131.5
  0
LINE
  8
0
 10
59.25
 20
131.5
 11
73.75
 21
131.5
  0
LINE
  8
0
 10
73.75
 20
131.5
 11
73.8802
 21
131.489
  0
LINE
  8
0
 10
73.8802
 20
131.489
 11
74.0065
 21
131.455
  0
LINE
  8
0
 10
74.0065
 20
131.455
 11
74.125
 21
131.4
  0
LINE
  8
0
 10
74.125
 20
131.4
 11
74.2321
 21
131.325
  0
LINE
  8
0
 10
74.2321
 20
131.325
 11
74.3245
 21
131.232
  0
LINE
  8
0
 10
74.3245
 20
131.232
 11
74.3995
 21
131.125
  0
LINE
  8
0
 10
74.3995
 20
131.125
 11
74.4548
 21
131.007
  0
LINE
  8
0
 10
74.4548
 20
131.007
 11
74.4886
 21
130.88
  0
LINE
  8
0
 10
74.4886
 20
130.88
 11
74.5
 21
130.75
  0
LINE
  8
0
 10
74.5
 20
130.75
 11
74.5
 21
116.25
  0
LINE
  8
0
 10
74.5
 20
116.25
 11
74.4886
 21
116.12
  0
LINE
  8
0
 10
74.4886
 20
116.12
 11
74.4548
 21
115.993
  0
LINE
  8
0
 10
74.4548
 20
115.993
 11
74.3995
 21
115.875
  0
LINE
  8
0
 10
74.3995
 20
115.875
 11
74.3245
 21
115.768
  0
LINE
  8
0
 10
74.3245
 20
115.768
 11
74.2321
 21
115.675
  0
LINE
  8
0
 10
74.2321
 20
115.675
 11
74.125
 21
115.6
  0
LINE
  8
0
 10
74.125
 20
115.6
 11
74.0065
 21
115.545
  0
LINE
  8
0
 10
74.0065
 20
115.545
 11
73.8802
 21
115.511
  0
LINE
  8
0
 10
73.8802
 20
115.511
 11
73.75
 21
115.5
  0
LINE
  8
0
 10
73.75
 20
115.5
 11
59.25
 21
115.5
  0
LINE
  8
0
 10
59.25
 20
115.5
 11
59.1198
 21
115.511
  0
LINE
  8
0
 10
59.1198
 20
115.511
 11
58.9935
 21
115.545
  0
LINE
  8
0
 10
58.9935
 20
115.545
 11
58.875
 21
115.6
  0
LINE
  8
0
 10
58.875
 20
115.6
 11
58.7679
 21
115.675
  0
LINE
  8
0
 10
58.7679
 20
115.675
 11
58.6755
 21
115.768
  0
LINE
  8
0
 10
58.6755
 20
115.768
 11
58.6005
 21
115.875
  0
LINE
  8
0
 10
58.6005
 20
115.875
 11
58.5452
 21
115.993
  0
LINE
  8
0
 10
58.5452
 20
115.993
 11
58.5114
 21
116.12
  0
LINE
  8
0
 10
58.5114
 20
116.12
 11
58.5
 21
116.25
  0
ENDSEC
  0
SECTION
  2
OBJECTS
  0
DICTIONARY
  0
ENDSEC
  0
EOF
