M48
; DRILL file {KiCad 7.0.2-6a45011f42~172~ubuntu22.04.1} date Sat 29 Apr 2023 09:48:48 AM EDT
; FORMAT={-:-/ absolute / inch / decimal}
; #@! TF.CreationDate,2023-04-29T09:48:48-04:00
; #@! TF.GenerationSoftware,Kicad,Pcbnew,7.0.2-6a45011f42~172~ubuntu22.04.1
; #@! TF.FileFunction,NonPlated,1,2,NPTH
FMAT,2
INCH
; #@! TA.AperFunction,NonPlated,NPTH,ComponentDrill
T1C0.0669
; #@! TA.AperFunction,NonPlated,NPTH,ComponentDrill
T2C0.1201
; #@! TA.AperFunction,NonPlated,NPTH,ComponentDrill
T3C0.1358
; #@! TA.AperFunction,NonPlated,NPTH,ComponentDrill
T4C0.1575
%
G90
G05
T1
X1.5Y-2.7
X1.5Y-3.45
X1.5Y-4.2
X1.5Y-4.95
X1.5Y-5.7
X1.5Y-6.45
X1.5Y-7.2
X1.9Y-2.7
X1.9Y-3.45
X1.9Y-4.2
X1.9Y-4.95
X1.9Y-5.7
X1.9Y-6.45
X1.9Y-7.2
X2.25Y-2.7
X2.25Y-3.45
X2.25Y-4.2
X2.25Y-4.95
X2.25Y-5.7
X2.25Y-6.45
X2.25Y-7.2
X2.65Y-2.7
X2.65Y-3.45
X2.65Y-4.2
X2.65Y-4.95
X2.65Y-5.7
X2.65Y-6.45
X2.65Y-7.2
X3.0Y-2.7
X3.0Y-3.45
X3.0Y-4.2
X3.0Y-4.95
X3.0Y-5.7
X3.0Y-6.45
X3.3815Y-7.2256
X3.4Y-2.7
X3.4Y-3.45
X3.4Y-4.2
X3.4Y-4.95
X3.4Y-5.7
X3.4Y-6.45
X3.75Y-2.7
X3.75Y-3.45
X3.75Y-4.2
X3.75Y-4.95
X3.75Y-5.7
X3.75Y-6.45
X3.7815Y-7.2256
X4.15Y-2.7
X4.15Y-3.45
X4.15Y-4.2
X4.15Y-4.95
X4.15Y-5.7
X4.15Y-6.45
T2
X3.113Y-6.95
X4.05Y-6.95
T3
X2.2Y-1.575
X3.3799Y-1.39
T4
X1.7Y-2.7
X1.7Y-3.45
X1.7Y-4.2
X1.7Y-4.95
X1.7Y-5.7
X1.7Y-6.45
X1.7Y-7.2
X2.45Y-2.7
X2.45Y-3.45
X2.45Y-4.2
X2.45Y-4.95
X2.45Y-5.7
X2.45Y-6.45
X2.45Y-7.2
X3.113Y-7.55
X3.2Y-2.7
X3.2Y-3.45
X3.2Y-4.2
X3.2Y-4.95
X3.2Y-5.7
X3.2Y-6.45
X3.5815Y-7.2256
X3.95Y-2.7
X3.95Y-3.45
X3.95Y-4.2
X3.95Y-4.95
X3.95Y-5.7
X3.95Y-6.45
X4.05Y-7.55
T0
M30
