M48
; DRILL file {KiCad 7.0.2-6a45011f42~172~ubuntu22.04.1} date Wed 17 May 2023 02:33:10 PM EDT
; FORMAT={-:-/ absolute / inch / decimal}
; #@! TF.CreationDate,2023-05-17T14:33:10-04:00
; #@! TF.GenerationSoftware,Kicad,Pcbnew,7.0.2-6a45011f42~172~ubuntu22.04.1
; #@! TF.FileFunction,Plated,1,2,PTH
FMAT,2
INCH
; #@! TA.AperFunction,Plated,PTH,ViaDrill
T1C0.0157
; #@! TA.AperFunction,Plated,PTH,ComponentDrill
T2C0.0315
; #@! TA.AperFunction,Plated,PTH,ComponentDrill
T3C0.0354
; #@! TA.AperFunction,Plated,PTH,ComponentDrill
T4C0.0394
; #@! TA.AperFunction,Plated,PTH,ComponentDrill
T5C0.0472
; #@! TA.AperFunction,Plated,PTH,ComponentDrill
T6C0.0500
; #@! TA.AperFunction,Plated,PTH,ComponentDrill
T7C0.0591
; #@! TA.AperFunction,Plated,PTH,ComponentDrill
T8C0.0700
; #@! TA.AperFunction,Plated,PTH,ComponentDrill
T9C0.0930
; #@! TA.AperFunction,Plated,PTH,ComponentDrill
T10C0.0984
%
G90
G05
T1
X1.28Y-1.2
X1.585Y-1.885
X1.705Y-1.075
X1.765Y-1.755
X1.8Y-2.605
X1.82Y-2.145
X1.855Y-1.31
X1.925Y-2.605
X1.955Y-2.03
X2.005Y-1.965
X2.005Y-2.565
X2.035Y-1.52
X2.035Y-2.145
X2.05Y-1.305
X2.09Y-1.835
X2.1006Y-1.2094
X2.145Y-1.455
X2.15Y-2.06
X2.205Y-1.17
X2.21Y-2.565
X2.295Y-1.835
X2.3014Y-1.1786
X2.37Y-2.21
X2.55Y-1.45
X2.555Y-0.98
X2.595Y-1.285
X2.665Y-2.21
X2.775Y-1.48
X2.88Y-1.625
X2.945Y-1.58
X3.0Y-1.245
X3.15Y-1.625
X3.195Y-1.585
X3.2Y-1.535
X3.23Y-1.245
X3.275Y-2.06
X3.36Y-1.54
X3.405Y-2.545
X3.42Y-0.945
X3.48Y-2.625
X3.49Y-3.34
X3.49Y-3.585
X3.525Y-2.035
X3.54Y-1.1036
X3.615Y-1.12
X3.71Y-1.28
X3.8043Y-1.0743
X4.07Y-1.97
X4.105Y-1.025
T2
X1.325Y-1.75
X1.3416Y-1.535
X1.3508Y-1.05
X1.425Y-1.65
X1.425Y-1.85
X1.44Y-1.535
X1.4492Y-1.05
X1.55Y-3.075
X1.55Y-3.825
X1.55Y-4.575
X1.55Y-5.325
X1.55Y-6.075
X1.55Y-6.825
X1.55Y-7.575
X1.7Y-2.3
X1.85Y-3.075
X1.85Y-3.825
X1.85Y-4.575
X1.85Y-5.325
X1.85Y-6.075
X1.85Y-6.825
X1.85Y-7.575
X1.9Y-1.075
X1.9Y-1.375
X2.0Y-1.075
X2.0Y-1.375
X2.0Y-2.3
X2.1Y-1.075
X2.1Y-1.375
X2.15Y-2.3
X2.2Y-1.075
X2.2Y-1.375
X2.3Y-1.075
X2.3Y-1.375
X2.3Y-3.075
X2.3Y-3.825
X2.3Y-4.575
X2.3Y-5.325
X2.3Y-6.075
X2.3Y-6.825
X2.3Y-7.575
X2.4Y-1.075
X2.4Y-1.375
X2.45Y-2.3
X2.465Y-1.56
X2.5Y-1.075
X2.5Y-1.375
X2.5634Y-1.56
X2.575Y-2.3
X2.6Y-1.075
X2.6Y-1.375
X2.6Y-3.075
X2.6Y-3.825
X2.6Y-4.575
X2.6Y-5.325
X2.6Y-6.075
X2.6Y-6.825
X2.6Y-7.575
X2.7Y-1.075
X2.7Y-1.375
X2.8Y-1.075
X2.8Y-1.375
X2.875Y-2.3
X2.9Y-1.075
X2.9Y-1.375
X3.0Y-1.075
X3.0Y-1.375
X3.0Y-2.3
X3.05Y-3.075
X3.05Y-3.825
X3.05Y-4.575
X3.05Y-5.325
X3.05Y-6.075
X3.05Y-6.8
X3.1Y-1.075
X3.1Y-1.375
X3.2Y-1.075
X3.2Y-1.375
X3.3Y-2.3
X3.35Y-3.075
X3.35Y-3.825
X3.35Y-4.575
X3.35Y-5.325
X3.35Y-6.075
X3.35Y-6.8
X3.425Y-7.6
X3.675Y-2.3
X3.725Y-7.6
X3.8Y-3.075
X3.8Y-3.825
X3.8Y-4.575
X3.8Y-5.325
X3.8Y-6.075
X3.8Y-6.8
X3.975Y-2.3
X4.1Y-3.075
X4.1Y-3.825
X4.1Y-4.575
X4.1Y-5.325
X4.1Y-6.075
X4.1Y-6.8
T3
X1.425Y-2.3
X1.525Y-2.3
X3.425Y-2.3
X3.525Y-2.3
X4.15Y-2.3
X4.25Y-2.3
T4
X3.6506Y-0.7998
X3.6506Y-0.8998
X3.7506Y-0.7998
X3.7506Y-0.8998
X3.8506Y-0.7998
X3.8506Y-0.8998
T5
X1.5638Y-0.8545
X1.6638Y-0.8545
X1.7638Y-0.8545
X1.8638Y-0.8545
X1.9638Y-0.8545
X2.0638Y-0.8545
X2.1638Y-0.8545
X2.2638Y-0.8545
X2.3638Y-0.8545
X2.4638Y-0.8545
X2.5638Y-0.8545
X2.6638Y-0.8545
X2.7638Y-0.8545
X2.8638Y-0.8545
X2.9638Y-0.8545
X3.0638Y-0.8545
T6
X3.655Y-1.22
X3.655Y-1.69
T7
X1.55Y-2.6
X1.55Y-3.35
X1.55Y-4.1
X1.55Y-4.85
X1.55Y-5.6
X1.55Y-6.35
X1.55Y-7.1
X1.8Y-2.5
X1.8Y-3.25
X1.8Y-4.0
X1.8Y-4.75
X1.8Y-5.5
X1.8Y-6.25
X1.8Y-7.0
X2.3Y-2.6
X2.3Y-3.35
X2.3Y-4.1
X2.3Y-4.85
X2.3Y-5.6
X2.3Y-6.35
X2.3Y-7.1
X2.55Y-2.5
X2.55Y-3.25
X2.55Y-4.0
X2.55Y-4.75
X2.55Y-5.5
X2.55Y-6.25
X2.55Y-7.0
X3.05Y-2.6
X3.05Y-3.35
X3.05Y-4.1
X3.05Y-4.85
X3.05Y-5.6
X3.05Y-6.35
X3.3Y-2.5
X3.3Y-3.25
X3.3Y-4.0
X3.3Y-4.75
X3.3Y-5.5
X3.3Y-6.25
X3.4315Y-7.1256
X3.6815Y-7.0256
X3.8Y-2.6
X3.8Y-3.35
X3.8Y-4.1
X3.8Y-4.85
X3.8Y-5.6
X3.8Y-6.35
X4.05Y-2.5
X4.05Y-3.25
X4.05Y-4.0
X4.05Y-4.75
X4.05Y-5.5
X4.05Y-6.25
T8
X3.944Y-1.41
X3.944Y-1.6
X3.944Y-1.79
X4.444Y-1.5
X4.444Y-1.7
T9
X2.775Y-1.25
X2.775Y-2.62
T10
X1.3473Y-0.8545
X1.3473Y-2.075
X4.3Y-2.075
X4.3Y-0.8545
T0
M30
