%TF.GenerationSoftware,KiCad,Pcbnew,7.0.11-7.0.11~ubuntu22.04.1*%
%TF.CreationDate,2024-03-17T16:21:49-04:00*%
%TF.ProjectId,keyboard-pcb,6b657962-6f61-4726-942d-7063622e6b69,rev?*%
%TF.SameCoordinates,Original*%
%TF.FileFunction,Legend,Bot*%
%TF.FilePolarity,Positive*%
%FSLAX46Y46*%
G04 Gerber Fmt 4.6, Leading zero omitted, Abs format (unit mm)*
G04 Created by KiCad (PCBNEW 7.0.11-7.0.11~ubuntu22.04.1) date 2024-03-17 16:21:49*
%MOMM*%
%LPD*%
G01*
G04 APERTURE LIST*
%ADD10C,0.150000*%
%ADD11C,0.100000*%
%ADD12C,0.120000*%
G04 APERTURE END LIST*
D10*
X45030571Y-133832231D02*
X45030571Y-132308231D01*
X45030571Y-132308231D02*
X44667714Y-132308231D01*
X44667714Y-132308231D02*
X44450000Y-132380802D01*
X44450000Y-132380802D02*
X44304857Y-132525945D01*
X44304857Y-132525945D02*
X44232286Y-132671088D01*
X44232286Y-132671088D02*
X44159714Y-132961374D01*
X44159714Y-132961374D02*
X44159714Y-133179088D01*
X44159714Y-133179088D02*
X44232286Y-133469374D01*
X44232286Y-133469374D02*
X44304857Y-133614517D01*
X44304857Y-133614517D02*
X44450000Y-133759660D01*
X44450000Y-133759660D02*
X44667714Y-133832231D01*
X44667714Y-133832231D02*
X45030571Y-133832231D01*
X42708286Y-133832231D02*
X43579143Y-133832231D01*
X43143714Y-133832231D02*
X43143714Y-132308231D01*
X43143714Y-132308231D02*
X43288857Y-132525945D01*
X43288857Y-132525945D02*
X43434000Y-132671088D01*
X43434000Y-132671088D02*
X43579143Y-132743660D01*
X41402000Y-132308231D02*
X41692285Y-132308231D01*
X41692285Y-132308231D02*
X41837428Y-132380802D01*
X41837428Y-132380802D02*
X41910000Y-132453374D01*
X41910000Y-132453374D02*
X42055142Y-132671088D01*
X42055142Y-132671088D02*
X42127714Y-132961374D01*
X42127714Y-132961374D02*
X42127714Y-133541945D01*
X42127714Y-133541945D02*
X42055142Y-133687088D01*
X42055142Y-133687088D02*
X41982571Y-133759660D01*
X41982571Y-133759660D02*
X41837428Y-133832231D01*
X41837428Y-133832231D02*
X41547142Y-133832231D01*
X41547142Y-133832231D02*
X41402000Y-133759660D01*
X41402000Y-133759660D02*
X41329428Y-133687088D01*
X41329428Y-133687088D02*
X41256857Y-133541945D01*
X41256857Y-133541945D02*
X41256857Y-133179088D01*
X41256857Y-133179088D02*
X41329428Y-133033945D01*
X41329428Y-133033945D02*
X41402000Y-132961374D01*
X41402000Y-132961374D02*
X41547142Y-132888802D01*
X41547142Y-132888802D02*
X41837428Y-132888802D01*
X41837428Y-132888802D02*
X41982571Y-132961374D01*
X41982571Y-132961374D02*
X42055142Y-133033945D01*
X42055142Y-133033945D02*
X42127714Y-133179088D01*
X47251904Y-133909819D02*
X47251904Y-132909819D01*
X46680476Y-133909819D02*
X47109047Y-133338390D01*
X46680476Y-132909819D02*
X47251904Y-133481247D01*
X83130571Y-133832231D02*
X83130571Y-132308231D01*
X83130571Y-132308231D02*
X82767714Y-132308231D01*
X82767714Y-132308231D02*
X82550000Y-132380802D01*
X82550000Y-132380802D02*
X82404857Y-132525945D01*
X82404857Y-132525945D02*
X82332286Y-132671088D01*
X82332286Y-132671088D02*
X82259714Y-132961374D01*
X82259714Y-132961374D02*
X82259714Y-133179088D01*
X82259714Y-133179088D02*
X82332286Y-133469374D01*
X82332286Y-133469374D02*
X82404857Y-133614517D01*
X82404857Y-133614517D02*
X82550000Y-133759660D01*
X82550000Y-133759660D02*
X82767714Y-133832231D01*
X82767714Y-133832231D02*
X83130571Y-133832231D01*
X80808286Y-133832231D02*
X81679143Y-133832231D01*
X81243714Y-133832231D02*
X81243714Y-132308231D01*
X81243714Y-132308231D02*
X81388857Y-132525945D01*
X81388857Y-132525945D02*
X81534000Y-132671088D01*
X81534000Y-132671088D02*
X81679143Y-132743660D01*
X79937428Y-132961374D02*
X80082571Y-132888802D01*
X80082571Y-132888802D02*
X80155142Y-132816231D01*
X80155142Y-132816231D02*
X80227714Y-132671088D01*
X80227714Y-132671088D02*
X80227714Y-132598517D01*
X80227714Y-132598517D02*
X80155142Y-132453374D01*
X80155142Y-132453374D02*
X80082571Y-132380802D01*
X80082571Y-132380802D02*
X79937428Y-132308231D01*
X79937428Y-132308231D02*
X79647142Y-132308231D01*
X79647142Y-132308231D02*
X79502000Y-132380802D01*
X79502000Y-132380802D02*
X79429428Y-132453374D01*
X79429428Y-132453374D02*
X79356857Y-132598517D01*
X79356857Y-132598517D02*
X79356857Y-132671088D01*
X79356857Y-132671088D02*
X79429428Y-132816231D01*
X79429428Y-132816231D02*
X79502000Y-132888802D01*
X79502000Y-132888802D02*
X79647142Y-132961374D01*
X79647142Y-132961374D02*
X79937428Y-132961374D01*
X79937428Y-132961374D02*
X80082571Y-133033945D01*
X80082571Y-133033945D02*
X80155142Y-133106517D01*
X80155142Y-133106517D02*
X80227714Y-133251660D01*
X80227714Y-133251660D02*
X80227714Y-133541945D01*
X80227714Y-133541945D02*
X80155142Y-133687088D01*
X80155142Y-133687088D02*
X80082571Y-133759660D01*
X80082571Y-133759660D02*
X79937428Y-133832231D01*
X79937428Y-133832231D02*
X79647142Y-133832231D01*
X79647142Y-133832231D02*
X79502000Y-133759660D01*
X79502000Y-133759660D02*
X79429428Y-133687088D01*
X79429428Y-133687088D02*
X79356857Y-133541945D01*
X79356857Y-133541945D02*
X79356857Y-133251660D01*
X79356857Y-133251660D02*
X79429428Y-133106517D01*
X79429428Y-133106517D02*
X79502000Y-133033945D01*
X79502000Y-133033945D02*
X79647142Y-132961374D01*
X85351904Y-133909819D02*
X85351904Y-132909819D01*
X84780476Y-133909819D02*
X85209047Y-133338390D01*
X84780476Y-132909819D02*
X85351904Y-133481247D01*
X64080571Y-114782231D02*
X64080571Y-113258231D01*
X64080571Y-113258231D02*
X63717714Y-113258231D01*
X63717714Y-113258231D02*
X63500000Y-113330802D01*
X63500000Y-113330802D02*
X63354857Y-113475945D01*
X63354857Y-113475945D02*
X63282286Y-113621088D01*
X63282286Y-113621088D02*
X63209714Y-113911374D01*
X63209714Y-113911374D02*
X63209714Y-114129088D01*
X63209714Y-114129088D02*
X63282286Y-114419374D01*
X63282286Y-114419374D02*
X63354857Y-114564517D01*
X63354857Y-114564517D02*
X63500000Y-114709660D01*
X63500000Y-114709660D02*
X63717714Y-114782231D01*
X63717714Y-114782231D02*
X64080571Y-114782231D01*
X61758286Y-114782231D02*
X62629143Y-114782231D01*
X62193714Y-114782231D02*
X62193714Y-113258231D01*
X62193714Y-113258231D02*
X62338857Y-113475945D01*
X62338857Y-113475945D02*
X62484000Y-113621088D01*
X62484000Y-113621088D02*
X62629143Y-113693660D01*
X61250285Y-113258231D02*
X60306857Y-113258231D01*
X60306857Y-113258231D02*
X60814857Y-113838802D01*
X60814857Y-113838802D02*
X60597142Y-113838802D01*
X60597142Y-113838802D02*
X60452000Y-113911374D01*
X60452000Y-113911374D02*
X60379428Y-113983945D01*
X60379428Y-113983945D02*
X60306857Y-114129088D01*
X60306857Y-114129088D02*
X60306857Y-114491945D01*
X60306857Y-114491945D02*
X60379428Y-114637088D01*
X60379428Y-114637088D02*
X60452000Y-114709660D01*
X60452000Y-114709660D02*
X60597142Y-114782231D01*
X60597142Y-114782231D02*
X61032571Y-114782231D01*
X61032571Y-114782231D02*
X61177714Y-114709660D01*
X61177714Y-114709660D02*
X61250285Y-114637088D01*
X66301904Y-114859819D02*
X66301904Y-113859819D01*
X65730476Y-114859819D02*
X66159047Y-114288390D01*
X65730476Y-113859819D02*
X66301904Y-114431247D01*
X64080571Y-152882231D02*
X64080571Y-151358231D01*
X64080571Y-151358231D02*
X63717714Y-151358231D01*
X63717714Y-151358231D02*
X63500000Y-151430802D01*
X63500000Y-151430802D02*
X63354857Y-151575945D01*
X63354857Y-151575945D02*
X63282286Y-151721088D01*
X63282286Y-151721088D02*
X63209714Y-152011374D01*
X63209714Y-152011374D02*
X63209714Y-152229088D01*
X63209714Y-152229088D02*
X63282286Y-152519374D01*
X63282286Y-152519374D02*
X63354857Y-152664517D01*
X63354857Y-152664517D02*
X63500000Y-152809660D01*
X63500000Y-152809660D02*
X63717714Y-152882231D01*
X63717714Y-152882231D02*
X64080571Y-152882231D01*
X62629143Y-151503374D02*
X62556571Y-151430802D01*
X62556571Y-151430802D02*
X62411429Y-151358231D01*
X62411429Y-151358231D02*
X62048571Y-151358231D01*
X62048571Y-151358231D02*
X61903429Y-151430802D01*
X61903429Y-151430802D02*
X61830857Y-151503374D01*
X61830857Y-151503374D02*
X61758286Y-151648517D01*
X61758286Y-151648517D02*
X61758286Y-151793660D01*
X61758286Y-151793660D02*
X61830857Y-152011374D01*
X61830857Y-152011374D02*
X62701714Y-152882231D01*
X62701714Y-152882231D02*
X61758286Y-152882231D01*
X60306857Y-152882231D02*
X61177714Y-152882231D01*
X60742285Y-152882231D02*
X60742285Y-151358231D01*
X60742285Y-151358231D02*
X60887428Y-151575945D01*
X60887428Y-151575945D02*
X61032571Y-151721088D01*
X61032571Y-151721088D02*
X61177714Y-151793660D01*
X66301904Y-152959819D02*
X66301904Y-151959819D01*
X65730476Y-152959819D02*
X66159047Y-152388390D01*
X65730476Y-151959819D02*
X66301904Y-152531247D01*
X37991142Y-50354231D02*
X38499142Y-49628517D01*
X38861999Y-50354231D02*
X38861999Y-48830231D01*
X38861999Y-48830231D02*
X38281428Y-48830231D01*
X38281428Y-48830231D02*
X38136285Y-48902802D01*
X38136285Y-48902802D02*
X38063714Y-48975374D01*
X38063714Y-48975374D02*
X37991142Y-49120517D01*
X37991142Y-49120517D02*
X37991142Y-49338231D01*
X37991142Y-49338231D02*
X38063714Y-49483374D01*
X38063714Y-49483374D02*
X38136285Y-49555945D01*
X38136285Y-49555945D02*
X38281428Y-49628517D01*
X38281428Y-49628517D02*
X38861999Y-49628517D01*
X37555714Y-48830231D02*
X37047714Y-50354231D01*
X37047714Y-50354231D02*
X36539714Y-48830231D01*
X35233428Y-50354231D02*
X36104285Y-50354231D01*
X35668856Y-50354231D02*
X35668856Y-48830231D01*
X35668856Y-48830231D02*
X35813999Y-49047945D01*
X35813999Y-49047945D02*
X35959142Y-49193088D01*
X35959142Y-49193088D02*
X36104285Y-49265660D01*
X102180571Y-171297231D02*
X102180571Y-169773231D01*
X102180571Y-169773231D02*
X101817714Y-169773231D01*
X101817714Y-169773231D02*
X101600000Y-169845802D01*
X101600000Y-169845802D02*
X101454857Y-169990945D01*
X101454857Y-169990945D02*
X101382286Y-170136088D01*
X101382286Y-170136088D02*
X101309714Y-170426374D01*
X101309714Y-170426374D02*
X101309714Y-170644088D01*
X101309714Y-170644088D02*
X101382286Y-170934374D01*
X101382286Y-170934374D02*
X101454857Y-171079517D01*
X101454857Y-171079517D02*
X101600000Y-171224660D01*
X101600000Y-171224660D02*
X101817714Y-171297231D01*
X101817714Y-171297231D02*
X102180571Y-171297231D01*
X100729143Y-169918374D02*
X100656571Y-169845802D01*
X100656571Y-169845802D02*
X100511429Y-169773231D01*
X100511429Y-169773231D02*
X100148571Y-169773231D01*
X100148571Y-169773231D02*
X100003429Y-169845802D01*
X100003429Y-169845802D02*
X99930857Y-169918374D01*
X99930857Y-169918374D02*
X99858286Y-170063517D01*
X99858286Y-170063517D02*
X99858286Y-170208660D01*
X99858286Y-170208660D02*
X99930857Y-170426374D01*
X99930857Y-170426374D02*
X100801714Y-171297231D01*
X100801714Y-171297231D02*
X99858286Y-171297231D01*
X99350285Y-169773231D02*
X98334285Y-169773231D01*
X98334285Y-169773231D02*
X98987428Y-171297231D01*
X104401904Y-171374819D02*
X104401904Y-170374819D01*
X103830476Y-171374819D02*
X104259047Y-170803390D01*
X103830476Y-170374819D02*
X104401904Y-170946247D01*
X45030571Y-171932231D02*
X45030571Y-170408231D01*
X45030571Y-170408231D02*
X44667714Y-170408231D01*
X44667714Y-170408231D02*
X44450000Y-170480802D01*
X44450000Y-170480802D02*
X44304857Y-170625945D01*
X44304857Y-170625945D02*
X44232286Y-170771088D01*
X44232286Y-170771088D02*
X44159714Y-171061374D01*
X44159714Y-171061374D02*
X44159714Y-171279088D01*
X44159714Y-171279088D02*
X44232286Y-171569374D01*
X44232286Y-171569374D02*
X44304857Y-171714517D01*
X44304857Y-171714517D02*
X44450000Y-171859660D01*
X44450000Y-171859660D02*
X44667714Y-171932231D01*
X44667714Y-171932231D02*
X45030571Y-171932231D01*
X43579143Y-170553374D02*
X43506571Y-170480802D01*
X43506571Y-170480802D02*
X43361429Y-170408231D01*
X43361429Y-170408231D02*
X42998571Y-170408231D01*
X42998571Y-170408231D02*
X42853429Y-170480802D01*
X42853429Y-170480802D02*
X42780857Y-170553374D01*
X42780857Y-170553374D02*
X42708286Y-170698517D01*
X42708286Y-170698517D02*
X42708286Y-170843660D01*
X42708286Y-170843660D02*
X42780857Y-171061374D01*
X42780857Y-171061374D02*
X43651714Y-171932231D01*
X43651714Y-171932231D02*
X42708286Y-171932231D01*
X41402000Y-170916231D02*
X41402000Y-171932231D01*
X41764857Y-170335660D02*
X42127714Y-171424231D01*
X42127714Y-171424231D02*
X41184285Y-171424231D01*
X47251904Y-172009819D02*
X47251904Y-171009819D01*
X46680476Y-172009819D02*
X47109047Y-171438390D01*
X46680476Y-171009819D02*
X47251904Y-171581247D01*
X82404856Y-76682231D02*
X82404856Y-75158231D01*
X82404856Y-75158231D02*
X82041999Y-75158231D01*
X82041999Y-75158231D02*
X81824285Y-75230802D01*
X81824285Y-75230802D02*
X81679142Y-75375945D01*
X81679142Y-75375945D02*
X81606571Y-75521088D01*
X81606571Y-75521088D02*
X81533999Y-75811374D01*
X81533999Y-75811374D02*
X81533999Y-76029088D01*
X81533999Y-76029088D02*
X81606571Y-76319374D01*
X81606571Y-76319374D02*
X81679142Y-76464517D01*
X81679142Y-76464517D02*
X81824285Y-76609660D01*
X81824285Y-76609660D02*
X82041999Y-76682231D01*
X82041999Y-76682231D02*
X82404856Y-76682231D01*
X80155142Y-75158231D02*
X80880856Y-75158231D01*
X80880856Y-75158231D02*
X80953428Y-75883945D01*
X80953428Y-75883945D02*
X80880856Y-75811374D01*
X80880856Y-75811374D02*
X80735714Y-75738802D01*
X80735714Y-75738802D02*
X80372856Y-75738802D01*
X80372856Y-75738802D02*
X80227714Y-75811374D01*
X80227714Y-75811374D02*
X80155142Y-75883945D01*
X80155142Y-75883945D02*
X80082571Y-76029088D01*
X80082571Y-76029088D02*
X80082571Y-76391945D01*
X80082571Y-76391945D02*
X80155142Y-76537088D01*
X80155142Y-76537088D02*
X80227714Y-76609660D01*
X80227714Y-76609660D02*
X80372856Y-76682231D01*
X80372856Y-76682231D02*
X80735714Y-76682231D01*
X80735714Y-76682231D02*
X80880856Y-76609660D01*
X80880856Y-76609660D02*
X80953428Y-76537088D01*
X85351904Y-76759819D02*
X85351904Y-75759819D01*
X84780476Y-76759819D02*
X85209047Y-76188390D01*
X84780476Y-75759819D02*
X85351904Y-76331247D01*
X82404856Y-95732231D02*
X82404856Y-94208231D01*
X82404856Y-94208231D02*
X82041999Y-94208231D01*
X82041999Y-94208231D02*
X81824285Y-94280802D01*
X81824285Y-94280802D02*
X81679142Y-94425945D01*
X81679142Y-94425945D02*
X81606571Y-94571088D01*
X81606571Y-94571088D02*
X81533999Y-94861374D01*
X81533999Y-94861374D02*
X81533999Y-95079088D01*
X81533999Y-95079088D02*
X81606571Y-95369374D01*
X81606571Y-95369374D02*
X81679142Y-95514517D01*
X81679142Y-95514517D02*
X81824285Y-95659660D01*
X81824285Y-95659660D02*
X82041999Y-95732231D01*
X82041999Y-95732231D02*
X82404856Y-95732231D01*
X80808285Y-95732231D02*
X80517999Y-95732231D01*
X80517999Y-95732231D02*
X80372856Y-95659660D01*
X80372856Y-95659660D02*
X80300285Y-95587088D01*
X80300285Y-95587088D02*
X80155142Y-95369374D01*
X80155142Y-95369374D02*
X80082571Y-95079088D01*
X80082571Y-95079088D02*
X80082571Y-94498517D01*
X80082571Y-94498517D02*
X80155142Y-94353374D01*
X80155142Y-94353374D02*
X80227714Y-94280802D01*
X80227714Y-94280802D02*
X80372856Y-94208231D01*
X80372856Y-94208231D02*
X80663142Y-94208231D01*
X80663142Y-94208231D02*
X80808285Y-94280802D01*
X80808285Y-94280802D02*
X80880856Y-94353374D01*
X80880856Y-94353374D02*
X80953428Y-94498517D01*
X80953428Y-94498517D02*
X80953428Y-94861374D01*
X80953428Y-94861374D02*
X80880856Y-95006517D01*
X80880856Y-95006517D02*
X80808285Y-95079088D01*
X80808285Y-95079088D02*
X80663142Y-95151660D01*
X80663142Y-95151660D02*
X80372856Y-95151660D01*
X80372856Y-95151660D02*
X80227714Y-95079088D01*
X80227714Y-95079088D02*
X80155142Y-95006517D01*
X80155142Y-95006517D02*
X80082571Y-94861374D01*
X85351904Y-95809819D02*
X85351904Y-94809819D01*
X84780476Y-95809819D02*
X85209047Y-95238390D01*
X84780476Y-94809819D02*
X85351904Y-95381247D01*
X102180571Y-133832231D02*
X102180571Y-132308231D01*
X102180571Y-132308231D02*
X101817714Y-132308231D01*
X101817714Y-132308231D02*
X101600000Y-132380802D01*
X101600000Y-132380802D02*
X101454857Y-132525945D01*
X101454857Y-132525945D02*
X101382286Y-132671088D01*
X101382286Y-132671088D02*
X101309714Y-132961374D01*
X101309714Y-132961374D02*
X101309714Y-133179088D01*
X101309714Y-133179088D02*
X101382286Y-133469374D01*
X101382286Y-133469374D02*
X101454857Y-133614517D01*
X101454857Y-133614517D02*
X101600000Y-133759660D01*
X101600000Y-133759660D02*
X101817714Y-133832231D01*
X101817714Y-133832231D02*
X102180571Y-133832231D01*
X99858286Y-133832231D02*
X100729143Y-133832231D01*
X100293714Y-133832231D02*
X100293714Y-132308231D01*
X100293714Y-132308231D02*
X100438857Y-132525945D01*
X100438857Y-132525945D02*
X100584000Y-132671088D01*
X100584000Y-132671088D02*
X100729143Y-132743660D01*
X99132571Y-133832231D02*
X98842285Y-133832231D01*
X98842285Y-133832231D02*
X98697142Y-133759660D01*
X98697142Y-133759660D02*
X98624571Y-133687088D01*
X98624571Y-133687088D02*
X98479428Y-133469374D01*
X98479428Y-133469374D02*
X98406857Y-133179088D01*
X98406857Y-133179088D02*
X98406857Y-132598517D01*
X98406857Y-132598517D02*
X98479428Y-132453374D01*
X98479428Y-132453374D02*
X98552000Y-132380802D01*
X98552000Y-132380802D02*
X98697142Y-132308231D01*
X98697142Y-132308231D02*
X98987428Y-132308231D01*
X98987428Y-132308231D02*
X99132571Y-132380802D01*
X99132571Y-132380802D02*
X99205142Y-132453374D01*
X99205142Y-132453374D02*
X99277714Y-132598517D01*
X99277714Y-132598517D02*
X99277714Y-132961374D01*
X99277714Y-132961374D02*
X99205142Y-133106517D01*
X99205142Y-133106517D02*
X99132571Y-133179088D01*
X99132571Y-133179088D02*
X98987428Y-133251660D01*
X98987428Y-133251660D02*
X98697142Y-133251660D01*
X98697142Y-133251660D02*
X98552000Y-133179088D01*
X98552000Y-133179088D02*
X98479428Y-133106517D01*
X98479428Y-133106517D02*
X98406857Y-132961374D01*
X104401904Y-133909819D02*
X104401904Y-132909819D01*
X103830476Y-133909819D02*
X104259047Y-133338390D01*
X103830476Y-132909819D02*
X104401904Y-133481247D01*
X63354856Y-95732231D02*
X63354856Y-94208231D01*
X63354856Y-94208231D02*
X62991999Y-94208231D01*
X62991999Y-94208231D02*
X62774285Y-94280802D01*
X62774285Y-94280802D02*
X62629142Y-94425945D01*
X62629142Y-94425945D02*
X62556571Y-94571088D01*
X62556571Y-94571088D02*
X62483999Y-94861374D01*
X62483999Y-94861374D02*
X62483999Y-95079088D01*
X62483999Y-95079088D02*
X62556571Y-95369374D01*
X62556571Y-95369374D02*
X62629142Y-95514517D01*
X62629142Y-95514517D02*
X62774285Y-95659660D01*
X62774285Y-95659660D02*
X62991999Y-95732231D01*
X62991999Y-95732231D02*
X63354856Y-95732231D01*
X61613142Y-94861374D02*
X61758285Y-94788802D01*
X61758285Y-94788802D02*
X61830856Y-94716231D01*
X61830856Y-94716231D02*
X61903428Y-94571088D01*
X61903428Y-94571088D02*
X61903428Y-94498517D01*
X61903428Y-94498517D02*
X61830856Y-94353374D01*
X61830856Y-94353374D02*
X61758285Y-94280802D01*
X61758285Y-94280802D02*
X61613142Y-94208231D01*
X61613142Y-94208231D02*
X61322856Y-94208231D01*
X61322856Y-94208231D02*
X61177714Y-94280802D01*
X61177714Y-94280802D02*
X61105142Y-94353374D01*
X61105142Y-94353374D02*
X61032571Y-94498517D01*
X61032571Y-94498517D02*
X61032571Y-94571088D01*
X61032571Y-94571088D02*
X61105142Y-94716231D01*
X61105142Y-94716231D02*
X61177714Y-94788802D01*
X61177714Y-94788802D02*
X61322856Y-94861374D01*
X61322856Y-94861374D02*
X61613142Y-94861374D01*
X61613142Y-94861374D02*
X61758285Y-94933945D01*
X61758285Y-94933945D02*
X61830856Y-95006517D01*
X61830856Y-95006517D02*
X61903428Y-95151660D01*
X61903428Y-95151660D02*
X61903428Y-95441945D01*
X61903428Y-95441945D02*
X61830856Y-95587088D01*
X61830856Y-95587088D02*
X61758285Y-95659660D01*
X61758285Y-95659660D02*
X61613142Y-95732231D01*
X61613142Y-95732231D02*
X61322856Y-95732231D01*
X61322856Y-95732231D02*
X61177714Y-95659660D01*
X61177714Y-95659660D02*
X61105142Y-95587088D01*
X61105142Y-95587088D02*
X61032571Y-95441945D01*
X61032571Y-95441945D02*
X61032571Y-95151660D01*
X61032571Y-95151660D02*
X61105142Y-95006517D01*
X61105142Y-95006517D02*
X61177714Y-94933945D01*
X61177714Y-94933945D02*
X61322856Y-94861374D01*
X66301904Y-95809819D02*
X66301904Y-94809819D01*
X65730476Y-95809819D02*
X66159047Y-95238390D01*
X65730476Y-94809819D02*
X66301904Y-95381247D01*
X83130571Y-171297231D02*
X83130571Y-169773231D01*
X83130571Y-169773231D02*
X82767714Y-169773231D01*
X82767714Y-169773231D02*
X82550000Y-169845802D01*
X82550000Y-169845802D02*
X82404857Y-169990945D01*
X82404857Y-169990945D02*
X82332286Y-170136088D01*
X82332286Y-170136088D02*
X82259714Y-170426374D01*
X82259714Y-170426374D02*
X82259714Y-170644088D01*
X82259714Y-170644088D02*
X82332286Y-170934374D01*
X82332286Y-170934374D02*
X82404857Y-171079517D01*
X82404857Y-171079517D02*
X82550000Y-171224660D01*
X82550000Y-171224660D02*
X82767714Y-171297231D01*
X82767714Y-171297231D02*
X83130571Y-171297231D01*
X81679143Y-169918374D02*
X81606571Y-169845802D01*
X81606571Y-169845802D02*
X81461429Y-169773231D01*
X81461429Y-169773231D02*
X81098571Y-169773231D01*
X81098571Y-169773231D02*
X80953429Y-169845802D01*
X80953429Y-169845802D02*
X80880857Y-169918374D01*
X80880857Y-169918374D02*
X80808286Y-170063517D01*
X80808286Y-170063517D02*
X80808286Y-170208660D01*
X80808286Y-170208660D02*
X80880857Y-170426374D01*
X80880857Y-170426374D02*
X81751714Y-171297231D01*
X81751714Y-171297231D02*
X80808286Y-171297231D01*
X79502000Y-169773231D02*
X79792285Y-169773231D01*
X79792285Y-169773231D02*
X79937428Y-169845802D01*
X79937428Y-169845802D02*
X80010000Y-169918374D01*
X80010000Y-169918374D02*
X80155142Y-170136088D01*
X80155142Y-170136088D02*
X80227714Y-170426374D01*
X80227714Y-170426374D02*
X80227714Y-171006945D01*
X80227714Y-171006945D02*
X80155142Y-171152088D01*
X80155142Y-171152088D02*
X80082571Y-171224660D01*
X80082571Y-171224660D02*
X79937428Y-171297231D01*
X79937428Y-171297231D02*
X79647142Y-171297231D01*
X79647142Y-171297231D02*
X79502000Y-171224660D01*
X79502000Y-171224660D02*
X79429428Y-171152088D01*
X79429428Y-171152088D02*
X79356857Y-171006945D01*
X79356857Y-171006945D02*
X79356857Y-170644088D01*
X79356857Y-170644088D02*
X79429428Y-170498945D01*
X79429428Y-170498945D02*
X79502000Y-170426374D01*
X79502000Y-170426374D02*
X79647142Y-170353802D01*
X79647142Y-170353802D02*
X79937428Y-170353802D01*
X79937428Y-170353802D02*
X80082571Y-170426374D01*
X80082571Y-170426374D02*
X80155142Y-170498945D01*
X80155142Y-170498945D02*
X80227714Y-170644088D01*
X85351904Y-171374819D02*
X85351904Y-170374819D01*
X84780476Y-171374819D02*
X85209047Y-170803390D01*
X84780476Y-170374819D02*
X85351904Y-170946247D01*
X83130571Y-114782231D02*
X83130571Y-113258231D01*
X83130571Y-113258231D02*
X82767714Y-113258231D01*
X82767714Y-113258231D02*
X82550000Y-113330802D01*
X82550000Y-113330802D02*
X82404857Y-113475945D01*
X82404857Y-113475945D02*
X82332286Y-113621088D01*
X82332286Y-113621088D02*
X82259714Y-113911374D01*
X82259714Y-113911374D02*
X82259714Y-114129088D01*
X82259714Y-114129088D02*
X82332286Y-114419374D01*
X82332286Y-114419374D02*
X82404857Y-114564517D01*
X82404857Y-114564517D02*
X82550000Y-114709660D01*
X82550000Y-114709660D02*
X82767714Y-114782231D01*
X82767714Y-114782231D02*
X83130571Y-114782231D01*
X80808286Y-114782231D02*
X81679143Y-114782231D01*
X81243714Y-114782231D02*
X81243714Y-113258231D01*
X81243714Y-113258231D02*
X81388857Y-113475945D01*
X81388857Y-113475945D02*
X81534000Y-113621088D01*
X81534000Y-113621088D02*
X81679143Y-113693660D01*
X79502000Y-113766231D02*
X79502000Y-114782231D01*
X79864857Y-113185660D02*
X80227714Y-114274231D01*
X80227714Y-114274231D02*
X79284285Y-114274231D01*
X85351904Y-114859819D02*
X85351904Y-113859819D01*
X84780476Y-114859819D02*
X85209047Y-114288390D01*
X84780476Y-113859819D02*
X85351904Y-114431247D01*
X45030571Y-114782231D02*
X45030571Y-113258231D01*
X45030571Y-113258231D02*
X44667714Y-113258231D01*
X44667714Y-113258231D02*
X44450000Y-113330802D01*
X44450000Y-113330802D02*
X44304857Y-113475945D01*
X44304857Y-113475945D02*
X44232286Y-113621088D01*
X44232286Y-113621088D02*
X44159714Y-113911374D01*
X44159714Y-113911374D02*
X44159714Y-114129088D01*
X44159714Y-114129088D02*
X44232286Y-114419374D01*
X44232286Y-114419374D02*
X44304857Y-114564517D01*
X44304857Y-114564517D02*
X44450000Y-114709660D01*
X44450000Y-114709660D02*
X44667714Y-114782231D01*
X44667714Y-114782231D02*
X45030571Y-114782231D01*
X42708286Y-114782231D02*
X43579143Y-114782231D01*
X43143714Y-114782231D02*
X43143714Y-113258231D01*
X43143714Y-113258231D02*
X43288857Y-113475945D01*
X43288857Y-113475945D02*
X43434000Y-113621088D01*
X43434000Y-113621088D02*
X43579143Y-113693660D01*
X42127714Y-113403374D02*
X42055142Y-113330802D01*
X42055142Y-113330802D02*
X41910000Y-113258231D01*
X41910000Y-113258231D02*
X41547142Y-113258231D01*
X41547142Y-113258231D02*
X41402000Y-113330802D01*
X41402000Y-113330802D02*
X41329428Y-113403374D01*
X41329428Y-113403374D02*
X41256857Y-113548517D01*
X41256857Y-113548517D02*
X41256857Y-113693660D01*
X41256857Y-113693660D02*
X41329428Y-113911374D01*
X41329428Y-113911374D02*
X42200285Y-114782231D01*
X42200285Y-114782231D02*
X41256857Y-114782231D01*
X47251904Y-114859819D02*
X47251904Y-113859819D01*
X46680476Y-114859819D02*
X47109047Y-114288390D01*
X46680476Y-113859819D02*
X47251904Y-114431247D01*
X64080571Y-133832231D02*
X64080571Y-132308231D01*
X64080571Y-132308231D02*
X63717714Y-132308231D01*
X63717714Y-132308231D02*
X63500000Y-132380802D01*
X63500000Y-132380802D02*
X63354857Y-132525945D01*
X63354857Y-132525945D02*
X63282286Y-132671088D01*
X63282286Y-132671088D02*
X63209714Y-132961374D01*
X63209714Y-132961374D02*
X63209714Y-133179088D01*
X63209714Y-133179088D02*
X63282286Y-133469374D01*
X63282286Y-133469374D02*
X63354857Y-133614517D01*
X63354857Y-133614517D02*
X63500000Y-133759660D01*
X63500000Y-133759660D02*
X63717714Y-133832231D01*
X63717714Y-133832231D02*
X64080571Y-133832231D01*
X61758286Y-133832231D02*
X62629143Y-133832231D01*
X62193714Y-133832231D02*
X62193714Y-132308231D01*
X62193714Y-132308231D02*
X62338857Y-132525945D01*
X62338857Y-132525945D02*
X62484000Y-132671088D01*
X62484000Y-132671088D02*
X62629143Y-132743660D01*
X61250285Y-132308231D02*
X60234285Y-132308231D01*
X60234285Y-132308231D02*
X60887428Y-133832231D01*
X66301904Y-133909819D02*
X66301904Y-132909819D01*
X65730476Y-133909819D02*
X66159047Y-133338390D01*
X65730476Y-132909819D02*
X66301904Y-133481247D01*
X40512999Y-27349088D02*
X40585571Y-27421660D01*
X40585571Y-27421660D02*
X40803285Y-27494231D01*
X40803285Y-27494231D02*
X40948428Y-27494231D01*
X40948428Y-27494231D02*
X41166142Y-27421660D01*
X41166142Y-27421660D02*
X41311285Y-27276517D01*
X41311285Y-27276517D02*
X41383856Y-27131374D01*
X41383856Y-27131374D02*
X41456428Y-26841088D01*
X41456428Y-26841088D02*
X41456428Y-26623374D01*
X41456428Y-26623374D02*
X41383856Y-26333088D01*
X41383856Y-26333088D02*
X41311285Y-26187945D01*
X41311285Y-26187945D02*
X41166142Y-26042802D01*
X41166142Y-26042802D02*
X40948428Y-25970231D01*
X40948428Y-25970231D02*
X40803285Y-25970231D01*
X40803285Y-25970231D02*
X40585571Y-26042802D01*
X40585571Y-26042802D02*
X40512999Y-26115374D01*
X39932428Y-26115374D02*
X39859856Y-26042802D01*
X39859856Y-26042802D02*
X39714714Y-25970231D01*
X39714714Y-25970231D02*
X39351856Y-25970231D01*
X39351856Y-25970231D02*
X39206714Y-26042802D01*
X39206714Y-26042802D02*
X39134142Y-26115374D01*
X39134142Y-26115374D02*
X39061571Y-26260517D01*
X39061571Y-26260517D02*
X39061571Y-26405660D01*
X39061571Y-26405660D02*
X39134142Y-26623374D01*
X39134142Y-26623374D02*
X40004999Y-27494231D01*
X40004999Y-27494231D02*
X39061571Y-27494231D01*
D11*
X107290000Y-33647260D02*
X107072286Y-33719831D01*
X107072286Y-33719831D02*
X106709428Y-33719831D01*
X106709428Y-33719831D02*
X106564286Y-33647260D01*
X106564286Y-33647260D02*
X106491714Y-33574688D01*
X106491714Y-33574688D02*
X106419143Y-33429545D01*
X106419143Y-33429545D02*
X106419143Y-33284402D01*
X106419143Y-33284402D02*
X106491714Y-33139260D01*
X106491714Y-33139260D02*
X106564286Y-33066688D01*
X106564286Y-33066688D02*
X106709428Y-32994117D01*
X106709428Y-32994117D02*
X106999714Y-32921545D01*
X106999714Y-32921545D02*
X107144857Y-32848974D01*
X107144857Y-32848974D02*
X107217428Y-32776402D01*
X107217428Y-32776402D02*
X107290000Y-32631260D01*
X107290000Y-32631260D02*
X107290000Y-32486117D01*
X107290000Y-32486117D02*
X107217428Y-32340974D01*
X107217428Y-32340974D02*
X107144857Y-32268402D01*
X107144857Y-32268402D02*
X106999714Y-32195831D01*
X106999714Y-32195831D02*
X106636857Y-32195831D01*
X106636857Y-32195831D02*
X106419143Y-32268402D01*
X105911142Y-32195831D02*
X105548285Y-33719831D01*
X105548285Y-33719831D02*
X105257999Y-32631260D01*
X105257999Y-32631260D02*
X104967714Y-33719831D01*
X104967714Y-33719831D02*
X104604857Y-32195831D01*
X103298571Y-32195831D02*
X104024285Y-32195831D01*
X104024285Y-32195831D02*
X104096857Y-32921545D01*
X104096857Y-32921545D02*
X104024285Y-32848974D01*
X104024285Y-32848974D02*
X103879143Y-32776402D01*
X103879143Y-32776402D02*
X103516285Y-32776402D01*
X103516285Y-32776402D02*
X103371143Y-32848974D01*
X103371143Y-32848974D02*
X103298571Y-32921545D01*
X103298571Y-32921545D02*
X103226000Y-33066688D01*
X103226000Y-33066688D02*
X103226000Y-33429545D01*
X103226000Y-33429545D02*
X103298571Y-33574688D01*
X103298571Y-33574688D02*
X103371143Y-33647260D01*
X103371143Y-33647260D02*
X103516285Y-33719831D01*
X103516285Y-33719831D02*
X103879143Y-33719831D01*
X103879143Y-33719831D02*
X104024285Y-33647260D01*
X104024285Y-33647260D02*
X104096857Y-33574688D01*
D10*
X89662000Y-20758231D02*
X89662000Y-21846802D01*
X89662000Y-21846802D02*
X89734571Y-22064517D01*
X89734571Y-22064517D02*
X89879714Y-22209660D01*
X89879714Y-22209660D02*
X90097428Y-22282231D01*
X90097428Y-22282231D02*
X90242571Y-22282231D01*
X88138000Y-22282231D02*
X89008857Y-22282231D01*
X88573428Y-22282231D02*
X88573428Y-20758231D01*
X88573428Y-20758231D02*
X88718571Y-20975945D01*
X88718571Y-20975945D02*
X88863714Y-21121088D01*
X88863714Y-21121088D02*
X89008857Y-21193660D01*
X45030571Y-190982231D02*
X45030571Y-189458231D01*
X45030571Y-189458231D02*
X44667714Y-189458231D01*
X44667714Y-189458231D02*
X44450000Y-189530802D01*
X44450000Y-189530802D02*
X44304857Y-189675945D01*
X44304857Y-189675945D02*
X44232286Y-189821088D01*
X44232286Y-189821088D02*
X44159714Y-190111374D01*
X44159714Y-190111374D02*
X44159714Y-190329088D01*
X44159714Y-190329088D02*
X44232286Y-190619374D01*
X44232286Y-190619374D02*
X44304857Y-190764517D01*
X44304857Y-190764517D02*
X44450000Y-190909660D01*
X44450000Y-190909660D02*
X44667714Y-190982231D01*
X44667714Y-190982231D02*
X45030571Y-190982231D01*
X43579143Y-189603374D02*
X43506571Y-189530802D01*
X43506571Y-189530802D02*
X43361429Y-189458231D01*
X43361429Y-189458231D02*
X42998571Y-189458231D01*
X42998571Y-189458231D02*
X42853429Y-189530802D01*
X42853429Y-189530802D02*
X42780857Y-189603374D01*
X42780857Y-189603374D02*
X42708286Y-189748517D01*
X42708286Y-189748517D02*
X42708286Y-189893660D01*
X42708286Y-189893660D02*
X42780857Y-190111374D01*
X42780857Y-190111374D02*
X43651714Y-190982231D01*
X43651714Y-190982231D02*
X42708286Y-190982231D01*
X41837428Y-190111374D02*
X41982571Y-190038802D01*
X41982571Y-190038802D02*
X42055142Y-189966231D01*
X42055142Y-189966231D02*
X42127714Y-189821088D01*
X42127714Y-189821088D02*
X42127714Y-189748517D01*
X42127714Y-189748517D02*
X42055142Y-189603374D01*
X42055142Y-189603374D02*
X41982571Y-189530802D01*
X41982571Y-189530802D02*
X41837428Y-189458231D01*
X41837428Y-189458231D02*
X41547142Y-189458231D01*
X41547142Y-189458231D02*
X41402000Y-189530802D01*
X41402000Y-189530802D02*
X41329428Y-189603374D01*
X41329428Y-189603374D02*
X41256857Y-189748517D01*
X41256857Y-189748517D02*
X41256857Y-189821088D01*
X41256857Y-189821088D02*
X41329428Y-189966231D01*
X41329428Y-189966231D02*
X41402000Y-190038802D01*
X41402000Y-190038802D02*
X41547142Y-190111374D01*
X41547142Y-190111374D02*
X41837428Y-190111374D01*
X41837428Y-190111374D02*
X41982571Y-190183945D01*
X41982571Y-190183945D02*
X42055142Y-190256517D01*
X42055142Y-190256517D02*
X42127714Y-190401660D01*
X42127714Y-190401660D02*
X42127714Y-190691945D01*
X42127714Y-190691945D02*
X42055142Y-190837088D01*
X42055142Y-190837088D02*
X41982571Y-190909660D01*
X41982571Y-190909660D02*
X41837428Y-190982231D01*
X41837428Y-190982231D02*
X41547142Y-190982231D01*
X41547142Y-190982231D02*
X41402000Y-190909660D01*
X41402000Y-190909660D02*
X41329428Y-190837088D01*
X41329428Y-190837088D02*
X41256857Y-190691945D01*
X41256857Y-190691945D02*
X41256857Y-190401660D01*
X41256857Y-190401660D02*
X41329428Y-190256517D01*
X41329428Y-190256517D02*
X41402000Y-190183945D01*
X41402000Y-190183945D02*
X41547142Y-190111374D01*
X47251904Y-191059819D02*
X47251904Y-190059819D01*
X46680476Y-191059819D02*
X47109047Y-190488390D01*
X46680476Y-190059819D02*
X47251904Y-190631247D01*
X102180571Y-152882231D02*
X102180571Y-151358231D01*
X102180571Y-151358231D02*
X101817714Y-151358231D01*
X101817714Y-151358231D02*
X101600000Y-151430802D01*
X101600000Y-151430802D02*
X101454857Y-151575945D01*
X101454857Y-151575945D02*
X101382286Y-151721088D01*
X101382286Y-151721088D02*
X101309714Y-152011374D01*
X101309714Y-152011374D02*
X101309714Y-152229088D01*
X101309714Y-152229088D02*
X101382286Y-152519374D01*
X101382286Y-152519374D02*
X101454857Y-152664517D01*
X101454857Y-152664517D02*
X101600000Y-152809660D01*
X101600000Y-152809660D02*
X101817714Y-152882231D01*
X101817714Y-152882231D02*
X102180571Y-152882231D01*
X100729143Y-151503374D02*
X100656571Y-151430802D01*
X100656571Y-151430802D02*
X100511429Y-151358231D01*
X100511429Y-151358231D02*
X100148571Y-151358231D01*
X100148571Y-151358231D02*
X100003429Y-151430802D01*
X100003429Y-151430802D02*
X99930857Y-151503374D01*
X99930857Y-151503374D02*
X99858286Y-151648517D01*
X99858286Y-151648517D02*
X99858286Y-151793660D01*
X99858286Y-151793660D02*
X99930857Y-152011374D01*
X99930857Y-152011374D02*
X100801714Y-152882231D01*
X100801714Y-152882231D02*
X99858286Y-152882231D01*
X99350285Y-151358231D02*
X98406857Y-151358231D01*
X98406857Y-151358231D02*
X98914857Y-151938802D01*
X98914857Y-151938802D02*
X98697142Y-151938802D01*
X98697142Y-151938802D02*
X98552000Y-152011374D01*
X98552000Y-152011374D02*
X98479428Y-152083945D01*
X98479428Y-152083945D02*
X98406857Y-152229088D01*
X98406857Y-152229088D02*
X98406857Y-152591945D01*
X98406857Y-152591945D02*
X98479428Y-152737088D01*
X98479428Y-152737088D02*
X98552000Y-152809660D01*
X98552000Y-152809660D02*
X98697142Y-152882231D01*
X98697142Y-152882231D02*
X99132571Y-152882231D01*
X99132571Y-152882231D02*
X99277714Y-152809660D01*
X99277714Y-152809660D02*
X99350285Y-152737088D01*
X104401904Y-152959819D02*
X104401904Y-151959819D01*
X103830476Y-152959819D02*
X104259047Y-152388390D01*
X103830476Y-151959819D02*
X104401904Y-152531247D01*
X63354856Y-76682231D02*
X63354856Y-75158231D01*
X63354856Y-75158231D02*
X62991999Y-75158231D01*
X62991999Y-75158231D02*
X62774285Y-75230802D01*
X62774285Y-75230802D02*
X62629142Y-75375945D01*
X62629142Y-75375945D02*
X62556571Y-75521088D01*
X62556571Y-75521088D02*
X62483999Y-75811374D01*
X62483999Y-75811374D02*
X62483999Y-76029088D01*
X62483999Y-76029088D02*
X62556571Y-76319374D01*
X62556571Y-76319374D02*
X62629142Y-76464517D01*
X62629142Y-76464517D02*
X62774285Y-76609660D01*
X62774285Y-76609660D02*
X62991999Y-76682231D01*
X62991999Y-76682231D02*
X63354856Y-76682231D01*
X61177714Y-75666231D02*
X61177714Y-76682231D01*
X61540571Y-75085660D02*
X61903428Y-76174231D01*
X61903428Y-76174231D02*
X60959999Y-76174231D01*
X66301904Y-76759819D02*
X66301904Y-75759819D01*
X65730476Y-76759819D02*
X66159047Y-76188390D01*
X65730476Y-75759819D02*
X66301904Y-76331247D01*
X101454856Y-76682231D02*
X101454856Y-75158231D01*
X101454856Y-75158231D02*
X101091999Y-75158231D01*
X101091999Y-75158231D02*
X100874285Y-75230802D01*
X100874285Y-75230802D02*
X100729142Y-75375945D01*
X100729142Y-75375945D02*
X100656571Y-75521088D01*
X100656571Y-75521088D02*
X100583999Y-75811374D01*
X100583999Y-75811374D02*
X100583999Y-76029088D01*
X100583999Y-76029088D02*
X100656571Y-76319374D01*
X100656571Y-76319374D02*
X100729142Y-76464517D01*
X100729142Y-76464517D02*
X100874285Y-76609660D01*
X100874285Y-76609660D02*
X101091999Y-76682231D01*
X101091999Y-76682231D02*
X101454856Y-76682231D01*
X99277714Y-75158231D02*
X99567999Y-75158231D01*
X99567999Y-75158231D02*
X99713142Y-75230802D01*
X99713142Y-75230802D02*
X99785714Y-75303374D01*
X99785714Y-75303374D02*
X99930856Y-75521088D01*
X99930856Y-75521088D02*
X100003428Y-75811374D01*
X100003428Y-75811374D02*
X100003428Y-76391945D01*
X100003428Y-76391945D02*
X99930856Y-76537088D01*
X99930856Y-76537088D02*
X99858285Y-76609660D01*
X99858285Y-76609660D02*
X99713142Y-76682231D01*
X99713142Y-76682231D02*
X99422856Y-76682231D01*
X99422856Y-76682231D02*
X99277714Y-76609660D01*
X99277714Y-76609660D02*
X99205142Y-76537088D01*
X99205142Y-76537088D02*
X99132571Y-76391945D01*
X99132571Y-76391945D02*
X99132571Y-76029088D01*
X99132571Y-76029088D02*
X99205142Y-75883945D01*
X99205142Y-75883945D02*
X99277714Y-75811374D01*
X99277714Y-75811374D02*
X99422856Y-75738802D01*
X99422856Y-75738802D02*
X99713142Y-75738802D01*
X99713142Y-75738802D02*
X99858285Y-75811374D01*
X99858285Y-75811374D02*
X99930856Y-75883945D01*
X99930856Y-75883945D02*
X100003428Y-76029088D01*
X104401904Y-76759819D02*
X104401904Y-75759819D01*
X103830476Y-76759819D02*
X104259047Y-76188390D01*
X103830476Y-75759819D02*
X104401904Y-76331247D01*
X102180571Y-95732231D02*
X102180571Y-94208231D01*
X102180571Y-94208231D02*
X101817714Y-94208231D01*
X101817714Y-94208231D02*
X101600000Y-94280802D01*
X101600000Y-94280802D02*
X101454857Y-94425945D01*
X101454857Y-94425945D02*
X101382286Y-94571088D01*
X101382286Y-94571088D02*
X101309714Y-94861374D01*
X101309714Y-94861374D02*
X101309714Y-95079088D01*
X101309714Y-95079088D02*
X101382286Y-95369374D01*
X101382286Y-95369374D02*
X101454857Y-95514517D01*
X101454857Y-95514517D02*
X101600000Y-95659660D01*
X101600000Y-95659660D02*
X101817714Y-95732231D01*
X101817714Y-95732231D02*
X102180571Y-95732231D01*
X99858286Y-95732231D02*
X100729143Y-95732231D01*
X100293714Y-95732231D02*
X100293714Y-94208231D01*
X100293714Y-94208231D02*
X100438857Y-94425945D01*
X100438857Y-94425945D02*
X100584000Y-94571088D01*
X100584000Y-94571088D02*
X100729143Y-94643660D01*
X98914857Y-94208231D02*
X98769714Y-94208231D01*
X98769714Y-94208231D02*
X98624571Y-94280802D01*
X98624571Y-94280802D02*
X98552000Y-94353374D01*
X98552000Y-94353374D02*
X98479428Y-94498517D01*
X98479428Y-94498517D02*
X98406857Y-94788802D01*
X98406857Y-94788802D02*
X98406857Y-95151660D01*
X98406857Y-95151660D02*
X98479428Y-95441945D01*
X98479428Y-95441945D02*
X98552000Y-95587088D01*
X98552000Y-95587088D02*
X98624571Y-95659660D01*
X98624571Y-95659660D02*
X98769714Y-95732231D01*
X98769714Y-95732231D02*
X98914857Y-95732231D01*
X98914857Y-95732231D02*
X99060000Y-95659660D01*
X99060000Y-95659660D02*
X99132571Y-95587088D01*
X99132571Y-95587088D02*
X99205142Y-95441945D01*
X99205142Y-95441945D02*
X99277714Y-95151660D01*
X99277714Y-95151660D02*
X99277714Y-94788802D01*
X99277714Y-94788802D02*
X99205142Y-94498517D01*
X99205142Y-94498517D02*
X99132571Y-94353374D01*
X99132571Y-94353374D02*
X99060000Y-94280802D01*
X99060000Y-94280802D02*
X98914857Y-94208231D01*
X104401904Y-95809819D02*
X104401904Y-94809819D01*
X103830476Y-95809819D02*
X104259047Y-95238390D01*
X103830476Y-94809819D02*
X104401904Y-95381247D01*
X40639999Y-39541088D02*
X40712571Y-39613660D01*
X40712571Y-39613660D02*
X40930285Y-39686231D01*
X40930285Y-39686231D02*
X41075428Y-39686231D01*
X41075428Y-39686231D02*
X41293142Y-39613660D01*
X41293142Y-39613660D02*
X41438285Y-39468517D01*
X41438285Y-39468517D02*
X41510856Y-39323374D01*
X41510856Y-39323374D02*
X41583428Y-39033088D01*
X41583428Y-39033088D02*
X41583428Y-38815374D01*
X41583428Y-38815374D02*
X41510856Y-38525088D01*
X41510856Y-38525088D02*
X41438285Y-38379945D01*
X41438285Y-38379945D02*
X41293142Y-38234802D01*
X41293142Y-38234802D02*
X41075428Y-38162231D01*
X41075428Y-38162231D02*
X40930285Y-38162231D01*
X40930285Y-38162231D02*
X40712571Y-38234802D01*
X40712571Y-38234802D02*
X40639999Y-38307374D01*
X40131999Y-38162231D02*
X39188571Y-38162231D01*
X39188571Y-38162231D02*
X39696571Y-38742802D01*
X39696571Y-38742802D02*
X39478856Y-38742802D01*
X39478856Y-38742802D02*
X39333714Y-38815374D01*
X39333714Y-38815374D02*
X39261142Y-38887945D01*
X39261142Y-38887945D02*
X39188571Y-39033088D01*
X39188571Y-39033088D02*
X39188571Y-39395945D01*
X39188571Y-39395945D02*
X39261142Y-39541088D01*
X39261142Y-39541088D02*
X39333714Y-39613660D01*
X39333714Y-39613660D02*
X39478856Y-39686231D01*
X39478856Y-39686231D02*
X39914285Y-39686231D01*
X39914285Y-39686231D02*
X40059428Y-39613660D01*
X40059428Y-39613660D02*
X40131999Y-39541088D01*
X64080571Y-190982231D02*
X64080571Y-189458231D01*
X64080571Y-189458231D02*
X63717714Y-189458231D01*
X63717714Y-189458231D02*
X63500000Y-189530802D01*
X63500000Y-189530802D02*
X63354857Y-189675945D01*
X63354857Y-189675945D02*
X63282286Y-189821088D01*
X63282286Y-189821088D02*
X63209714Y-190111374D01*
X63209714Y-190111374D02*
X63209714Y-190329088D01*
X63209714Y-190329088D02*
X63282286Y-190619374D01*
X63282286Y-190619374D02*
X63354857Y-190764517D01*
X63354857Y-190764517D02*
X63500000Y-190909660D01*
X63500000Y-190909660D02*
X63717714Y-190982231D01*
X63717714Y-190982231D02*
X64080571Y-190982231D01*
X62629143Y-189603374D02*
X62556571Y-189530802D01*
X62556571Y-189530802D02*
X62411429Y-189458231D01*
X62411429Y-189458231D02*
X62048571Y-189458231D01*
X62048571Y-189458231D02*
X61903429Y-189530802D01*
X61903429Y-189530802D02*
X61830857Y-189603374D01*
X61830857Y-189603374D02*
X61758286Y-189748517D01*
X61758286Y-189748517D02*
X61758286Y-189893660D01*
X61758286Y-189893660D02*
X61830857Y-190111374D01*
X61830857Y-190111374D02*
X62701714Y-190982231D01*
X62701714Y-190982231D02*
X61758286Y-190982231D01*
X61032571Y-190982231D02*
X60742285Y-190982231D01*
X60742285Y-190982231D02*
X60597142Y-190909660D01*
X60597142Y-190909660D02*
X60524571Y-190837088D01*
X60524571Y-190837088D02*
X60379428Y-190619374D01*
X60379428Y-190619374D02*
X60306857Y-190329088D01*
X60306857Y-190329088D02*
X60306857Y-189748517D01*
X60306857Y-189748517D02*
X60379428Y-189603374D01*
X60379428Y-189603374D02*
X60452000Y-189530802D01*
X60452000Y-189530802D02*
X60597142Y-189458231D01*
X60597142Y-189458231D02*
X60887428Y-189458231D01*
X60887428Y-189458231D02*
X61032571Y-189530802D01*
X61032571Y-189530802D02*
X61105142Y-189603374D01*
X61105142Y-189603374D02*
X61177714Y-189748517D01*
X61177714Y-189748517D02*
X61177714Y-190111374D01*
X61177714Y-190111374D02*
X61105142Y-190256517D01*
X61105142Y-190256517D02*
X61032571Y-190329088D01*
X61032571Y-190329088D02*
X60887428Y-190401660D01*
X60887428Y-190401660D02*
X60597142Y-190401660D01*
X60597142Y-190401660D02*
X60452000Y-190329088D01*
X60452000Y-190329088D02*
X60379428Y-190256517D01*
X60379428Y-190256517D02*
X60306857Y-190111374D01*
X66301904Y-191059819D02*
X66301904Y-190059819D01*
X65730476Y-191059819D02*
X66159047Y-190488390D01*
X65730476Y-190059819D02*
X66301904Y-190631247D01*
X83130571Y-152882231D02*
X83130571Y-151358231D01*
X83130571Y-151358231D02*
X82767714Y-151358231D01*
X82767714Y-151358231D02*
X82550000Y-151430802D01*
X82550000Y-151430802D02*
X82404857Y-151575945D01*
X82404857Y-151575945D02*
X82332286Y-151721088D01*
X82332286Y-151721088D02*
X82259714Y-152011374D01*
X82259714Y-152011374D02*
X82259714Y-152229088D01*
X82259714Y-152229088D02*
X82332286Y-152519374D01*
X82332286Y-152519374D02*
X82404857Y-152664517D01*
X82404857Y-152664517D02*
X82550000Y-152809660D01*
X82550000Y-152809660D02*
X82767714Y-152882231D01*
X82767714Y-152882231D02*
X83130571Y-152882231D01*
X81679143Y-151503374D02*
X81606571Y-151430802D01*
X81606571Y-151430802D02*
X81461429Y-151358231D01*
X81461429Y-151358231D02*
X81098571Y-151358231D01*
X81098571Y-151358231D02*
X80953429Y-151430802D01*
X80953429Y-151430802D02*
X80880857Y-151503374D01*
X80880857Y-151503374D02*
X80808286Y-151648517D01*
X80808286Y-151648517D02*
X80808286Y-151793660D01*
X80808286Y-151793660D02*
X80880857Y-152011374D01*
X80880857Y-152011374D02*
X81751714Y-152882231D01*
X81751714Y-152882231D02*
X80808286Y-152882231D01*
X80227714Y-151503374D02*
X80155142Y-151430802D01*
X80155142Y-151430802D02*
X80010000Y-151358231D01*
X80010000Y-151358231D02*
X79647142Y-151358231D01*
X79647142Y-151358231D02*
X79502000Y-151430802D01*
X79502000Y-151430802D02*
X79429428Y-151503374D01*
X79429428Y-151503374D02*
X79356857Y-151648517D01*
X79356857Y-151648517D02*
X79356857Y-151793660D01*
X79356857Y-151793660D02*
X79429428Y-152011374D01*
X79429428Y-152011374D02*
X80300285Y-152882231D01*
X80300285Y-152882231D02*
X79356857Y-152882231D01*
X85351904Y-152959819D02*
X85351904Y-151959819D01*
X84780476Y-152959819D02*
X85209047Y-152388390D01*
X84780476Y-151959819D02*
X85351904Y-152531247D01*
X45030571Y-152882231D02*
X45030571Y-151358231D01*
X45030571Y-151358231D02*
X44667714Y-151358231D01*
X44667714Y-151358231D02*
X44450000Y-151430802D01*
X44450000Y-151430802D02*
X44304857Y-151575945D01*
X44304857Y-151575945D02*
X44232286Y-151721088D01*
X44232286Y-151721088D02*
X44159714Y-152011374D01*
X44159714Y-152011374D02*
X44159714Y-152229088D01*
X44159714Y-152229088D02*
X44232286Y-152519374D01*
X44232286Y-152519374D02*
X44304857Y-152664517D01*
X44304857Y-152664517D02*
X44450000Y-152809660D01*
X44450000Y-152809660D02*
X44667714Y-152882231D01*
X44667714Y-152882231D02*
X45030571Y-152882231D01*
X43579143Y-151503374D02*
X43506571Y-151430802D01*
X43506571Y-151430802D02*
X43361429Y-151358231D01*
X43361429Y-151358231D02*
X42998571Y-151358231D01*
X42998571Y-151358231D02*
X42853429Y-151430802D01*
X42853429Y-151430802D02*
X42780857Y-151503374D01*
X42780857Y-151503374D02*
X42708286Y-151648517D01*
X42708286Y-151648517D02*
X42708286Y-151793660D01*
X42708286Y-151793660D02*
X42780857Y-152011374D01*
X42780857Y-152011374D02*
X43651714Y-152882231D01*
X43651714Y-152882231D02*
X42708286Y-152882231D01*
X41764857Y-151358231D02*
X41619714Y-151358231D01*
X41619714Y-151358231D02*
X41474571Y-151430802D01*
X41474571Y-151430802D02*
X41402000Y-151503374D01*
X41402000Y-151503374D02*
X41329428Y-151648517D01*
X41329428Y-151648517D02*
X41256857Y-151938802D01*
X41256857Y-151938802D02*
X41256857Y-152301660D01*
X41256857Y-152301660D02*
X41329428Y-152591945D01*
X41329428Y-152591945D02*
X41402000Y-152737088D01*
X41402000Y-152737088D02*
X41474571Y-152809660D01*
X41474571Y-152809660D02*
X41619714Y-152882231D01*
X41619714Y-152882231D02*
X41764857Y-152882231D01*
X41764857Y-152882231D02*
X41910000Y-152809660D01*
X41910000Y-152809660D02*
X41982571Y-152737088D01*
X41982571Y-152737088D02*
X42055142Y-152591945D01*
X42055142Y-152591945D02*
X42127714Y-152301660D01*
X42127714Y-152301660D02*
X42127714Y-151938802D01*
X42127714Y-151938802D02*
X42055142Y-151648517D01*
X42055142Y-151648517D02*
X41982571Y-151503374D01*
X41982571Y-151503374D02*
X41910000Y-151430802D01*
X41910000Y-151430802D02*
X41764857Y-151358231D01*
X47251904Y-152959819D02*
X47251904Y-151959819D01*
X46680476Y-152959819D02*
X47109047Y-152388390D01*
X46680476Y-151959819D02*
X47251904Y-152531247D01*
X41420142Y-32193231D02*
X41420142Y-33426945D01*
X41420142Y-33426945D02*
X41347571Y-33572088D01*
X41347571Y-33572088D02*
X41275000Y-33644660D01*
X41275000Y-33644660D02*
X41129857Y-33717231D01*
X41129857Y-33717231D02*
X40839571Y-33717231D01*
X40839571Y-33717231D02*
X40694428Y-33644660D01*
X40694428Y-33644660D02*
X40621857Y-33572088D01*
X40621857Y-33572088D02*
X40549285Y-33426945D01*
X40549285Y-33426945D02*
X40549285Y-32193231D01*
X39025286Y-33717231D02*
X39896143Y-33717231D01*
X39460714Y-33717231D02*
X39460714Y-32193231D01*
X39460714Y-32193231D02*
X39605857Y-32410945D01*
X39605857Y-32410945D02*
X39751000Y-32556088D01*
X39751000Y-32556088D02*
X39896143Y-32628660D01*
X92655571Y-191617231D02*
X92655571Y-190093231D01*
X92655571Y-190093231D02*
X92292714Y-190093231D01*
X92292714Y-190093231D02*
X92075000Y-190165802D01*
X92075000Y-190165802D02*
X91929857Y-190310945D01*
X91929857Y-190310945D02*
X91857286Y-190456088D01*
X91857286Y-190456088D02*
X91784714Y-190746374D01*
X91784714Y-190746374D02*
X91784714Y-190964088D01*
X91784714Y-190964088D02*
X91857286Y-191254374D01*
X91857286Y-191254374D02*
X91929857Y-191399517D01*
X91929857Y-191399517D02*
X92075000Y-191544660D01*
X92075000Y-191544660D02*
X92292714Y-191617231D01*
X92292714Y-191617231D02*
X92655571Y-191617231D01*
X91276714Y-190093231D02*
X90333286Y-190093231D01*
X90333286Y-190093231D02*
X90841286Y-190673802D01*
X90841286Y-190673802D02*
X90623571Y-190673802D01*
X90623571Y-190673802D02*
X90478429Y-190746374D01*
X90478429Y-190746374D02*
X90405857Y-190818945D01*
X90405857Y-190818945D02*
X90333286Y-190964088D01*
X90333286Y-190964088D02*
X90333286Y-191326945D01*
X90333286Y-191326945D02*
X90405857Y-191472088D01*
X90405857Y-191472088D02*
X90478429Y-191544660D01*
X90478429Y-191544660D02*
X90623571Y-191617231D01*
X90623571Y-191617231D02*
X91059000Y-191617231D01*
X91059000Y-191617231D02*
X91204143Y-191544660D01*
X91204143Y-191544660D02*
X91276714Y-191472088D01*
X89389857Y-190093231D02*
X89244714Y-190093231D01*
X89244714Y-190093231D02*
X89099571Y-190165802D01*
X89099571Y-190165802D02*
X89027000Y-190238374D01*
X89027000Y-190238374D02*
X88954428Y-190383517D01*
X88954428Y-190383517D02*
X88881857Y-190673802D01*
X88881857Y-190673802D02*
X88881857Y-191036660D01*
X88881857Y-191036660D02*
X88954428Y-191326945D01*
X88954428Y-191326945D02*
X89027000Y-191472088D01*
X89027000Y-191472088D02*
X89099571Y-191544660D01*
X89099571Y-191544660D02*
X89244714Y-191617231D01*
X89244714Y-191617231D02*
X89389857Y-191617231D01*
X89389857Y-191617231D02*
X89535000Y-191544660D01*
X89535000Y-191544660D02*
X89607571Y-191472088D01*
X89607571Y-191472088D02*
X89680142Y-191326945D01*
X89680142Y-191326945D02*
X89752714Y-191036660D01*
X89752714Y-191036660D02*
X89752714Y-190673802D01*
X89752714Y-190673802D02*
X89680142Y-190383517D01*
X89680142Y-190383517D02*
X89607571Y-190238374D01*
X89607571Y-190238374D02*
X89535000Y-190165802D01*
X89535000Y-190165802D02*
X89389857Y-190093231D01*
X94876904Y-191694819D02*
X94876904Y-190694819D01*
X94305476Y-191694819D02*
X94734047Y-191123390D01*
X94305476Y-190694819D02*
X94876904Y-191266247D01*
X44304856Y-95732231D02*
X44304856Y-94208231D01*
X44304856Y-94208231D02*
X43941999Y-94208231D01*
X43941999Y-94208231D02*
X43724285Y-94280802D01*
X43724285Y-94280802D02*
X43579142Y-94425945D01*
X43579142Y-94425945D02*
X43506571Y-94571088D01*
X43506571Y-94571088D02*
X43433999Y-94861374D01*
X43433999Y-94861374D02*
X43433999Y-95079088D01*
X43433999Y-95079088D02*
X43506571Y-95369374D01*
X43506571Y-95369374D02*
X43579142Y-95514517D01*
X43579142Y-95514517D02*
X43724285Y-95659660D01*
X43724285Y-95659660D02*
X43941999Y-95732231D01*
X43941999Y-95732231D02*
X44304856Y-95732231D01*
X42925999Y-94208231D02*
X41909999Y-94208231D01*
X41909999Y-94208231D02*
X42563142Y-95732231D01*
X47251904Y-95809819D02*
X47251904Y-94809819D01*
X46680476Y-95809819D02*
X47109047Y-95238390D01*
X46680476Y-94809819D02*
X47251904Y-95381247D01*
X102180571Y-114782231D02*
X102180571Y-113258231D01*
X102180571Y-113258231D02*
X101817714Y-113258231D01*
X101817714Y-113258231D02*
X101600000Y-113330802D01*
X101600000Y-113330802D02*
X101454857Y-113475945D01*
X101454857Y-113475945D02*
X101382286Y-113621088D01*
X101382286Y-113621088D02*
X101309714Y-113911374D01*
X101309714Y-113911374D02*
X101309714Y-114129088D01*
X101309714Y-114129088D02*
X101382286Y-114419374D01*
X101382286Y-114419374D02*
X101454857Y-114564517D01*
X101454857Y-114564517D02*
X101600000Y-114709660D01*
X101600000Y-114709660D02*
X101817714Y-114782231D01*
X101817714Y-114782231D02*
X102180571Y-114782231D01*
X99858286Y-114782231D02*
X100729143Y-114782231D01*
X100293714Y-114782231D02*
X100293714Y-113258231D01*
X100293714Y-113258231D02*
X100438857Y-113475945D01*
X100438857Y-113475945D02*
X100584000Y-113621088D01*
X100584000Y-113621088D02*
X100729143Y-113693660D01*
X98479428Y-113258231D02*
X99205142Y-113258231D01*
X99205142Y-113258231D02*
X99277714Y-113983945D01*
X99277714Y-113983945D02*
X99205142Y-113911374D01*
X99205142Y-113911374D02*
X99060000Y-113838802D01*
X99060000Y-113838802D02*
X98697142Y-113838802D01*
X98697142Y-113838802D02*
X98552000Y-113911374D01*
X98552000Y-113911374D02*
X98479428Y-113983945D01*
X98479428Y-113983945D02*
X98406857Y-114129088D01*
X98406857Y-114129088D02*
X98406857Y-114491945D01*
X98406857Y-114491945D02*
X98479428Y-114637088D01*
X98479428Y-114637088D02*
X98552000Y-114709660D01*
X98552000Y-114709660D02*
X98697142Y-114782231D01*
X98697142Y-114782231D02*
X99060000Y-114782231D01*
X99060000Y-114782231D02*
X99205142Y-114709660D01*
X99205142Y-114709660D02*
X99277714Y-114637088D01*
X104401904Y-114859819D02*
X104401904Y-113859819D01*
X103830476Y-114859819D02*
X104259047Y-114288390D01*
X103830476Y-113859819D02*
X104401904Y-114431247D01*
X44304856Y-76682231D02*
X44304856Y-75158231D01*
X44304856Y-75158231D02*
X43941999Y-75158231D01*
X43941999Y-75158231D02*
X43724285Y-75230802D01*
X43724285Y-75230802D02*
X43579142Y-75375945D01*
X43579142Y-75375945D02*
X43506571Y-75521088D01*
X43506571Y-75521088D02*
X43433999Y-75811374D01*
X43433999Y-75811374D02*
X43433999Y-76029088D01*
X43433999Y-76029088D02*
X43506571Y-76319374D01*
X43506571Y-76319374D02*
X43579142Y-76464517D01*
X43579142Y-76464517D02*
X43724285Y-76609660D01*
X43724285Y-76609660D02*
X43941999Y-76682231D01*
X43941999Y-76682231D02*
X44304856Y-76682231D01*
X42925999Y-75158231D02*
X41982571Y-75158231D01*
X41982571Y-75158231D02*
X42490571Y-75738802D01*
X42490571Y-75738802D02*
X42272856Y-75738802D01*
X42272856Y-75738802D02*
X42127714Y-75811374D01*
X42127714Y-75811374D02*
X42055142Y-75883945D01*
X42055142Y-75883945D02*
X41982571Y-76029088D01*
X41982571Y-76029088D02*
X41982571Y-76391945D01*
X41982571Y-76391945D02*
X42055142Y-76537088D01*
X42055142Y-76537088D02*
X42127714Y-76609660D01*
X42127714Y-76609660D02*
X42272856Y-76682231D01*
X42272856Y-76682231D02*
X42708285Y-76682231D01*
X42708285Y-76682231D02*
X42853428Y-76609660D01*
X42853428Y-76609660D02*
X42925999Y-76537088D01*
X47251904Y-76759819D02*
X47251904Y-75759819D01*
X46680476Y-76759819D02*
X47109047Y-76188390D01*
X46680476Y-75759819D02*
X47251904Y-76331247D01*
D11*
X90019285Y-78806390D02*
X90162142Y-78758771D01*
X90162142Y-78758771D02*
X90209761Y-78711152D01*
X90209761Y-78711152D02*
X90257380Y-78615914D01*
X90257380Y-78615914D02*
X90257380Y-78473057D01*
X90257380Y-78473057D02*
X90209761Y-78377819D01*
X90209761Y-78377819D02*
X90162142Y-78330200D01*
X90162142Y-78330200D02*
X90066904Y-78282580D01*
X90066904Y-78282580D02*
X89685952Y-78282580D01*
X89685952Y-78282580D02*
X89685952Y-79282580D01*
X89685952Y-79282580D02*
X90019285Y-79282580D01*
X90019285Y-79282580D02*
X90114523Y-79234961D01*
X90114523Y-79234961D02*
X90162142Y-79187342D01*
X90162142Y-79187342D02*
X90209761Y-79092104D01*
X90209761Y-79092104D02*
X90209761Y-78996866D01*
X90209761Y-78996866D02*
X90162142Y-78901628D01*
X90162142Y-78901628D02*
X90114523Y-78854009D01*
X90114523Y-78854009D02*
X90019285Y-78806390D01*
X90019285Y-78806390D02*
X89685952Y-78806390D01*
X90543095Y-79282580D02*
X91114523Y-79282580D01*
X90828809Y-78282580D02*
X90828809Y-79282580D01*
X91971666Y-78282580D02*
X91400238Y-78282580D01*
X91685952Y-78282580D02*
X91685952Y-79282580D01*
X91685952Y-79282580D02*
X91590714Y-79139723D01*
X91590714Y-79139723D02*
X91495476Y-79044485D01*
X91495476Y-79044485D02*
X91400238Y-78996866D01*
D10*
X64080571Y-171932231D02*
X64080571Y-170408231D01*
X64080571Y-170408231D02*
X63717714Y-170408231D01*
X63717714Y-170408231D02*
X63500000Y-170480802D01*
X63500000Y-170480802D02*
X63354857Y-170625945D01*
X63354857Y-170625945D02*
X63282286Y-170771088D01*
X63282286Y-170771088D02*
X63209714Y-171061374D01*
X63209714Y-171061374D02*
X63209714Y-171279088D01*
X63209714Y-171279088D02*
X63282286Y-171569374D01*
X63282286Y-171569374D02*
X63354857Y-171714517D01*
X63354857Y-171714517D02*
X63500000Y-171859660D01*
X63500000Y-171859660D02*
X63717714Y-171932231D01*
X63717714Y-171932231D02*
X64080571Y-171932231D01*
X62629143Y-170553374D02*
X62556571Y-170480802D01*
X62556571Y-170480802D02*
X62411429Y-170408231D01*
X62411429Y-170408231D02*
X62048571Y-170408231D01*
X62048571Y-170408231D02*
X61903429Y-170480802D01*
X61903429Y-170480802D02*
X61830857Y-170553374D01*
X61830857Y-170553374D02*
X61758286Y-170698517D01*
X61758286Y-170698517D02*
X61758286Y-170843660D01*
X61758286Y-170843660D02*
X61830857Y-171061374D01*
X61830857Y-171061374D02*
X62701714Y-171932231D01*
X62701714Y-171932231D02*
X61758286Y-171932231D01*
X60379428Y-170408231D02*
X61105142Y-170408231D01*
X61105142Y-170408231D02*
X61177714Y-171133945D01*
X61177714Y-171133945D02*
X61105142Y-171061374D01*
X61105142Y-171061374D02*
X60960000Y-170988802D01*
X60960000Y-170988802D02*
X60597142Y-170988802D01*
X60597142Y-170988802D02*
X60452000Y-171061374D01*
X60452000Y-171061374D02*
X60379428Y-171133945D01*
X60379428Y-171133945D02*
X60306857Y-171279088D01*
X60306857Y-171279088D02*
X60306857Y-171641945D01*
X60306857Y-171641945D02*
X60379428Y-171787088D01*
X60379428Y-171787088D02*
X60452000Y-171859660D01*
X60452000Y-171859660D02*
X60597142Y-171932231D01*
X60597142Y-171932231D02*
X60960000Y-171932231D01*
X60960000Y-171932231D02*
X61105142Y-171859660D01*
X61105142Y-171859660D02*
X61177714Y-171787088D01*
X66301904Y-172009819D02*
X66301904Y-171009819D01*
X65730476Y-172009819D02*
X66159047Y-171438390D01*
X65730476Y-171009819D02*
X66301904Y-171581247D01*
D12*
%TO.C,D16*%
X45950000Y-135255000D02*
X45300000Y-135255000D01*
X45300000Y-136375000D02*
X41060000Y-136375000D01*
X45300000Y-134135000D02*
X45300000Y-136375000D01*
X44700000Y-134135000D02*
X44700000Y-136375000D01*
X44580000Y-134135000D02*
X44580000Y-136375000D01*
X44460000Y-134135000D02*
X44460000Y-136375000D01*
X41060000Y-136375000D02*
X41060000Y-134135000D01*
X41060000Y-134135000D02*
X45300000Y-134135000D01*
X40410000Y-135255000D02*
X41060000Y-135255000D01*
%TO.C,D18*%
X84050000Y-135255000D02*
X83400000Y-135255000D01*
X83400000Y-136375000D02*
X79160000Y-136375000D01*
X83400000Y-134135000D02*
X83400000Y-136375000D01*
X82800000Y-134135000D02*
X82800000Y-136375000D01*
X82680000Y-134135000D02*
X82680000Y-136375000D01*
X82560000Y-134135000D02*
X82560000Y-136375000D01*
X79160000Y-136375000D02*
X79160000Y-134135000D01*
X79160000Y-134135000D02*
X83400000Y-134135000D01*
X78510000Y-135255000D02*
X79160000Y-135255000D01*
%TO.C,D13*%
X65000000Y-116205000D02*
X64350000Y-116205000D01*
X64350000Y-117325000D02*
X60110000Y-117325000D01*
X64350000Y-115085000D02*
X64350000Y-117325000D01*
X63750000Y-115085000D02*
X63750000Y-117325000D01*
X63630000Y-115085000D02*
X63630000Y-117325000D01*
X63510000Y-115085000D02*
X63510000Y-117325000D01*
X60110000Y-117325000D02*
X60110000Y-115085000D01*
X60110000Y-115085000D02*
X64350000Y-115085000D01*
X59460000Y-116205000D02*
X60110000Y-116205000D01*
%TO.C,D21*%
X65000000Y-154305000D02*
X64350000Y-154305000D01*
X64350000Y-155425000D02*
X60110000Y-155425000D01*
X64350000Y-153185000D02*
X64350000Y-155425000D01*
X63750000Y-153185000D02*
X63750000Y-155425000D01*
X63630000Y-153185000D02*
X63630000Y-155425000D01*
X63510000Y-153185000D02*
X63510000Y-155425000D01*
X60110000Y-155425000D02*
X60110000Y-153185000D01*
X60110000Y-153185000D02*
X64350000Y-153185000D01*
X59460000Y-154305000D02*
X60110000Y-154305000D01*
%TO.C,RV1*%
X31200000Y-45525000D02*
X32719000Y-45525000D01*
X31200000Y-46535000D02*
X31959000Y-46535000D01*
X31200000Y-47545000D02*
X31200000Y-45525000D01*
X31200000Y-47545000D02*
X32719000Y-47545000D01*
X32719000Y-47545000D02*
X32719000Y-45525000D01*
X32720000Y-40975000D02*
X35546000Y-40975000D01*
X32720000Y-43954000D02*
X32720000Y-40975000D01*
X32720000Y-47925000D02*
X32720000Y-44945000D01*
X32720000Y-47925000D02*
X35546000Y-47925000D01*
X36845000Y-40975000D02*
X39670000Y-40975000D01*
X36845000Y-47925000D02*
X39670000Y-47925000D01*
X39670000Y-47925000D02*
X39670000Y-40975000D01*
%TO.C,D27*%
X103100000Y-172720000D02*
X102450000Y-172720000D01*
X102450000Y-173840000D02*
X98210000Y-173840000D01*
X102450000Y-171600000D02*
X102450000Y-173840000D01*
X101850000Y-171600000D02*
X101850000Y-173840000D01*
X101730000Y-171600000D02*
X101730000Y-173840000D01*
X101610000Y-171600000D02*
X101610000Y-173840000D01*
X98210000Y-173840000D02*
X98210000Y-171600000D01*
X98210000Y-171600000D02*
X102450000Y-171600000D01*
X97560000Y-172720000D02*
X98210000Y-172720000D01*
%TO.C,D24*%
X45950000Y-173355000D02*
X45300000Y-173355000D01*
X45300000Y-174475000D02*
X41060000Y-174475000D01*
X45300000Y-172235000D02*
X45300000Y-174475000D01*
X44700000Y-172235000D02*
X44700000Y-174475000D01*
X44580000Y-172235000D02*
X44580000Y-174475000D01*
X44460000Y-172235000D02*
X44460000Y-174475000D01*
X41060000Y-174475000D02*
X41060000Y-172235000D01*
X41060000Y-172235000D02*
X45300000Y-172235000D01*
X40410000Y-173355000D02*
X41060000Y-173355000D01*
%TO.C,D5*%
X84050000Y-78105000D02*
X83400000Y-78105000D01*
X83400000Y-79225000D02*
X79160000Y-79225000D01*
X83400000Y-76985000D02*
X83400000Y-79225000D01*
X82800000Y-76985000D02*
X82800000Y-79225000D01*
X82680000Y-76985000D02*
X82680000Y-79225000D01*
X82560000Y-76985000D02*
X82560000Y-79225000D01*
X79160000Y-79225000D02*
X79160000Y-76985000D01*
X79160000Y-76985000D02*
X83400000Y-76985000D01*
X78510000Y-78105000D02*
X79160000Y-78105000D01*
%TO.C,D9*%
X84050000Y-97155000D02*
X83400000Y-97155000D01*
X83400000Y-98275000D02*
X79160000Y-98275000D01*
X83400000Y-96035000D02*
X83400000Y-98275000D01*
X82800000Y-96035000D02*
X82800000Y-98275000D01*
X82680000Y-96035000D02*
X82680000Y-98275000D01*
X82560000Y-96035000D02*
X82560000Y-98275000D01*
X79160000Y-98275000D02*
X79160000Y-96035000D01*
X79160000Y-96035000D02*
X83400000Y-96035000D01*
X78510000Y-97155000D02*
X79160000Y-97155000D01*
%TO.C,D19*%
X103100000Y-135255000D02*
X102450000Y-135255000D01*
X102450000Y-136375000D02*
X98210000Y-136375000D01*
X102450000Y-134135000D02*
X102450000Y-136375000D01*
X101850000Y-134135000D02*
X101850000Y-136375000D01*
X101730000Y-134135000D02*
X101730000Y-136375000D01*
X101610000Y-134135000D02*
X101610000Y-136375000D01*
X98210000Y-136375000D02*
X98210000Y-134135000D01*
X98210000Y-134135000D02*
X102450000Y-134135000D01*
X97560000Y-135255000D02*
X98210000Y-135255000D01*
%TO.C,D8*%
X65000000Y-97155000D02*
X64350000Y-97155000D01*
X64350000Y-98275000D02*
X60110000Y-98275000D01*
X64350000Y-96035000D02*
X64350000Y-98275000D01*
X63750000Y-96035000D02*
X63750000Y-98275000D01*
X63630000Y-96035000D02*
X63630000Y-98275000D01*
X63510000Y-96035000D02*
X63510000Y-98275000D01*
X60110000Y-98275000D02*
X60110000Y-96035000D01*
X60110000Y-96035000D02*
X64350000Y-96035000D01*
X59460000Y-97155000D02*
X60110000Y-97155000D01*
%TO.C,D26*%
X84050000Y-172720000D02*
X83400000Y-172720000D01*
X83400000Y-173840000D02*
X79160000Y-173840000D01*
X83400000Y-171600000D02*
X83400000Y-173840000D01*
X82800000Y-171600000D02*
X82800000Y-173840000D01*
X82680000Y-171600000D02*
X82680000Y-173840000D01*
X82560000Y-171600000D02*
X82560000Y-173840000D01*
X79160000Y-173840000D02*
X79160000Y-171600000D01*
X79160000Y-171600000D02*
X83400000Y-171600000D01*
X78510000Y-172720000D02*
X79160000Y-172720000D01*
%TO.C,D14*%
X84050000Y-116205000D02*
X83400000Y-116205000D01*
X83400000Y-117325000D02*
X79160000Y-117325000D01*
X83400000Y-115085000D02*
X83400000Y-117325000D01*
X82800000Y-115085000D02*
X82800000Y-117325000D01*
X82680000Y-115085000D02*
X82680000Y-117325000D01*
X82560000Y-115085000D02*
X82560000Y-117325000D01*
X79160000Y-117325000D02*
X79160000Y-115085000D01*
X79160000Y-115085000D02*
X83400000Y-115085000D01*
X78510000Y-116205000D02*
X79160000Y-116205000D01*
%TO.C,D12*%
X45950000Y-116205000D02*
X45300000Y-116205000D01*
X45300000Y-117325000D02*
X41060000Y-117325000D01*
X45300000Y-115085000D02*
X45300000Y-117325000D01*
X44700000Y-115085000D02*
X44700000Y-117325000D01*
X44580000Y-115085000D02*
X44580000Y-117325000D01*
X44460000Y-115085000D02*
X44460000Y-117325000D01*
X41060000Y-117325000D02*
X41060000Y-115085000D01*
X41060000Y-115085000D02*
X45300000Y-115085000D01*
X40410000Y-116205000D02*
X41060000Y-116205000D01*
%TO.C,D17*%
X65000000Y-135255000D02*
X64350000Y-135255000D01*
X64350000Y-136375000D02*
X60110000Y-136375000D01*
X64350000Y-134135000D02*
X64350000Y-136375000D01*
X63750000Y-134135000D02*
X63750000Y-136375000D01*
X63630000Y-134135000D02*
X63630000Y-136375000D01*
X63510000Y-134135000D02*
X63510000Y-136375000D01*
X60110000Y-136375000D02*
X60110000Y-134135000D01*
X60110000Y-134135000D02*
X64350000Y-134135000D01*
X59460000Y-135255000D02*
X60110000Y-135255000D01*
%TO.C,C2*%
X38180000Y-28040000D02*
X32940000Y-28040000D01*
X38180000Y-25300000D02*
X38180000Y-28040000D01*
X38180000Y-25300000D02*
X32940000Y-25300000D01*
X32940000Y-25300000D02*
X32940000Y-28040000D01*
D11*
%TO.C,SW5*%
X118212000Y-43180000D02*
X114402000Y-43180000D01*
X118212000Y-38100000D02*
X118212000Y-43180000D01*
X114402000Y-38100000D02*
X118212000Y-38100000D01*
X112878000Y-46990000D02*
X112878000Y-44704000D01*
X112878000Y-36576000D02*
X112878000Y-34290000D01*
X112878000Y-34290000D02*
X102718000Y-34290000D01*
X102718000Y-46990000D02*
X112878000Y-46990000D01*
X102718000Y-34290000D02*
X102718000Y-46990000D01*
D12*
%TO.C,J1*%
X99135000Y-18985000D02*
X99135000Y-24185000D01*
X93995000Y-18985000D02*
X99135000Y-18985000D01*
X93995000Y-18985000D02*
X93995000Y-21585000D01*
X92725000Y-18985000D02*
X91395000Y-18985000D01*
X91395000Y-18985000D02*
X91395000Y-20315000D01*
X93995000Y-21585000D02*
X91395000Y-21585000D01*
X91395000Y-21585000D02*
X91395000Y-24185000D01*
X91395000Y-24185000D02*
X99135000Y-24185000D01*
%TO.C,D28*%
X45950000Y-192405000D02*
X45300000Y-192405000D01*
X45300000Y-193525000D02*
X41060000Y-193525000D01*
X45300000Y-191285000D02*
X45300000Y-193525000D01*
X44700000Y-191285000D02*
X44700000Y-193525000D01*
X44580000Y-191285000D02*
X44580000Y-193525000D01*
X44460000Y-191285000D02*
X44460000Y-193525000D01*
X41060000Y-193525000D02*
X41060000Y-191285000D01*
X41060000Y-191285000D02*
X45300000Y-191285000D01*
X40410000Y-192405000D02*
X41060000Y-192405000D01*
%TO.C,D23*%
X103100000Y-154305000D02*
X102450000Y-154305000D01*
X102450000Y-155425000D02*
X98210000Y-155425000D01*
X102450000Y-153185000D02*
X102450000Y-155425000D01*
X101850000Y-153185000D02*
X101850000Y-155425000D01*
X101730000Y-153185000D02*
X101730000Y-155425000D01*
X101610000Y-153185000D02*
X101610000Y-155425000D01*
X98210000Y-155425000D02*
X98210000Y-153185000D01*
X98210000Y-153185000D02*
X102450000Y-153185000D01*
X97560000Y-154305000D02*
X98210000Y-154305000D01*
%TO.C,D4*%
X65000000Y-78105000D02*
X64350000Y-78105000D01*
X64350000Y-79225000D02*
X60110000Y-79225000D01*
X64350000Y-76985000D02*
X64350000Y-79225000D01*
X63750000Y-76985000D02*
X63750000Y-79225000D01*
X63630000Y-76985000D02*
X63630000Y-79225000D01*
X63510000Y-76985000D02*
X63510000Y-79225000D01*
X60110000Y-79225000D02*
X60110000Y-76985000D01*
X60110000Y-76985000D02*
X64350000Y-76985000D01*
X59460000Y-78105000D02*
X60110000Y-78105000D01*
%TO.C,D6*%
X103100000Y-78105000D02*
X102450000Y-78105000D01*
X102450000Y-79225000D02*
X98210000Y-79225000D01*
X102450000Y-76985000D02*
X102450000Y-79225000D01*
X101850000Y-76985000D02*
X101850000Y-79225000D01*
X101730000Y-76985000D02*
X101730000Y-79225000D01*
X101610000Y-76985000D02*
X101610000Y-79225000D01*
X98210000Y-79225000D02*
X98210000Y-76985000D01*
X98210000Y-76985000D02*
X102450000Y-76985000D01*
X97560000Y-78105000D02*
X98210000Y-78105000D01*
%TO.C,D10*%
X103100000Y-97155000D02*
X102450000Y-97155000D01*
X102450000Y-98275000D02*
X98210000Y-98275000D01*
X102450000Y-96035000D02*
X102450000Y-98275000D01*
X101850000Y-96035000D02*
X101850000Y-98275000D01*
X101730000Y-96035000D02*
X101730000Y-98275000D01*
X101610000Y-96035000D02*
X101610000Y-98275000D01*
X98210000Y-98275000D02*
X98210000Y-96035000D01*
X98210000Y-96035000D02*
X102450000Y-96035000D01*
X97560000Y-97155000D02*
X98210000Y-97155000D01*
%TO.C,C3*%
X37946000Y-40359000D02*
X32706000Y-40359000D01*
X37946000Y-37619000D02*
X37946000Y-40359000D01*
X37946000Y-37619000D02*
X32706000Y-37619000D01*
X32706000Y-37619000D02*
X32706000Y-40359000D01*
%TO.C,D29*%
X65000000Y-192405000D02*
X64350000Y-192405000D01*
X64350000Y-193525000D02*
X60110000Y-193525000D01*
X64350000Y-191285000D02*
X64350000Y-193525000D01*
X63750000Y-191285000D02*
X63750000Y-193525000D01*
X63630000Y-191285000D02*
X63630000Y-193525000D01*
X63510000Y-191285000D02*
X63510000Y-193525000D01*
X60110000Y-193525000D02*
X60110000Y-191285000D01*
X60110000Y-191285000D02*
X64350000Y-191285000D01*
X59460000Y-192405000D02*
X60110000Y-192405000D01*
%TO.C,D22*%
X84050000Y-154305000D02*
X83400000Y-154305000D01*
X83400000Y-155425000D02*
X79160000Y-155425000D01*
X83400000Y-153185000D02*
X83400000Y-155425000D01*
X82800000Y-153185000D02*
X82800000Y-155425000D01*
X82680000Y-153185000D02*
X82680000Y-155425000D01*
X82560000Y-153185000D02*
X82560000Y-155425000D01*
X79160000Y-155425000D02*
X79160000Y-153185000D01*
X79160000Y-153185000D02*
X83400000Y-153185000D01*
X78510000Y-154305000D02*
X79160000Y-154305000D01*
%TO.C,D20*%
X45950000Y-154305000D02*
X45300000Y-154305000D01*
X45300000Y-155425000D02*
X41060000Y-155425000D01*
X45300000Y-153185000D02*
X45300000Y-155425000D01*
X44700000Y-153185000D02*
X44700000Y-155425000D01*
X44580000Y-153185000D02*
X44580000Y-155425000D01*
X44460000Y-153185000D02*
X44460000Y-155425000D01*
X41060000Y-155425000D02*
X41060000Y-153185000D01*
X41060000Y-153185000D02*
X45300000Y-153185000D01*
X40410000Y-154305000D02*
X41060000Y-154305000D01*
%TO.C,U1*%
X37400000Y-36330000D02*
X37400000Y-34150000D01*
X33010000Y-34150000D02*
X33340000Y-34150000D01*
X37730000Y-34150000D02*
X37400000Y-34150000D01*
X37730000Y-34150000D02*
X37730000Y-31430000D01*
X33010000Y-31430000D02*
X33010000Y-34150000D01*
X33340000Y-31430000D02*
X33010000Y-31430000D01*
X37730000Y-31430000D02*
X37400000Y-31430000D01*
%TO.C,D30*%
X93575000Y-193040000D02*
X92925000Y-193040000D01*
X92925000Y-194160000D02*
X88685000Y-194160000D01*
X92925000Y-191920000D02*
X92925000Y-194160000D01*
X92325000Y-191920000D02*
X92325000Y-194160000D01*
X92205000Y-191920000D02*
X92205000Y-194160000D01*
X92085000Y-191920000D02*
X92085000Y-194160000D01*
X88685000Y-194160000D02*
X88685000Y-191920000D01*
X88685000Y-191920000D02*
X92925000Y-191920000D01*
X88035000Y-193040000D02*
X88685000Y-193040000D01*
%TO.C,D7*%
X45950000Y-97155000D02*
X45300000Y-97155000D01*
X45300000Y-98275000D02*
X41060000Y-98275000D01*
X45300000Y-96035000D02*
X45300000Y-98275000D01*
X44700000Y-96035000D02*
X44700000Y-98275000D01*
X44580000Y-96035000D02*
X44580000Y-98275000D01*
X44460000Y-96035000D02*
X44460000Y-98275000D01*
X41060000Y-98275000D02*
X41060000Y-96035000D01*
X41060000Y-96035000D02*
X45300000Y-96035000D01*
X40410000Y-97155000D02*
X41060000Y-97155000D01*
%TO.C,D15*%
X103100000Y-116205000D02*
X102450000Y-116205000D01*
X102450000Y-117325000D02*
X98210000Y-117325000D01*
X102450000Y-115085000D02*
X102450000Y-117325000D01*
X101850000Y-115085000D02*
X101850000Y-117325000D01*
X101730000Y-115085000D02*
X101730000Y-117325000D01*
X101610000Y-115085000D02*
X101610000Y-117325000D01*
X98210000Y-117325000D02*
X98210000Y-115085000D01*
X98210000Y-115085000D02*
X102450000Y-115085000D01*
X97560000Y-116205000D02*
X98210000Y-116205000D01*
%TO.C,D3*%
X45950000Y-78105000D02*
X45300000Y-78105000D01*
X45300000Y-79225000D02*
X41060000Y-79225000D01*
X45300000Y-76985000D02*
X45300000Y-79225000D01*
X44700000Y-76985000D02*
X44700000Y-79225000D01*
X44580000Y-76985000D02*
X44580000Y-79225000D01*
X44460000Y-76985000D02*
X44460000Y-79225000D01*
X41060000Y-79225000D02*
X41060000Y-76985000D01*
X41060000Y-76985000D02*
X45300000Y-76985000D01*
X40410000Y-78105000D02*
X41060000Y-78105000D01*
D11*
%TO.C,BT1*%
X45085000Y-25400000D02*
X98425000Y-25400000D01*
X98425000Y-25400000D02*
X98425000Y-76200000D01*
X98425000Y-76200000D02*
X45085000Y-76200000D01*
X45085000Y-76200000D02*
X45085000Y-25400000D01*
D12*
%TO.C,D25*%
X65000000Y-173355000D02*
X64350000Y-173355000D01*
X64350000Y-174475000D02*
X60110000Y-174475000D01*
X64350000Y-172235000D02*
X64350000Y-174475000D01*
X63750000Y-172235000D02*
X63750000Y-174475000D01*
X63630000Y-172235000D02*
X63630000Y-174475000D01*
X63510000Y-172235000D02*
X63510000Y-174475000D01*
X60110000Y-174475000D02*
X60110000Y-172235000D01*
X60110000Y-172235000D02*
X64350000Y-172235000D01*
X59460000Y-173355000D02*
X60110000Y-173355000D01*
%TD*%
M02*
