%TF.GenerationSoftware,KiCad,Pcbnew,7.0.2-6a45011f42~172~ubuntu22.04.1*%
%TF.CreationDate,2023-04-29T09:48:45-04:00*%
%TF.ProjectId,keyboard-pcb,6b657962-6f61-4726-942d-7063622e6b69,rev?*%
%TF.SameCoordinates,Original*%
%TF.FileFunction,Legend,Top*%
%TF.FilePolarity,Positive*%
%FSLAX46Y46*%
G04 Gerber Fmt 4.6, Leading zero omitted, Abs format (unit mm)*
G04 Created by KiCad (PCBNEW 7.0.2-6a45011f42~172~ubuntu22.04.1) date 2023-04-29 09:48:45*
%MOMM*%
%LPD*%
G01*
G04 APERTURE LIST*
%ADD10C,0.150000*%
%ADD11C,0.120000*%
G04 APERTURE END LIST*
D10*
%TO.C,SW10*%
X40422285Y-99438460D02*
X40640000Y-99511031D01*
X40640000Y-99511031D02*
X41002857Y-99511031D01*
X41002857Y-99511031D02*
X41148000Y-99438460D01*
X41148000Y-99438460D02*
X41220571Y-99365888D01*
X41220571Y-99365888D02*
X41293142Y-99220745D01*
X41293142Y-99220745D02*
X41293142Y-99075602D01*
X41293142Y-99075602D02*
X41220571Y-98930460D01*
X41220571Y-98930460D02*
X41148000Y-98857888D01*
X41148000Y-98857888D02*
X41002857Y-98785317D01*
X41002857Y-98785317D02*
X40712571Y-98712745D01*
X40712571Y-98712745D02*
X40567428Y-98640174D01*
X40567428Y-98640174D02*
X40494857Y-98567602D01*
X40494857Y-98567602D02*
X40422285Y-98422460D01*
X40422285Y-98422460D02*
X40422285Y-98277317D01*
X40422285Y-98277317D02*
X40494857Y-98132174D01*
X40494857Y-98132174D02*
X40567428Y-98059602D01*
X40567428Y-98059602D02*
X40712571Y-97987031D01*
X40712571Y-97987031D02*
X41075428Y-97987031D01*
X41075428Y-97987031D02*
X41293142Y-98059602D01*
X41801143Y-97987031D02*
X42164000Y-99511031D01*
X42164000Y-99511031D02*
X42454286Y-98422460D01*
X42454286Y-98422460D02*
X42744571Y-99511031D01*
X42744571Y-99511031D02*
X43107429Y-97987031D01*
X44486285Y-99511031D02*
X43615428Y-99511031D01*
X44050857Y-99511031D02*
X44050857Y-97987031D01*
X44050857Y-97987031D02*
X43905714Y-98204745D01*
X43905714Y-98204745D02*
X43760571Y-98349888D01*
X43760571Y-98349888D02*
X43615428Y-98422460D01*
X45429714Y-97987031D02*
X45574857Y-97987031D01*
X45574857Y-97987031D02*
X45720000Y-98059602D01*
X45720000Y-98059602D02*
X45792572Y-98132174D01*
X45792572Y-98132174D02*
X45865143Y-98277317D01*
X45865143Y-98277317D02*
X45937714Y-98567602D01*
X45937714Y-98567602D02*
X45937714Y-98930460D01*
X45937714Y-98930460D02*
X45865143Y-99220745D01*
X45865143Y-99220745D02*
X45792572Y-99365888D01*
X45792572Y-99365888D02*
X45720000Y-99438460D01*
X45720000Y-99438460D02*
X45574857Y-99511031D01*
X45574857Y-99511031D02*
X45429714Y-99511031D01*
X45429714Y-99511031D02*
X45284572Y-99438460D01*
X45284572Y-99438460D02*
X45212000Y-99365888D01*
X45212000Y-99365888D02*
X45139429Y-99220745D01*
X45139429Y-99220745D02*
X45066857Y-98930460D01*
X45066857Y-98930460D02*
X45066857Y-98567602D01*
X45066857Y-98567602D02*
X45139429Y-98277317D01*
X45139429Y-98277317D02*
X45212000Y-98132174D01*
X45212000Y-98132174D02*
X45284572Y-98059602D01*
X45284572Y-98059602D02*
X45429714Y-97987031D01*
%TO.C,R4*%
X69977000Y-56331031D02*
X69469000Y-55605317D01*
X69106143Y-56331031D02*
X69106143Y-54807031D01*
X69106143Y-54807031D02*
X69686714Y-54807031D01*
X69686714Y-54807031D02*
X69831857Y-54879602D01*
X69831857Y-54879602D02*
X69904428Y-54952174D01*
X69904428Y-54952174D02*
X69977000Y-55097317D01*
X69977000Y-55097317D02*
X69977000Y-55315031D01*
X69977000Y-55315031D02*
X69904428Y-55460174D01*
X69904428Y-55460174D02*
X69831857Y-55532745D01*
X69831857Y-55532745D02*
X69686714Y-55605317D01*
X69686714Y-55605317D02*
X69106143Y-55605317D01*
X71283286Y-55315031D02*
X71283286Y-56331031D01*
X70920428Y-54734460D02*
X70557571Y-55823031D01*
X70557571Y-55823031D02*
X71501000Y-55823031D01*
%TO.C,SW2*%
X60197999Y-61338460D02*
X60415714Y-61411031D01*
X60415714Y-61411031D02*
X60778571Y-61411031D01*
X60778571Y-61411031D02*
X60923714Y-61338460D01*
X60923714Y-61338460D02*
X60996285Y-61265888D01*
X60996285Y-61265888D02*
X61068856Y-61120745D01*
X61068856Y-61120745D02*
X61068856Y-60975602D01*
X61068856Y-60975602D02*
X60996285Y-60830460D01*
X60996285Y-60830460D02*
X60923714Y-60757888D01*
X60923714Y-60757888D02*
X60778571Y-60685317D01*
X60778571Y-60685317D02*
X60488285Y-60612745D01*
X60488285Y-60612745D02*
X60343142Y-60540174D01*
X60343142Y-60540174D02*
X60270571Y-60467602D01*
X60270571Y-60467602D02*
X60197999Y-60322460D01*
X60197999Y-60322460D02*
X60197999Y-60177317D01*
X60197999Y-60177317D02*
X60270571Y-60032174D01*
X60270571Y-60032174D02*
X60343142Y-59959602D01*
X60343142Y-59959602D02*
X60488285Y-59887031D01*
X60488285Y-59887031D02*
X60851142Y-59887031D01*
X60851142Y-59887031D02*
X61068856Y-59959602D01*
X61576857Y-59887031D02*
X61939714Y-61411031D01*
X61939714Y-61411031D02*
X62230000Y-60322460D01*
X62230000Y-60322460D02*
X62520285Y-61411031D01*
X62520285Y-61411031D02*
X62883143Y-59887031D01*
X63391142Y-60032174D02*
X63463714Y-59959602D01*
X63463714Y-59959602D02*
X63608857Y-59887031D01*
X63608857Y-59887031D02*
X63971714Y-59887031D01*
X63971714Y-59887031D02*
X64116857Y-59959602D01*
X64116857Y-59959602D02*
X64189428Y-60032174D01*
X64189428Y-60032174D02*
X64261999Y-60177317D01*
X64261999Y-60177317D02*
X64261999Y-60322460D01*
X64261999Y-60322460D02*
X64189428Y-60540174D01*
X64189428Y-60540174D02*
X63318571Y-61411031D01*
X63318571Y-61411031D02*
X64261999Y-61411031D01*
%TO.C,SW4*%
X98297999Y-61338460D02*
X98515714Y-61411031D01*
X98515714Y-61411031D02*
X98878571Y-61411031D01*
X98878571Y-61411031D02*
X99023714Y-61338460D01*
X99023714Y-61338460D02*
X99096285Y-61265888D01*
X99096285Y-61265888D02*
X99168856Y-61120745D01*
X99168856Y-61120745D02*
X99168856Y-60975602D01*
X99168856Y-60975602D02*
X99096285Y-60830460D01*
X99096285Y-60830460D02*
X99023714Y-60757888D01*
X99023714Y-60757888D02*
X98878571Y-60685317D01*
X98878571Y-60685317D02*
X98588285Y-60612745D01*
X98588285Y-60612745D02*
X98443142Y-60540174D01*
X98443142Y-60540174D02*
X98370571Y-60467602D01*
X98370571Y-60467602D02*
X98297999Y-60322460D01*
X98297999Y-60322460D02*
X98297999Y-60177317D01*
X98297999Y-60177317D02*
X98370571Y-60032174D01*
X98370571Y-60032174D02*
X98443142Y-59959602D01*
X98443142Y-59959602D02*
X98588285Y-59887031D01*
X98588285Y-59887031D02*
X98951142Y-59887031D01*
X98951142Y-59887031D02*
X99168856Y-59959602D01*
X99676857Y-59887031D02*
X100039714Y-61411031D01*
X100039714Y-61411031D02*
X100330000Y-60322460D01*
X100330000Y-60322460D02*
X100620285Y-61411031D01*
X100620285Y-61411031D02*
X100983143Y-59887031D01*
X102216857Y-60395031D02*
X102216857Y-61411031D01*
X101853999Y-59814460D02*
X101491142Y-60903031D01*
X101491142Y-60903031D02*
X102434571Y-60903031D01*
%TO.C,SW22*%
X40422285Y-156588460D02*
X40640000Y-156661031D01*
X40640000Y-156661031D02*
X41002857Y-156661031D01*
X41002857Y-156661031D02*
X41148000Y-156588460D01*
X41148000Y-156588460D02*
X41220571Y-156515888D01*
X41220571Y-156515888D02*
X41293142Y-156370745D01*
X41293142Y-156370745D02*
X41293142Y-156225602D01*
X41293142Y-156225602D02*
X41220571Y-156080460D01*
X41220571Y-156080460D02*
X41148000Y-156007888D01*
X41148000Y-156007888D02*
X41002857Y-155935317D01*
X41002857Y-155935317D02*
X40712571Y-155862745D01*
X40712571Y-155862745D02*
X40567428Y-155790174D01*
X40567428Y-155790174D02*
X40494857Y-155717602D01*
X40494857Y-155717602D02*
X40422285Y-155572460D01*
X40422285Y-155572460D02*
X40422285Y-155427317D01*
X40422285Y-155427317D02*
X40494857Y-155282174D01*
X40494857Y-155282174D02*
X40567428Y-155209602D01*
X40567428Y-155209602D02*
X40712571Y-155137031D01*
X40712571Y-155137031D02*
X41075428Y-155137031D01*
X41075428Y-155137031D02*
X41293142Y-155209602D01*
X41801143Y-155137031D02*
X42164000Y-156661031D01*
X42164000Y-156661031D02*
X42454286Y-155572460D01*
X42454286Y-155572460D02*
X42744571Y-156661031D01*
X42744571Y-156661031D02*
X43107429Y-155137031D01*
X43615428Y-155282174D02*
X43688000Y-155209602D01*
X43688000Y-155209602D02*
X43833143Y-155137031D01*
X43833143Y-155137031D02*
X44196000Y-155137031D01*
X44196000Y-155137031D02*
X44341143Y-155209602D01*
X44341143Y-155209602D02*
X44413714Y-155282174D01*
X44413714Y-155282174D02*
X44486285Y-155427317D01*
X44486285Y-155427317D02*
X44486285Y-155572460D01*
X44486285Y-155572460D02*
X44413714Y-155790174D01*
X44413714Y-155790174D02*
X43542857Y-156661031D01*
X43542857Y-156661031D02*
X44486285Y-156661031D01*
X45066857Y-155282174D02*
X45139429Y-155209602D01*
X45139429Y-155209602D02*
X45284572Y-155137031D01*
X45284572Y-155137031D02*
X45647429Y-155137031D01*
X45647429Y-155137031D02*
X45792572Y-155209602D01*
X45792572Y-155209602D02*
X45865143Y-155282174D01*
X45865143Y-155282174D02*
X45937714Y-155427317D01*
X45937714Y-155427317D02*
X45937714Y-155572460D01*
X45937714Y-155572460D02*
X45865143Y-155790174D01*
X45865143Y-155790174D02*
X44994286Y-156661031D01*
X44994286Y-156661031D02*
X45937714Y-156661031D01*
%TO.C,SW8*%
X79247999Y-80388460D02*
X79465714Y-80461031D01*
X79465714Y-80461031D02*
X79828571Y-80461031D01*
X79828571Y-80461031D02*
X79973714Y-80388460D01*
X79973714Y-80388460D02*
X80046285Y-80315888D01*
X80046285Y-80315888D02*
X80118856Y-80170745D01*
X80118856Y-80170745D02*
X80118856Y-80025602D01*
X80118856Y-80025602D02*
X80046285Y-79880460D01*
X80046285Y-79880460D02*
X79973714Y-79807888D01*
X79973714Y-79807888D02*
X79828571Y-79735317D01*
X79828571Y-79735317D02*
X79538285Y-79662745D01*
X79538285Y-79662745D02*
X79393142Y-79590174D01*
X79393142Y-79590174D02*
X79320571Y-79517602D01*
X79320571Y-79517602D02*
X79247999Y-79372460D01*
X79247999Y-79372460D02*
X79247999Y-79227317D01*
X79247999Y-79227317D02*
X79320571Y-79082174D01*
X79320571Y-79082174D02*
X79393142Y-79009602D01*
X79393142Y-79009602D02*
X79538285Y-78937031D01*
X79538285Y-78937031D02*
X79901142Y-78937031D01*
X79901142Y-78937031D02*
X80118856Y-79009602D01*
X80626857Y-78937031D02*
X80989714Y-80461031D01*
X80989714Y-80461031D02*
X81280000Y-79372460D01*
X81280000Y-79372460D02*
X81570285Y-80461031D01*
X81570285Y-80461031D02*
X81933143Y-78937031D01*
X82731428Y-79590174D02*
X82586285Y-79517602D01*
X82586285Y-79517602D02*
X82513714Y-79445031D01*
X82513714Y-79445031D02*
X82441142Y-79299888D01*
X82441142Y-79299888D02*
X82441142Y-79227317D01*
X82441142Y-79227317D02*
X82513714Y-79082174D01*
X82513714Y-79082174D02*
X82586285Y-79009602D01*
X82586285Y-79009602D02*
X82731428Y-78937031D01*
X82731428Y-78937031D02*
X83021714Y-78937031D01*
X83021714Y-78937031D02*
X83166857Y-79009602D01*
X83166857Y-79009602D02*
X83239428Y-79082174D01*
X83239428Y-79082174D02*
X83311999Y-79227317D01*
X83311999Y-79227317D02*
X83311999Y-79299888D01*
X83311999Y-79299888D02*
X83239428Y-79445031D01*
X83239428Y-79445031D02*
X83166857Y-79517602D01*
X83166857Y-79517602D02*
X83021714Y-79590174D01*
X83021714Y-79590174D02*
X82731428Y-79590174D01*
X82731428Y-79590174D02*
X82586285Y-79662745D01*
X82586285Y-79662745D02*
X82513714Y-79735317D01*
X82513714Y-79735317D02*
X82441142Y-79880460D01*
X82441142Y-79880460D02*
X82441142Y-80170745D01*
X82441142Y-80170745D02*
X82513714Y-80315888D01*
X82513714Y-80315888D02*
X82586285Y-80388460D01*
X82586285Y-80388460D02*
X82731428Y-80461031D01*
X82731428Y-80461031D02*
X83021714Y-80461031D01*
X83021714Y-80461031D02*
X83166857Y-80388460D01*
X83166857Y-80388460D02*
X83239428Y-80315888D01*
X83239428Y-80315888D02*
X83311999Y-80170745D01*
X83311999Y-80170745D02*
X83311999Y-79880460D01*
X83311999Y-79880460D02*
X83239428Y-79735317D01*
X83239428Y-79735317D02*
X83166857Y-79662745D01*
X83166857Y-79662745D02*
X83021714Y-79590174D01*
%TO.C,SW14*%
X40422285Y-118488460D02*
X40640000Y-118561031D01*
X40640000Y-118561031D02*
X41002857Y-118561031D01*
X41002857Y-118561031D02*
X41148000Y-118488460D01*
X41148000Y-118488460D02*
X41220571Y-118415888D01*
X41220571Y-118415888D02*
X41293142Y-118270745D01*
X41293142Y-118270745D02*
X41293142Y-118125602D01*
X41293142Y-118125602D02*
X41220571Y-117980460D01*
X41220571Y-117980460D02*
X41148000Y-117907888D01*
X41148000Y-117907888D02*
X41002857Y-117835317D01*
X41002857Y-117835317D02*
X40712571Y-117762745D01*
X40712571Y-117762745D02*
X40567428Y-117690174D01*
X40567428Y-117690174D02*
X40494857Y-117617602D01*
X40494857Y-117617602D02*
X40422285Y-117472460D01*
X40422285Y-117472460D02*
X40422285Y-117327317D01*
X40422285Y-117327317D02*
X40494857Y-117182174D01*
X40494857Y-117182174D02*
X40567428Y-117109602D01*
X40567428Y-117109602D02*
X40712571Y-117037031D01*
X40712571Y-117037031D02*
X41075428Y-117037031D01*
X41075428Y-117037031D02*
X41293142Y-117109602D01*
X41801143Y-117037031D02*
X42164000Y-118561031D01*
X42164000Y-118561031D02*
X42454286Y-117472460D01*
X42454286Y-117472460D02*
X42744571Y-118561031D01*
X42744571Y-118561031D02*
X43107429Y-117037031D01*
X44486285Y-118561031D02*
X43615428Y-118561031D01*
X44050857Y-118561031D02*
X44050857Y-117037031D01*
X44050857Y-117037031D02*
X43905714Y-117254745D01*
X43905714Y-117254745D02*
X43760571Y-117399888D01*
X43760571Y-117399888D02*
X43615428Y-117472460D01*
X45792572Y-117545031D02*
X45792572Y-118561031D01*
X45429714Y-116964460D02*
X45066857Y-118053031D01*
X45066857Y-118053031D02*
X46010286Y-118053031D01*
%TO.C,SW16*%
X78522285Y-118488460D02*
X78740000Y-118561031D01*
X78740000Y-118561031D02*
X79102857Y-118561031D01*
X79102857Y-118561031D02*
X79248000Y-118488460D01*
X79248000Y-118488460D02*
X79320571Y-118415888D01*
X79320571Y-118415888D02*
X79393142Y-118270745D01*
X79393142Y-118270745D02*
X79393142Y-118125602D01*
X79393142Y-118125602D02*
X79320571Y-117980460D01*
X79320571Y-117980460D02*
X79248000Y-117907888D01*
X79248000Y-117907888D02*
X79102857Y-117835317D01*
X79102857Y-117835317D02*
X78812571Y-117762745D01*
X78812571Y-117762745D02*
X78667428Y-117690174D01*
X78667428Y-117690174D02*
X78594857Y-117617602D01*
X78594857Y-117617602D02*
X78522285Y-117472460D01*
X78522285Y-117472460D02*
X78522285Y-117327317D01*
X78522285Y-117327317D02*
X78594857Y-117182174D01*
X78594857Y-117182174D02*
X78667428Y-117109602D01*
X78667428Y-117109602D02*
X78812571Y-117037031D01*
X78812571Y-117037031D02*
X79175428Y-117037031D01*
X79175428Y-117037031D02*
X79393142Y-117109602D01*
X79901143Y-117037031D02*
X80264000Y-118561031D01*
X80264000Y-118561031D02*
X80554286Y-117472460D01*
X80554286Y-117472460D02*
X80844571Y-118561031D01*
X80844571Y-118561031D02*
X81207429Y-117037031D01*
X82586285Y-118561031D02*
X81715428Y-118561031D01*
X82150857Y-118561031D02*
X82150857Y-117037031D01*
X82150857Y-117037031D02*
X82005714Y-117254745D01*
X82005714Y-117254745D02*
X81860571Y-117399888D01*
X81860571Y-117399888D02*
X81715428Y-117472460D01*
X83892572Y-117037031D02*
X83602286Y-117037031D01*
X83602286Y-117037031D02*
X83457143Y-117109602D01*
X83457143Y-117109602D02*
X83384572Y-117182174D01*
X83384572Y-117182174D02*
X83239429Y-117399888D01*
X83239429Y-117399888D02*
X83166857Y-117690174D01*
X83166857Y-117690174D02*
X83166857Y-118270745D01*
X83166857Y-118270745D02*
X83239429Y-118415888D01*
X83239429Y-118415888D02*
X83312000Y-118488460D01*
X83312000Y-118488460D02*
X83457143Y-118561031D01*
X83457143Y-118561031D02*
X83747429Y-118561031D01*
X83747429Y-118561031D02*
X83892572Y-118488460D01*
X83892572Y-118488460D02*
X83965143Y-118415888D01*
X83965143Y-118415888D02*
X84037714Y-118270745D01*
X84037714Y-118270745D02*
X84037714Y-117907888D01*
X84037714Y-117907888D02*
X83965143Y-117762745D01*
X83965143Y-117762745D02*
X83892572Y-117690174D01*
X83892572Y-117690174D02*
X83747429Y-117617602D01*
X83747429Y-117617602D02*
X83457143Y-117617602D01*
X83457143Y-117617602D02*
X83312000Y-117690174D01*
X83312000Y-117690174D02*
X83239429Y-117762745D01*
X83239429Y-117762745D02*
X83166857Y-117907888D01*
%TO.C,SW1*%
X41147999Y-61338460D02*
X41365714Y-61411031D01*
X41365714Y-61411031D02*
X41728571Y-61411031D01*
X41728571Y-61411031D02*
X41873714Y-61338460D01*
X41873714Y-61338460D02*
X41946285Y-61265888D01*
X41946285Y-61265888D02*
X42018856Y-61120745D01*
X42018856Y-61120745D02*
X42018856Y-60975602D01*
X42018856Y-60975602D02*
X41946285Y-60830460D01*
X41946285Y-60830460D02*
X41873714Y-60757888D01*
X41873714Y-60757888D02*
X41728571Y-60685317D01*
X41728571Y-60685317D02*
X41438285Y-60612745D01*
X41438285Y-60612745D02*
X41293142Y-60540174D01*
X41293142Y-60540174D02*
X41220571Y-60467602D01*
X41220571Y-60467602D02*
X41147999Y-60322460D01*
X41147999Y-60322460D02*
X41147999Y-60177317D01*
X41147999Y-60177317D02*
X41220571Y-60032174D01*
X41220571Y-60032174D02*
X41293142Y-59959602D01*
X41293142Y-59959602D02*
X41438285Y-59887031D01*
X41438285Y-59887031D02*
X41801142Y-59887031D01*
X41801142Y-59887031D02*
X42018856Y-59959602D01*
X42526857Y-59887031D02*
X42889714Y-61411031D01*
X42889714Y-61411031D02*
X43180000Y-60322460D01*
X43180000Y-60322460D02*
X43470285Y-61411031D01*
X43470285Y-61411031D02*
X43833143Y-59887031D01*
X45211999Y-61411031D02*
X44341142Y-61411031D01*
X44776571Y-61411031D02*
X44776571Y-59887031D01*
X44776571Y-59887031D02*
X44631428Y-60104745D01*
X44631428Y-60104745D02*
X44486285Y-60249888D01*
X44486285Y-60249888D02*
X44341142Y-60322460D01*
%TO.C,SW18*%
X40422285Y-137538460D02*
X40640000Y-137611031D01*
X40640000Y-137611031D02*
X41002857Y-137611031D01*
X41002857Y-137611031D02*
X41148000Y-137538460D01*
X41148000Y-137538460D02*
X41220571Y-137465888D01*
X41220571Y-137465888D02*
X41293142Y-137320745D01*
X41293142Y-137320745D02*
X41293142Y-137175602D01*
X41293142Y-137175602D02*
X41220571Y-137030460D01*
X41220571Y-137030460D02*
X41148000Y-136957888D01*
X41148000Y-136957888D02*
X41002857Y-136885317D01*
X41002857Y-136885317D02*
X40712571Y-136812745D01*
X40712571Y-136812745D02*
X40567428Y-136740174D01*
X40567428Y-136740174D02*
X40494857Y-136667602D01*
X40494857Y-136667602D02*
X40422285Y-136522460D01*
X40422285Y-136522460D02*
X40422285Y-136377317D01*
X40422285Y-136377317D02*
X40494857Y-136232174D01*
X40494857Y-136232174D02*
X40567428Y-136159602D01*
X40567428Y-136159602D02*
X40712571Y-136087031D01*
X40712571Y-136087031D02*
X41075428Y-136087031D01*
X41075428Y-136087031D02*
X41293142Y-136159602D01*
X41801143Y-136087031D02*
X42164000Y-137611031D01*
X42164000Y-137611031D02*
X42454286Y-136522460D01*
X42454286Y-136522460D02*
X42744571Y-137611031D01*
X42744571Y-137611031D02*
X43107429Y-136087031D01*
X44486285Y-137611031D02*
X43615428Y-137611031D01*
X44050857Y-137611031D02*
X44050857Y-136087031D01*
X44050857Y-136087031D02*
X43905714Y-136304745D01*
X43905714Y-136304745D02*
X43760571Y-136449888D01*
X43760571Y-136449888D02*
X43615428Y-136522460D01*
X45357143Y-136740174D02*
X45212000Y-136667602D01*
X45212000Y-136667602D02*
X45139429Y-136595031D01*
X45139429Y-136595031D02*
X45066857Y-136449888D01*
X45066857Y-136449888D02*
X45066857Y-136377317D01*
X45066857Y-136377317D02*
X45139429Y-136232174D01*
X45139429Y-136232174D02*
X45212000Y-136159602D01*
X45212000Y-136159602D02*
X45357143Y-136087031D01*
X45357143Y-136087031D02*
X45647429Y-136087031D01*
X45647429Y-136087031D02*
X45792572Y-136159602D01*
X45792572Y-136159602D02*
X45865143Y-136232174D01*
X45865143Y-136232174D02*
X45937714Y-136377317D01*
X45937714Y-136377317D02*
X45937714Y-136449888D01*
X45937714Y-136449888D02*
X45865143Y-136595031D01*
X45865143Y-136595031D02*
X45792572Y-136667602D01*
X45792572Y-136667602D02*
X45647429Y-136740174D01*
X45647429Y-136740174D02*
X45357143Y-136740174D01*
X45357143Y-136740174D02*
X45212000Y-136812745D01*
X45212000Y-136812745D02*
X45139429Y-136885317D01*
X45139429Y-136885317D02*
X45066857Y-137030460D01*
X45066857Y-137030460D02*
X45066857Y-137320745D01*
X45066857Y-137320745D02*
X45139429Y-137465888D01*
X45139429Y-137465888D02*
X45212000Y-137538460D01*
X45212000Y-137538460D02*
X45357143Y-137611031D01*
X45357143Y-137611031D02*
X45647429Y-137611031D01*
X45647429Y-137611031D02*
X45792572Y-137538460D01*
X45792572Y-137538460D02*
X45865143Y-137465888D01*
X45865143Y-137465888D02*
X45937714Y-137320745D01*
X45937714Y-137320745D02*
X45937714Y-137030460D01*
X45937714Y-137030460D02*
X45865143Y-136885317D01*
X45865143Y-136885317D02*
X45792572Y-136812745D01*
X45792572Y-136812745D02*
X45647429Y-136740174D01*
%TO.C,SW25*%
X97572285Y-156588460D02*
X97790000Y-156661031D01*
X97790000Y-156661031D02*
X98152857Y-156661031D01*
X98152857Y-156661031D02*
X98298000Y-156588460D01*
X98298000Y-156588460D02*
X98370571Y-156515888D01*
X98370571Y-156515888D02*
X98443142Y-156370745D01*
X98443142Y-156370745D02*
X98443142Y-156225602D01*
X98443142Y-156225602D02*
X98370571Y-156080460D01*
X98370571Y-156080460D02*
X98298000Y-156007888D01*
X98298000Y-156007888D02*
X98152857Y-155935317D01*
X98152857Y-155935317D02*
X97862571Y-155862745D01*
X97862571Y-155862745D02*
X97717428Y-155790174D01*
X97717428Y-155790174D02*
X97644857Y-155717602D01*
X97644857Y-155717602D02*
X97572285Y-155572460D01*
X97572285Y-155572460D02*
X97572285Y-155427317D01*
X97572285Y-155427317D02*
X97644857Y-155282174D01*
X97644857Y-155282174D02*
X97717428Y-155209602D01*
X97717428Y-155209602D02*
X97862571Y-155137031D01*
X97862571Y-155137031D02*
X98225428Y-155137031D01*
X98225428Y-155137031D02*
X98443142Y-155209602D01*
X98951143Y-155137031D02*
X99314000Y-156661031D01*
X99314000Y-156661031D02*
X99604286Y-155572460D01*
X99604286Y-155572460D02*
X99894571Y-156661031D01*
X99894571Y-156661031D02*
X100257429Y-155137031D01*
X100765428Y-155282174D02*
X100838000Y-155209602D01*
X100838000Y-155209602D02*
X100983143Y-155137031D01*
X100983143Y-155137031D02*
X101346000Y-155137031D01*
X101346000Y-155137031D02*
X101491143Y-155209602D01*
X101491143Y-155209602D02*
X101563714Y-155282174D01*
X101563714Y-155282174D02*
X101636285Y-155427317D01*
X101636285Y-155427317D02*
X101636285Y-155572460D01*
X101636285Y-155572460D02*
X101563714Y-155790174D01*
X101563714Y-155790174D02*
X100692857Y-156661031D01*
X100692857Y-156661031D02*
X101636285Y-156661031D01*
X103015143Y-155137031D02*
X102289429Y-155137031D01*
X102289429Y-155137031D02*
X102216857Y-155862745D01*
X102216857Y-155862745D02*
X102289429Y-155790174D01*
X102289429Y-155790174D02*
X102434572Y-155717602D01*
X102434572Y-155717602D02*
X102797429Y-155717602D01*
X102797429Y-155717602D02*
X102942572Y-155790174D01*
X102942572Y-155790174D02*
X103015143Y-155862745D01*
X103015143Y-155862745D02*
X103087714Y-156007888D01*
X103087714Y-156007888D02*
X103087714Y-156370745D01*
X103087714Y-156370745D02*
X103015143Y-156515888D01*
X103015143Y-156515888D02*
X102942572Y-156588460D01*
X102942572Y-156588460D02*
X102797429Y-156661031D01*
X102797429Y-156661031D02*
X102434572Y-156661031D01*
X102434572Y-156661031D02*
X102289429Y-156588460D01*
X102289429Y-156588460D02*
X102216857Y-156515888D01*
%TO.C,U2*%
X84690857Y-30677031D02*
X84690857Y-31910745D01*
X84690857Y-31910745D02*
X84763428Y-32055888D01*
X84763428Y-32055888D02*
X84836000Y-32128460D01*
X84836000Y-32128460D02*
X84981142Y-32201031D01*
X84981142Y-32201031D02*
X85271428Y-32201031D01*
X85271428Y-32201031D02*
X85416571Y-32128460D01*
X85416571Y-32128460D02*
X85489142Y-32055888D01*
X85489142Y-32055888D02*
X85561714Y-31910745D01*
X85561714Y-31910745D02*
X85561714Y-30677031D01*
X86214856Y-30822174D02*
X86287428Y-30749602D01*
X86287428Y-30749602D02*
X86432571Y-30677031D01*
X86432571Y-30677031D02*
X86795428Y-30677031D01*
X86795428Y-30677031D02*
X86940571Y-30749602D01*
X86940571Y-30749602D02*
X87013142Y-30822174D01*
X87013142Y-30822174D02*
X87085713Y-30967317D01*
X87085713Y-30967317D02*
X87085713Y-31112460D01*
X87085713Y-31112460D02*
X87013142Y-31330174D01*
X87013142Y-31330174D02*
X86142285Y-32201031D01*
X86142285Y-32201031D02*
X87085713Y-32201031D01*
%TO.C,SW23*%
X59472285Y-156588460D02*
X59690000Y-156661031D01*
X59690000Y-156661031D02*
X60052857Y-156661031D01*
X60052857Y-156661031D02*
X60198000Y-156588460D01*
X60198000Y-156588460D02*
X60270571Y-156515888D01*
X60270571Y-156515888D02*
X60343142Y-156370745D01*
X60343142Y-156370745D02*
X60343142Y-156225602D01*
X60343142Y-156225602D02*
X60270571Y-156080460D01*
X60270571Y-156080460D02*
X60198000Y-156007888D01*
X60198000Y-156007888D02*
X60052857Y-155935317D01*
X60052857Y-155935317D02*
X59762571Y-155862745D01*
X59762571Y-155862745D02*
X59617428Y-155790174D01*
X59617428Y-155790174D02*
X59544857Y-155717602D01*
X59544857Y-155717602D02*
X59472285Y-155572460D01*
X59472285Y-155572460D02*
X59472285Y-155427317D01*
X59472285Y-155427317D02*
X59544857Y-155282174D01*
X59544857Y-155282174D02*
X59617428Y-155209602D01*
X59617428Y-155209602D02*
X59762571Y-155137031D01*
X59762571Y-155137031D02*
X60125428Y-155137031D01*
X60125428Y-155137031D02*
X60343142Y-155209602D01*
X60851143Y-155137031D02*
X61214000Y-156661031D01*
X61214000Y-156661031D02*
X61504286Y-155572460D01*
X61504286Y-155572460D02*
X61794571Y-156661031D01*
X61794571Y-156661031D02*
X62157429Y-155137031D01*
X62665428Y-155282174D02*
X62738000Y-155209602D01*
X62738000Y-155209602D02*
X62883143Y-155137031D01*
X62883143Y-155137031D02*
X63246000Y-155137031D01*
X63246000Y-155137031D02*
X63391143Y-155209602D01*
X63391143Y-155209602D02*
X63463714Y-155282174D01*
X63463714Y-155282174D02*
X63536285Y-155427317D01*
X63536285Y-155427317D02*
X63536285Y-155572460D01*
X63536285Y-155572460D02*
X63463714Y-155790174D01*
X63463714Y-155790174D02*
X62592857Y-156661031D01*
X62592857Y-156661031D02*
X63536285Y-156661031D01*
X64044286Y-155137031D02*
X64987714Y-155137031D01*
X64987714Y-155137031D02*
X64479714Y-155717602D01*
X64479714Y-155717602D02*
X64697429Y-155717602D01*
X64697429Y-155717602D02*
X64842572Y-155790174D01*
X64842572Y-155790174D02*
X64915143Y-155862745D01*
X64915143Y-155862745D02*
X64987714Y-156007888D01*
X64987714Y-156007888D02*
X64987714Y-156370745D01*
X64987714Y-156370745D02*
X64915143Y-156515888D01*
X64915143Y-156515888D02*
X64842572Y-156588460D01*
X64842572Y-156588460D02*
X64697429Y-156661031D01*
X64697429Y-156661031D02*
X64262000Y-156661031D01*
X64262000Y-156661031D02*
X64116857Y-156588460D01*
X64116857Y-156588460D02*
X64044286Y-156515888D01*
%TO.C,SW11*%
X59472285Y-99438460D02*
X59690000Y-99511031D01*
X59690000Y-99511031D02*
X60052857Y-99511031D01*
X60052857Y-99511031D02*
X60198000Y-99438460D01*
X60198000Y-99438460D02*
X60270571Y-99365888D01*
X60270571Y-99365888D02*
X60343142Y-99220745D01*
X60343142Y-99220745D02*
X60343142Y-99075602D01*
X60343142Y-99075602D02*
X60270571Y-98930460D01*
X60270571Y-98930460D02*
X60198000Y-98857888D01*
X60198000Y-98857888D02*
X60052857Y-98785317D01*
X60052857Y-98785317D02*
X59762571Y-98712745D01*
X59762571Y-98712745D02*
X59617428Y-98640174D01*
X59617428Y-98640174D02*
X59544857Y-98567602D01*
X59544857Y-98567602D02*
X59472285Y-98422460D01*
X59472285Y-98422460D02*
X59472285Y-98277317D01*
X59472285Y-98277317D02*
X59544857Y-98132174D01*
X59544857Y-98132174D02*
X59617428Y-98059602D01*
X59617428Y-98059602D02*
X59762571Y-97987031D01*
X59762571Y-97987031D02*
X60125428Y-97987031D01*
X60125428Y-97987031D02*
X60343142Y-98059602D01*
X60851143Y-97987031D02*
X61214000Y-99511031D01*
X61214000Y-99511031D02*
X61504286Y-98422460D01*
X61504286Y-98422460D02*
X61794571Y-99511031D01*
X61794571Y-99511031D02*
X62157429Y-97987031D01*
X63536285Y-99511031D02*
X62665428Y-99511031D01*
X63100857Y-99511031D02*
X63100857Y-97987031D01*
X63100857Y-97987031D02*
X62955714Y-98204745D01*
X62955714Y-98204745D02*
X62810571Y-98349888D01*
X62810571Y-98349888D02*
X62665428Y-98422460D01*
X64987714Y-99511031D02*
X64116857Y-99511031D01*
X64552286Y-99511031D02*
X64552286Y-97987031D01*
X64552286Y-97987031D02*
X64407143Y-98204745D01*
X64407143Y-98204745D02*
X64262000Y-98349888D01*
X64262000Y-98349888D02*
X64116857Y-98422460D01*
%TO.C,U3*%
X79864857Y-20898031D02*
X79864857Y-22131745D01*
X79864857Y-22131745D02*
X79937428Y-22276888D01*
X79937428Y-22276888D02*
X80010000Y-22349460D01*
X80010000Y-22349460D02*
X80155142Y-22422031D01*
X80155142Y-22422031D02*
X80445428Y-22422031D01*
X80445428Y-22422031D02*
X80590571Y-22349460D01*
X80590571Y-22349460D02*
X80663142Y-22276888D01*
X80663142Y-22276888D02*
X80735714Y-22131745D01*
X80735714Y-22131745D02*
X80735714Y-20898031D01*
X81316285Y-20898031D02*
X82259713Y-20898031D01*
X82259713Y-20898031D02*
X81751713Y-21478602D01*
X81751713Y-21478602D02*
X81969428Y-21478602D01*
X81969428Y-21478602D02*
X82114571Y-21551174D01*
X82114571Y-21551174D02*
X82187142Y-21623745D01*
X82187142Y-21623745D02*
X82259713Y-21768888D01*
X82259713Y-21768888D02*
X82259713Y-22131745D01*
X82259713Y-22131745D02*
X82187142Y-22276888D01*
X82187142Y-22276888D02*
X82114571Y-22349460D01*
X82114571Y-22349460D02*
X81969428Y-22422031D01*
X81969428Y-22422031D02*
X81533999Y-22422031D01*
X81533999Y-22422031D02*
X81388856Y-22349460D01*
X81388856Y-22349460D02*
X81316285Y-22276888D01*
%TO.C,SW19*%
X59472285Y-137538460D02*
X59690000Y-137611031D01*
X59690000Y-137611031D02*
X60052857Y-137611031D01*
X60052857Y-137611031D02*
X60198000Y-137538460D01*
X60198000Y-137538460D02*
X60270571Y-137465888D01*
X60270571Y-137465888D02*
X60343142Y-137320745D01*
X60343142Y-137320745D02*
X60343142Y-137175602D01*
X60343142Y-137175602D02*
X60270571Y-137030460D01*
X60270571Y-137030460D02*
X60198000Y-136957888D01*
X60198000Y-136957888D02*
X60052857Y-136885317D01*
X60052857Y-136885317D02*
X59762571Y-136812745D01*
X59762571Y-136812745D02*
X59617428Y-136740174D01*
X59617428Y-136740174D02*
X59544857Y-136667602D01*
X59544857Y-136667602D02*
X59472285Y-136522460D01*
X59472285Y-136522460D02*
X59472285Y-136377317D01*
X59472285Y-136377317D02*
X59544857Y-136232174D01*
X59544857Y-136232174D02*
X59617428Y-136159602D01*
X59617428Y-136159602D02*
X59762571Y-136087031D01*
X59762571Y-136087031D02*
X60125428Y-136087031D01*
X60125428Y-136087031D02*
X60343142Y-136159602D01*
X60851143Y-136087031D02*
X61214000Y-137611031D01*
X61214000Y-137611031D02*
X61504286Y-136522460D01*
X61504286Y-136522460D02*
X61794571Y-137611031D01*
X61794571Y-137611031D02*
X62157429Y-136087031D01*
X63536285Y-137611031D02*
X62665428Y-137611031D01*
X63100857Y-137611031D02*
X63100857Y-136087031D01*
X63100857Y-136087031D02*
X62955714Y-136304745D01*
X62955714Y-136304745D02*
X62810571Y-136449888D01*
X62810571Y-136449888D02*
X62665428Y-136522460D01*
X64262000Y-137611031D02*
X64552286Y-137611031D01*
X64552286Y-137611031D02*
X64697429Y-137538460D01*
X64697429Y-137538460D02*
X64770000Y-137465888D01*
X64770000Y-137465888D02*
X64915143Y-137248174D01*
X64915143Y-137248174D02*
X64987714Y-136957888D01*
X64987714Y-136957888D02*
X64987714Y-136377317D01*
X64987714Y-136377317D02*
X64915143Y-136232174D01*
X64915143Y-136232174D02*
X64842572Y-136159602D01*
X64842572Y-136159602D02*
X64697429Y-136087031D01*
X64697429Y-136087031D02*
X64407143Y-136087031D01*
X64407143Y-136087031D02*
X64262000Y-136159602D01*
X64262000Y-136159602D02*
X64189429Y-136232174D01*
X64189429Y-136232174D02*
X64116857Y-136377317D01*
X64116857Y-136377317D02*
X64116857Y-136740174D01*
X64116857Y-136740174D02*
X64189429Y-136885317D01*
X64189429Y-136885317D02*
X64262000Y-136957888D01*
X64262000Y-136957888D02*
X64407143Y-137030460D01*
X64407143Y-137030460D02*
X64697429Y-137030460D01*
X64697429Y-137030460D02*
X64842572Y-136957888D01*
X64842572Y-136957888D02*
X64915143Y-136885317D01*
X64915143Y-136885317D02*
X64987714Y-136740174D01*
%TO.C,SW6*%
X41147999Y-80388460D02*
X41365714Y-80461031D01*
X41365714Y-80461031D02*
X41728571Y-80461031D01*
X41728571Y-80461031D02*
X41873714Y-80388460D01*
X41873714Y-80388460D02*
X41946285Y-80315888D01*
X41946285Y-80315888D02*
X42018856Y-80170745D01*
X42018856Y-80170745D02*
X42018856Y-80025602D01*
X42018856Y-80025602D02*
X41946285Y-79880460D01*
X41946285Y-79880460D02*
X41873714Y-79807888D01*
X41873714Y-79807888D02*
X41728571Y-79735317D01*
X41728571Y-79735317D02*
X41438285Y-79662745D01*
X41438285Y-79662745D02*
X41293142Y-79590174D01*
X41293142Y-79590174D02*
X41220571Y-79517602D01*
X41220571Y-79517602D02*
X41147999Y-79372460D01*
X41147999Y-79372460D02*
X41147999Y-79227317D01*
X41147999Y-79227317D02*
X41220571Y-79082174D01*
X41220571Y-79082174D02*
X41293142Y-79009602D01*
X41293142Y-79009602D02*
X41438285Y-78937031D01*
X41438285Y-78937031D02*
X41801142Y-78937031D01*
X41801142Y-78937031D02*
X42018856Y-79009602D01*
X42526857Y-78937031D02*
X42889714Y-80461031D01*
X42889714Y-80461031D02*
X43180000Y-79372460D01*
X43180000Y-79372460D02*
X43470285Y-80461031D01*
X43470285Y-80461031D02*
X43833143Y-78937031D01*
X45066857Y-78937031D02*
X44776571Y-78937031D01*
X44776571Y-78937031D02*
X44631428Y-79009602D01*
X44631428Y-79009602D02*
X44558857Y-79082174D01*
X44558857Y-79082174D02*
X44413714Y-79299888D01*
X44413714Y-79299888D02*
X44341142Y-79590174D01*
X44341142Y-79590174D02*
X44341142Y-80170745D01*
X44341142Y-80170745D02*
X44413714Y-80315888D01*
X44413714Y-80315888D02*
X44486285Y-80388460D01*
X44486285Y-80388460D02*
X44631428Y-80461031D01*
X44631428Y-80461031D02*
X44921714Y-80461031D01*
X44921714Y-80461031D02*
X45066857Y-80388460D01*
X45066857Y-80388460D02*
X45139428Y-80315888D01*
X45139428Y-80315888D02*
X45211999Y-80170745D01*
X45211999Y-80170745D02*
X45211999Y-79807888D01*
X45211999Y-79807888D02*
X45139428Y-79662745D01*
X45139428Y-79662745D02*
X45066857Y-79590174D01*
X45066857Y-79590174D02*
X44921714Y-79517602D01*
X44921714Y-79517602D02*
X44631428Y-79517602D01*
X44631428Y-79517602D02*
X44486285Y-79590174D01*
X44486285Y-79590174D02*
X44413714Y-79662745D01*
X44413714Y-79662745D02*
X44341142Y-79807888D01*
%TO.C,D1*%
X33165143Y-58617031D02*
X33165143Y-57093031D01*
X33165143Y-57093031D02*
X33528000Y-57093031D01*
X33528000Y-57093031D02*
X33745714Y-57165602D01*
X33745714Y-57165602D02*
X33890857Y-57310745D01*
X33890857Y-57310745D02*
X33963428Y-57455888D01*
X33963428Y-57455888D02*
X34036000Y-57746174D01*
X34036000Y-57746174D02*
X34036000Y-57963888D01*
X34036000Y-57963888D02*
X33963428Y-58254174D01*
X33963428Y-58254174D02*
X33890857Y-58399317D01*
X33890857Y-58399317D02*
X33745714Y-58544460D01*
X33745714Y-58544460D02*
X33528000Y-58617031D01*
X33528000Y-58617031D02*
X33165143Y-58617031D01*
X35487428Y-58617031D02*
X34616571Y-58617031D01*
X35052000Y-58617031D02*
X35052000Y-57093031D01*
X35052000Y-57093031D02*
X34906857Y-57310745D01*
X34906857Y-57310745D02*
X34761714Y-57455888D01*
X34761714Y-57455888D02*
X34616571Y-57528460D01*
%TO.C,SW3*%
X79247999Y-61338460D02*
X79465714Y-61411031D01*
X79465714Y-61411031D02*
X79828571Y-61411031D01*
X79828571Y-61411031D02*
X79973714Y-61338460D01*
X79973714Y-61338460D02*
X80046285Y-61265888D01*
X80046285Y-61265888D02*
X80118856Y-61120745D01*
X80118856Y-61120745D02*
X80118856Y-60975602D01*
X80118856Y-60975602D02*
X80046285Y-60830460D01*
X80046285Y-60830460D02*
X79973714Y-60757888D01*
X79973714Y-60757888D02*
X79828571Y-60685317D01*
X79828571Y-60685317D02*
X79538285Y-60612745D01*
X79538285Y-60612745D02*
X79393142Y-60540174D01*
X79393142Y-60540174D02*
X79320571Y-60467602D01*
X79320571Y-60467602D02*
X79247999Y-60322460D01*
X79247999Y-60322460D02*
X79247999Y-60177317D01*
X79247999Y-60177317D02*
X79320571Y-60032174D01*
X79320571Y-60032174D02*
X79393142Y-59959602D01*
X79393142Y-59959602D02*
X79538285Y-59887031D01*
X79538285Y-59887031D02*
X79901142Y-59887031D01*
X79901142Y-59887031D02*
X80118856Y-59959602D01*
X80626857Y-59887031D02*
X80989714Y-61411031D01*
X80989714Y-61411031D02*
X81280000Y-60322460D01*
X81280000Y-60322460D02*
X81570285Y-61411031D01*
X81570285Y-61411031D02*
X81933143Y-59887031D01*
X82368571Y-59887031D02*
X83311999Y-59887031D01*
X83311999Y-59887031D02*
X82803999Y-60467602D01*
X82803999Y-60467602D02*
X83021714Y-60467602D01*
X83021714Y-60467602D02*
X83166857Y-60540174D01*
X83166857Y-60540174D02*
X83239428Y-60612745D01*
X83239428Y-60612745D02*
X83311999Y-60757888D01*
X83311999Y-60757888D02*
X83311999Y-61120745D01*
X83311999Y-61120745D02*
X83239428Y-61265888D01*
X83239428Y-61265888D02*
X83166857Y-61338460D01*
X83166857Y-61338460D02*
X83021714Y-61411031D01*
X83021714Y-61411031D02*
X82586285Y-61411031D01*
X82586285Y-61411031D02*
X82441142Y-61338460D01*
X82441142Y-61338460D02*
X82368571Y-61265888D01*
%TO.C,R1*%
X48387000Y-56458031D02*
X47879000Y-55732317D01*
X47516143Y-56458031D02*
X47516143Y-54934031D01*
X47516143Y-54934031D02*
X48096714Y-54934031D01*
X48096714Y-54934031D02*
X48241857Y-55006602D01*
X48241857Y-55006602D02*
X48314428Y-55079174D01*
X48314428Y-55079174D02*
X48387000Y-55224317D01*
X48387000Y-55224317D02*
X48387000Y-55442031D01*
X48387000Y-55442031D02*
X48314428Y-55587174D01*
X48314428Y-55587174D02*
X48241857Y-55659745D01*
X48241857Y-55659745D02*
X48096714Y-55732317D01*
X48096714Y-55732317D02*
X47516143Y-55732317D01*
X49838428Y-56458031D02*
X48967571Y-56458031D01*
X49403000Y-56458031D02*
X49403000Y-54934031D01*
X49403000Y-54934031D02*
X49257857Y-55151745D01*
X49257857Y-55151745D02*
X49112714Y-55296888D01*
X49112714Y-55296888D02*
X48967571Y-55369460D01*
%TO.C,D11*%
X103559428Y-55442031D02*
X103559428Y-53918031D01*
X103559428Y-53918031D02*
X103922285Y-53918031D01*
X103922285Y-53918031D02*
X104139999Y-53990602D01*
X104139999Y-53990602D02*
X104285142Y-54135745D01*
X104285142Y-54135745D02*
X104357713Y-54280888D01*
X104357713Y-54280888D02*
X104430285Y-54571174D01*
X104430285Y-54571174D02*
X104430285Y-54788888D01*
X104430285Y-54788888D02*
X104357713Y-55079174D01*
X104357713Y-55079174D02*
X104285142Y-55224317D01*
X104285142Y-55224317D02*
X104139999Y-55369460D01*
X104139999Y-55369460D02*
X103922285Y-55442031D01*
X103922285Y-55442031D02*
X103559428Y-55442031D01*
X105881713Y-55442031D02*
X105010856Y-55442031D01*
X105446285Y-55442031D02*
X105446285Y-53918031D01*
X105446285Y-53918031D02*
X105301142Y-54135745D01*
X105301142Y-54135745D02*
X105155999Y-54280888D01*
X105155999Y-54280888D02*
X105010856Y-54353460D01*
X107333142Y-55442031D02*
X106462285Y-55442031D01*
X106897714Y-55442031D02*
X106897714Y-53918031D01*
X106897714Y-53918031D02*
X106752571Y-54135745D01*
X106752571Y-54135745D02*
X106607428Y-54280888D01*
X106607428Y-54280888D02*
X106462285Y-54353460D01*
%TO.C,SW26*%
X40422285Y-175638460D02*
X40640000Y-175711031D01*
X40640000Y-175711031D02*
X41002857Y-175711031D01*
X41002857Y-175711031D02*
X41148000Y-175638460D01*
X41148000Y-175638460D02*
X41220571Y-175565888D01*
X41220571Y-175565888D02*
X41293142Y-175420745D01*
X41293142Y-175420745D02*
X41293142Y-175275602D01*
X41293142Y-175275602D02*
X41220571Y-175130460D01*
X41220571Y-175130460D02*
X41148000Y-175057888D01*
X41148000Y-175057888D02*
X41002857Y-174985317D01*
X41002857Y-174985317D02*
X40712571Y-174912745D01*
X40712571Y-174912745D02*
X40567428Y-174840174D01*
X40567428Y-174840174D02*
X40494857Y-174767602D01*
X40494857Y-174767602D02*
X40422285Y-174622460D01*
X40422285Y-174622460D02*
X40422285Y-174477317D01*
X40422285Y-174477317D02*
X40494857Y-174332174D01*
X40494857Y-174332174D02*
X40567428Y-174259602D01*
X40567428Y-174259602D02*
X40712571Y-174187031D01*
X40712571Y-174187031D02*
X41075428Y-174187031D01*
X41075428Y-174187031D02*
X41293142Y-174259602D01*
X41801143Y-174187031D02*
X42164000Y-175711031D01*
X42164000Y-175711031D02*
X42454286Y-174622460D01*
X42454286Y-174622460D02*
X42744571Y-175711031D01*
X42744571Y-175711031D02*
X43107429Y-174187031D01*
X43615428Y-174332174D02*
X43688000Y-174259602D01*
X43688000Y-174259602D02*
X43833143Y-174187031D01*
X43833143Y-174187031D02*
X44196000Y-174187031D01*
X44196000Y-174187031D02*
X44341143Y-174259602D01*
X44341143Y-174259602D02*
X44413714Y-174332174D01*
X44413714Y-174332174D02*
X44486285Y-174477317D01*
X44486285Y-174477317D02*
X44486285Y-174622460D01*
X44486285Y-174622460D02*
X44413714Y-174840174D01*
X44413714Y-174840174D02*
X43542857Y-175711031D01*
X43542857Y-175711031D02*
X44486285Y-175711031D01*
X45792572Y-174187031D02*
X45502286Y-174187031D01*
X45502286Y-174187031D02*
X45357143Y-174259602D01*
X45357143Y-174259602D02*
X45284572Y-174332174D01*
X45284572Y-174332174D02*
X45139429Y-174549888D01*
X45139429Y-174549888D02*
X45066857Y-174840174D01*
X45066857Y-174840174D02*
X45066857Y-175420745D01*
X45066857Y-175420745D02*
X45139429Y-175565888D01*
X45139429Y-175565888D02*
X45212000Y-175638460D01*
X45212000Y-175638460D02*
X45357143Y-175711031D01*
X45357143Y-175711031D02*
X45647429Y-175711031D01*
X45647429Y-175711031D02*
X45792572Y-175638460D01*
X45792572Y-175638460D02*
X45865143Y-175565888D01*
X45865143Y-175565888D02*
X45937714Y-175420745D01*
X45937714Y-175420745D02*
X45937714Y-175057888D01*
X45937714Y-175057888D02*
X45865143Y-174912745D01*
X45865143Y-174912745D02*
X45792572Y-174840174D01*
X45792572Y-174840174D02*
X45647429Y-174767602D01*
X45647429Y-174767602D02*
X45357143Y-174767602D01*
X45357143Y-174767602D02*
X45212000Y-174840174D01*
X45212000Y-174840174D02*
X45139429Y-174912745D01*
X45139429Y-174912745D02*
X45066857Y-175057888D01*
%TO.C,SW13*%
X97572285Y-99438460D02*
X97790000Y-99511031D01*
X97790000Y-99511031D02*
X98152857Y-99511031D01*
X98152857Y-99511031D02*
X98298000Y-99438460D01*
X98298000Y-99438460D02*
X98370571Y-99365888D01*
X98370571Y-99365888D02*
X98443142Y-99220745D01*
X98443142Y-99220745D02*
X98443142Y-99075602D01*
X98443142Y-99075602D02*
X98370571Y-98930460D01*
X98370571Y-98930460D02*
X98298000Y-98857888D01*
X98298000Y-98857888D02*
X98152857Y-98785317D01*
X98152857Y-98785317D02*
X97862571Y-98712745D01*
X97862571Y-98712745D02*
X97717428Y-98640174D01*
X97717428Y-98640174D02*
X97644857Y-98567602D01*
X97644857Y-98567602D02*
X97572285Y-98422460D01*
X97572285Y-98422460D02*
X97572285Y-98277317D01*
X97572285Y-98277317D02*
X97644857Y-98132174D01*
X97644857Y-98132174D02*
X97717428Y-98059602D01*
X97717428Y-98059602D02*
X97862571Y-97987031D01*
X97862571Y-97987031D02*
X98225428Y-97987031D01*
X98225428Y-97987031D02*
X98443142Y-98059602D01*
X98951143Y-97987031D02*
X99314000Y-99511031D01*
X99314000Y-99511031D02*
X99604286Y-98422460D01*
X99604286Y-98422460D02*
X99894571Y-99511031D01*
X99894571Y-99511031D02*
X100257429Y-97987031D01*
X101636285Y-99511031D02*
X100765428Y-99511031D01*
X101200857Y-99511031D02*
X101200857Y-97987031D01*
X101200857Y-97987031D02*
X101055714Y-98204745D01*
X101055714Y-98204745D02*
X100910571Y-98349888D01*
X100910571Y-98349888D02*
X100765428Y-98422460D01*
X102144286Y-97987031D02*
X103087714Y-97987031D01*
X103087714Y-97987031D02*
X102579714Y-98567602D01*
X102579714Y-98567602D02*
X102797429Y-98567602D01*
X102797429Y-98567602D02*
X102942572Y-98640174D01*
X102942572Y-98640174D02*
X103015143Y-98712745D01*
X103015143Y-98712745D02*
X103087714Y-98857888D01*
X103087714Y-98857888D02*
X103087714Y-99220745D01*
X103087714Y-99220745D02*
X103015143Y-99365888D01*
X103015143Y-99365888D02*
X102942572Y-99438460D01*
X102942572Y-99438460D02*
X102797429Y-99511031D01*
X102797429Y-99511031D02*
X102362000Y-99511031D01*
X102362000Y-99511031D02*
X102216857Y-99438460D01*
X102216857Y-99438460D02*
X102144286Y-99365888D01*
%TO.C,SW17*%
X97572285Y-118488460D02*
X97790000Y-118561031D01*
X97790000Y-118561031D02*
X98152857Y-118561031D01*
X98152857Y-118561031D02*
X98298000Y-118488460D01*
X98298000Y-118488460D02*
X98370571Y-118415888D01*
X98370571Y-118415888D02*
X98443142Y-118270745D01*
X98443142Y-118270745D02*
X98443142Y-118125602D01*
X98443142Y-118125602D02*
X98370571Y-117980460D01*
X98370571Y-117980460D02*
X98298000Y-117907888D01*
X98298000Y-117907888D02*
X98152857Y-117835317D01*
X98152857Y-117835317D02*
X97862571Y-117762745D01*
X97862571Y-117762745D02*
X97717428Y-117690174D01*
X97717428Y-117690174D02*
X97644857Y-117617602D01*
X97644857Y-117617602D02*
X97572285Y-117472460D01*
X97572285Y-117472460D02*
X97572285Y-117327317D01*
X97572285Y-117327317D02*
X97644857Y-117182174D01*
X97644857Y-117182174D02*
X97717428Y-117109602D01*
X97717428Y-117109602D02*
X97862571Y-117037031D01*
X97862571Y-117037031D02*
X98225428Y-117037031D01*
X98225428Y-117037031D02*
X98443142Y-117109602D01*
X98951143Y-117037031D02*
X99314000Y-118561031D01*
X99314000Y-118561031D02*
X99604286Y-117472460D01*
X99604286Y-117472460D02*
X99894571Y-118561031D01*
X99894571Y-118561031D02*
X100257429Y-117037031D01*
X101636285Y-118561031D02*
X100765428Y-118561031D01*
X101200857Y-118561031D02*
X101200857Y-117037031D01*
X101200857Y-117037031D02*
X101055714Y-117254745D01*
X101055714Y-117254745D02*
X100910571Y-117399888D01*
X100910571Y-117399888D02*
X100765428Y-117472460D01*
X102144286Y-117037031D02*
X103160286Y-117037031D01*
X103160286Y-117037031D02*
X102507143Y-118561031D01*
%TO.C,SW20*%
X78522285Y-137538460D02*
X78740000Y-137611031D01*
X78740000Y-137611031D02*
X79102857Y-137611031D01*
X79102857Y-137611031D02*
X79248000Y-137538460D01*
X79248000Y-137538460D02*
X79320571Y-137465888D01*
X79320571Y-137465888D02*
X79393142Y-137320745D01*
X79393142Y-137320745D02*
X79393142Y-137175602D01*
X79393142Y-137175602D02*
X79320571Y-137030460D01*
X79320571Y-137030460D02*
X79248000Y-136957888D01*
X79248000Y-136957888D02*
X79102857Y-136885317D01*
X79102857Y-136885317D02*
X78812571Y-136812745D01*
X78812571Y-136812745D02*
X78667428Y-136740174D01*
X78667428Y-136740174D02*
X78594857Y-136667602D01*
X78594857Y-136667602D02*
X78522285Y-136522460D01*
X78522285Y-136522460D02*
X78522285Y-136377317D01*
X78522285Y-136377317D02*
X78594857Y-136232174D01*
X78594857Y-136232174D02*
X78667428Y-136159602D01*
X78667428Y-136159602D02*
X78812571Y-136087031D01*
X78812571Y-136087031D02*
X79175428Y-136087031D01*
X79175428Y-136087031D02*
X79393142Y-136159602D01*
X79901143Y-136087031D02*
X80264000Y-137611031D01*
X80264000Y-137611031D02*
X80554286Y-136522460D01*
X80554286Y-136522460D02*
X80844571Y-137611031D01*
X80844571Y-137611031D02*
X81207429Y-136087031D01*
X81715428Y-136232174D02*
X81788000Y-136159602D01*
X81788000Y-136159602D02*
X81933143Y-136087031D01*
X81933143Y-136087031D02*
X82296000Y-136087031D01*
X82296000Y-136087031D02*
X82441143Y-136159602D01*
X82441143Y-136159602D02*
X82513714Y-136232174D01*
X82513714Y-136232174D02*
X82586285Y-136377317D01*
X82586285Y-136377317D02*
X82586285Y-136522460D01*
X82586285Y-136522460D02*
X82513714Y-136740174D01*
X82513714Y-136740174D02*
X81642857Y-137611031D01*
X81642857Y-137611031D02*
X82586285Y-137611031D01*
X83529714Y-136087031D02*
X83674857Y-136087031D01*
X83674857Y-136087031D02*
X83820000Y-136159602D01*
X83820000Y-136159602D02*
X83892572Y-136232174D01*
X83892572Y-136232174D02*
X83965143Y-136377317D01*
X83965143Y-136377317D02*
X84037714Y-136667602D01*
X84037714Y-136667602D02*
X84037714Y-137030460D01*
X84037714Y-137030460D02*
X83965143Y-137320745D01*
X83965143Y-137320745D02*
X83892572Y-137465888D01*
X83892572Y-137465888D02*
X83820000Y-137538460D01*
X83820000Y-137538460D02*
X83674857Y-137611031D01*
X83674857Y-137611031D02*
X83529714Y-137611031D01*
X83529714Y-137611031D02*
X83384572Y-137538460D01*
X83384572Y-137538460D02*
X83312000Y-137465888D01*
X83312000Y-137465888D02*
X83239429Y-137320745D01*
X83239429Y-137320745D02*
X83166857Y-137030460D01*
X83166857Y-137030460D02*
X83166857Y-136667602D01*
X83166857Y-136667602D02*
X83239429Y-136377317D01*
X83239429Y-136377317D02*
X83312000Y-136232174D01*
X83312000Y-136232174D02*
X83384572Y-136159602D01*
X83384572Y-136159602D02*
X83529714Y-136087031D01*
%TO.C,R3*%
X97028000Y-56204031D02*
X96520000Y-55478317D01*
X96157143Y-56204031D02*
X96157143Y-54680031D01*
X96157143Y-54680031D02*
X96737714Y-54680031D01*
X96737714Y-54680031D02*
X96882857Y-54752602D01*
X96882857Y-54752602D02*
X96955428Y-54825174D01*
X96955428Y-54825174D02*
X97028000Y-54970317D01*
X97028000Y-54970317D02*
X97028000Y-55188031D01*
X97028000Y-55188031D02*
X96955428Y-55333174D01*
X96955428Y-55333174D02*
X96882857Y-55405745D01*
X96882857Y-55405745D02*
X96737714Y-55478317D01*
X96737714Y-55478317D02*
X96157143Y-55478317D01*
X97536000Y-54680031D02*
X98479428Y-54680031D01*
X98479428Y-54680031D02*
X97971428Y-55260602D01*
X97971428Y-55260602D02*
X98189143Y-55260602D01*
X98189143Y-55260602D02*
X98334286Y-55333174D01*
X98334286Y-55333174D02*
X98406857Y-55405745D01*
X98406857Y-55405745D02*
X98479428Y-55550888D01*
X98479428Y-55550888D02*
X98479428Y-55913745D01*
X98479428Y-55913745D02*
X98406857Y-56058888D01*
X98406857Y-56058888D02*
X98334286Y-56131460D01*
X98334286Y-56131460D02*
X98189143Y-56204031D01*
X98189143Y-56204031D02*
X97753714Y-56204031D01*
X97753714Y-56204031D02*
X97608571Y-56131460D01*
X97608571Y-56131460D02*
X97536000Y-56058888D01*
%TO.C,C1*%
X63607000Y-37683888D02*
X63534428Y-37756460D01*
X63534428Y-37756460D02*
X63316714Y-37829031D01*
X63316714Y-37829031D02*
X63171571Y-37829031D01*
X63171571Y-37829031D02*
X62953857Y-37756460D01*
X62953857Y-37756460D02*
X62808714Y-37611317D01*
X62808714Y-37611317D02*
X62736143Y-37466174D01*
X62736143Y-37466174D02*
X62663571Y-37175888D01*
X62663571Y-37175888D02*
X62663571Y-36958174D01*
X62663571Y-36958174D02*
X62736143Y-36667888D01*
X62736143Y-36667888D02*
X62808714Y-36522745D01*
X62808714Y-36522745D02*
X62953857Y-36377602D01*
X62953857Y-36377602D02*
X63171571Y-36305031D01*
X63171571Y-36305031D02*
X63316714Y-36305031D01*
X63316714Y-36305031D02*
X63534428Y-36377602D01*
X63534428Y-36377602D02*
X63607000Y-36450174D01*
X65058428Y-37829031D02*
X64187571Y-37829031D01*
X64623000Y-37829031D02*
X64623000Y-36305031D01*
X64623000Y-36305031D02*
X64477857Y-36522745D01*
X64477857Y-36522745D02*
X64332714Y-36667888D01*
X64332714Y-36667888D02*
X64187571Y-36740460D01*
%TO.C,SW12*%
X78522285Y-99438460D02*
X78740000Y-99511031D01*
X78740000Y-99511031D02*
X79102857Y-99511031D01*
X79102857Y-99511031D02*
X79248000Y-99438460D01*
X79248000Y-99438460D02*
X79320571Y-99365888D01*
X79320571Y-99365888D02*
X79393142Y-99220745D01*
X79393142Y-99220745D02*
X79393142Y-99075602D01*
X79393142Y-99075602D02*
X79320571Y-98930460D01*
X79320571Y-98930460D02*
X79248000Y-98857888D01*
X79248000Y-98857888D02*
X79102857Y-98785317D01*
X79102857Y-98785317D02*
X78812571Y-98712745D01*
X78812571Y-98712745D02*
X78667428Y-98640174D01*
X78667428Y-98640174D02*
X78594857Y-98567602D01*
X78594857Y-98567602D02*
X78522285Y-98422460D01*
X78522285Y-98422460D02*
X78522285Y-98277317D01*
X78522285Y-98277317D02*
X78594857Y-98132174D01*
X78594857Y-98132174D02*
X78667428Y-98059602D01*
X78667428Y-98059602D02*
X78812571Y-97987031D01*
X78812571Y-97987031D02*
X79175428Y-97987031D01*
X79175428Y-97987031D02*
X79393142Y-98059602D01*
X79901143Y-97987031D02*
X80264000Y-99511031D01*
X80264000Y-99511031D02*
X80554286Y-98422460D01*
X80554286Y-98422460D02*
X80844571Y-99511031D01*
X80844571Y-99511031D02*
X81207429Y-97987031D01*
X82586285Y-99511031D02*
X81715428Y-99511031D01*
X82150857Y-99511031D02*
X82150857Y-97987031D01*
X82150857Y-97987031D02*
X82005714Y-98204745D01*
X82005714Y-98204745D02*
X81860571Y-98349888D01*
X81860571Y-98349888D02*
X81715428Y-98422460D01*
X83166857Y-98132174D02*
X83239429Y-98059602D01*
X83239429Y-98059602D02*
X83384572Y-97987031D01*
X83384572Y-97987031D02*
X83747429Y-97987031D01*
X83747429Y-97987031D02*
X83892572Y-98059602D01*
X83892572Y-98059602D02*
X83965143Y-98132174D01*
X83965143Y-98132174D02*
X84037714Y-98277317D01*
X84037714Y-98277317D02*
X84037714Y-98422460D01*
X84037714Y-98422460D02*
X83965143Y-98640174D01*
X83965143Y-98640174D02*
X83094286Y-99511031D01*
X83094286Y-99511031D02*
X84037714Y-99511031D01*
%TO.C,SW15*%
X59472285Y-118488460D02*
X59690000Y-118561031D01*
X59690000Y-118561031D02*
X60052857Y-118561031D01*
X60052857Y-118561031D02*
X60198000Y-118488460D01*
X60198000Y-118488460D02*
X60270571Y-118415888D01*
X60270571Y-118415888D02*
X60343142Y-118270745D01*
X60343142Y-118270745D02*
X60343142Y-118125602D01*
X60343142Y-118125602D02*
X60270571Y-117980460D01*
X60270571Y-117980460D02*
X60198000Y-117907888D01*
X60198000Y-117907888D02*
X60052857Y-117835317D01*
X60052857Y-117835317D02*
X59762571Y-117762745D01*
X59762571Y-117762745D02*
X59617428Y-117690174D01*
X59617428Y-117690174D02*
X59544857Y-117617602D01*
X59544857Y-117617602D02*
X59472285Y-117472460D01*
X59472285Y-117472460D02*
X59472285Y-117327317D01*
X59472285Y-117327317D02*
X59544857Y-117182174D01*
X59544857Y-117182174D02*
X59617428Y-117109602D01*
X59617428Y-117109602D02*
X59762571Y-117037031D01*
X59762571Y-117037031D02*
X60125428Y-117037031D01*
X60125428Y-117037031D02*
X60343142Y-117109602D01*
X60851143Y-117037031D02*
X61214000Y-118561031D01*
X61214000Y-118561031D02*
X61504286Y-117472460D01*
X61504286Y-117472460D02*
X61794571Y-118561031D01*
X61794571Y-118561031D02*
X62157429Y-117037031D01*
X63536285Y-118561031D02*
X62665428Y-118561031D01*
X63100857Y-118561031D02*
X63100857Y-117037031D01*
X63100857Y-117037031D02*
X62955714Y-117254745D01*
X62955714Y-117254745D02*
X62810571Y-117399888D01*
X62810571Y-117399888D02*
X62665428Y-117472460D01*
X64915143Y-117037031D02*
X64189429Y-117037031D01*
X64189429Y-117037031D02*
X64116857Y-117762745D01*
X64116857Y-117762745D02*
X64189429Y-117690174D01*
X64189429Y-117690174D02*
X64334572Y-117617602D01*
X64334572Y-117617602D02*
X64697429Y-117617602D01*
X64697429Y-117617602D02*
X64842572Y-117690174D01*
X64842572Y-117690174D02*
X64915143Y-117762745D01*
X64915143Y-117762745D02*
X64987714Y-117907888D01*
X64987714Y-117907888D02*
X64987714Y-118270745D01*
X64987714Y-118270745D02*
X64915143Y-118415888D01*
X64915143Y-118415888D02*
X64842572Y-118488460D01*
X64842572Y-118488460D02*
X64697429Y-118561031D01*
X64697429Y-118561031D02*
X64334572Y-118561031D01*
X64334572Y-118561031D02*
X64189429Y-118488460D01*
X64189429Y-118488460D02*
X64116857Y-118415888D01*
%TO.C,SW27*%
X59472285Y-175638460D02*
X59690000Y-175711031D01*
X59690000Y-175711031D02*
X60052857Y-175711031D01*
X60052857Y-175711031D02*
X60198000Y-175638460D01*
X60198000Y-175638460D02*
X60270571Y-175565888D01*
X60270571Y-175565888D02*
X60343142Y-175420745D01*
X60343142Y-175420745D02*
X60343142Y-175275602D01*
X60343142Y-175275602D02*
X60270571Y-175130460D01*
X60270571Y-175130460D02*
X60198000Y-175057888D01*
X60198000Y-175057888D02*
X60052857Y-174985317D01*
X60052857Y-174985317D02*
X59762571Y-174912745D01*
X59762571Y-174912745D02*
X59617428Y-174840174D01*
X59617428Y-174840174D02*
X59544857Y-174767602D01*
X59544857Y-174767602D02*
X59472285Y-174622460D01*
X59472285Y-174622460D02*
X59472285Y-174477317D01*
X59472285Y-174477317D02*
X59544857Y-174332174D01*
X59544857Y-174332174D02*
X59617428Y-174259602D01*
X59617428Y-174259602D02*
X59762571Y-174187031D01*
X59762571Y-174187031D02*
X60125428Y-174187031D01*
X60125428Y-174187031D02*
X60343142Y-174259602D01*
X60851143Y-174187031D02*
X61214000Y-175711031D01*
X61214000Y-175711031D02*
X61504286Y-174622460D01*
X61504286Y-174622460D02*
X61794571Y-175711031D01*
X61794571Y-175711031D02*
X62157429Y-174187031D01*
X62665428Y-174332174D02*
X62738000Y-174259602D01*
X62738000Y-174259602D02*
X62883143Y-174187031D01*
X62883143Y-174187031D02*
X63246000Y-174187031D01*
X63246000Y-174187031D02*
X63391143Y-174259602D01*
X63391143Y-174259602D02*
X63463714Y-174332174D01*
X63463714Y-174332174D02*
X63536285Y-174477317D01*
X63536285Y-174477317D02*
X63536285Y-174622460D01*
X63536285Y-174622460D02*
X63463714Y-174840174D01*
X63463714Y-174840174D02*
X62592857Y-175711031D01*
X62592857Y-175711031D02*
X63536285Y-175711031D01*
X64044286Y-174187031D02*
X65060286Y-174187031D01*
X65060286Y-174187031D02*
X64407143Y-175711031D01*
%TO.C,SW21*%
X97572285Y-137538460D02*
X97790000Y-137611031D01*
X97790000Y-137611031D02*
X98152857Y-137611031D01*
X98152857Y-137611031D02*
X98298000Y-137538460D01*
X98298000Y-137538460D02*
X98370571Y-137465888D01*
X98370571Y-137465888D02*
X98443142Y-137320745D01*
X98443142Y-137320745D02*
X98443142Y-137175602D01*
X98443142Y-137175602D02*
X98370571Y-137030460D01*
X98370571Y-137030460D02*
X98298000Y-136957888D01*
X98298000Y-136957888D02*
X98152857Y-136885317D01*
X98152857Y-136885317D02*
X97862571Y-136812745D01*
X97862571Y-136812745D02*
X97717428Y-136740174D01*
X97717428Y-136740174D02*
X97644857Y-136667602D01*
X97644857Y-136667602D02*
X97572285Y-136522460D01*
X97572285Y-136522460D02*
X97572285Y-136377317D01*
X97572285Y-136377317D02*
X97644857Y-136232174D01*
X97644857Y-136232174D02*
X97717428Y-136159602D01*
X97717428Y-136159602D02*
X97862571Y-136087031D01*
X97862571Y-136087031D02*
X98225428Y-136087031D01*
X98225428Y-136087031D02*
X98443142Y-136159602D01*
X98951143Y-136087031D02*
X99314000Y-137611031D01*
X99314000Y-137611031D02*
X99604286Y-136522460D01*
X99604286Y-136522460D02*
X99894571Y-137611031D01*
X99894571Y-137611031D02*
X100257429Y-136087031D01*
X100765428Y-136232174D02*
X100838000Y-136159602D01*
X100838000Y-136159602D02*
X100983143Y-136087031D01*
X100983143Y-136087031D02*
X101346000Y-136087031D01*
X101346000Y-136087031D02*
X101491143Y-136159602D01*
X101491143Y-136159602D02*
X101563714Y-136232174D01*
X101563714Y-136232174D02*
X101636285Y-136377317D01*
X101636285Y-136377317D02*
X101636285Y-136522460D01*
X101636285Y-136522460D02*
X101563714Y-136740174D01*
X101563714Y-136740174D02*
X100692857Y-137611031D01*
X100692857Y-137611031D02*
X101636285Y-137611031D01*
X103087714Y-137611031D02*
X102216857Y-137611031D01*
X102652286Y-137611031D02*
X102652286Y-136087031D01*
X102652286Y-136087031D02*
X102507143Y-136304745D01*
X102507143Y-136304745D02*
X102362000Y-136449888D01*
X102362000Y-136449888D02*
X102216857Y-136522460D01*
%TO.C,D2*%
X86886143Y-55696031D02*
X86886143Y-54172031D01*
X86886143Y-54172031D02*
X87249000Y-54172031D01*
X87249000Y-54172031D02*
X87466714Y-54244602D01*
X87466714Y-54244602D02*
X87611857Y-54389745D01*
X87611857Y-54389745D02*
X87684428Y-54534888D01*
X87684428Y-54534888D02*
X87757000Y-54825174D01*
X87757000Y-54825174D02*
X87757000Y-55042888D01*
X87757000Y-55042888D02*
X87684428Y-55333174D01*
X87684428Y-55333174D02*
X87611857Y-55478317D01*
X87611857Y-55478317D02*
X87466714Y-55623460D01*
X87466714Y-55623460D02*
X87249000Y-55696031D01*
X87249000Y-55696031D02*
X86886143Y-55696031D01*
X88337571Y-54317174D02*
X88410143Y-54244602D01*
X88410143Y-54244602D02*
X88555286Y-54172031D01*
X88555286Y-54172031D02*
X88918143Y-54172031D01*
X88918143Y-54172031D02*
X89063286Y-54244602D01*
X89063286Y-54244602D02*
X89135857Y-54317174D01*
X89135857Y-54317174D02*
X89208428Y-54462317D01*
X89208428Y-54462317D02*
X89208428Y-54607460D01*
X89208428Y-54607460D02*
X89135857Y-54825174D01*
X89135857Y-54825174D02*
X88265000Y-55696031D01*
X88265000Y-55696031D02*
X89208428Y-55696031D01*
%TO.C,SW24*%
X78522285Y-156588460D02*
X78740000Y-156661031D01*
X78740000Y-156661031D02*
X79102857Y-156661031D01*
X79102857Y-156661031D02*
X79248000Y-156588460D01*
X79248000Y-156588460D02*
X79320571Y-156515888D01*
X79320571Y-156515888D02*
X79393142Y-156370745D01*
X79393142Y-156370745D02*
X79393142Y-156225602D01*
X79393142Y-156225602D02*
X79320571Y-156080460D01*
X79320571Y-156080460D02*
X79248000Y-156007888D01*
X79248000Y-156007888D02*
X79102857Y-155935317D01*
X79102857Y-155935317D02*
X78812571Y-155862745D01*
X78812571Y-155862745D02*
X78667428Y-155790174D01*
X78667428Y-155790174D02*
X78594857Y-155717602D01*
X78594857Y-155717602D02*
X78522285Y-155572460D01*
X78522285Y-155572460D02*
X78522285Y-155427317D01*
X78522285Y-155427317D02*
X78594857Y-155282174D01*
X78594857Y-155282174D02*
X78667428Y-155209602D01*
X78667428Y-155209602D02*
X78812571Y-155137031D01*
X78812571Y-155137031D02*
X79175428Y-155137031D01*
X79175428Y-155137031D02*
X79393142Y-155209602D01*
X79901143Y-155137031D02*
X80264000Y-156661031D01*
X80264000Y-156661031D02*
X80554286Y-155572460D01*
X80554286Y-155572460D02*
X80844571Y-156661031D01*
X80844571Y-156661031D02*
X81207429Y-155137031D01*
X81715428Y-155282174D02*
X81788000Y-155209602D01*
X81788000Y-155209602D02*
X81933143Y-155137031D01*
X81933143Y-155137031D02*
X82296000Y-155137031D01*
X82296000Y-155137031D02*
X82441143Y-155209602D01*
X82441143Y-155209602D02*
X82513714Y-155282174D01*
X82513714Y-155282174D02*
X82586285Y-155427317D01*
X82586285Y-155427317D02*
X82586285Y-155572460D01*
X82586285Y-155572460D02*
X82513714Y-155790174D01*
X82513714Y-155790174D02*
X81642857Y-156661031D01*
X81642857Y-156661031D02*
X82586285Y-156661031D01*
X83892572Y-155645031D02*
X83892572Y-156661031D01*
X83529714Y-155064460D02*
X83166857Y-156153031D01*
X83166857Y-156153031D02*
X84110286Y-156153031D01*
%TO.C,SW28*%
X88212285Y-176288460D02*
X88430000Y-176361031D01*
X88430000Y-176361031D02*
X88792857Y-176361031D01*
X88792857Y-176361031D02*
X88938000Y-176288460D01*
X88938000Y-176288460D02*
X89010571Y-176215888D01*
X89010571Y-176215888D02*
X89083142Y-176070745D01*
X89083142Y-176070745D02*
X89083142Y-175925602D01*
X89083142Y-175925602D02*
X89010571Y-175780460D01*
X89010571Y-175780460D02*
X88938000Y-175707888D01*
X88938000Y-175707888D02*
X88792857Y-175635317D01*
X88792857Y-175635317D02*
X88502571Y-175562745D01*
X88502571Y-175562745D02*
X88357428Y-175490174D01*
X88357428Y-175490174D02*
X88284857Y-175417602D01*
X88284857Y-175417602D02*
X88212285Y-175272460D01*
X88212285Y-175272460D02*
X88212285Y-175127317D01*
X88212285Y-175127317D02*
X88284857Y-174982174D01*
X88284857Y-174982174D02*
X88357428Y-174909602D01*
X88357428Y-174909602D02*
X88502571Y-174837031D01*
X88502571Y-174837031D02*
X88865428Y-174837031D01*
X88865428Y-174837031D02*
X89083142Y-174909602D01*
X89591143Y-174837031D02*
X89954000Y-176361031D01*
X89954000Y-176361031D02*
X90244286Y-175272460D01*
X90244286Y-175272460D02*
X90534571Y-176361031D01*
X90534571Y-176361031D02*
X90897429Y-174837031D01*
X91405428Y-174982174D02*
X91478000Y-174909602D01*
X91478000Y-174909602D02*
X91623143Y-174837031D01*
X91623143Y-174837031D02*
X91986000Y-174837031D01*
X91986000Y-174837031D02*
X92131143Y-174909602D01*
X92131143Y-174909602D02*
X92203714Y-174982174D01*
X92203714Y-174982174D02*
X92276285Y-175127317D01*
X92276285Y-175127317D02*
X92276285Y-175272460D01*
X92276285Y-175272460D02*
X92203714Y-175490174D01*
X92203714Y-175490174D02*
X91332857Y-176361031D01*
X91332857Y-176361031D02*
X92276285Y-176361031D01*
X93147143Y-175490174D02*
X93002000Y-175417602D01*
X93002000Y-175417602D02*
X92929429Y-175345031D01*
X92929429Y-175345031D02*
X92856857Y-175199888D01*
X92856857Y-175199888D02*
X92856857Y-175127317D01*
X92856857Y-175127317D02*
X92929429Y-174982174D01*
X92929429Y-174982174D02*
X93002000Y-174909602D01*
X93002000Y-174909602D02*
X93147143Y-174837031D01*
X93147143Y-174837031D02*
X93437429Y-174837031D01*
X93437429Y-174837031D02*
X93582572Y-174909602D01*
X93582572Y-174909602D02*
X93655143Y-174982174D01*
X93655143Y-174982174D02*
X93727714Y-175127317D01*
X93727714Y-175127317D02*
X93727714Y-175199888D01*
X93727714Y-175199888D02*
X93655143Y-175345031D01*
X93655143Y-175345031D02*
X93582572Y-175417602D01*
X93582572Y-175417602D02*
X93437429Y-175490174D01*
X93437429Y-175490174D02*
X93147143Y-175490174D01*
X93147143Y-175490174D02*
X93002000Y-175562745D01*
X93002000Y-175562745D02*
X92929429Y-175635317D01*
X92929429Y-175635317D02*
X92856857Y-175780460D01*
X92856857Y-175780460D02*
X92856857Y-176070745D01*
X92856857Y-176070745D02*
X92929429Y-176215888D01*
X92929429Y-176215888D02*
X93002000Y-176288460D01*
X93002000Y-176288460D02*
X93147143Y-176361031D01*
X93147143Y-176361031D02*
X93437429Y-176361031D01*
X93437429Y-176361031D02*
X93582572Y-176288460D01*
X93582572Y-176288460D02*
X93655143Y-176215888D01*
X93655143Y-176215888D02*
X93727714Y-176070745D01*
X93727714Y-176070745D02*
X93727714Y-175780460D01*
X93727714Y-175780460D02*
X93655143Y-175635317D01*
X93655143Y-175635317D02*
X93582572Y-175562745D01*
X93582572Y-175562745D02*
X93437429Y-175490174D01*
%TO.C,R2*%
X80010000Y-56204031D02*
X79502000Y-55478317D01*
X79139143Y-56204031D02*
X79139143Y-54680031D01*
X79139143Y-54680031D02*
X79719714Y-54680031D01*
X79719714Y-54680031D02*
X79864857Y-54752602D01*
X79864857Y-54752602D02*
X79937428Y-54825174D01*
X79937428Y-54825174D02*
X80010000Y-54970317D01*
X80010000Y-54970317D02*
X80010000Y-55188031D01*
X80010000Y-55188031D02*
X79937428Y-55333174D01*
X79937428Y-55333174D02*
X79864857Y-55405745D01*
X79864857Y-55405745D02*
X79719714Y-55478317D01*
X79719714Y-55478317D02*
X79139143Y-55478317D01*
X80590571Y-54825174D02*
X80663143Y-54752602D01*
X80663143Y-54752602D02*
X80808286Y-54680031D01*
X80808286Y-54680031D02*
X81171143Y-54680031D01*
X81171143Y-54680031D02*
X81316286Y-54752602D01*
X81316286Y-54752602D02*
X81388857Y-54825174D01*
X81388857Y-54825174D02*
X81461428Y-54970317D01*
X81461428Y-54970317D02*
X81461428Y-55115460D01*
X81461428Y-55115460D02*
X81388857Y-55333174D01*
X81388857Y-55333174D02*
X80518000Y-56204031D01*
X80518000Y-56204031D02*
X81461428Y-56204031D01*
%TO.C,R5*%
X58166000Y-56204031D02*
X57658000Y-55478317D01*
X57295143Y-56204031D02*
X57295143Y-54680031D01*
X57295143Y-54680031D02*
X57875714Y-54680031D01*
X57875714Y-54680031D02*
X58020857Y-54752602D01*
X58020857Y-54752602D02*
X58093428Y-54825174D01*
X58093428Y-54825174D02*
X58166000Y-54970317D01*
X58166000Y-54970317D02*
X58166000Y-55188031D01*
X58166000Y-55188031D02*
X58093428Y-55333174D01*
X58093428Y-55333174D02*
X58020857Y-55405745D01*
X58020857Y-55405745D02*
X57875714Y-55478317D01*
X57875714Y-55478317D02*
X57295143Y-55478317D01*
X59544857Y-54680031D02*
X58819143Y-54680031D01*
X58819143Y-54680031D02*
X58746571Y-55405745D01*
X58746571Y-55405745D02*
X58819143Y-55333174D01*
X58819143Y-55333174D02*
X58964286Y-55260602D01*
X58964286Y-55260602D02*
X59327143Y-55260602D01*
X59327143Y-55260602D02*
X59472286Y-55333174D01*
X59472286Y-55333174D02*
X59544857Y-55405745D01*
X59544857Y-55405745D02*
X59617428Y-55550888D01*
X59617428Y-55550888D02*
X59617428Y-55913745D01*
X59617428Y-55913745D02*
X59544857Y-56058888D01*
X59544857Y-56058888D02*
X59472286Y-56131460D01*
X59472286Y-56131460D02*
X59327143Y-56204031D01*
X59327143Y-56204031D02*
X58964286Y-56204031D01*
X58964286Y-56204031D02*
X58819143Y-56131460D01*
X58819143Y-56131460D02*
X58746571Y-56058888D01*
%TO.C,SW9*%
X98297999Y-80388460D02*
X98515714Y-80461031D01*
X98515714Y-80461031D02*
X98878571Y-80461031D01*
X98878571Y-80461031D02*
X99023714Y-80388460D01*
X99023714Y-80388460D02*
X99096285Y-80315888D01*
X99096285Y-80315888D02*
X99168856Y-80170745D01*
X99168856Y-80170745D02*
X99168856Y-80025602D01*
X99168856Y-80025602D02*
X99096285Y-79880460D01*
X99096285Y-79880460D02*
X99023714Y-79807888D01*
X99023714Y-79807888D02*
X98878571Y-79735317D01*
X98878571Y-79735317D02*
X98588285Y-79662745D01*
X98588285Y-79662745D02*
X98443142Y-79590174D01*
X98443142Y-79590174D02*
X98370571Y-79517602D01*
X98370571Y-79517602D02*
X98297999Y-79372460D01*
X98297999Y-79372460D02*
X98297999Y-79227317D01*
X98297999Y-79227317D02*
X98370571Y-79082174D01*
X98370571Y-79082174D02*
X98443142Y-79009602D01*
X98443142Y-79009602D02*
X98588285Y-78937031D01*
X98588285Y-78937031D02*
X98951142Y-78937031D01*
X98951142Y-78937031D02*
X99168856Y-79009602D01*
X99676857Y-78937031D02*
X100039714Y-80461031D01*
X100039714Y-80461031D02*
X100330000Y-79372460D01*
X100330000Y-79372460D02*
X100620285Y-80461031D01*
X100620285Y-80461031D02*
X100983143Y-78937031D01*
X101636285Y-80461031D02*
X101926571Y-80461031D01*
X101926571Y-80461031D02*
X102071714Y-80388460D01*
X102071714Y-80388460D02*
X102144285Y-80315888D01*
X102144285Y-80315888D02*
X102289428Y-80098174D01*
X102289428Y-80098174D02*
X102361999Y-79807888D01*
X102361999Y-79807888D02*
X102361999Y-79227317D01*
X102361999Y-79227317D02*
X102289428Y-79082174D01*
X102289428Y-79082174D02*
X102216857Y-79009602D01*
X102216857Y-79009602D02*
X102071714Y-78937031D01*
X102071714Y-78937031D02*
X101781428Y-78937031D01*
X101781428Y-78937031D02*
X101636285Y-79009602D01*
X101636285Y-79009602D02*
X101563714Y-79082174D01*
X101563714Y-79082174D02*
X101491142Y-79227317D01*
X101491142Y-79227317D02*
X101491142Y-79590174D01*
X101491142Y-79590174D02*
X101563714Y-79735317D01*
X101563714Y-79735317D02*
X101636285Y-79807888D01*
X101636285Y-79807888D02*
X101781428Y-79880460D01*
X101781428Y-79880460D02*
X102071714Y-79880460D01*
X102071714Y-79880460D02*
X102216857Y-79807888D01*
X102216857Y-79807888D02*
X102289428Y-79735317D01*
X102289428Y-79735317D02*
X102361999Y-79590174D01*
%TO.C,SW7*%
X60197999Y-80388460D02*
X60415714Y-80461031D01*
X60415714Y-80461031D02*
X60778571Y-80461031D01*
X60778571Y-80461031D02*
X60923714Y-80388460D01*
X60923714Y-80388460D02*
X60996285Y-80315888D01*
X60996285Y-80315888D02*
X61068856Y-80170745D01*
X61068856Y-80170745D02*
X61068856Y-80025602D01*
X61068856Y-80025602D02*
X60996285Y-79880460D01*
X60996285Y-79880460D02*
X60923714Y-79807888D01*
X60923714Y-79807888D02*
X60778571Y-79735317D01*
X60778571Y-79735317D02*
X60488285Y-79662745D01*
X60488285Y-79662745D02*
X60343142Y-79590174D01*
X60343142Y-79590174D02*
X60270571Y-79517602D01*
X60270571Y-79517602D02*
X60197999Y-79372460D01*
X60197999Y-79372460D02*
X60197999Y-79227317D01*
X60197999Y-79227317D02*
X60270571Y-79082174D01*
X60270571Y-79082174D02*
X60343142Y-79009602D01*
X60343142Y-79009602D02*
X60488285Y-78937031D01*
X60488285Y-78937031D02*
X60851142Y-78937031D01*
X60851142Y-78937031D02*
X61068856Y-79009602D01*
X61576857Y-78937031D02*
X61939714Y-80461031D01*
X61939714Y-80461031D02*
X62230000Y-79372460D01*
X62230000Y-79372460D02*
X62520285Y-80461031D01*
X62520285Y-80461031D02*
X62883143Y-78937031D01*
X63318571Y-78937031D02*
X64334571Y-78937031D01*
X64334571Y-78937031D02*
X63681428Y-80461031D01*
D11*
%TO.C,SW10*%
X36195000Y-99695000D02*
X50165000Y-99695000D01*
X36195000Y-113665000D02*
X36195000Y-99695000D01*
X50165000Y-99695000D02*
X50165000Y-113665000D01*
X50165000Y-113665000D02*
X36195000Y-113665000D01*
%TO.C,R4*%
X65945000Y-57050000D02*
X72485000Y-57050000D01*
X65945000Y-57380000D02*
X65945000Y-57050000D01*
X65945000Y-59460000D02*
X65945000Y-59790000D01*
X65945000Y-59790000D02*
X72485000Y-59790000D01*
X72485000Y-57050000D02*
X72485000Y-57380000D01*
X72485000Y-59790000D02*
X72485000Y-59460000D01*
%TO.C,SW2*%
X55245000Y-61595000D02*
X69215000Y-61595000D01*
X55245000Y-75565000D02*
X55245000Y-61595000D01*
X69215000Y-61595000D02*
X69215000Y-75565000D01*
X69215000Y-75565000D02*
X55245000Y-75565000D01*
%TO.C,SW4*%
X93345000Y-61595000D02*
X107315000Y-61595000D01*
X93345000Y-75565000D02*
X93345000Y-61595000D01*
X107315000Y-61595000D02*
X107315000Y-75565000D01*
X107315000Y-75565000D02*
X93345000Y-75565000D01*
%TO.C,SW22*%
X36195000Y-156845000D02*
X50165000Y-156845000D01*
X36195000Y-170815000D02*
X36195000Y-156845000D01*
X50165000Y-156845000D02*
X50165000Y-170815000D01*
X50165000Y-170815000D02*
X36195000Y-170815000D01*
%TO.C,SW8*%
X74295000Y-80645000D02*
X88265000Y-80645000D01*
X74295000Y-94615000D02*
X74295000Y-80645000D01*
X88265000Y-80645000D02*
X88265000Y-94615000D01*
X88265000Y-94615000D02*
X74295000Y-94615000D01*
%TO.C,SW14*%
X36195000Y-118745000D02*
X50165000Y-118745000D01*
X36195000Y-132715000D02*
X36195000Y-118745000D01*
X50165000Y-118745000D02*
X50165000Y-132715000D01*
X50165000Y-132715000D02*
X36195000Y-132715000D01*
%TO.C,SW16*%
X74295000Y-118745000D02*
X88265000Y-118745000D01*
X74295000Y-132715000D02*
X74295000Y-118745000D01*
X88265000Y-118745000D02*
X88265000Y-132715000D01*
X88265000Y-132715000D02*
X74295000Y-132715000D01*
%TO.C,SW1*%
X36195000Y-61595000D02*
X50165000Y-61595000D01*
X36195000Y-75565000D02*
X36195000Y-61595000D01*
X50165000Y-61595000D02*
X50165000Y-75565000D01*
X50165000Y-75565000D02*
X36195000Y-75565000D01*
%TO.C,SW18*%
X36195000Y-137795000D02*
X50165000Y-137795000D01*
X36195000Y-151765000D02*
X36195000Y-137795000D01*
X50165000Y-137795000D02*
X50165000Y-151765000D01*
X50165000Y-151765000D02*
X36195000Y-151765000D01*
%TO.C,SW25*%
X93345000Y-156845000D02*
X107315000Y-156845000D01*
X93345000Y-170815000D02*
X93345000Y-156845000D01*
X107315000Y-156845000D02*
X107315000Y-170815000D01*
X107315000Y-170815000D02*
X93345000Y-170815000D01*
%TO.C,U2*%
X82610000Y-28465000D02*
X46930000Y-28465000D01*
X46930000Y-28465000D02*
X46930000Y-33765000D01*
X82610000Y-30115000D02*
X82610000Y-28465000D01*
X82610000Y-33765000D02*
X82610000Y-32115000D01*
X46930000Y-33765000D02*
X82610000Y-33765000D01*
X82610000Y-30115000D02*
G75*
G03*
X82610000Y-32115000I0J-1000000D01*
G01*
%TO.C,SW23*%
X55245000Y-156845000D02*
X69215000Y-156845000D01*
X55245000Y-170815000D02*
X55245000Y-156845000D01*
X69215000Y-156845000D02*
X69215000Y-170815000D01*
X69215000Y-170815000D02*
X55245000Y-170815000D01*
%TO.C,SW11*%
X55245000Y-99695000D02*
X69215000Y-99695000D01*
X55245000Y-113665000D02*
X55245000Y-99695000D01*
X69215000Y-99695000D02*
X69215000Y-113665000D01*
X69215000Y-113665000D02*
X55245000Y-113665000D01*
%TO.C,U3*%
X31580520Y-19064300D02*
X31580520Y-55344300D01*
X31580520Y-55344300D02*
X111860520Y-55344300D01*
X31590520Y-19064300D02*
X32380520Y-19064300D01*
X34720520Y-24704300D02*
X107720520Y-24704300D01*
X34720520Y-49704300D02*
X34720520Y-24704300D01*
X38220520Y-18704300D02*
X41220520Y-18704300D01*
X39420800Y-44203620D02*
X39420800Y-30204300D01*
X39920520Y-29704300D02*
X103420520Y-29704300D01*
X103421180Y-44704300D02*
X39920520Y-44704300D01*
X103920520Y-30204300D02*
X103920520Y-44204300D01*
X107720520Y-24704300D02*
X107720520Y-49704300D01*
X107720520Y-49704300D02*
X34720520Y-49704300D01*
X111860520Y-19064300D02*
X32380520Y-19064300D01*
X111860520Y-55344300D02*
X111860520Y-19064300D01*
X39921180Y-29702760D02*
G75*
G03*
X39420800Y-30203140I0J-500380D01*
G01*
X39420800Y-44203620D02*
G75*
G03*
X39921180Y-44704000I500380J0D01*
G01*
X103920520Y-30204300D02*
G75*
G03*
X103420520Y-29704300I-500000J0D01*
G01*
X103421180Y-44704040D02*
G75*
G03*
X103921560Y-44203620I-60J500440D01*
G01*
%TO.C,SW19*%
X55245000Y-137795000D02*
X69215000Y-137795000D01*
X55245000Y-151765000D02*
X55245000Y-137795000D01*
X69215000Y-137795000D02*
X69215000Y-151765000D01*
X69215000Y-151765000D02*
X55245000Y-151765000D01*
%TO.C,SW6*%
X36195000Y-80645000D02*
X50165000Y-80645000D01*
X36195000Y-94615000D02*
X36195000Y-80645000D01*
X50165000Y-80645000D02*
X50165000Y-94615000D01*
X50165000Y-94615000D02*
X36195000Y-94615000D01*
%TO.C,D1*%
X37175000Y-57184000D02*
X37175000Y-57340000D01*
X37175000Y-59500000D02*
X37175000Y-59656000D01*
X40407334Y-57341392D02*
G75*
G03*
X37175001Y-57184485I-1672334J-1078608D01*
G01*
X39776129Y-57340164D02*
G75*
G03*
X37694040Y-57340001I-1041129J-1079836D01*
G01*
X37694040Y-59499999D02*
G75*
G03*
X39776129Y-59499836I1040960J1079999D01*
G01*
X37175001Y-59655515D02*
G75*
G03*
X40407334Y-59498608I1559999J1235515D01*
G01*
%TO.C,SW3*%
X74295000Y-61595000D02*
X88265000Y-61595000D01*
X74295000Y-75565000D02*
X74295000Y-61595000D01*
X88265000Y-61595000D02*
X88265000Y-75565000D01*
X88265000Y-75565000D02*
X74295000Y-75565000D01*
%TO.C,R1*%
X50260000Y-59790000D02*
X43720000Y-59790000D01*
X50260000Y-59460000D02*
X50260000Y-59790000D01*
X50260000Y-57380000D02*
X50260000Y-57050000D01*
X50260000Y-57050000D02*
X43720000Y-57050000D01*
X43720000Y-59790000D02*
X43720000Y-59460000D01*
X43720000Y-57050000D02*
X43720000Y-57380000D01*
%TO.C,D11*%
X108240000Y-59656000D02*
X108240000Y-59500000D01*
X108240000Y-57340000D02*
X108240000Y-57184000D01*
X105007666Y-59498608D02*
G75*
G03*
X108239999Y-59655515I1672334J1078608D01*
G01*
X105638871Y-59499836D02*
G75*
G03*
X107720960Y-59499999I1041129J1079836D01*
G01*
X107720960Y-57340001D02*
G75*
G03*
X105638871Y-57340164I-1040960J-1079999D01*
G01*
X108239999Y-57184485D02*
G75*
G03*
X105007666Y-57341392I-1559999J-1235515D01*
G01*
%TO.C,SW26*%
X36195000Y-175895000D02*
X50165000Y-175895000D01*
X36195000Y-189865000D02*
X36195000Y-175895000D01*
X50165000Y-175895000D02*
X50165000Y-189865000D01*
X50165000Y-189865000D02*
X36195000Y-189865000D01*
%TO.C,SW13*%
X93345000Y-99695000D02*
X107315000Y-99695000D01*
X93345000Y-113665000D02*
X93345000Y-99695000D01*
X107315000Y-99695000D02*
X107315000Y-113665000D01*
X107315000Y-113665000D02*
X93345000Y-113665000D01*
%TO.C,SW17*%
X93345000Y-118745000D02*
X107315000Y-118745000D01*
X93345000Y-132715000D02*
X93345000Y-118745000D01*
X107315000Y-118745000D02*
X107315000Y-132715000D01*
X107315000Y-132715000D02*
X93345000Y-132715000D01*
%TO.C,SW20*%
X74295000Y-137795000D02*
X88265000Y-137795000D01*
X74295000Y-151765000D02*
X74295000Y-137795000D01*
X88265000Y-137795000D02*
X88265000Y-151765000D01*
X88265000Y-151765000D02*
X74295000Y-151765000D01*
%TO.C,R3*%
X93885000Y-57050000D02*
X100425000Y-57050000D01*
X93885000Y-57380000D02*
X93885000Y-57050000D01*
X93885000Y-59460000D02*
X93885000Y-59790000D01*
X93885000Y-59790000D02*
X100425000Y-59790000D01*
X100425000Y-57050000D02*
X100425000Y-57380000D01*
X100425000Y-59790000D02*
X100425000Y-59460000D01*
%TO.C,C1*%
X61241000Y-38254000D02*
X61241000Y-40994000D01*
X61241000Y-38254000D02*
X66481000Y-38254000D01*
X61241000Y-40994000D02*
X66481000Y-40994000D01*
X66481000Y-38254000D02*
X66481000Y-40994000D01*
%TO.C,SW12*%
X74295000Y-99695000D02*
X88265000Y-99695000D01*
X74295000Y-113665000D02*
X74295000Y-99695000D01*
X88265000Y-99695000D02*
X88265000Y-113665000D01*
X88265000Y-113665000D02*
X74295000Y-113665000D01*
%TO.C,SW15*%
X55245000Y-118745000D02*
X69215000Y-118745000D01*
X55245000Y-132715000D02*
X55245000Y-118745000D01*
X69215000Y-118745000D02*
X69215000Y-132715000D01*
X69215000Y-132715000D02*
X55245000Y-132715000D01*
%TO.C,SW27*%
X55245000Y-175895000D02*
X69215000Y-175895000D01*
X55245000Y-189865000D02*
X55245000Y-175895000D01*
X69215000Y-175895000D02*
X69215000Y-189865000D01*
X69215000Y-189865000D02*
X55245000Y-189865000D01*
%TO.C,SW21*%
X93345000Y-137795000D02*
X107315000Y-137795000D01*
X93345000Y-151765000D02*
X93345000Y-137795000D01*
X107315000Y-137795000D02*
X107315000Y-151765000D01*
X107315000Y-151765000D02*
X93345000Y-151765000D01*
%TO.C,D2*%
X89825000Y-59656000D02*
X89825000Y-59500000D01*
X89825000Y-57340000D02*
X89825000Y-57184000D01*
X86592666Y-59498608D02*
G75*
G03*
X89824999Y-59655515I1672334J1078608D01*
G01*
X87223871Y-59499836D02*
G75*
G03*
X89305960Y-59499999I1041129J1079836D01*
G01*
X89305960Y-57340001D02*
G75*
G03*
X87223871Y-57340164I-1040960J-1079999D01*
G01*
X89824999Y-57184485D02*
G75*
G03*
X86592666Y-57341392I-1559999J-1235515D01*
G01*
%TO.C,SW24*%
X74295000Y-156845000D02*
X88265000Y-156845000D01*
X74295000Y-170815000D02*
X74295000Y-156845000D01*
X88265000Y-156845000D02*
X88265000Y-170815000D01*
X88265000Y-170815000D02*
X74295000Y-170815000D01*
%TO.C,SW28*%
X83985000Y-176545000D02*
X97955000Y-176545000D01*
X83985000Y-190515000D02*
X83985000Y-176545000D01*
X97955000Y-176545000D02*
X97955000Y-190515000D01*
X97955000Y-190515000D02*
X83985000Y-190515000D01*
%TO.C,R2*%
X76740000Y-57050000D02*
X83280000Y-57050000D01*
X76740000Y-57380000D02*
X76740000Y-57050000D01*
X76740000Y-59460000D02*
X76740000Y-59790000D01*
X76740000Y-59790000D02*
X83280000Y-59790000D01*
X83280000Y-57050000D02*
X83280000Y-57380000D01*
X83280000Y-59790000D02*
X83280000Y-59460000D01*
%TO.C,R5*%
X55150000Y-57050000D02*
X61690000Y-57050000D01*
X55150000Y-57380000D02*
X55150000Y-57050000D01*
X55150000Y-59460000D02*
X55150000Y-59790000D01*
X55150000Y-59790000D02*
X61690000Y-59790000D01*
X61690000Y-57050000D02*
X61690000Y-57380000D01*
X61690000Y-59790000D02*
X61690000Y-59460000D01*
%TO.C,SW9*%
X93345000Y-80645000D02*
X107315000Y-80645000D01*
X93345000Y-94615000D02*
X93345000Y-80645000D01*
X107315000Y-80645000D02*
X107315000Y-94615000D01*
X107315000Y-94615000D02*
X93345000Y-94615000D01*
%TO.C,SW7*%
X55245000Y-80645000D02*
X69215000Y-80645000D01*
X55245000Y-94615000D02*
X55245000Y-80645000D01*
X69215000Y-80645000D02*
X69215000Y-94615000D01*
X69215000Y-94615000D02*
X55245000Y-94615000D01*
%TD*%
M02*
