%TF.GenerationSoftware,KiCad,Pcbnew,7.0.2-6a45011f42~172~ubuntu22.04.1*%
%TF.CreationDate,2023-05-17T14:33:14-04:00*%
%TF.ProjectId,keyboard-pcb,6b657962-6f61-4726-942d-7063622e6b69,rev?*%
%TF.SameCoordinates,Original*%
%TF.FileFunction,Legend,Bot*%
%TF.FilePolarity,Positive*%
%FSLAX46Y46*%
G04 Gerber Fmt 4.6, Leading zero omitted, Abs format (unit mm)*
G04 Created by KiCad (PCBNEW 7.0.2-6a45011f42~172~ubuntu22.04.1) date 2023-05-17 14:33:14*
%MOMM*%
%LPD*%
G01*
G04 APERTURE LIST*
%ADD10C,0.150000*%
%ADD11C,0.100000*%
%ADD12C,0.120000*%
G04 APERTURE END LIST*
D10*
%TO.C,D16*%
X45030571Y-133840031D02*
X45030571Y-132316031D01*
X45030571Y-132316031D02*
X44667714Y-132316031D01*
X44667714Y-132316031D02*
X44450000Y-132388602D01*
X44450000Y-132388602D02*
X44304857Y-132533745D01*
X44304857Y-132533745D02*
X44232286Y-132678888D01*
X44232286Y-132678888D02*
X44159714Y-132969174D01*
X44159714Y-132969174D02*
X44159714Y-133186888D01*
X44159714Y-133186888D02*
X44232286Y-133477174D01*
X44232286Y-133477174D02*
X44304857Y-133622317D01*
X44304857Y-133622317D02*
X44450000Y-133767460D01*
X44450000Y-133767460D02*
X44667714Y-133840031D01*
X44667714Y-133840031D02*
X45030571Y-133840031D01*
X42708286Y-133840031D02*
X43579143Y-133840031D01*
X43143714Y-133840031D02*
X43143714Y-132316031D01*
X43143714Y-132316031D02*
X43288857Y-132533745D01*
X43288857Y-132533745D02*
X43434000Y-132678888D01*
X43434000Y-132678888D02*
X43579143Y-132751460D01*
X41402000Y-132316031D02*
X41692285Y-132316031D01*
X41692285Y-132316031D02*
X41837428Y-132388602D01*
X41837428Y-132388602D02*
X41910000Y-132461174D01*
X41910000Y-132461174D02*
X42055142Y-132678888D01*
X42055142Y-132678888D02*
X42127714Y-132969174D01*
X42127714Y-132969174D02*
X42127714Y-133549745D01*
X42127714Y-133549745D02*
X42055142Y-133694888D01*
X42055142Y-133694888D02*
X41982571Y-133767460D01*
X41982571Y-133767460D02*
X41837428Y-133840031D01*
X41837428Y-133840031D02*
X41547142Y-133840031D01*
X41547142Y-133840031D02*
X41402000Y-133767460D01*
X41402000Y-133767460D02*
X41329428Y-133694888D01*
X41329428Y-133694888D02*
X41256857Y-133549745D01*
X41256857Y-133549745D02*
X41256857Y-133186888D01*
X41256857Y-133186888D02*
X41329428Y-133041745D01*
X41329428Y-133041745D02*
X41402000Y-132969174D01*
X41402000Y-132969174D02*
X41547142Y-132896602D01*
X41547142Y-132896602D02*
X41837428Y-132896602D01*
X41837428Y-132896602D02*
X41982571Y-132969174D01*
X41982571Y-132969174D02*
X42055142Y-133041745D01*
X42055142Y-133041745D02*
X42127714Y-133186888D01*
X47251904Y-133917619D02*
X47251904Y-132917619D01*
X46680476Y-133917619D02*
X47109047Y-133346190D01*
X46680476Y-132917619D02*
X47251904Y-133489047D01*
%TO.C,D18*%
X83130571Y-133840031D02*
X83130571Y-132316031D01*
X83130571Y-132316031D02*
X82767714Y-132316031D01*
X82767714Y-132316031D02*
X82550000Y-132388602D01*
X82550000Y-132388602D02*
X82404857Y-132533745D01*
X82404857Y-132533745D02*
X82332286Y-132678888D01*
X82332286Y-132678888D02*
X82259714Y-132969174D01*
X82259714Y-132969174D02*
X82259714Y-133186888D01*
X82259714Y-133186888D02*
X82332286Y-133477174D01*
X82332286Y-133477174D02*
X82404857Y-133622317D01*
X82404857Y-133622317D02*
X82550000Y-133767460D01*
X82550000Y-133767460D02*
X82767714Y-133840031D01*
X82767714Y-133840031D02*
X83130571Y-133840031D01*
X80808286Y-133840031D02*
X81679143Y-133840031D01*
X81243714Y-133840031D02*
X81243714Y-132316031D01*
X81243714Y-132316031D02*
X81388857Y-132533745D01*
X81388857Y-132533745D02*
X81534000Y-132678888D01*
X81534000Y-132678888D02*
X81679143Y-132751460D01*
X79937428Y-132969174D02*
X80082571Y-132896602D01*
X80082571Y-132896602D02*
X80155142Y-132824031D01*
X80155142Y-132824031D02*
X80227714Y-132678888D01*
X80227714Y-132678888D02*
X80227714Y-132606317D01*
X80227714Y-132606317D02*
X80155142Y-132461174D01*
X80155142Y-132461174D02*
X80082571Y-132388602D01*
X80082571Y-132388602D02*
X79937428Y-132316031D01*
X79937428Y-132316031D02*
X79647142Y-132316031D01*
X79647142Y-132316031D02*
X79502000Y-132388602D01*
X79502000Y-132388602D02*
X79429428Y-132461174D01*
X79429428Y-132461174D02*
X79356857Y-132606317D01*
X79356857Y-132606317D02*
X79356857Y-132678888D01*
X79356857Y-132678888D02*
X79429428Y-132824031D01*
X79429428Y-132824031D02*
X79502000Y-132896602D01*
X79502000Y-132896602D02*
X79647142Y-132969174D01*
X79647142Y-132969174D02*
X79937428Y-132969174D01*
X79937428Y-132969174D02*
X80082571Y-133041745D01*
X80082571Y-133041745D02*
X80155142Y-133114317D01*
X80155142Y-133114317D02*
X80227714Y-133259460D01*
X80227714Y-133259460D02*
X80227714Y-133549745D01*
X80227714Y-133549745D02*
X80155142Y-133694888D01*
X80155142Y-133694888D02*
X80082571Y-133767460D01*
X80082571Y-133767460D02*
X79937428Y-133840031D01*
X79937428Y-133840031D02*
X79647142Y-133840031D01*
X79647142Y-133840031D02*
X79502000Y-133767460D01*
X79502000Y-133767460D02*
X79429428Y-133694888D01*
X79429428Y-133694888D02*
X79356857Y-133549745D01*
X79356857Y-133549745D02*
X79356857Y-133259460D01*
X79356857Y-133259460D02*
X79429428Y-133114317D01*
X79429428Y-133114317D02*
X79502000Y-133041745D01*
X79502000Y-133041745D02*
X79647142Y-132969174D01*
X85351904Y-133917619D02*
X85351904Y-132917619D01*
X84780476Y-133917619D02*
X85209047Y-133346190D01*
X84780476Y-132917619D02*
X85351904Y-133489047D01*
%TO.C,D13*%
X64080571Y-114790031D02*
X64080571Y-113266031D01*
X64080571Y-113266031D02*
X63717714Y-113266031D01*
X63717714Y-113266031D02*
X63500000Y-113338602D01*
X63500000Y-113338602D02*
X63354857Y-113483745D01*
X63354857Y-113483745D02*
X63282286Y-113628888D01*
X63282286Y-113628888D02*
X63209714Y-113919174D01*
X63209714Y-113919174D02*
X63209714Y-114136888D01*
X63209714Y-114136888D02*
X63282286Y-114427174D01*
X63282286Y-114427174D02*
X63354857Y-114572317D01*
X63354857Y-114572317D02*
X63500000Y-114717460D01*
X63500000Y-114717460D02*
X63717714Y-114790031D01*
X63717714Y-114790031D02*
X64080571Y-114790031D01*
X61758286Y-114790031D02*
X62629143Y-114790031D01*
X62193714Y-114790031D02*
X62193714Y-113266031D01*
X62193714Y-113266031D02*
X62338857Y-113483745D01*
X62338857Y-113483745D02*
X62484000Y-113628888D01*
X62484000Y-113628888D02*
X62629143Y-113701460D01*
X61250285Y-113266031D02*
X60306857Y-113266031D01*
X60306857Y-113266031D02*
X60814857Y-113846602D01*
X60814857Y-113846602D02*
X60597142Y-113846602D01*
X60597142Y-113846602D02*
X60452000Y-113919174D01*
X60452000Y-113919174D02*
X60379428Y-113991745D01*
X60379428Y-113991745D02*
X60306857Y-114136888D01*
X60306857Y-114136888D02*
X60306857Y-114499745D01*
X60306857Y-114499745D02*
X60379428Y-114644888D01*
X60379428Y-114644888D02*
X60452000Y-114717460D01*
X60452000Y-114717460D02*
X60597142Y-114790031D01*
X60597142Y-114790031D02*
X61032571Y-114790031D01*
X61032571Y-114790031D02*
X61177714Y-114717460D01*
X61177714Y-114717460D02*
X61250285Y-114644888D01*
X66301904Y-114867619D02*
X66301904Y-113867619D01*
X65730476Y-114867619D02*
X66159047Y-114296190D01*
X65730476Y-113867619D02*
X66301904Y-114439047D01*
%TO.C,D21*%
X64080571Y-152890031D02*
X64080571Y-151366031D01*
X64080571Y-151366031D02*
X63717714Y-151366031D01*
X63717714Y-151366031D02*
X63500000Y-151438602D01*
X63500000Y-151438602D02*
X63354857Y-151583745D01*
X63354857Y-151583745D02*
X63282286Y-151728888D01*
X63282286Y-151728888D02*
X63209714Y-152019174D01*
X63209714Y-152019174D02*
X63209714Y-152236888D01*
X63209714Y-152236888D02*
X63282286Y-152527174D01*
X63282286Y-152527174D02*
X63354857Y-152672317D01*
X63354857Y-152672317D02*
X63500000Y-152817460D01*
X63500000Y-152817460D02*
X63717714Y-152890031D01*
X63717714Y-152890031D02*
X64080571Y-152890031D01*
X62629143Y-151511174D02*
X62556571Y-151438602D01*
X62556571Y-151438602D02*
X62411429Y-151366031D01*
X62411429Y-151366031D02*
X62048571Y-151366031D01*
X62048571Y-151366031D02*
X61903429Y-151438602D01*
X61903429Y-151438602D02*
X61830857Y-151511174D01*
X61830857Y-151511174D02*
X61758286Y-151656317D01*
X61758286Y-151656317D02*
X61758286Y-151801460D01*
X61758286Y-151801460D02*
X61830857Y-152019174D01*
X61830857Y-152019174D02*
X62701714Y-152890031D01*
X62701714Y-152890031D02*
X61758286Y-152890031D01*
X60306857Y-152890031D02*
X61177714Y-152890031D01*
X60742285Y-152890031D02*
X60742285Y-151366031D01*
X60742285Y-151366031D02*
X60887428Y-151583745D01*
X60887428Y-151583745D02*
X61032571Y-151728888D01*
X61032571Y-151728888D02*
X61177714Y-151801460D01*
X66301904Y-152967619D02*
X66301904Y-151967619D01*
X65730476Y-152967619D02*
X66159047Y-152396190D01*
X65730476Y-151967619D02*
X66301904Y-152539047D01*
%TO.C,RV1*%
X37991142Y-50362031D02*
X38499142Y-49636317D01*
X38861999Y-50362031D02*
X38861999Y-48838031D01*
X38861999Y-48838031D02*
X38281428Y-48838031D01*
X38281428Y-48838031D02*
X38136285Y-48910602D01*
X38136285Y-48910602D02*
X38063714Y-48983174D01*
X38063714Y-48983174D02*
X37991142Y-49128317D01*
X37991142Y-49128317D02*
X37991142Y-49346031D01*
X37991142Y-49346031D02*
X38063714Y-49491174D01*
X38063714Y-49491174D02*
X38136285Y-49563745D01*
X38136285Y-49563745D02*
X38281428Y-49636317D01*
X38281428Y-49636317D02*
X38861999Y-49636317D01*
X37555714Y-48838031D02*
X37047714Y-50362031D01*
X37047714Y-50362031D02*
X36539714Y-48838031D01*
X35233428Y-50362031D02*
X36104285Y-50362031D01*
X35668856Y-50362031D02*
X35668856Y-48838031D01*
X35668856Y-48838031D02*
X35813999Y-49055745D01*
X35813999Y-49055745D02*
X35959142Y-49200888D01*
X35959142Y-49200888D02*
X36104285Y-49273460D01*
%TO.C,D27*%
X102180571Y-171305031D02*
X102180571Y-169781031D01*
X102180571Y-169781031D02*
X101817714Y-169781031D01*
X101817714Y-169781031D02*
X101600000Y-169853602D01*
X101600000Y-169853602D02*
X101454857Y-169998745D01*
X101454857Y-169998745D02*
X101382286Y-170143888D01*
X101382286Y-170143888D02*
X101309714Y-170434174D01*
X101309714Y-170434174D02*
X101309714Y-170651888D01*
X101309714Y-170651888D02*
X101382286Y-170942174D01*
X101382286Y-170942174D02*
X101454857Y-171087317D01*
X101454857Y-171087317D02*
X101600000Y-171232460D01*
X101600000Y-171232460D02*
X101817714Y-171305031D01*
X101817714Y-171305031D02*
X102180571Y-171305031D01*
X100729143Y-169926174D02*
X100656571Y-169853602D01*
X100656571Y-169853602D02*
X100511429Y-169781031D01*
X100511429Y-169781031D02*
X100148571Y-169781031D01*
X100148571Y-169781031D02*
X100003429Y-169853602D01*
X100003429Y-169853602D02*
X99930857Y-169926174D01*
X99930857Y-169926174D02*
X99858286Y-170071317D01*
X99858286Y-170071317D02*
X99858286Y-170216460D01*
X99858286Y-170216460D02*
X99930857Y-170434174D01*
X99930857Y-170434174D02*
X100801714Y-171305031D01*
X100801714Y-171305031D02*
X99858286Y-171305031D01*
X99350285Y-169781031D02*
X98334285Y-169781031D01*
X98334285Y-169781031D02*
X98987428Y-171305031D01*
X104401904Y-171382619D02*
X104401904Y-170382619D01*
X103830476Y-171382619D02*
X104259047Y-170811190D01*
X103830476Y-170382619D02*
X104401904Y-170954047D01*
%TO.C,D24*%
X45030571Y-171940031D02*
X45030571Y-170416031D01*
X45030571Y-170416031D02*
X44667714Y-170416031D01*
X44667714Y-170416031D02*
X44450000Y-170488602D01*
X44450000Y-170488602D02*
X44304857Y-170633745D01*
X44304857Y-170633745D02*
X44232286Y-170778888D01*
X44232286Y-170778888D02*
X44159714Y-171069174D01*
X44159714Y-171069174D02*
X44159714Y-171286888D01*
X44159714Y-171286888D02*
X44232286Y-171577174D01*
X44232286Y-171577174D02*
X44304857Y-171722317D01*
X44304857Y-171722317D02*
X44450000Y-171867460D01*
X44450000Y-171867460D02*
X44667714Y-171940031D01*
X44667714Y-171940031D02*
X45030571Y-171940031D01*
X43579143Y-170561174D02*
X43506571Y-170488602D01*
X43506571Y-170488602D02*
X43361429Y-170416031D01*
X43361429Y-170416031D02*
X42998571Y-170416031D01*
X42998571Y-170416031D02*
X42853429Y-170488602D01*
X42853429Y-170488602D02*
X42780857Y-170561174D01*
X42780857Y-170561174D02*
X42708286Y-170706317D01*
X42708286Y-170706317D02*
X42708286Y-170851460D01*
X42708286Y-170851460D02*
X42780857Y-171069174D01*
X42780857Y-171069174D02*
X43651714Y-171940031D01*
X43651714Y-171940031D02*
X42708286Y-171940031D01*
X41402000Y-170924031D02*
X41402000Y-171940031D01*
X41764857Y-170343460D02*
X42127714Y-171432031D01*
X42127714Y-171432031D02*
X41184285Y-171432031D01*
X47251904Y-172017619D02*
X47251904Y-171017619D01*
X46680476Y-172017619D02*
X47109047Y-171446190D01*
X46680476Y-171017619D02*
X47251904Y-171589047D01*
%TO.C,D5*%
X82404856Y-76690031D02*
X82404856Y-75166031D01*
X82404856Y-75166031D02*
X82041999Y-75166031D01*
X82041999Y-75166031D02*
X81824285Y-75238602D01*
X81824285Y-75238602D02*
X81679142Y-75383745D01*
X81679142Y-75383745D02*
X81606571Y-75528888D01*
X81606571Y-75528888D02*
X81533999Y-75819174D01*
X81533999Y-75819174D02*
X81533999Y-76036888D01*
X81533999Y-76036888D02*
X81606571Y-76327174D01*
X81606571Y-76327174D02*
X81679142Y-76472317D01*
X81679142Y-76472317D02*
X81824285Y-76617460D01*
X81824285Y-76617460D02*
X82041999Y-76690031D01*
X82041999Y-76690031D02*
X82404856Y-76690031D01*
X80155142Y-75166031D02*
X80880856Y-75166031D01*
X80880856Y-75166031D02*
X80953428Y-75891745D01*
X80953428Y-75891745D02*
X80880856Y-75819174D01*
X80880856Y-75819174D02*
X80735714Y-75746602D01*
X80735714Y-75746602D02*
X80372856Y-75746602D01*
X80372856Y-75746602D02*
X80227714Y-75819174D01*
X80227714Y-75819174D02*
X80155142Y-75891745D01*
X80155142Y-75891745D02*
X80082571Y-76036888D01*
X80082571Y-76036888D02*
X80082571Y-76399745D01*
X80082571Y-76399745D02*
X80155142Y-76544888D01*
X80155142Y-76544888D02*
X80227714Y-76617460D01*
X80227714Y-76617460D02*
X80372856Y-76690031D01*
X80372856Y-76690031D02*
X80735714Y-76690031D01*
X80735714Y-76690031D02*
X80880856Y-76617460D01*
X80880856Y-76617460D02*
X80953428Y-76544888D01*
X85351904Y-76767619D02*
X85351904Y-75767619D01*
X84780476Y-76767619D02*
X85209047Y-76196190D01*
X84780476Y-75767619D02*
X85351904Y-76339047D01*
%TO.C,D9*%
X82404856Y-95740031D02*
X82404856Y-94216031D01*
X82404856Y-94216031D02*
X82041999Y-94216031D01*
X82041999Y-94216031D02*
X81824285Y-94288602D01*
X81824285Y-94288602D02*
X81679142Y-94433745D01*
X81679142Y-94433745D02*
X81606571Y-94578888D01*
X81606571Y-94578888D02*
X81533999Y-94869174D01*
X81533999Y-94869174D02*
X81533999Y-95086888D01*
X81533999Y-95086888D02*
X81606571Y-95377174D01*
X81606571Y-95377174D02*
X81679142Y-95522317D01*
X81679142Y-95522317D02*
X81824285Y-95667460D01*
X81824285Y-95667460D02*
X82041999Y-95740031D01*
X82041999Y-95740031D02*
X82404856Y-95740031D01*
X80808285Y-95740031D02*
X80517999Y-95740031D01*
X80517999Y-95740031D02*
X80372856Y-95667460D01*
X80372856Y-95667460D02*
X80300285Y-95594888D01*
X80300285Y-95594888D02*
X80155142Y-95377174D01*
X80155142Y-95377174D02*
X80082571Y-95086888D01*
X80082571Y-95086888D02*
X80082571Y-94506317D01*
X80082571Y-94506317D02*
X80155142Y-94361174D01*
X80155142Y-94361174D02*
X80227714Y-94288602D01*
X80227714Y-94288602D02*
X80372856Y-94216031D01*
X80372856Y-94216031D02*
X80663142Y-94216031D01*
X80663142Y-94216031D02*
X80808285Y-94288602D01*
X80808285Y-94288602D02*
X80880856Y-94361174D01*
X80880856Y-94361174D02*
X80953428Y-94506317D01*
X80953428Y-94506317D02*
X80953428Y-94869174D01*
X80953428Y-94869174D02*
X80880856Y-95014317D01*
X80880856Y-95014317D02*
X80808285Y-95086888D01*
X80808285Y-95086888D02*
X80663142Y-95159460D01*
X80663142Y-95159460D02*
X80372856Y-95159460D01*
X80372856Y-95159460D02*
X80227714Y-95086888D01*
X80227714Y-95086888D02*
X80155142Y-95014317D01*
X80155142Y-95014317D02*
X80082571Y-94869174D01*
X85351904Y-95817619D02*
X85351904Y-94817619D01*
X84780476Y-95817619D02*
X85209047Y-95246190D01*
X84780476Y-94817619D02*
X85351904Y-95389047D01*
%TO.C,D19*%
X102180571Y-133840031D02*
X102180571Y-132316031D01*
X102180571Y-132316031D02*
X101817714Y-132316031D01*
X101817714Y-132316031D02*
X101600000Y-132388602D01*
X101600000Y-132388602D02*
X101454857Y-132533745D01*
X101454857Y-132533745D02*
X101382286Y-132678888D01*
X101382286Y-132678888D02*
X101309714Y-132969174D01*
X101309714Y-132969174D02*
X101309714Y-133186888D01*
X101309714Y-133186888D02*
X101382286Y-133477174D01*
X101382286Y-133477174D02*
X101454857Y-133622317D01*
X101454857Y-133622317D02*
X101600000Y-133767460D01*
X101600000Y-133767460D02*
X101817714Y-133840031D01*
X101817714Y-133840031D02*
X102180571Y-133840031D01*
X99858286Y-133840031D02*
X100729143Y-133840031D01*
X100293714Y-133840031D02*
X100293714Y-132316031D01*
X100293714Y-132316031D02*
X100438857Y-132533745D01*
X100438857Y-132533745D02*
X100584000Y-132678888D01*
X100584000Y-132678888D02*
X100729143Y-132751460D01*
X99132571Y-133840031D02*
X98842285Y-133840031D01*
X98842285Y-133840031D02*
X98697142Y-133767460D01*
X98697142Y-133767460D02*
X98624571Y-133694888D01*
X98624571Y-133694888D02*
X98479428Y-133477174D01*
X98479428Y-133477174D02*
X98406857Y-133186888D01*
X98406857Y-133186888D02*
X98406857Y-132606317D01*
X98406857Y-132606317D02*
X98479428Y-132461174D01*
X98479428Y-132461174D02*
X98552000Y-132388602D01*
X98552000Y-132388602D02*
X98697142Y-132316031D01*
X98697142Y-132316031D02*
X98987428Y-132316031D01*
X98987428Y-132316031D02*
X99132571Y-132388602D01*
X99132571Y-132388602D02*
X99205142Y-132461174D01*
X99205142Y-132461174D02*
X99277714Y-132606317D01*
X99277714Y-132606317D02*
X99277714Y-132969174D01*
X99277714Y-132969174D02*
X99205142Y-133114317D01*
X99205142Y-133114317D02*
X99132571Y-133186888D01*
X99132571Y-133186888D02*
X98987428Y-133259460D01*
X98987428Y-133259460D02*
X98697142Y-133259460D01*
X98697142Y-133259460D02*
X98552000Y-133186888D01*
X98552000Y-133186888D02*
X98479428Y-133114317D01*
X98479428Y-133114317D02*
X98406857Y-132969174D01*
X104401904Y-133917619D02*
X104401904Y-132917619D01*
X103830476Y-133917619D02*
X104259047Y-133346190D01*
X103830476Y-132917619D02*
X104401904Y-133489047D01*
%TO.C,D8*%
X63354856Y-95740031D02*
X63354856Y-94216031D01*
X63354856Y-94216031D02*
X62991999Y-94216031D01*
X62991999Y-94216031D02*
X62774285Y-94288602D01*
X62774285Y-94288602D02*
X62629142Y-94433745D01*
X62629142Y-94433745D02*
X62556571Y-94578888D01*
X62556571Y-94578888D02*
X62483999Y-94869174D01*
X62483999Y-94869174D02*
X62483999Y-95086888D01*
X62483999Y-95086888D02*
X62556571Y-95377174D01*
X62556571Y-95377174D02*
X62629142Y-95522317D01*
X62629142Y-95522317D02*
X62774285Y-95667460D01*
X62774285Y-95667460D02*
X62991999Y-95740031D01*
X62991999Y-95740031D02*
X63354856Y-95740031D01*
X61613142Y-94869174D02*
X61758285Y-94796602D01*
X61758285Y-94796602D02*
X61830856Y-94724031D01*
X61830856Y-94724031D02*
X61903428Y-94578888D01*
X61903428Y-94578888D02*
X61903428Y-94506317D01*
X61903428Y-94506317D02*
X61830856Y-94361174D01*
X61830856Y-94361174D02*
X61758285Y-94288602D01*
X61758285Y-94288602D02*
X61613142Y-94216031D01*
X61613142Y-94216031D02*
X61322856Y-94216031D01*
X61322856Y-94216031D02*
X61177714Y-94288602D01*
X61177714Y-94288602D02*
X61105142Y-94361174D01*
X61105142Y-94361174D02*
X61032571Y-94506317D01*
X61032571Y-94506317D02*
X61032571Y-94578888D01*
X61032571Y-94578888D02*
X61105142Y-94724031D01*
X61105142Y-94724031D02*
X61177714Y-94796602D01*
X61177714Y-94796602D02*
X61322856Y-94869174D01*
X61322856Y-94869174D02*
X61613142Y-94869174D01*
X61613142Y-94869174D02*
X61758285Y-94941745D01*
X61758285Y-94941745D02*
X61830856Y-95014317D01*
X61830856Y-95014317D02*
X61903428Y-95159460D01*
X61903428Y-95159460D02*
X61903428Y-95449745D01*
X61903428Y-95449745D02*
X61830856Y-95594888D01*
X61830856Y-95594888D02*
X61758285Y-95667460D01*
X61758285Y-95667460D02*
X61613142Y-95740031D01*
X61613142Y-95740031D02*
X61322856Y-95740031D01*
X61322856Y-95740031D02*
X61177714Y-95667460D01*
X61177714Y-95667460D02*
X61105142Y-95594888D01*
X61105142Y-95594888D02*
X61032571Y-95449745D01*
X61032571Y-95449745D02*
X61032571Y-95159460D01*
X61032571Y-95159460D02*
X61105142Y-95014317D01*
X61105142Y-95014317D02*
X61177714Y-94941745D01*
X61177714Y-94941745D02*
X61322856Y-94869174D01*
X66301904Y-95817619D02*
X66301904Y-94817619D01*
X65730476Y-95817619D02*
X66159047Y-95246190D01*
X65730476Y-94817619D02*
X66301904Y-95389047D01*
%TO.C,D26*%
X83130571Y-171305031D02*
X83130571Y-169781031D01*
X83130571Y-169781031D02*
X82767714Y-169781031D01*
X82767714Y-169781031D02*
X82550000Y-169853602D01*
X82550000Y-169853602D02*
X82404857Y-169998745D01*
X82404857Y-169998745D02*
X82332286Y-170143888D01*
X82332286Y-170143888D02*
X82259714Y-170434174D01*
X82259714Y-170434174D02*
X82259714Y-170651888D01*
X82259714Y-170651888D02*
X82332286Y-170942174D01*
X82332286Y-170942174D02*
X82404857Y-171087317D01*
X82404857Y-171087317D02*
X82550000Y-171232460D01*
X82550000Y-171232460D02*
X82767714Y-171305031D01*
X82767714Y-171305031D02*
X83130571Y-171305031D01*
X81679143Y-169926174D02*
X81606571Y-169853602D01*
X81606571Y-169853602D02*
X81461429Y-169781031D01*
X81461429Y-169781031D02*
X81098571Y-169781031D01*
X81098571Y-169781031D02*
X80953429Y-169853602D01*
X80953429Y-169853602D02*
X80880857Y-169926174D01*
X80880857Y-169926174D02*
X80808286Y-170071317D01*
X80808286Y-170071317D02*
X80808286Y-170216460D01*
X80808286Y-170216460D02*
X80880857Y-170434174D01*
X80880857Y-170434174D02*
X81751714Y-171305031D01*
X81751714Y-171305031D02*
X80808286Y-171305031D01*
X79502000Y-169781031D02*
X79792285Y-169781031D01*
X79792285Y-169781031D02*
X79937428Y-169853602D01*
X79937428Y-169853602D02*
X80010000Y-169926174D01*
X80010000Y-169926174D02*
X80155142Y-170143888D01*
X80155142Y-170143888D02*
X80227714Y-170434174D01*
X80227714Y-170434174D02*
X80227714Y-171014745D01*
X80227714Y-171014745D02*
X80155142Y-171159888D01*
X80155142Y-171159888D02*
X80082571Y-171232460D01*
X80082571Y-171232460D02*
X79937428Y-171305031D01*
X79937428Y-171305031D02*
X79647142Y-171305031D01*
X79647142Y-171305031D02*
X79502000Y-171232460D01*
X79502000Y-171232460D02*
X79429428Y-171159888D01*
X79429428Y-171159888D02*
X79356857Y-171014745D01*
X79356857Y-171014745D02*
X79356857Y-170651888D01*
X79356857Y-170651888D02*
X79429428Y-170506745D01*
X79429428Y-170506745D02*
X79502000Y-170434174D01*
X79502000Y-170434174D02*
X79647142Y-170361602D01*
X79647142Y-170361602D02*
X79937428Y-170361602D01*
X79937428Y-170361602D02*
X80082571Y-170434174D01*
X80082571Y-170434174D02*
X80155142Y-170506745D01*
X80155142Y-170506745D02*
X80227714Y-170651888D01*
X85351904Y-171382619D02*
X85351904Y-170382619D01*
X84780476Y-171382619D02*
X85209047Y-170811190D01*
X84780476Y-170382619D02*
X85351904Y-170954047D01*
%TO.C,D14*%
X83130571Y-114790031D02*
X83130571Y-113266031D01*
X83130571Y-113266031D02*
X82767714Y-113266031D01*
X82767714Y-113266031D02*
X82550000Y-113338602D01*
X82550000Y-113338602D02*
X82404857Y-113483745D01*
X82404857Y-113483745D02*
X82332286Y-113628888D01*
X82332286Y-113628888D02*
X82259714Y-113919174D01*
X82259714Y-113919174D02*
X82259714Y-114136888D01*
X82259714Y-114136888D02*
X82332286Y-114427174D01*
X82332286Y-114427174D02*
X82404857Y-114572317D01*
X82404857Y-114572317D02*
X82550000Y-114717460D01*
X82550000Y-114717460D02*
X82767714Y-114790031D01*
X82767714Y-114790031D02*
X83130571Y-114790031D01*
X80808286Y-114790031D02*
X81679143Y-114790031D01*
X81243714Y-114790031D02*
X81243714Y-113266031D01*
X81243714Y-113266031D02*
X81388857Y-113483745D01*
X81388857Y-113483745D02*
X81534000Y-113628888D01*
X81534000Y-113628888D02*
X81679143Y-113701460D01*
X79502000Y-113774031D02*
X79502000Y-114790031D01*
X79864857Y-113193460D02*
X80227714Y-114282031D01*
X80227714Y-114282031D02*
X79284285Y-114282031D01*
X85351904Y-114867619D02*
X85351904Y-113867619D01*
X84780476Y-114867619D02*
X85209047Y-114296190D01*
X84780476Y-113867619D02*
X85351904Y-114439047D01*
%TO.C,D12*%
X45030571Y-114790031D02*
X45030571Y-113266031D01*
X45030571Y-113266031D02*
X44667714Y-113266031D01*
X44667714Y-113266031D02*
X44450000Y-113338602D01*
X44450000Y-113338602D02*
X44304857Y-113483745D01*
X44304857Y-113483745D02*
X44232286Y-113628888D01*
X44232286Y-113628888D02*
X44159714Y-113919174D01*
X44159714Y-113919174D02*
X44159714Y-114136888D01*
X44159714Y-114136888D02*
X44232286Y-114427174D01*
X44232286Y-114427174D02*
X44304857Y-114572317D01*
X44304857Y-114572317D02*
X44450000Y-114717460D01*
X44450000Y-114717460D02*
X44667714Y-114790031D01*
X44667714Y-114790031D02*
X45030571Y-114790031D01*
X42708286Y-114790031D02*
X43579143Y-114790031D01*
X43143714Y-114790031D02*
X43143714Y-113266031D01*
X43143714Y-113266031D02*
X43288857Y-113483745D01*
X43288857Y-113483745D02*
X43434000Y-113628888D01*
X43434000Y-113628888D02*
X43579143Y-113701460D01*
X42127714Y-113411174D02*
X42055142Y-113338602D01*
X42055142Y-113338602D02*
X41910000Y-113266031D01*
X41910000Y-113266031D02*
X41547142Y-113266031D01*
X41547142Y-113266031D02*
X41402000Y-113338602D01*
X41402000Y-113338602D02*
X41329428Y-113411174D01*
X41329428Y-113411174D02*
X41256857Y-113556317D01*
X41256857Y-113556317D02*
X41256857Y-113701460D01*
X41256857Y-113701460D02*
X41329428Y-113919174D01*
X41329428Y-113919174D02*
X42200285Y-114790031D01*
X42200285Y-114790031D02*
X41256857Y-114790031D01*
X47251904Y-114867619D02*
X47251904Y-113867619D01*
X46680476Y-114867619D02*
X47109047Y-114296190D01*
X46680476Y-113867619D02*
X47251904Y-114439047D01*
%TO.C,D17*%
X64080571Y-133840031D02*
X64080571Y-132316031D01*
X64080571Y-132316031D02*
X63717714Y-132316031D01*
X63717714Y-132316031D02*
X63500000Y-132388602D01*
X63500000Y-132388602D02*
X63354857Y-132533745D01*
X63354857Y-132533745D02*
X63282286Y-132678888D01*
X63282286Y-132678888D02*
X63209714Y-132969174D01*
X63209714Y-132969174D02*
X63209714Y-133186888D01*
X63209714Y-133186888D02*
X63282286Y-133477174D01*
X63282286Y-133477174D02*
X63354857Y-133622317D01*
X63354857Y-133622317D02*
X63500000Y-133767460D01*
X63500000Y-133767460D02*
X63717714Y-133840031D01*
X63717714Y-133840031D02*
X64080571Y-133840031D01*
X61758286Y-133840031D02*
X62629143Y-133840031D01*
X62193714Y-133840031D02*
X62193714Y-132316031D01*
X62193714Y-132316031D02*
X62338857Y-132533745D01*
X62338857Y-132533745D02*
X62484000Y-132678888D01*
X62484000Y-132678888D02*
X62629143Y-132751460D01*
X61250285Y-132316031D02*
X60234285Y-132316031D01*
X60234285Y-132316031D02*
X60887428Y-133840031D01*
X66301904Y-133917619D02*
X66301904Y-132917619D01*
X65730476Y-133917619D02*
X66159047Y-133346190D01*
X65730476Y-132917619D02*
X66301904Y-133489047D01*
%TO.C,C2*%
X40512999Y-27356888D02*
X40585571Y-27429460D01*
X40585571Y-27429460D02*
X40803285Y-27502031D01*
X40803285Y-27502031D02*
X40948428Y-27502031D01*
X40948428Y-27502031D02*
X41166142Y-27429460D01*
X41166142Y-27429460D02*
X41311285Y-27284317D01*
X41311285Y-27284317D02*
X41383856Y-27139174D01*
X41383856Y-27139174D02*
X41456428Y-26848888D01*
X41456428Y-26848888D02*
X41456428Y-26631174D01*
X41456428Y-26631174D02*
X41383856Y-26340888D01*
X41383856Y-26340888D02*
X41311285Y-26195745D01*
X41311285Y-26195745D02*
X41166142Y-26050602D01*
X41166142Y-26050602D02*
X40948428Y-25978031D01*
X40948428Y-25978031D02*
X40803285Y-25978031D01*
X40803285Y-25978031D02*
X40585571Y-26050602D01*
X40585571Y-26050602D02*
X40512999Y-26123174D01*
X39932428Y-26123174D02*
X39859856Y-26050602D01*
X39859856Y-26050602D02*
X39714714Y-25978031D01*
X39714714Y-25978031D02*
X39351856Y-25978031D01*
X39351856Y-25978031D02*
X39206714Y-26050602D01*
X39206714Y-26050602D02*
X39134142Y-26123174D01*
X39134142Y-26123174D02*
X39061571Y-26268317D01*
X39061571Y-26268317D02*
X39061571Y-26413460D01*
X39061571Y-26413460D02*
X39134142Y-26631174D01*
X39134142Y-26631174D02*
X40004999Y-27502031D01*
X40004999Y-27502031D02*
X39061571Y-27502031D01*
D11*
%TO.C,SW5*%
X107290000Y-33652460D02*
X107072286Y-33725031D01*
X107072286Y-33725031D02*
X106709428Y-33725031D01*
X106709428Y-33725031D02*
X106564286Y-33652460D01*
X106564286Y-33652460D02*
X106491714Y-33579888D01*
X106491714Y-33579888D02*
X106419143Y-33434745D01*
X106419143Y-33434745D02*
X106419143Y-33289602D01*
X106419143Y-33289602D02*
X106491714Y-33144460D01*
X106491714Y-33144460D02*
X106564286Y-33071888D01*
X106564286Y-33071888D02*
X106709428Y-32999317D01*
X106709428Y-32999317D02*
X106999714Y-32926745D01*
X106999714Y-32926745D02*
X107144857Y-32854174D01*
X107144857Y-32854174D02*
X107217428Y-32781602D01*
X107217428Y-32781602D02*
X107290000Y-32636460D01*
X107290000Y-32636460D02*
X107290000Y-32491317D01*
X107290000Y-32491317D02*
X107217428Y-32346174D01*
X107217428Y-32346174D02*
X107144857Y-32273602D01*
X107144857Y-32273602D02*
X106999714Y-32201031D01*
X106999714Y-32201031D02*
X106636857Y-32201031D01*
X106636857Y-32201031D02*
X106419143Y-32273602D01*
X105911142Y-32201031D02*
X105548285Y-33725031D01*
X105548285Y-33725031D02*
X105257999Y-32636460D01*
X105257999Y-32636460D02*
X104967714Y-33725031D01*
X104967714Y-33725031D02*
X104604857Y-32201031D01*
X103298571Y-32201031D02*
X104024285Y-32201031D01*
X104024285Y-32201031D02*
X104096857Y-32926745D01*
X104096857Y-32926745D02*
X104024285Y-32854174D01*
X104024285Y-32854174D02*
X103879143Y-32781602D01*
X103879143Y-32781602D02*
X103516285Y-32781602D01*
X103516285Y-32781602D02*
X103371143Y-32854174D01*
X103371143Y-32854174D02*
X103298571Y-32926745D01*
X103298571Y-32926745D02*
X103226000Y-33071888D01*
X103226000Y-33071888D02*
X103226000Y-33434745D01*
X103226000Y-33434745D02*
X103298571Y-33579888D01*
X103298571Y-33579888D02*
X103371143Y-33652460D01*
X103371143Y-33652460D02*
X103516285Y-33725031D01*
X103516285Y-33725031D02*
X103879143Y-33725031D01*
X103879143Y-33725031D02*
X104024285Y-33652460D01*
X104024285Y-33652460D02*
X104096857Y-33579888D01*
D10*
%TO.C,J1*%
X89662000Y-20766031D02*
X89662000Y-21854602D01*
X89662000Y-21854602D02*
X89734571Y-22072317D01*
X89734571Y-22072317D02*
X89879714Y-22217460D01*
X89879714Y-22217460D02*
X90097428Y-22290031D01*
X90097428Y-22290031D02*
X90242571Y-22290031D01*
X88138000Y-22290031D02*
X89008857Y-22290031D01*
X88573428Y-22290031D02*
X88573428Y-20766031D01*
X88573428Y-20766031D02*
X88718571Y-20983745D01*
X88718571Y-20983745D02*
X88863714Y-21128888D01*
X88863714Y-21128888D02*
X89008857Y-21201460D01*
%TO.C,D28*%
X45030571Y-190990031D02*
X45030571Y-189466031D01*
X45030571Y-189466031D02*
X44667714Y-189466031D01*
X44667714Y-189466031D02*
X44450000Y-189538602D01*
X44450000Y-189538602D02*
X44304857Y-189683745D01*
X44304857Y-189683745D02*
X44232286Y-189828888D01*
X44232286Y-189828888D02*
X44159714Y-190119174D01*
X44159714Y-190119174D02*
X44159714Y-190336888D01*
X44159714Y-190336888D02*
X44232286Y-190627174D01*
X44232286Y-190627174D02*
X44304857Y-190772317D01*
X44304857Y-190772317D02*
X44450000Y-190917460D01*
X44450000Y-190917460D02*
X44667714Y-190990031D01*
X44667714Y-190990031D02*
X45030571Y-190990031D01*
X43579143Y-189611174D02*
X43506571Y-189538602D01*
X43506571Y-189538602D02*
X43361429Y-189466031D01*
X43361429Y-189466031D02*
X42998571Y-189466031D01*
X42998571Y-189466031D02*
X42853429Y-189538602D01*
X42853429Y-189538602D02*
X42780857Y-189611174D01*
X42780857Y-189611174D02*
X42708286Y-189756317D01*
X42708286Y-189756317D02*
X42708286Y-189901460D01*
X42708286Y-189901460D02*
X42780857Y-190119174D01*
X42780857Y-190119174D02*
X43651714Y-190990031D01*
X43651714Y-190990031D02*
X42708286Y-190990031D01*
X41837428Y-190119174D02*
X41982571Y-190046602D01*
X41982571Y-190046602D02*
X42055142Y-189974031D01*
X42055142Y-189974031D02*
X42127714Y-189828888D01*
X42127714Y-189828888D02*
X42127714Y-189756317D01*
X42127714Y-189756317D02*
X42055142Y-189611174D01*
X42055142Y-189611174D02*
X41982571Y-189538602D01*
X41982571Y-189538602D02*
X41837428Y-189466031D01*
X41837428Y-189466031D02*
X41547142Y-189466031D01*
X41547142Y-189466031D02*
X41402000Y-189538602D01*
X41402000Y-189538602D02*
X41329428Y-189611174D01*
X41329428Y-189611174D02*
X41256857Y-189756317D01*
X41256857Y-189756317D02*
X41256857Y-189828888D01*
X41256857Y-189828888D02*
X41329428Y-189974031D01*
X41329428Y-189974031D02*
X41402000Y-190046602D01*
X41402000Y-190046602D02*
X41547142Y-190119174D01*
X41547142Y-190119174D02*
X41837428Y-190119174D01*
X41837428Y-190119174D02*
X41982571Y-190191745D01*
X41982571Y-190191745D02*
X42055142Y-190264317D01*
X42055142Y-190264317D02*
X42127714Y-190409460D01*
X42127714Y-190409460D02*
X42127714Y-190699745D01*
X42127714Y-190699745D02*
X42055142Y-190844888D01*
X42055142Y-190844888D02*
X41982571Y-190917460D01*
X41982571Y-190917460D02*
X41837428Y-190990031D01*
X41837428Y-190990031D02*
X41547142Y-190990031D01*
X41547142Y-190990031D02*
X41402000Y-190917460D01*
X41402000Y-190917460D02*
X41329428Y-190844888D01*
X41329428Y-190844888D02*
X41256857Y-190699745D01*
X41256857Y-190699745D02*
X41256857Y-190409460D01*
X41256857Y-190409460D02*
X41329428Y-190264317D01*
X41329428Y-190264317D02*
X41402000Y-190191745D01*
X41402000Y-190191745D02*
X41547142Y-190119174D01*
X47251904Y-191067619D02*
X47251904Y-190067619D01*
X46680476Y-191067619D02*
X47109047Y-190496190D01*
X46680476Y-190067619D02*
X47251904Y-190639047D01*
%TO.C,D23*%
X102180571Y-152890031D02*
X102180571Y-151366031D01*
X102180571Y-151366031D02*
X101817714Y-151366031D01*
X101817714Y-151366031D02*
X101600000Y-151438602D01*
X101600000Y-151438602D02*
X101454857Y-151583745D01*
X101454857Y-151583745D02*
X101382286Y-151728888D01*
X101382286Y-151728888D02*
X101309714Y-152019174D01*
X101309714Y-152019174D02*
X101309714Y-152236888D01*
X101309714Y-152236888D02*
X101382286Y-152527174D01*
X101382286Y-152527174D02*
X101454857Y-152672317D01*
X101454857Y-152672317D02*
X101600000Y-152817460D01*
X101600000Y-152817460D02*
X101817714Y-152890031D01*
X101817714Y-152890031D02*
X102180571Y-152890031D01*
X100729143Y-151511174D02*
X100656571Y-151438602D01*
X100656571Y-151438602D02*
X100511429Y-151366031D01*
X100511429Y-151366031D02*
X100148571Y-151366031D01*
X100148571Y-151366031D02*
X100003429Y-151438602D01*
X100003429Y-151438602D02*
X99930857Y-151511174D01*
X99930857Y-151511174D02*
X99858286Y-151656317D01*
X99858286Y-151656317D02*
X99858286Y-151801460D01*
X99858286Y-151801460D02*
X99930857Y-152019174D01*
X99930857Y-152019174D02*
X100801714Y-152890031D01*
X100801714Y-152890031D02*
X99858286Y-152890031D01*
X99350285Y-151366031D02*
X98406857Y-151366031D01*
X98406857Y-151366031D02*
X98914857Y-151946602D01*
X98914857Y-151946602D02*
X98697142Y-151946602D01*
X98697142Y-151946602D02*
X98552000Y-152019174D01*
X98552000Y-152019174D02*
X98479428Y-152091745D01*
X98479428Y-152091745D02*
X98406857Y-152236888D01*
X98406857Y-152236888D02*
X98406857Y-152599745D01*
X98406857Y-152599745D02*
X98479428Y-152744888D01*
X98479428Y-152744888D02*
X98552000Y-152817460D01*
X98552000Y-152817460D02*
X98697142Y-152890031D01*
X98697142Y-152890031D02*
X99132571Y-152890031D01*
X99132571Y-152890031D02*
X99277714Y-152817460D01*
X99277714Y-152817460D02*
X99350285Y-152744888D01*
X104401904Y-152967619D02*
X104401904Y-151967619D01*
X103830476Y-152967619D02*
X104259047Y-152396190D01*
X103830476Y-151967619D02*
X104401904Y-152539047D01*
%TO.C,D4*%
X63354856Y-76690031D02*
X63354856Y-75166031D01*
X63354856Y-75166031D02*
X62991999Y-75166031D01*
X62991999Y-75166031D02*
X62774285Y-75238602D01*
X62774285Y-75238602D02*
X62629142Y-75383745D01*
X62629142Y-75383745D02*
X62556571Y-75528888D01*
X62556571Y-75528888D02*
X62483999Y-75819174D01*
X62483999Y-75819174D02*
X62483999Y-76036888D01*
X62483999Y-76036888D02*
X62556571Y-76327174D01*
X62556571Y-76327174D02*
X62629142Y-76472317D01*
X62629142Y-76472317D02*
X62774285Y-76617460D01*
X62774285Y-76617460D02*
X62991999Y-76690031D01*
X62991999Y-76690031D02*
X63354856Y-76690031D01*
X61177714Y-75674031D02*
X61177714Y-76690031D01*
X61540571Y-75093460D02*
X61903428Y-76182031D01*
X61903428Y-76182031D02*
X60959999Y-76182031D01*
X66301904Y-76767619D02*
X66301904Y-75767619D01*
X65730476Y-76767619D02*
X66159047Y-76196190D01*
X65730476Y-75767619D02*
X66301904Y-76339047D01*
%TO.C,D6*%
X101454856Y-76690031D02*
X101454856Y-75166031D01*
X101454856Y-75166031D02*
X101091999Y-75166031D01*
X101091999Y-75166031D02*
X100874285Y-75238602D01*
X100874285Y-75238602D02*
X100729142Y-75383745D01*
X100729142Y-75383745D02*
X100656571Y-75528888D01*
X100656571Y-75528888D02*
X100583999Y-75819174D01*
X100583999Y-75819174D02*
X100583999Y-76036888D01*
X100583999Y-76036888D02*
X100656571Y-76327174D01*
X100656571Y-76327174D02*
X100729142Y-76472317D01*
X100729142Y-76472317D02*
X100874285Y-76617460D01*
X100874285Y-76617460D02*
X101091999Y-76690031D01*
X101091999Y-76690031D02*
X101454856Y-76690031D01*
X99277714Y-75166031D02*
X99567999Y-75166031D01*
X99567999Y-75166031D02*
X99713142Y-75238602D01*
X99713142Y-75238602D02*
X99785714Y-75311174D01*
X99785714Y-75311174D02*
X99930856Y-75528888D01*
X99930856Y-75528888D02*
X100003428Y-75819174D01*
X100003428Y-75819174D02*
X100003428Y-76399745D01*
X100003428Y-76399745D02*
X99930856Y-76544888D01*
X99930856Y-76544888D02*
X99858285Y-76617460D01*
X99858285Y-76617460D02*
X99713142Y-76690031D01*
X99713142Y-76690031D02*
X99422856Y-76690031D01*
X99422856Y-76690031D02*
X99277714Y-76617460D01*
X99277714Y-76617460D02*
X99205142Y-76544888D01*
X99205142Y-76544888D02*
X99132571Y-76399745D01*
X99132571Y-76399745D02*
X99132571Y-76036888D01*
X99132571Y-76036888D02*
X99205142Y-75891745D01*
X99205142Y-75891745D02*
X99277714Y-75819174D01*
X99277714Y-75819174D02*
X99422856Y-75746602D01*
X99422856Y-75746602D02*
X99713142Y-75746602D01*
X99713142Y-75746602D02*
X99858285Y-75819174D01*
X99858285Y-75819174D02*
X99930856Y-75891745D01*
X99930856Y-75891745D02*
X100003428Y-76036888D01*
X104401904Y-76767619D02*
X104401904Y-75767619D01*
X103830476Y-76767619D02*
X104259047Y-76196190D01*
X103830476Y-75767619D02*
X104401904Y-76339047D01*
%TO.C,D10*%
X102180571Y-95740031D02*
X102180571Y-94216031D01*
X102180571Y-94216031D02*
X101817714Y-94216031D01*
X101817714Y-94216031D02*
X101600000Y-94288602D01*
X101600000Y-94288602D02*
X101454857Y-94433745D01*
X101454857Y-94433745D02*
X101382286Y-94578888D01*
X101382286Y-94578888D02*
X101309714Y-94869174D01*
X101309714Y-94869174D02*
X101309714Y-95086888D01*
X101309714Y-95086888D02*
X101382286Y-95377174D01*
X101382286Y-95377174D02*
X101454857Y-95522317D01*
X101454857Y-95522317D02*
X101600000Y-95667460D01*
X101600000Y-95667460D02*
X101817714Y-95740031D01*
X101817714Y-95740031D02*
X102180571Y-95740031D01*
X99858286Y-95740031D02*
X100729143Y-95740031D01*
X100293714Y-95740031D02*
X100293714Y-94216031D01*
X100293714Y-94216031D02*
X100438857Y-94433745D01*
X100438857Y-94433745D02*
X100584000Y-94578888D01*
X100584000Y-94578888D02*
X100729143Y-94651460D01*
X98914857Y-94216031D02*
X98769714Y-94216031D01*
X98769714Y-94216031D02*
X98624571Y-94288602D01*
X98624571Y-94288602D02*
X98552000Y-94361174D01*
X98552000Y-94361174D02*
X98479428Y-94506317D01*
X98479428Y-94506317D02*
X98406857Y-94796602D01*
X98406857Y-94796602D02*
X98406857Y-95159460D01*
X98406857Y-95159460D02*
X98479428Y-95449745D01*
X98479428Y-95449745D02*
X98552000Y-95594888D01*
X98552000Y-95594888D02*
X98624571Y-95667460D01*
X98624571Y-95667460D02*
X98769714Y-95740031D01*
X98769714Y-95740031D02*
X98914857Y-95740031D01*
X98914857Y-95740031D02*
X99060000Y-95667460D01*
X99060000Y-95667460D02*
X99132571Y-95594888D01*
X99132571Y-95594888D02*
X99205142Y-95449745D01*
X99205142Y-95449745D02*
X99277714Y-95159460D01*
X99277714Y-95159460D02*
X99277714Y-94796602D01*
X99277714Y-94796602D02*
X99205142Y-94506317D01*
X99205142Y-94506317D02*
X99132571Y-94361174D01*
X99132571Y-94361174D02*
X99060000Y-94288602D01*
X99060000Y-94288602D02*
X98914857Y-94216031D01*
X104401904Y-95817619D02*
X104401904Y-94817619D01*
X103830476Y-95817619D02*
X104259047Y-95246190D01*
X103830476Y-94817619D02*
X104401904Y-95389047D01*
%TO.C,C3*%
X40639999Y-39548888D02*
X40712571Y-39621460D01*
X40712571Y-39621460D02*
X40930285Y-39694031D01*
X40930285Y-39694031D02*
X41075428Y-39694031D01*
X41075428Y-39694031D02*
X41293142Y-39621460D01*
X41293142Y-39621460D02*
X41438285Y-39476317D01*
X41438285Y-39476317D02*
X41510856Y-39331174D01*
X41510856Y-39331174D02*
X41583428Y-39040888D01*
X41583428Y-39040888D02*
X41583428Y-38823174D01*
X41583428Y-38823174D02*
X41510856Y-38532888D01*
X41510856Y-38532888D02*
X41438285Y-38387745D01*
X41438285Y-38387745D02*
X41293142Y-38242602D01*
X41293142Y-38242602D02*
X41075428Y-38170031D01*
X41075428Y-38170031D02*
X40930285Y-38170031D01*
X40930285Y-38170031D02*
X40712571Y-38242602D01*
X40712571Y-38242602D02*
X40639999Y-38315174D01*
X40131999Y-38170031D02*
X39188571Y-38170031D01*
X39188571Y-38170031D02*
X39696571Y-38750602D01*
X39696571Y-38750602D02*
X39478856Y-38750602D01*
X39478856Y-38750602D02*
X39333714Y-38823174D01*
X39333714Y-38823174D02*
X39261142Y-38895745D01*
X39261142Y-38895745D02*
X39188571Y-39040888D01*
X39188571Y-39040888D02*
X39188571Y-39403745D01*
X39188571Y-39403745D02*
X39261142Y-39548888D01*
X39261142Y-39548888D02*
X39333714Y-39621460D01*
X39333714Y-39621460D02*
X39478856Y-39694031D01*
X39478856Y-39694031D02*
X39914285Y-39694031D01*
X39914285Y-39694031D02*
X40059428Y-39621460D01*
X40059428Y-39621460D02*
X40131999Y-39548888D01*
%TO.C,D29*%
X64080571Y-190990031D02*
X64080571Y-189466031D01*
X64080571Y-189466031D02*
X63717714Y-189466031D01*
X63717714Y-189466031D02*
X63500000Y-189538602D01*
X63500000Y-189538602D02*
X63354857Y-189683745D01*
X63354857Y-189683745D02*
X63282286Y-189828888D01*
X63282286Y-189828888D02*
X63209714Y-190119174D01*
X63209714Y-190119174D02*
X63209714Y-190336888D01*
X63209714Y-190336888D02*
X63282286Y-190627174D01*
X63282286Y-190627174D02*
X63354857Y-190772317D01*
X63354857Y-190772317D02*
X63500000Y-190917460D01*
X63500000Y-190917460D02*
X63717714Y-190990031D01*
X63717714Y-190990031D02*
X64080571Y-190990031D01*
X62629143Y-189611174D02*
X62556571Y-189538602D01*
X62556571Y-189538602D02*
X62411429Y-189466031D01*
X62411429Y-189466031D02*
X62048571Y-189466031D01*
X62048571Y-189466031D02*
X61903429Y-189538602D01*
X61903429Y-189538602D02*
X61830857Y-189611174D01*
X61830857Y-189611174D02*
X61758286Y-189756317D01*
X61758286Y-189756317D02*
X61758286Y-189901460D01*
X61758286Y-189901460D02*
X61830857Y-190119174D01*
X61830857Y-190119174D02*
X62701714Y-190990031D01*
X62701714Y-190990031D02*
X61758286Y-190990031D01*
X61032571Y-190990031D02*
X60742285Y-190990031D01*
X60742285Y-190990031D02*
X60597142Y-190917460D01*
X60597142Y-190917460D02*
X60524571Y-190844888D01*
X60524571Y-190844888D02*
X60379428Y-190627174D01*
X60379428Y-190627174D02*
X60306857Y-190336888D01*
X60306857Y-190336888D02*
X60306857Y-189756317D01*
X60306857Y-189756317D02*
X60379428Y-189611174D01*
X60379428Y-189611174D02*
X60452000Y-189538602D01*
X60452000Y-189538602D02*
X60597142Y-189466031D01*
X60597142Y-189466031D02*
X60887428Y-189466031D01*
X60887428Y-189466031D02*
X61032571Y-189538602D01*
X61032571Y-189538602D02*
X61105142Y-189611174D01*
X61105142Y-189611174D02*
X61177714Y-189756317D01*
X61177714Y-189756317D02*
X61177714Y-190119174D01*
X61177714Y-190119174D02*
X61105142Y-190264317D01*
X61105142Y-190264317D02*
X61032571Y-190336888D01*
X61032571Y-190336888D02*
X60887428Y-190409460D01*
X60887428Y-190409460D02*
X60597142Y-190409460D01*
X60597142Y-190409460D02*
X60452000Y-190336888D01*
X60452000Y-190336888D02*
X60379428Y-190264317D01*
X60379428Y-190264317D02*
X60306857Y-190119174D01*
X66301904Y-191067619D02*
X66301904Y-190067619D01*
X65730476Y-191067619D02*
X66159047Y-190496190D01*
X65730476Y-190067619D02*
X66301904Y-190639047D01*
%TO.C,D22*%
X83130571Y-152890031D02*
X83130571Y-151366031D01*
X83130571Y-151366031D02*
X82767714Y-151366031D01*
X82767714Y-151366031D02*
X82550000Y-151438602D01*
X82550000Y-151438602D02*
X82404857Y-151583745D01*
X82404857Y-151583745D02*
X82332286Y-151728888D01*
X82332286Y-151728888D02*
X82259714Y-152019174D01*
X82259714Y-152019174D02*
X82259714Y-152236888D01*
X82259714Y-152236888D02*
X82332286Y-152527174D01*
X82332286Y-152527174D02*
X82404857Y-152672317D01*
X82404857Y-152672317D02*
X82550000Y-152817460D01*
X82550000Y-152817460D02*
X82767714Y-152890031D01*
X82767714Y-152890031D02*
X83130571Y-152890031D01*
X81679143Y-151511174D02*
X81606571Y-151438602D01*
X81606571Y-151438602D02*
X81461429Y-151366031D01*
X81461429Y-151366031D02*
X81098571Y-151366031D01*
X81098571Y-151366031D02*
X80953429Y-151438602D01*
X80953429Y-151438602D02*
X80880857Y-151511174D01*
X80880857Y-151511174D02*
X80808286Y-151656317D01*
X80808286Y-151656317D02*
X80808286Y-151801460D01*
X80808286Y-151801460D02*
X80880857Y-152019174D01*
X80880857Y-152019174D02*
X81751714Y-152890031D01*
X81751714Y-152890031D02*
X80808286Y-152890031D01*
X80227714Y-151511174D02*
X80155142Y-151438602D01*
X80155142Y-151438602D02*
X80010000Y-151366031D01*
X80010000Y-151366031D02*
X79647142Y-151366031D01*
X79647142Y-151366031D02*
X79502000Y-151438602D01*
X79502000Y-151438602D02*
X79429428Y-151511174D01*
X79429428Y-151511174D02*
X79356857Y-151656317D01*
X79356857Y-151656317D02*
X79356857Y-151801460D01*
X79356857Y-151801460D02*
X79429428Y-152019174D01*
X79429428Y-152019174D02*
X80300285Y-152890031D01*
X80300285Y-152890031D02*
X79356857Y-152890031D01*
X85351904Y-152967619D02*
X85351904Y-151967619D01*
X84780476Y-152967619D02*
X85209047Y-152396190D01*
X84780476Y-151967619D02*
X85351904Y-152539047D01*
%TO.C,D20*%
X45030571Y-152890031D02*
X45030571Y-151366031D01*
X45030571Y-151366031D02*
X44667714Y-151366031D01*
X44667714Y-151366031D02*
X44450000Y-151438602D01*
X44450000Y-151438602D02*
X44304857Y-151583745D01*
X44304857Y-151583745D02*
X44232286Y-151728888D01*
X44232286Y-151728888D02*
X44159714Y-152019174D01*
X44159714Y-152019174D02*
X44159714Y-152236888D01*
X44159714Y-152236888D02*
X44232286Y-152527174D01*
X44232286Y-152527174D02*
X44304857Y-152672317D01*
X44304857Y-152672317D02*
X44450000Y-152817460D01*
X44450000Y-152817460D02*
X44667714Y-152890031D01*
X44667714Y-152890031D02*
X45030571Y-152890031D01*
X43579143Y-151511174D02*
X43506571Y-151438602D01*
X43506571Y-151438602D02*
X43361429Y-151366031D01*
X43361429Y-151366031D02*
X42998571Y-151366031D01*
X42998571Y-151366031D02*
X42853429Y-151438602D01*
X42853429Y-151438602D02*
X42780857Y-151511174D01*
X42780857Y-151511174D02*
X42708286Y-151656317D01*
X42708286Y-151656317D02*
X42708286Y-151801460D01*
X42708286Y-151801460D02*
X42780857Y-152019174D01*
X42780857Y-152019174D02*
X43651714Y-152890031D01*
X43651714Y-152890031D02*
X42708286Y-152890031D01*
X41764857Y-151366031D02*
X41619714Y-151366031D01*
X41619714Y-151366031D02*
X41474571Y-151438602D01*
X41474571Y-151438602D02*
X41402000Y-151511174D01*
X41402000Y-151511174D02*
X41329428Y-151656317D01*
X41329428Y-151656317D02*
X41256857Y-151946602D01*
X41256857Y-151946602D02*
X41256857Y-152309460D01*
X41256857Y-152309460D02*
X41329428Y-152599745D01*
X41329428Y-152599745D02*
X41402000Y-152744888D01*
X41402000Y-152744888D02*
X41474571Y-152817460D01*
X41474571Y-152817460D02*
X41619714Y-152890031D01*
X41619714Y-152890031D02*
X41764857Y-152890031D01*
X41764857Y-152890031D02*
X41910000Y-152817460D01*
X41910000Y-152817460D02*
X41982571Y-152744888D01*
X41982571Y-152744888D02*
X42055142Y-152599745D01*
X42055142Y-152599745D02*
X42127714Y-152309460D01*
X42127714Y-152309460D02*
X42127714Y-151946602D01*
X42127714Y-151946602D02*
X42055142Y-151656317D01*
X42055142Y-151656317D02*
X41982571Y-151511174D01*
X41982571Y-151511174D02*
X41910000Y-151438602D01*
X41910000Y-151438602D02*
X41764857Y-151366031D01*
X47251904Y-152967619D02*
X47251904Y-151967619D01*
X46680476Y-152967619D02*
X47109047Y-152396190D01*
X46680476Y-151967619D02*
X47251904Y-152539047D01*
%TO.C,U1*%
X41420142Y-32201031D02*
X41420142Y-33434745D01*
X41420142Y-33434745D02*
X41347571Y-33579888D01*
X41347571Y-33579888D02*
X41275000Y-33652460D01*
X41275000Y-33652460D02*
X41129857Y-33725031D01*
X41129857Y-33725031D02*
X40839571Y-33725031D01*
X40839571Y-33725031D02*
X40694428Y-33652460D01*
X40694428Y-33652460D02*
X40621857Y-33579888D01*
X40621857Y-33579888D02*
X40549285Y-33434745D01*
X40549285Y-33434745D02*
X40549285Y-32201031D01*
X39025286Y-33725031D02*
X39896143Y-33725031D01*
X39460714Y-33725031D02*
X39460714Y-32201031D01*
X39460714Y-32201031D02*
X39605857Y-32418745D01*
X39605857Y-32418745D02*
X39751000Y-32563888D01*
X39751000Y-32563888D02*
X39896143Y-32636460D01*
%TO.C,D30*%
X92655571Y-191625031D02*
X92655571Y-190101031D01*
X92655571Y-190101031D02*
X92292714Y-190101031D01*
X92292714Y-190101031D02*
X92075000Y-190173602D01*
X92075000Y-190173602D02*
X91929857Y-190318745D01*
X91929857Y-190318745D02*
X91857286Y-190463888D01*
X91857286Y-190463888D02*
X91784714Y-190754174D01*
X91784714Y-190754174D02*
X91784714Y-190971888D01*
X91784714Y-190971888D02*
X91857286Y-191262174D01*
X91857286Y-191262174D02*
X91929857Y-191407317D01*
X91929857Y-191407317D02*
X92075000Y-191552460D01*
X92075000Y-191552460D02*
X92292714Y-191625031D01*
X92292714Y-191625031D02*
X92655571Y-191625031D01*
X91276714Y-190101031D02*
X90333286Y-190101031D01*
X90333286Y-190101031D02*
X90841286Y-190681602D01*
X90841286Y-190681602D02*
X90623571Y-190681602D01*
X90623571Y-190681602D02*
X90478429Y-190754174D01*
X90478429Y-190754174D02*
X90405857Y-190826745D01*
X90405857Y-190826745D02*
X90333286Y-190971888D01*
X90333286Y-190971888D02*
X90333286Y-191334745D01*
X90333286Y-191334745D02*
X90405857Y-191479888D01*
X90405857Y-191479888D02*
X90478429Y-191552460D01*
X90478429Y-191552460D02*
X90623571Y-191625031D01*
X90623571Y-191625031D02*
X91059000Y-191625031D01*
X91059000Y-191625031D02*
X91204143Y-191552460D01*
X91204143Y-191552460D02*
X91276714Y-191479888D01*
X89389857Y-190101031D02*
X89244714Y-190101031D01*
X89244714Y-190101031D02*
X89099571Y-190173602D01*
X89099571Y-190173602D02*
X89027000Y-190246174D01*
X89027000Y-190246174D02*
X88954428Y-190391317D01*
X88954428Y-190391317D02*
X88881857Y-190681602D01*
X88881857Y-190681602D02*
X88881857Y-191044460D01*
X88881857Y-191044460D02*
X88954428Y-191334745D01*
X88954428Y-191334745D02*
X89027000Y-191479888D01*
X89027000Y-191479888D02*
X89099571Y-191552460D01*
X89099571Y-191552460D02*
X89244714Y-191625031D01*
X89244714Y-191625031D02*
X89389857Y-191625031D01*
X89389857Y-191625031D02*
X89535000Y-191552460D01*
X89535000Y-191552460D02*
X89607571Y-191479888D01*
X89607571Y-191479888D02*
X89680142Y-191334745D01*
X89680142Y-191334745D02*
X89752714Y-191044460D01*
X89752714Y-191044460D02*
X89752714Y-190681602D01*
X89752714Y-190681602D02*
X89680142Y-190391317D01*
X89680142Y-190391317D02*
X89607571Y-190246174D01*
X89607571Y-190246174D02*
X89535000Y-190173602D01*
X89535000Y-190173602D02*
X89389857Y-190101031D01*
X94876904Y-191702619D02*
X94876904Y-190702619D01*
X94305476Y-191702619D02*
X94734047Y-191131190D01*
X94305476Y-190702619D02*
X94876904Y-191274047D01*
%TO.C,D7*%
X44304856Y-95740031D02*
X44304856Y-94216031D01*
X44304856Y-94216031D02*
X43941999Y-94216031D01*
X43941999Y-94216031D02*
X43724285Y-94288602D01*
X43724285Y-94288602D02*
X43579142Y-94433745D01*
X43579142Y-94433745D02*
X43506571Y-94578888D01*
X43506571Y-94578888D02*
X43433999Y-94869174D01*
X43433999Y-94869174D02*
X43433999Y-95086888D01*
X43433999Y-95086888D02*
X43506571Y-95377174D01*
X43506571Y-95377174D02*
X43579142Y-95522317D01*
X43579142Y-95522317D02*
X43724285Y-95667460D01*
X43724285Y-95667460D02*
X43941999Y-95740031D01*
X43941999Y-95740031D02*
X44304856Y-95740031D01*
X42925999Y-94216031D02*
X41909999Y-94216031D01*
X41909999Y-94216031D02*
X42563142Y-95740031D01*
X47251904Y-95817619D02*
X47251904Y-94817619D01*
X46680476Y-95817619D02*
X47109047Y-95246190D01*
X46680476Y-94817619D02*
X47251904Y-95389047D01*
%TO.C,D15*%
X102180571Y-114790031D02*
X102180571Y-113266031D01*
X102180571Y-113266031D02*
X101817714Y-113266031D01*
X101817714Y-113266031D02*
X101600000Y-113338602D01*
X101600000Y-113338602D02*
X101454857Y-113483745D01*
X101454857Y-113483745D02*
X101382286Y-113628888D01*
X101382286Y-113628888D02*
X101309714Y-113919174D01*
X101309714Y-113919174D02*
X101309714Y-114136888D01*
X101309714Y-114136888D02*
X101382286Y-114427174D01*
X101382286Y-114427174D02*
X101454857Y-114572317D01*
X101454857Y-114572317D02*
X101600000Y-114717460D01*
X101600000Y-114717460D02*
X101817714Y-114790031D01*
X101817714Y-114790031D02*
X102180571Y-114790031D01*
X99858286Y-114790031D02*
X100729143Y-114790031D01*
X100293714Y-114790031D02*
X100293714Y-113266031D01*
X100293714Y-113266031D02*
X100438857Y-113483745D01*
X100438857Y-113483745D02*
X100584000Y-113628888D01*
X100584000Y-113628888D02*
X100729143Y-113701460D01*
X98479428Y-113266031D02*
X99205142Y-113266031D01*
X99205142Y-113266031D02*
X99277714Y-113991745D01*
X99277714Y-113991745D02*
X99205142Y-113919174D01*
X99205142Y-113919174D02*
X99060000Y-113846602D01*
X99060000Y-113846602D02*
X98697142Y-113846602D01*
X98697142Y-113846602D02*
X98552000Y-113919174D01*
X98552000Y-113919174D02*
X98479428Y-113991745D01*
X98479428Y-113991745D02*
X98406857Y-114136888D01*
X98406857Y-114136888D02*
X98406857Y-114499745D01*
X98406857Y-114499745D02*
X98479428Y-114644888D01*
X98479428Y-114644888D02*
X98552000Y-114717460D01*
X98552000Y-114717460D02*
X98697142Y-114790031D01*
X98697142Y-114790031D02*
X99060000Y-114790031D01*
X99060000Y-114790031D02*
X99205142Y-114717460D01*
X99205142Y-114717460D02*
X99277714Y-114644888D01*
X104401904Y-114867619D02*
X104401904Y-113867619D01*
X103830476Y-114867619D02*
X104259047Y-114296190D01*
X103830476Y-113867619D02*
X104401904Y-114439047D01*
%TO.C,D3*%
X44304856Y-76690031D02*
X44304856Y-75166031D01*
X44304856Y-75166031D02*
X43941999Y-75166031D01*
X43941999Y-75166031D02*
X43724285Y-75238602D01*
X43724285Y-75238602D02*
X43579142Y-75383745D01*
X43579142Y-75383745D02*
X43506571Y-75528888D01*
X43506571Y-75528888D02*
X43433999Y-75819174D01*
X43433999Y-75819174D02*
X43433999Y-76036888D01*
X43433999Y-76036888D02*
X43506571Y-76327174D01*
X43506571Y-76327174D02*
X43579142Y-76472317D01*
X43579142Y-76472317D02*
X43724285Y-76617460D01*
X43724285Y-76617460D02*
X43941999Y-76690031D01*
X43941999Y-76690031D02*
X44304856Y-76690031D01*
X42925999Y-75166031D02*
X41982571Y-75166031D01*
X41982571Y-75166031D02*
X42490571Y-75746602D01*
X42490571Y-75746602D02*
X42272856Y-75746602D01*
X42272856Y-75746602D02*
X42127714Y-75819174D01*
X42127714Y-75819174D02*
X42055142Y-75891745D01*
X42055142Y-75891745D02*
X41982571Y-76036888D01*
X41982571Y-76036888D02*
X41982571Y-76399745D01*
X41982571Y-76399745D02*
X42055142Y-76544888D01*
X42055142Y-76544888D02*
X42127714Y-76617460D01*
X42127714Y-76617460D02*
X42272856Y-76690031D01*
X42272856Y-76690031D02*
X42708285Y-76690031D01*
X42708285Y-76690031D02*
X42853428Y-76617460D01*
X42853428Y-76617460D02*
X42925999Y-76544888D01*
X47251904Y-76767619D02*
X47251904Y-75767619D01*
X46680476Y-76767619D02*
X47109047Y-76196190D01*
X46680476Y-75767619D02*
X47251904Y-76339047D01*
D11*
%TO.C,BT1*%
X90019285Y-78801190D02*
X90162142Y-78753571D01*
X90162142Y-78753571D02*
X90209761Y-78705952D01*
X90209761Y-78705952D02*
X90257380Y-78610714D01*
X90257380Y-78610714D02*
X90257380Y-78467857D01*
X90257380Y-78467857D02*
X90209761Y-78372619D01*
X90209761Y-78372619D02*
X90162142Y-78325000D01*
X90162142Y-78325000D02*
X90066904Y-78277380D01*
X90066904Y-78277380D02*
X89685952Y-78277380D01*
X89685952Y-78277380D02*
X89685952Y-79277380D01*
X89685952Y-79277380D02*
X90019285Y-79277380D01*
X90019285Y-79277380D02*
X90114523Y-79229761D01*
X90114523Y-79229761D02*
X90162142Y-79182142D01*
X90162142Y-79182142D02*
X90209761Y-79086904D01*
X90209761Y-79086904D02*
X90209761Y-78991666D01*
X90209761Y-78991666D02*
X90162142Y-78896428D01*
X90162142Y-78896428D02*
X90114523Y-78848809D01*
X90114523Y-78848809D02*
X90019285Y-78801190D01*
X90019285Y-78801190D02*
X89685952Y-78801190D01*
X90543095Y-79277380D02*
X91114523Y-79277380D01*
X90828809Y-78277380D02*
X90828809Y-79277380D01*
X91971666Y-78277380D02*
X91400238Y-78277380D01*
X91685952Y-78277380D02*
X91685952Y-79277380D01*
X91685952Y-79277380D02*
X91590714Y-79134523D01*
X91590714Y-79134523D02*
X91495476Y-79039285D01*
X91495476Y-79039285D02*
X91400238Y-78991666D01*
D10*
%TO.C,D25*%
X64080571Y-171940031D02*
X64080571Y-170416031D01*
X64080571Y-170416031D02*
X63717714Y-170416031D01*
X63717714Y-170416031D02*
X63500000Y-170488602D01*
X63500000Y-170488602D02*
X63354857Y-170633745D01*
X63354857Y-170633745D02*
X63282286Y-170778888D01*
X63282286Y-170778888D02*
X63209714Y-171069174D01*
X63209714Y-171069174D02*
X63209714Y-171286888D01*
X63209714Y-171286888D02*
X63282286Y-171577174D01*
X63282286Y-171577174D02*
X63354857Y-171722317D01*
X63354857Y-171722317D02*
X63500000Y-171867460D01*
X63500000Y-171867460D02*
X63717714Y-171940031D01*
X63717714Y-171940031D02*
X64080571Y-171940031D01*
X62629143Y-170561174D02*
X62556571Y-170488602D01*
X62556571Y-170488602D02*
X62411429Y-170416031D01*
X62411429Y-170416031D02*
X62048571Y-170416031D01*
X62048571Y-170416031D02*
X61903429Y-170488602D01*
X61903429Y-170488602D02*
X61830857Y-170561174D01*
X61830857Y-170561174D02*
X61758286Y-170706317D01*
X61758286Y-170706317D02*
X61758286Y-170851460D01*
X61758286Y-170851460D02*
X61830857Y-171069174D01*
X61830857Y-171069174D02*
X62701714Y-171940031D01*
X62701714Y-171940031D02*
X61758286Y-171940031D01*
X60379428Y-170416031D02*
X61105142Y-170416031D01*
X61105142Y-170416031D02*
X61177714Y-171141745D01*
X61177714Y-171141745D02*
X61105142Y-171069174D01*
X61105142Y-171069174D02*
X60960000Y-170996602D01*
X60960000Y-170996602D02*
X60597142Y-170996602D01*
X60597142Y-170996602D02*
X60452000Y-171069174D01*
X60452000Y-171069174D02*
X60379428Y-171141745D01*
X60379428Y-171141745D02*
X60306857Y-171286888D01*
X60306857Y-171286888D02*
X60306857Y-171649745D01*
X60306857Y-171649745D02*
X60379428Y-171794888D01*
X60379428Y-171794888D02*
X60452000Y-171867460D01*
X60452000Y-171867460D02*
X60597142Y-171940031D01*
X60597142Y-171940031D02*
X60960000Y-171940031D01*
X60960000Y-171940031D02*
X61105142Y-171867460D01*
X61105142Y-171867460D02*
X61177714Y-171794888D01*
X66301904Y-172017619D02*
X66301904Y-171017619D01*
X65730476Y-172017619D02*
X66159047Y-171446190D01*
X65730476Y-171017619D02*
X66301904Y-171589047D01*
D12*
%TO.C,D16*%
X45950000Y-135255000D02*
X45300000Y-135255000D01*
X45300000Y-136375000D02*
X41060000Y-136375000D01*
X45300000Y-134135000D02*
X45300000Y-136375000D01*
X44700000Y-134135000D02*
X44700000Y-136375000D01*
X44580000Y-134135000D02*
X44580000Y-136375000D01*
X44460000Y-134135000D02*
X44460000Y-136375000D01*
X41060000Y-136375000D02*
X41060000Y-134135000D01*
X41060000Y-134135000D02*
X45300000Y-134135000D01*
X40410000Y-135255000D02*
X41060000Y-135255000D01*
%TO.C,D18*%
X84050000Y-135255000D02*
X83400000Y-135255000D01*
X83400000Y-136375000D02*
X79160000Y-136375000D01*
X83400000Y-134135000D02*
X83400000Y-136375000D01*
X82800000Y-134135000D02*
X82800000Y-136375000D01*
X82680000Y-134135000D02*
X82680000Y-136375000D01*
X82560000Y-134135000D02*
X82560000Y-136375000D01*
X79160000Y-136375000D02*
X79160000Y-134135000D01*
X79160000Y-134135000D02*
X83400000Y-134135000D01*
X78510000Y-135255000D02*
X79160000Y-135255000D01*
%TO.C,D13*%
X65000000Y-116205000D02*
X64350000Y-116205000D01*
X64350000Y-117325000D02*
X60110000Y-117325000D01*
X64350000Y-115085000D02*
X64350000Y-117325000D01*
X63750000Y-115085000D02*
X63750000Y-117325000D01*
X63630000Y-115085000D02*
X63630000Y-117325000D01*
X63510000Y-115085000D02*
X63510000Y-117325000D01*
X60110000Y-117325000D02*
X60110000Y-115085000D01*
X60110000Y-115085000D02*
X64350000Y-115085000D01*
X59460000Y-116205000D02*
X60110000Y-116205000D01*
%TO.C,D21*%
X65000000Y-154305000D02*
X64350000Y-154305000D01*
X64350000Y-155425000D02*
X60110000Y-155425000D01*
X64350000Y-153185000D02*
X64350000Y-155425000D01*
X63750000Y-153185000D02*
X63750000Y-155425000D01*
X63630000Y-153185000D02*
X63630000Y-155425000D01*
X63510000Y-153185000D02*
X63510000Y-155425000D01*
X60110000Y-155425000D02*
X60110000Y-153185000D01*
X60110000Y-153185000D02*
X64350000Y-153185000D01*
X59460000Y-154305000D02*
X60110000Y-154305000D01*
%TO.C,RV1*%
X31200000Y-45525000D02*
X32719000Y-45525000D01*
X31200000Y-46535000D02*
X31959000Y-46535000D01*
X31200000Y-47545000D02*
X31200000Y-45525000D01*
X31200000Y-47545000D02*
X32719000Y-47545000D01*
X32719000Y-47545000D02*
X32719000Y-45525000D01*
X32720000Y-40975000D02*
X35546000Y-40975000D01*
X32720000Y-43954000D02*
X32720000Y-40975000D01*
X32720000Y-47925000D02*
X32720000Y-44945000D01*
X32720000Y-47925000D02*
X35546000Y-47925000D01*
X36845000Y-40975000D02*
X39670000Y-40975000D01*
X36845000Y-47925000D02*
X39670000Y-47925000D01*
X39670000Y-47925000D02*
X39670000Y-40975000D01*
%TO.C,D27*%
X103100000Y-172720000D02*
X102450000Y-172720000D01*
X102450000Y-173840000D02*
X98210000Y-173840000D01*
X102450000Y-171600000D02*
X102450000Y-173840000D01*
X101850000Y-171600000D02*
X101850000Y-173840000D01*
X101730000Y-171600000D02*
X101730000Y-173840000D01*
X101610000Y-171600000D02*
X101610000Y-173840000D01*
X98210000Y-173840000D02*
X98210000Y-171600000D01*
X98210000Y-171600000D02*
X102450000Y-171600000D01*
X97560000Y-172720000D02*
X98210000Y-172720000D01*
%TO.C,D24*%
X45950000Y-173355000D02*
X45300000Y-173355000D01*
X45300000Y-174475000D02*
X41060000Y-174475000D01*
X45300000Y-172235000D02*
X45300000Y-174475000D01*
X44700000Y-172235000D02*
X44700000Y-174475000D01*
X44580000Y-172235000D02*
X44580000Y-174475000D01*
X44460000Y-172235000D02*
X44460000Y-174475000D01*
X41060000Y-174475000D02*
X41060000Y-172235000D01*
X41060000Y-172235000D02*
X45300000Y-172235000D01*
X40410000Y-173355000D02*
X41060000Y-173355000D01*
%TO.C,D5*%
X84050000Y-78105000D02*
X83400000Y-78105000D01*
X83400000Y-79225000D02*
X79160000Y-79225000D01*
X83400000Y-76985000D02*
X83400000Y-79225000D01*
X82800000Y-76985000D02*
X82800000Y-79225000D01*
X82680000Y-76985000D02*
X82680000Y-79225000D01*
X82560000Y-76985000D02*
X82560000Y-79225000D01*
X79160000Y-79225000D02*
X79160000Y-76985000D01*
X79160000Y-76985000D02*
X83400000Y-76985000D01*
X78510000Y-78105000D02*
X79160000Y-78105000D01*
%TO.C,D9*%
X84050000Y-97155000D02*
X83400000Y-97155000D01*
X83400000Y-98275000D02*
X79160000Y-98275000D01*
X83400000Y-96035000D02*
X83400000Y-98275000D01*
X82800000Y-96035000D02*
X82800000Y-98275000D01*
X82680000Y-96035000D02*
X82680000Y-98275000D01*
X82560000Y-96035000D02*
X82560000Y-98275000D01*
X79160000Y-98275000D02*
X79160000Y-96035000D01*
X79160000Y-96035000D02*
X83400000Y-96035000D01*
X78510000Y-97155000D02*
X79160000Y-97155000D01*
%TO.C,D19*%
X103100000Y-135255000D02*
X102450000Y-135255000D01*
X102450000Y-136375000D02*
X98210000Y-136375000D01*
X102450000Y-134135000D02*
X102450000Y-136375000D01*
X101850000Y-134135000D02*
X101850000Y-136375000D01*
X101730000Y-134135000D02*
X101730000Y-136375000D01*
X101610000Y-134135000D02*
X101610000Y-136375000D01*
X98210000Y-136375000D02*
X98210000Y-134135000D01*
X98210000Y-134135000D02*
X102450000Y-134135000D01*
X97560000Y-135255000D02*
X98210000Y-135255000D01*
%TO.C,D8*%
X65000000Y-97155000D02*
X64350000Y-97155000D01*
X64350000Y-98275000D02*
X60110000Y-98275000D01*
X64350000Y-96035000D02*
X64350000Y-98275000D01*
X63750000Y-96035000D02*
X63750000Y-98275000D01*
X63630000Y-96035000D02*
X63630000Y-98275000D01*
X63510000Y-96035000D02*
X63510000Y-98275000D01*
X60110000Y-98275000D02*
X60110000Y-96035000D01*
X60110000Y-96035000D02*
X64350000Y-96035000D01*
X59460000Y-97155000D02*
X60110000Y-97155000D01*
%TO.C,D26*%
X84050000Y-172720000D02*
X83400000Y-172720000D01*
X83400000Y-173840000D02*
X79160000Y-173840000D01*
X83400000Y-171600000D02*
X83400000Y-173840000D01*
X82800000Y-171600000D02*
X82800000Y-173840000D01*
X82680000Y-171600000D02*
X82680000Y-173840000D01*
X82560000Y-171600000D02*
X82560000Y-173840000D01*
X79160000Y-173840000D02*
X79160000Y-171600000D01*
X79160000Y-171600000D02*
X83400000Y-171600000D01*
X78510000Y-172720000D02*
X79160000Y-172720000D01*
%TO.C,D14*%
X84050000Y-116205000D02*
X83400000Y-116205000D01*
X83400000Y-117325000D02*
X79160000Y-117325000D01*
X83400000Y-115085000D02*
X83400000Y-117325000D01*
X82800000Y-115085000D02*
X82800000Y-117325000D01*
X82680000Y-115085000D02*
X82680000Y-117325000D01*
X82560000Y-115085000D02*
X82560000Y-117325000D01*
X79160000Y-117325000D02*
X79160000Y-115085000D01*
X79160000Y-115085000D02*
X83400000Y-115085000D01*
X78510000Y-116205000D02*
X79160000Y-116205000D01*
%TO.C,D12*%
X45950000Y-116205000D02*
X45300000Y-116205000D01*
X45300000Y-117325000D02*
X41060000Y-117325000D01*
X45300000Y-115085000D02*
X45300000Y-117325000D01*
X44700000Y-115085000D02*
X44700000Y-117325000D01*
X44580000Y-115085000D02*
X44580000Y-117325000D01*
X44460000Y-115085000D02*
X44460000Y-117325000D01*
X41060000Y-117325000D02*
X41060000Y-115085000D01*
X41060000Y-115085000D02*
X45300000Y-115085000D01*
X40410000Y-116205000D02*
X41060000Y-116205000D01*
%TO.C,D17*%
X65000000Y-135255000D02*
X64350000Y-135255000D01*
X64350000Y-136375000D02*
X60110000Y-136375000D01*
X64350000Y-134135000D02*
X64350000Y-136375000D01*
X63750000Y-134135000D02*
X63750000Y-136375000D01*
X63630000Y-134135000D02*
X63630000Y-136375000D01*
X63510000Y-134135000D02*
X63510000Y-136375000D01*
X60110000Y-136375000D02*
X60110000Y-134135000D01*
X60110000Y-134135000D02*
X64350000Y-134135000D01*
X59460000Y-135255000D02*
X60110000Y-135255000D01*
%TO.C,C2*%
X38180000Y-28040000D02*
X32940000Y-28040000D01*
X38180000Y-25300000D02*
X38180000Y-28040000D01*
X38180000Y-25300000D02*
X32940000Y-25300000D01*
X32940000Y-25300000D02*
X32940000Y-28040000D01*
D11*
%TO.C,SW5*%
X118212000Y-43180000D02*
X114402000Y-43180000D01*
X118212000Y-38100000D02*
X118212000Y-43180000D01*
X114402000Y-38100000D02*
X118212000Y-38100000D01*
X112878000Y-46990000D02*
X112878000Y-44704000D01*
X112878000Y-36576000D02*
X112878000Y-34290000D01*
X112878000Y-34290000D02*
X102718000Y-34290000D01*
X102718000Y-46990000D02*
X112878000Y-46990000D01*
X102718000Y-34290000D02*
X102718000Y-46990000D01*
D12*
%TO.C,J1*%
X99135000Y-18985000D02*
X99135000Y-24185000D01*
X93995000Y-18985000D02*
X99135000Y-18985000D01*
X93995000Y-18985000D02*
X93995000Y-21585000D01*
X92725000Y-18985000D02*
X91395000Y-18985000D01*
X91395000Y-18985000D02*
X91395000Y-20315000D01*
X93995000Y-21585000D02*
X91395000Y-21585000D01*
X91395000Y-21585000D02*
X91395000Y-24185000D01*
X91395000Y-24185000D02*
X99135000Y-24185000D01*
%TO.C,D28*%
X45950000Y-192405000D02*
X45300000Y-192405000D01*
X45300000Y-193525000D02*
X41060000Y-193525000D01*
X45300000Y-191285000D02*
X45300000Y-193525000D01*
X44700000Y-191285000D02*
X44700000Y-193525000D01*
X44580000Y-191285000D02*
X44580000Y-193525000D01*
X44460000Y-191285000D02*
X44460000Y-193525000D01*
X41060000Y-193525000D02*
X41060000Y-191285000D01*
X41060000Y-191285000D02*
X45300000Y-191285000D01*
X40410000Y-192405000D02*
X41060000Y-192405000D01*
%TO.C,D23*%
X103100000Y-154305000D02*
X102450000Y-154305000D01*
X102450000Y-155425000D02*
X98210000Y-155425000D01*
X102450000Y-153185000D02*
X102450000Y-155425000D01*
X101850000Y-153185000D02*
X101850000Y-155425000D01*
X101730000Y-153185000D02*
X101730000Y-155425000D01*
X101610000Y-153185000D02*
X101610000Y-155425000D01*
X98210000Y-155425000D02*
X98210000Y-153185000D01*
X98210000Y-153185000D02*
X102450000Y-153185000D01*
X97560000Y-154305000D02*
X98210000Y-154305000D01*
%TO.C,D4*%
X65000000Y-78105000D02*
X64350000Y-78105000D01*
X64350000Y-79225000D02*
X60110000Y-79225000D01*
X64350000Y-76985000D02*
X64350000Y-79225000D01*
X63750000Y-76985000D02*
X63750000Y-79225000D01*
X63630000Y-76985000D02*
X63630000Y-79225000D01*
X63510000Y-76985000D02*
X63510000Y-79225000D01*
X60110000Y-79225000D02*
X60110000Y-76985000D01*
X60110000Y-76985000D02*
X64350000Y-76985000D01*
X59460000Y-78105000D02*
X60110000Y-78105000D01*
%TO.C,D6*%
X103100000Y-78105000D02*
X102450000Y-78105000D01*
X102450000Y-79225000D02*
X98210000Y-79225000D01*
X102450000Y-76985000D02*
X102450000Y-79225000D01*
X101850000Y-76985000D02*
X101850000Y-79225000D01*
X101730000Y-76985000D02*
X101730000Y-79225000D01*
X101610000Y-76985000D02*
X101610000Y-79225000D01*
X98210000Y-79225000D02*
X98210000Y-76985000D01*
X98210000Y-76985000D02*
X102450000Y-76985000D01*
X97560000Y-78105000D02*
X98210000Y-78105000D01*
%TO.C,D10*%
X103100000Y-97155000D02*
X102450000Y-97155000D01*
X102450000Y-98275000D02*
X98210000Y-98275000D01*
X102450000Y-96035000D02*
X102450000Y-98275000D01*
X101850000Y-96035000D02*
X101850000Y-98275000D01*
X101730000Y-96035000D02*
X101730000Y-98275000D01*
X101610000Y-96035000D02*
X101610000Y-98275000D01*
X98210000Y-98275000D02*
X98210000Y-96035000D01*
X98210000Y-96035000D02*
X102450000Y-96035000D01*
X97560000Y-97155000D02*
X98210000Y-97155000D01*
%TO.C,C3*%
X37946000Y-40359000D02*
X32706000Y-40359000D01*
X37946000Y-37619000D02*
X37946000Y-40359000D01*
X37946000Y-37619000D02*
X32706000Y-37619000D01*
X32706000Y-37619000D02*
X32706000Y-40359000D01*
%TO.C,D29*%
X65000000Y-192405000D02*
X64350000Y-192405000D01*
X64350000Y-193525000D02*
X60110000Y-193525000D01*
X64350000Y-191285000D02*
X64350000Y-193525000D01*
X63750000Y-191285000D02*
X63750000Y-193525000D01*
X63630000Y-191285000D02*
X63630000Y-193525000D01*
X63510000Y-191285000D02*
X63510000Y-193525000D01*
X60110000Y-193525000D02*
X60110000Y-191285000D01*
X60110000Y-191285000D02*
X64350000Y-191285000D01*
X59460000Y-192405000D02*
X60110000Y-192405000D01*
%TO.C,D22*%
X84050000Y-154305000D02*
X83400000Y-154305000D01*
X83400000Y-155425000D02*
X79160000Y-155425000D01*
X83400000Y-153185000D02*
X83400000Y-155425000D01*
X82800000Y-153185000D02*
X82800000Y-155425000D01*
X82680000Y-153185000D02*
X82680000Y-155425000D01*
X82560000Y-153185000D02*
X82560000Y-155425000D01*
X79160000Y-155425000D02*
X79160000Y-153185000D01*
X79160000Y-153185000D02*
X83400000Y-153185000D01*
X78510000Y-154305000D02*
X79160000Y-154305000D01*
%TO.C,D20*%
X45950000Y-154305000D02*
X45300000Y-154305000D01*
X45300000Y-155425000D02*
X41060000Y-155425000D01*
X45300000Y-153185000D02*
X45300000Y-155425000D01*
X44700000Y-153185000D02*
X44700000Y-155425000D01*
X44580000Y-153185000D02*
X44580000Y-155425000D01*
X44460000Y-153185000D02*
X44460000Y-155425000D01*
X41060000Y-155425000D02*
X41060000Y-153185000D01*
X41060000Y-153185000D02*
X45300000Y-153185000D01*
X40410000Y-154305000D02*
X41060000Y-154305000D01*
%TO.C,U1*%
X37400000Y-36330000D02*
X37400000Y-34150000D01*
X33010000Y-34150000D02*
X33340000Y-34150000D01*
X37730000Y-34150000D02*
X37400000Y-34150000D01*
X37730000Y-34150000D02*
X37730000Y-31430000D01*
X33010000Y-31430000D02*
X33010000Y-34150000D01*
X33340000Y-31430000D02*
X33010000Y-31430000D01*
X37730000Y-31430000D02*
X37400000Y-31430000D01*
%TO.C,D30*%
X93575000Y-193040000D02*
X92925000Y-193040000D01*
X92925000Y-194160000D02*
X88685000Y-194160000D01*
X92925000Y-191920000D02*
X92925000Y-194160000D01*
X92325000Y-191920000D02*
X92325000Y-194160000D01*
X92205000Y-191920000D02*
X92205000Y-194160000D01*
X92085000Y-191920000D02*
X92085000Y-194160000D01*
X88685000Y-194160000D02*
X88685000Y-191920000D01*
X88685000Y-191920000D02*
X92925000Y-191920000D01*
X88035000Y-193040000D02*
X88685000Y-193040000D01*
%TO.C,D7*%
X45950000Y-97155000D02*
X45300000Y-97155000D01*
X45300000Y-98275000D02*
X41060000Y-98275000D01*
X45300000Y-96035000D02*
X45300000Y-98275000D01*
X44700000Y-96035000D02*
X44700000Y-98275000D01*
X44580000Y-96035000D02*
X44580000Y-98275000D01*
X44460000Y-96035000D02*
X44460000Y-98275000D01*
X41060000Y-98275000D02*
X41060000Y-96035000D01*
X41060000Y-96035000D02*
X45300000Y-96035000D01*
X40410000Y-97155000D02*
X41060000Y-97155000D01*
%TO.C,D15*%
X103100000Y-116205000D02*
X102450000Y-116205000D01*
X102450000Y-117325000D02*
X98210000Y-117325000D01*
X102450000Y-115085000D02*
X102450000Y-117325000D01*
X101850000Y-115085000D02*
X101850000Y-117325000D01*
X101730000Y-115085000D02*
X101730000Y-117325000D01*
X101610000Y-115085000D02*
X101610000Y-117325000D01*
X98210000Y-117325000D02*
X98210000Y-115085000D01*
X98210000Y-115085000D02*
X102450000Y-115085000D01*
X97560000Y-116205000D02*
X98210000Y-116205000D01*
%TO.C,D3*%
X45950000Y-78105000D02*
X45300000Y-78105000D01*
X45300000Y-79225000D02*
X41060000Y-79225000D01*
X45300000Y-76985000D02*
X45300000Y-79225000D01*
X44700000Y-76985000D02*
X44700000Y-79225000D01*
X44580000Y-76985000D02*
X44580000Y-79225000D01*
X44460000Y-76985000D02*
X44460000Y-79225000D01*
X41060000Y-79225000D02*
X41060000Y-76985000D01*
X41060000Y-76985000D02*
X45300000Y-76985000D01*
X40410000Y-78105000D02*
X41060000Y-78105000D01*
D11*
%TO.C,BT1*%
X45085000Y-25400000D02*
X98425000Y-25400000D01*
X98425000Y-25400000D02*
X98425000Y-76200000D01*
X98425000Y-76200000D02*
X45085000Y-76200000D01*
X45085000Y-76200000D02*
X45085000Y-25400000D01*
D12*
%TO.C,D25*%
X65000000Y-173355000D02*
X64350000Y-173355000D01*
X64350000Y-174475000D02*
X60110000Y-174475000D01*
X64350000Y-172235000D02*
X64350000Y-174475000D01*
X63750000Y-172235000D02*
X63750000Y-174475000D01*
X63630000Y-172235000D02*
X63630000Y-174475000D01*
X63510000Y-172235000D02*
X63510000Y-174475000D01*
X60110000Y-174475000D02*
X60110000Y-172235000D01*
X60110000Y-172235000D02*
X64350000Y-172235000D01*
X59460000Y-173355000D02*
X60110000Y-173355000D01*
%TD*%
M02*
